<?xml version="1.0" encoding="utf-8"?>
<!-- Generator: Adobe Illustrator 16.0.0, SVG Export Plug-In . SVG Version: 6.00 Build 0)  -->
<!DOCTYPE svg PUBLIC "-//W3C//DTD SVG 1.1//EN" "http://www.w3.org/Graphics/SVG/1.1/DTD/svg11.dtd">
<svg version="1.1" id="图层_1" xmlns="http://www.w3.org/2000/svg" xmlns:xlink="http://www.w3.org/1999/xlink" x="0px" y="0px"
	 width="523px" height="412px" viewBox="0 0 523 412" enable-background="new 0 0 523 412" xml:space="preserve">
<text transform="matrix(1 0 0 1 201.3442 290.5557)" fill="#231815" font-family="'ArialMT'" font-size="10">Search</text>
<text transform="matrix(1 0 0 1 161.9233 164.1221)" fill="#231815" font-family="'ArialMT'" font-size="10">Browse</text>
<text transform="matrix(1 0 0 1 340.6875 181.686)" fill="#231815" font-family="'ArialMT'" font-size="10">Download</text>
<text transform="matrix(1 0 0 1 387.5254 231.4795)" fill="#231815" font-family="'ArialMT'" font-size="10">Statistics</text>
<text transform="matrix(1 0 0 1 249.7607 248.811)" fill="#231815" font-family="'Arial-ItalicMT'" font-size="13">TFMarker</text>
<text transform="matrix(1 0 0 1 161.8032 231.4795)" fill="#231815" font-family="'ArialMT'" font-size="10">Submit</text>
<text transform="matrix(1 0 0 1 344.8203 307.1392)" fill="#EFB134" stroke="#EFB134" stroke-miterlimit="10" font-family="'YouYuan'" font-size="25.1161">？</text>
<text transform="matrix(1.0968 0 0 1 345.959 279.8047)" fill="#231815" font-family="'ArialMT'" font-size="10">Help</text>
<g>
	<defs>
		<rect id="SVGID_1_" x="241.376" y="221.094" width="79.71" height="46.99"/>
	</defs>
	<clipPath id="SVGID_2_">
		<use xlink:href="#SVGID_1_"  overflow="visible"/>
	</clipPath>
	<path clip-path="url(#SVGID_2_)" fill="#0C68AB" d="M271.65,224.465c6.148,0,11.402,3.088,13.51,7.441
		c2.15-2.148,5.441-3.521,9.133-3.521c6.297,0,11.436,4.002,11.713,9.023c0.088,0,0.176,0,0.266,0
		c5.836,0,10.572,3.814,10.572,8.523c0,4.705-4.736,8.523-10.572,8.523c-2.131,0-4.111-0.508-5.771-1.381
		c0.047,0.305,0.066,0.609,0.066,0.914c0,4.309-4.332,7.801-9.678,7.801c-3.803,0-7.09-1.764-8.672-4.334
		c-0.189,0.025-0.381,0.051-0.572,0.068c-1.111,4.057-5.598,7.092-10.963,7.092c-6.201,0-11.226-4.053-11.226-9.053
		c0-0.541,0.059-1.072,0.172-1.59c-1.127,0.32-2.314,0.482-3.51,0.482c-5.84,0-10.575-3.818-10.575-8.523
		c0-4.709,4.734-8.523,10.575-8.523c0.383,0,0.758,0.014,1.129,0.047c-0.061-0.432-0.092-0.869-0.092-1.305
		C257.155,229.695,263.647,224.465,271.65,224.465 M271.65,221.092c-2.52,0-4.967,0.398-7.271,1.186
		c-2.224,0.76-4.222,1.844-5.935,3.225c-1.715,1.385-3.063,2.992-4.002,4.785c-0.67,1.275-1.117,2.619-1.328,3.994
		c-0.939,0.156-1.857,0.387-2.74,0.689c-1.76,0.598-3.338,1.455-4.691,2.549c-1.354,1.092-2.416,2.361-3.16,3.779
		c-0.771,1.469-1.161,3.027-1.161,4.633c0,1.604,0.39,3.162,1.161,4.631c0.744,1.416,1.807,2.689,3.16,3.779
		c1.354,1.094,2.932,1.947,4.691,2.549c1.639,0.561,3.371,0.871,5.15,0.926c0.201,0.887,0.524,1.756,0.961,2.584
		c0.775,1.479,1.887,2.809,3.301,3.949c1.414,1.139,3.061,2.033,4.896,2.66c1.904,0.648,3.922,0.979,6,0.979
		c1.799,0,3.563-0.248,5.244-0.74c1.623-0.471,3.135-1.162,4.473-2.041c0.934-0.613,1.777-1.311,2.512-2.08
		c0.188,0.107,0.379,0.211,0.574,0.311c2.215,1.127,4.775,1.725,7.404,1.725c1.869,0,3.686-0.295,5.395-0.879
		c1.652-0.564,3.135-1.369,4.406-2.395c1.271-1.023,2.271-2.219,2.969-3.549c0.115-0.217,0.219-0.434,0.314-0.656
		c0.76,0.094,1.527,0.145,2.299,0.145c1.988,0,3.922-0.314,5.742-0.938c1.76-0.602,3.338-1.455,4.689-2.549
		c1.355-1.09,2.418-2.363,3.162-3.779c0.771-1.469,1.162-3.027,1.162-4.631c0-1.605-0.391-3.164-1.162-4.633
		c-0.744-1.418-1.807-2.688-3.162-3.779c-1.352-1.094-2.93-1.951-4.689-2.549c-0.779-0.266-1.586-0.48-2.412-0.631
		c-0.225-0.641-0.512-1.268-0.859-1.873c-0.838-1.463-1.992-2.771-3.439-3.887c-1.449-1.121-3.123-2-4.973-2.611
		c-1.922-0.637-3.951-0.957-6.037-0.957c-1.225,0-2.445,0.111-3.637,0.336c-1.154,0.219-2.279,0.543-3.346,0.963
		c-0.359,0.141-0.709,0.293-1.053,0.455c-1.129-1.143-2.461-2.146-3.945-2.979C279.172,222.021,275.486,221.092,271.65,221.092"/>
	<g transform="matrix(1 0 0 1 2.011398e-006 -4.260511e-007)" clip-path="url(#SVGID_2_)">
		
			<image overflow="visible" width="739" height="374" xlink:href="C8103E62.jpg"  transform="matrix(0.2847 0 0 0.4587 -81.3198 -7.3667)">
		</image>
	</g>
</g>
<g>
	<g>
		
			<line fill="none" stroke="#786A56" stroke-miterlimit="10" stroke-dasharray="6.044,6.044" x1="245.913" y1="221.094" x2="207.066" y2="190.545"/>
		<g>
			<polygon fill="#786A56" points="211.563,189.371 208.037,191.309 206.985,195.193 202.374,186.855 			"/>
		</g>
	</g>
</g>
<g>
	<g>
		
			<line fill="none" stroke="#786A56" stroke-miterlimit="10" stroke-dasharray="6,6" x1="303.658" y1="224.66" x2="337.002" y2="204.424"/>
		<g>
			<polygon fill="#786A56" points="336.521,209.047 335.945,205.064 332.68,202.715 342.105,201.326 			"/>
		</g>
	</g>
</g>
<g>
	<g>
		
			<line fill="none" stroke="#786A56" stroke-miterlimit="10" stroke-dasharray="6,6" x1="258.58" y1="268.972" x2="238.346" y2="297.491"/>
		<g>
			<polygon fill="#786A56" points="236.951,293.058 239.061,296.483 242.992,297.343 234.893,302.36 			"/>
		</g>
	</g>
</g>
<g>
	<g>
		
			<line fill="none" stroke="#786A56" stroke-miterlimit="10" stroke-dasharray="6,6" x1="308.002" y1="265.847" x2="334.139" y2="300.091"/>
		<g>
			<polygon fill="#786A56" points="329.492,300.106 333.391,299.109 335.379,295.612 337.762,304.837 			"/>
		</g>
	</g>
</g>
<g>
	<g>
		
			<line fill="none" stroke="#786A56" stroke-miterlimit="10" stroke-dasharray="6,6" x1="325.795" y1="246.155" x2="374.33" y2="246.155"/>
		<g>
			<polygon fill="#786A56" points="371.521,249.858 373.096,246.155 371.521,242.452 380.301,246.155 			"/>
		</g>
	</g>
</g>
<g>
	<g>
		
			<line fill="none" stroke="#786A56" stroke-miterlimit="10" stroke-dasharray="6,6" x1="200.987" y1="246.155" x2="239.75" y2="246.155"/>
		<g>
			<polygon fill="#786A56" points="203.795,249.858 202.222,246.155 203.795,242.452 195.017,246.155 			"/>
		</g>
	</g>
</g>
<path fill="#0C68AB" d="M257.899,172.359 M272.168,174.586c-7.883,0-14.269-0.998-14.269-2.228v5.499
	c0,1.23,6.386,2.226,14.269,2.226c7.877,0,14.266-0.996,14.266-2.226v-5.499C286.434,173.588,280.045,174.586,272.168,174.586
	 M272.168,166.861c-7.883,0-14.269-0.999-14.269-2.225v5.497c0,1.23,6.386,2.226,14.269,2.226c7.877,0,14.266-0.996,14.266-2.226
	v-5.497C286.434,165.863,280.045,166.861,272.168,166.861 M286.434,155.775c-0.004-1.229-6.391-2.227-14.266-2.227
	c-7.883,0-14.269,1-14.269,2.227v5.5c0,1.228,6.386,2.226,14.269,2.226c7.877,0,14.266-0.999,14.266-2.226V155.775z"/>
<g>
	<defs>
		<rect id="SVGID_3_" x="202.668" y="296.591" width="29.431" height="25.694"/>
	</defs>
	<clipPath id="SVGID_4_">
		<use xlink:href="#SVGID_3_"  overflow="visible"/>
	</clipPath>
	<path clip-path="url(#SVGID_4_)" fill="#EFB134" d="M215.043,317.867c-5.296,0.002-10.011-2.892-11.718-7.2
		c-1.708-4.311-0.033-9.075,4.164-11.85c4.201-2.773,9.989-2.943,14.397-0.421c4.406,2.522,6.455,7.181,5.092,11.581
		c-0.148,0.483-0.731,0.774-1.296,0.647c-0.567-0.129-0.902-0.628-0.755-1.114c1.216-3.903-0.808-8.017-4.913-9.983
		c-4.105-1.969-9.239-1.29-12.468,1.645c-3.226,2.938-3.718,7.384-1.192,10.793c1.599,2.167,4.214,3.625,7.169,4
		c2.953,0.375,5.949-0.375,8.21-2.05c0.438-0.327,1.104-0.283,1.482,0.094c0.379,0.378,0.331,0.95-0.108,1.276
		C220.865,316.947,218.004,317.864,215.043,317.867"/>
	<path clip-path="url(#SVGID_4_)" fill="#EFB134" d="M231.044,320.003c-0.258-0.003-0.507-0.089-0.699-0.237l-5.533-4.211
		c-0.436-0.332-0.474-0.903-0.089-1.278c0.387-0.372,1.053-0.408,1.485-0.076l5.536,4.222c0.328,0.248,0.442,0.645,0.285,0.998
		C231.875,319.771,231.481,320.003,231.044,320.003 M220.603,307.549c-0.279,0-0.545-0.095-0.746-0.264
		c-0.194-0.17-0.306-0.399-0.306-0.639c-0.002-2.388-2.259-4.327-5.038-4.33c-0.582,0-1.053-0.404-1.053-0.904
		c0-0.499,0.471-0.903,1.053-0.903c3.942,0.005,7.137,2.751,7.142,6.137C221.655,307.144,221.185,307.549,220.603,307.549"/>
</g>
<g>
	<defs>
		<rect id="SVGID_5_" x="161.923" y="171.655" width="30.268" height="24.584"/>
	</defs>
	<clipPath id="SVGID_6_">
		<use xlink:href="#SVGID_5_"  overflow="visible"/>
	</clipPath>
	<path clip-path="url(#SVGID_6_)" fill="#EFB134" d="M189.205,171.671c1.634,0,2.96,1.101,2.96,2.455v19.63
		c0,1.353-1.327,2.455-2.96,2.455h-24.327c-1.632,0-2.959-1.102-2.959-2.455v-19.63c0-1.354,1.327-2.455,2.959-2.455H189.205z
		 M187.234,183.122c0.261,0,0.514,0.087,0.698,0.241c0.184,0.153,0.29,0.359,0.288,0.577c0.001,0.215-0.104,0.423-0.288,0.577
		c-0.184,0.154-0.437,0.241-0.698,0.241H166.85c-0.261,0-0.513-0.087-0.698-0.241c-0.183-0.154-0.288-0.362-0.288-0.577
		c0-0.217,0.104-0.423,0.288-0.577c0.185-0.154,0.437-0.241,0.698-0.241H187.234z M187.234,186.392
		c0.261,0.002,0.514,0.088,0.698,0.241c0.184,0.154,0.29,0.362,0.288,0.58c0.001,0.215-0.104,0.423-0.288,0.577
		c-0.184,0.153-0.437,0.239-0.698,0.239H166.85c-0.261,0-0.513-0.085-0.698-0.239c-0.183-0.154-0.288-0.362-0.288-0.577
		c0-0.218,0.104-0.426,0.288-0.58c0.185-0.153,0.437-0.239,0.698-0.241H187.234z M177.37,189.665c0.263,0,0.514,0.087,0.7,0.241
		c0.186,0.154,0.289,0.359,0.287,0.577c0.002,0.217-0.101,0.425-0.287,0.579c-0.184,0.154-0.437,0.239-0.7,0.239h-10.52
		c-0.261,0-0.513-0.085-0.698-0.239c-0.183-0.154-0.288-0.362-0.288-0.577c0-0.218,0.104-0.426,0.288-0.58
		c0.185-0.154,0.437-0.241,0.698-0.241H177.37z M190.191,193.756v-13.907h-26.299v13.907c0,0.452,0.441,0.818,0.986,0.818h24.327
		C189.752,194.574,190.191,194.208,190.191,193.756 M174.739,176.579c-0.261-0.001-0.512-0.088-0.697-0.241s-0.29-0.36-0.288-0.577
		c-0.002-0.218,0.104-0.425,0.288-0.58c0.185-0.153,0.437-0.238,0.697-0.24c0.263,0.001,0.514,0.087,0.7,0.24
		c0.185,0.154,0.289,0.362,0.289,0.58c0,0.215-0.104,0.423-0.289,0.577c-0.186,0.153-0.437,0.24-0.7,0.24V176.579z M170.796,176.579
		c-0.263-0.001-0.515-0.088-0.698-0.241c-0.186-0.153-0.291-0.36-0.291-0.577c0-0.218,0.105-0.425,0.291-0.58
		c0.183-0.153,0.435-0.238,0.698-0.24c0.262,0.001,0.513,0.087,0.698,0.24c0.185,0.154,0.288,0.362,0.288,0.58
		c0,0.215-0.103,0.423-0.288,0.577s-0.436,0.24-0.698,0.24V176.579z M166.85,176.579c-0.261-0.001-0.513-0.088-0.698-0.241
		c-0.183-0.153-0.288-0.36-0.288-0.577c0-0.218,0.104-0.425,0.288-0.58c0.185-0.153,0.437-0.238,0.698-0.24
		c0.545,0.001,0.988,0.366,0.987,0.819c0.001,0.45-0.441,0.816-0.987,0.816V176.579z M190.191,178.213v-4.088
		c0-0.453-0.439-0.819-0.986-0.819h-24.327c-0.545,0-0.986,0.366-0.986,0.817v4.09H190.191z"/>
</g>
<g>
	<g>
		<defs>
			<rect id="SVGID_7_" x="389.525" y="237.695" width="38.113" height="24.348"/>
		</defs>
		<clipPath id="SVGID_8_">
			<use xlink:href="#SVGID_7_"  overflow="visible"/>
		</clipPath>
		<path clip-path="url(#SVGID_8_)" fill="#858585" d="M390.316,262.009c-0.211,0-0.418-0.062-0.563-0.175
			c-0.148-0.113-0.234-0.268-0.234-0.426v-23.084c0-0.333,0.357-0.598,0.797-0.598c0.438,0,0.797,0.266,0.797,0.598v22.485h35.693
			c0.439,0,0.799,0.271,0.799,0.599c0,0.333-0.359,0.601-0.799,0.601H390.316z"/>
	</g>
	<path fill="#858585" d="M399.646,258.07c0,0.64-0.691,1.162-1.537,1.162h-2.943c-0.848,0-1.547-0.522-1.547-1.162v-2.453
		c0-0.641,0.699-1.163,1.547-1.163h2.943c0.846,0,1.537,0.521,1.537,1.163V258.07z M407.303,258.07c0,0.64-0.693,1.162-1.541,1.162
		h-2.943c-0.846,0-1.543-0.522-1.543-1.162v-7.708c0-0.641,0.697-1.16,1.543-1.16h2.943c0.848,0,1.541,0.519,1.541,1.16V258.07z"/>
	<path fill="#EFB134" d="M423.01,258.008c0,0.671-0.732,1.224-1.627,1.224h-2.77c-0.895,0-1.629-0.553-1.629-1.224v-10.04
		c0-0.672,0.73-1.222,1.629-1.222h2.77c0.895,0,1.627,0.55,1.627,1.222V258.008z"/>
	<path fill="#858585" d="M414.959,258.07c0,0.64-0.695,1.162-1.541,1.162h-2.943c-0.848,0-1.545-0.522-1.545-1.162v-5.324
		c0-0.637,0.697-1.159,1.545-1.159h2.943c0.846,0,1.541,0.522,1.541,1.159V258.07z"/>
	<path fill="#EFB134" d="M421.777,239.549l-5.863,0.482l1.932,1.459l-6.355,5.854l-6.6-4.594c-0.447-0.313-1.148-0.316-1.602-0.009
		l-9.695,6.599c-0.488,0.331-0.525,0.9-0.086,1.268c0.234,0.197,0.557,0.293,0.885,0.293c0.285,0,0.57-0.073,0.795-0.229
		l8.891-6.051l6.725,4.688c0.24,0.167,0.563,0.251,0.891,0.237c0.322-0.017,0.629-0.136,0.834-0.328l7.008-6.455l1.602,1.208
		L421.777,239.549z"/>
</g>
<g opacity="0.7">
	<g>
		<defs>
			<rect id="SVGID_9_" x="255.026" y="86.092" width="36.453" height="58.326"/>
		</defs>
		<clipPath id="SVGID_10_">
			<use xlink:href="#SVGID_9_"  overflow="visible"/>
		</clipPath>
		<g clip-path="url(#SVGID_10_)">
			<defs>
				<path id="SVGID_11_" d="M291.391,115.945c0,0-14.563,12.479-17.885,27.656c0,0-0.162,1.831-0.428,0.004
					c-3.416-15.128-18.052-27.45-18.052-27.45l9.947-0.056l-5.546-29.814l13.91-0.082h-0.439l13.908-0.083l-5.361,29.876
					L291.391,115.945z"/>
			</defs>
			<linearGradient id="SVGID_12_" gradientUnits="userSpaceOnUse" x1="273.209" y1="86.1206" x2="273.209" y2="144.416">
				<stop  offset="0" style="stop-color:#FFFFFF"/>
				<stop  offset="0.6344" style="stop-color:#8970B1"/>
			</linearGradient>
			<use xlink:href="#SVGID_11_"  overflow="visible" fill="url(#SVGID_12_)"/>
			<clipPath id="SVGID_13_">
				<use xlink:href="#SVGID_11_"  overflow="visible"/>
			</clipPath>
			<defs>
				<filter id="Adobe_OpacityMaskFilter" filterUnits="userSpaceOnUse" x="254.967" y="85.466" width="36.484" height="60.62">
					<feColorMatrix  type="matrix" values="1 0 0 0 0  0 1 0 0 0  0 0 1 0 0  0 0 0 1 0"/>
				</filter>
			</defs>
			<mask maskUnits="userSpaceOnUse" x="254.967" y="85.466" width="36.484" height="60.62" id="SVGID_14_">
				<g filter="url(#Adobe_OpacityMaskFilter)">
					
						<linearGradient id="SVGID_15_" gradientUnits="userSpaceOnUse" x1="-21.8643" y1="677.0293" x2="-20.4275" y2="677.0293" gradientTransform="matrix(-0.172 -40.9644 149.1717 -0.6308 -100723.9453 -323.9651)">
						<stop  offset="0" style="stop-color:#FFFFFF"/>
						<stop  offset="0.0049" style="stop-color:#FFFFFF"/>
						<stop  offset="0.0956" style="stop-color:#F9F9F9"/>
						<stop  offset="0.2209" style="stop-color:#E7E7E7"/>
						<stop  offset="0.3665" style="stop-color:#C9C9C9"/>
						<stop  offset="0.5273" style="stop-color:#A1A1A1"/>
						<stop  offset="0.7007" style="stop-color:#6C6C6C"/>
						<stop  offset="0.8817" style="stop-color:#2D2D2D"/>
						<stop  offset="1" style="stop-color:#000000"/>
					</linearGradient>
					<polygon clip-path="url(#SVGID_13_)" fill="url(#SVGID_15_)" points="291.451,145.431 291.391,85.466 254.967,86.121 
						255.028,146.086 					"/>
				</g>
			</mask>
			<linearGradient id="SVGID_16_" gradientUnits="userSpaceOnUse" x1="273.209" y1="85.4663" x2="273.209" y2="146.0864">
				<stop  offset="0" style="stop-color:#FFFFFF"/>
				<stop  offset="0.6344" style="stop-color:#8970B1"/>
			</linearGradient>
			<polygon clip-path="url(#SVGID_13_)" mask="url(#SVGID_14_)" fill="url(#SVGID_16_)" points="291.451,145.431 291.391,85.466 
				254.967,86.121 255.028,146.086 			"/>
		</g>
	</g>
</g>
<polygon fill="none" stroke="#858585" stroke-width="2" stroke-miterlimit="10" points="357.609,313.377 345.998,305.665 
	346.979,291.59 359.574,285.225 371.184,292.938 370.201,307.014 "/>
<rect x="354.906" y="105.874" fill="#F7F9F9" stroke="#06588F" stroke-miterlimit="10" width="162.434" height="60.639"/>
<g>
	<path fill="#EFB134" d="M371.002,111.252c-3.711,0-6.725,2.924-6.725,6.542c0,3.616,3.004,6.539,6.725,6.539
		c3.715,0,6.721-2.923,6.721-6.539C377.723,114.177,374.709,111.252,371.002,111.252 M371.002,123.396
		c-3.184,0-5.76-2.508-5.76-5.602c0-3.097,2.576-5.604,5.76-5.604c3.18,0,5.758,2.508,5.758,5.604
		C376.76,120.888,374.182,123.396,371.002,123.396"/>
	<path fill="#EFB134" d="M373.809,118.089c-0.178-0.192-0.484-0.208-0.684-0.028l-1.643,1.487v-4.59c0-0.261-0.215-0.469-0.48-0.462
		c-0.262,0-0.469,0.201-0.477,0.447v4.621l-1.59-1.43c-0.199-0.17-0.496-0.156-0.682,0.03c-0.174,0.187-0.16,0.478,0.031,0.656
		l2.385,2.151c0.191,0.178,0.5,0.164,0.682-0.031c0.018-0.015,0.023-0.029,0.029-0.044l2.395-2.158
		C373.969,118.567,373.982,118.276,373.809,118.089"/>
</g>
<text transform="matrix(0.9541 0 0 1 380.0439 121.5879)" fill="#231815" font-family="'ArialMT'" font-size="10">All TF-markers</text>
<text transform="matrix(0.9541 0 0 1 472.9336 122.6045)" fill="#040000" font-family="'ArialMT'" font-size="10">I Marker</text>
<g>
	<path fill="#EFB134" d="M463.891,111.255c-3.709,0-6.721,2.924-6.721,6.542c0,3.616,3.004,6.539,6.721,6.539
		s6.721-2.923,6.721-6.539C470.611,114.18,467.6,111.255,463.891,111.255 M463.891,123.398c-3.182,0-5.76-2.508-5.76-5.602
		c0-3.097,2.578-5.604,5.76-5.604s5.76,2.508,5.76,5.604C469.65,120.891,467.072,123.398,463.891,123.398"/>
	<path fill="#EFB134" d="M466.697,118.092c-0.178-0.192-0.482-0.208-0.68-0.028l-1.646,1.487v-4.59c0-0.261-0.213-0.469-0.48-0.462
		c-0.26,0-0.465,0.201-0.473,0.447v4.621l-1.592-1.43c-0.197-0.17-0.498-0.156-0.682,0.03c-0.176,0.187-0.16,0.478,0.031,0.656
		l2.385,2.151c0.193,0.178,0.498,0.164,0.682-0.031c0.016-0.015,0.023-0.029,0.031-0.044l2.393-2.158
		C466.857,118.57,466.875,118.279,466.697,118.092"/>
</g>
<text transform="matrix(0.9541 0 0 1 472.9053 139.6694)" fill="#040000" font-family="'ArialMT'" font-size="10">T Marker</text>
<g>
	<path fill="#EFB134" d="M463.893,129.653c-3.709,0-6.723,2.924-6.723,6.542c0,3.616,3.004,6.539,6.723,6.539
		c3.715,0,6.721-2.923,6.721-6.539C470.613,132.577,467.6,129.653,463.893,129.653 M463.893,141.796c-3.184,0-5.76-2.508-5.76-5.602
		c0-3.097,2.576-5.604,5.76-5.604c3.18,0,5.76,2.508,5.76,5.604C469.652,139.288,467.072,141.796,463.893,141.796"/>
	<path fill="#EFB134" d="M466.699,136.49c-0.178-0.192-0.482-0.208-0.682-0.028l-1.645,1.487v-4.59c0-0.261-0.213-0.469-0.48-0.462
		c-0.262,0-0.467,0.201-0.475,0.447v4.621l-1.59-1.43c-0.197-0.17-0.498-0.156-0.682,0.03c-0.176,0.187-0.162,0.478,0.031,0.656
		l2.385,2.151c0.191,0.178,0.498,0.164,0.682-0.031c0.016-0.015,0.023-0.029,0.029-0.044l2.393-2.158
		C466.859,136.968,466.875,136.676,466.699,136.49"/>
</g>
<text transform="matrix(0.9541 0 0 1 472.873 159.3965)" fill="#040000" font-family="'ArialMT'" font-size="10">TF</text>
<g>
	<path fill="#EFB134" d="M463.891,147.584c-3.707,0-6.721,2.924-6.721,6.542c0,3.616,3.004,6.539,6.721,6.539
		s6.723-2.923,6.723-6.539C470.613,150.509,467.6,147.584,463.891,147.584 M463.891,159.728c-3.182,0-5.76-2.508-5.76-5.602
		c0-3.097,2.578-5.604,5.76-5.604s5.76,2.508,5.76,5.604C469.65,157.22,467.072,159.728,463.891,159.728"/>
	<path fill="#EFB134" d="M466.697,154.421c-0.176-0.192-0.482-0.208-0.68-0.028l-1.646,1.487v-4.59c0-0.261-0.211-0.469-0.48-0.462
		c-0.26,0-0.465,0.201-0.473,0.447v4.621l-1.592-1.43c-0.197-0.17-0.498-0.156-0.682,0.03c-0.176,0.187-0.16,0.478,0.031,0.656
		l2.385,2.151c0.193,0.178,0.498,0.164,0.684-0.031c0.014-0.015,0.021-0.029,0.029-0.044l2.393-2.158
		C466.857,154.899,466.875,154.608,466.697,154.421"/>
</g>
<g>
	<path fill="#EFB134" d="M362.456,187.875c-7.596,0-13.769,5.99-13.769,13.401c0,7.407,6.154,13.395,13.769,13.395
		c7.613,0,13.771-5.988,13.771-13.395C376.227,193.865,370.054,187.875,362.456,187.875 M362.456,212.75
		c-6.518,0-11.8-5.137-11.8-11.474c0-6.344,5.282-11.481,11.8-11.481s11.797,5.137,11.797,11.481
		C374.253,207.612,368.974,212.75,362.456,212.75"/>
	<path fill="#EFB134" d="M368.204,201.88c-0.358-0.394-0.987-0.426-1.391-0.058l-3.373,3.046v-9.403
		c0-0.534-0.432-0.961-0.984-0.946c-0.532,0-0.952,0.412-0.969,0.916v9.465l-3.261-2.929c-0.404-0.349-1.021-0.318-1.397,0.061
		c-0.358,0.383-0.327,0.98,0.065,1.343l4.886,4.407c0.395,0.365,1.021,0.335,1.399-0.063c0.027-0.03,0.043-0.06,0.06-0.091
		l4.9-4.421C368.532,202.859,368.569,202.262,368.204,201.88"/>
</g>
<text transform="matrix(0.9541 0 0 1 380.0439 140.5166)" fill="#040000" font-family="'ArialMT'" font-size="10">TF Pmarker</text>
<g>
	<path fill="#EFB134" d="M371.002,129.656c-3.711,0-6.725,2.924-6.725,6.542c0,3.616,3.004,6.539,6.725,6.539
		c3.715,0,6.721-2.923,6.721-6.539C377.723,132.58,374.709,129.656,371.002,129.656 M371.002,141.799
		c-3.184,0-5.76-2.508-5.76-5.602c0-3.097,2.576-5.604,5.76-5.604c3.18,0,5.758,2.508,5.758,5.604
		C376.76,139.291,374.182,141.799,371.002,141.799"/>
	<path fill="#EFB134" d="M373.809,136.493c-0.178-0.192-0.484-0.208-0.684-0.028l-1.643,1.487v-4.59c0-0.261-0.215-0.469-0.48-0.462
		c-0.262,0-0.469,0.201-0.477,0.447v4.621l-1.59-1.43c-0.199-0.17-0.496-0.156-0.682,0.03c-0.174,0.187-0.16,0.478,0.031,0.656
		l2.385,2.151c0.191,0.178,0.5,0.164,0.682-0.031c0.018-0.015,0.023-0.029,0.029-0.044l2.395-2.158
		C373.969,136.971,373.982,136.679,373.809,136.493"/>
</g>
<text transform="matrix(0.9541 0 0 1 380.0439 157.4307)" fill="#040000" font-family="'ArialMT'" font-size="10">TFMarker</text>
<g>
	<path fill="#EFB134" d="M371.002,147.587c-3.711,0-6.725,2.924-6.725,6.542c0,3.616,3.004,6.539,6.725,6.539
		c3.715,0,6.721-2.923,6.721-6.539C377.723,150.512,374.709,147.587,371.002,147.587 M371.002,159.73
		c-3.184,0-5.76-2.508-5.76-5.602c0-3.097,2.576-5.604,5.76-5.604c3.18,0,5.758,2.508,5.758,5.604
		C376.76,157.223,374.182,159.73,371.002,159.73"/>
	<path fill="#EFB134" d="M373.807,154.424c-0.176-0.192-0.482-0.208-0.682-0.028l-1.643,1.487v-4.59c0-0.261-0.215-0.469-0.48-0.462
		c-0.262,0-0.469,0.201-0.477,0.447v4.621l-1.59-1.43c-0.199-0.17-0.496-0.156-0.682,0.03c-0.174,0.187-0.16,0.478,0.031,0.656
		l2.385,2.151c0.191,0.178,0.498,0.164,0.682-0.031c0.018-0.015,0.023-0.029,0.029-0.044l2.395-2.158
		C373.967,154.902,373.982,154.611,373.807,154.424"/>
</g>
<g opacity="0.7">
	<g>
		<defs>
			<rect id="SVGID_17_" x="254.004" y="193.086" width="36.453" height="21.932"/>
		</defs>
		<clipPath id="SVGID_18_">
			<use xlink:href="#SVGID_17_"  overflow="visible"/>
		</clipPath>
		<g clip-path="url(#SVGID_18_)">
			<defs>
				<path id="SVGID_19_" d="M290.371,204.311c0,0-14.564,4.693-17.887,10.4c0,0-0.162,0.689-0.426,0.002
					c-3.416-5.689-18.054-10.322-18.054-10.322l9.947-0.021l-5.547-11.211l13.912-0.031h-0.439l13.908-0.031l-5.361,11.234
					L290.371,204.311z"/>
			</defs>
			<linearGradient id="SVGID_20_" gradientUnits="userSpaceOnUse" x1="272.1875" y1="193.0957" x2="272.1875" y2="215.0181">
				<stop  offset="0" style="stop-color:#FFFFFF"/>
				<stop  offset="0.6344" style="stop-color:#8970B1"/>
			</linearGradient>
			<use xlink:href="#SVGID_19_"  overflow="visible" fill="url(#SVGID_20_)"/>
			<clipPath id="SVGID_21_">
				<use xlink:href="#SVGID_19_"  overflow="visible"/>
			</clipPath>
			<defs>
				<filter id="Adobe_OpacityMaskFilter_1_" filterUnits="userSpaceOnUse" x="253.946" y="192.85" width="36.484" height="22.797">
					<feColorMatrix  type="matrix" values="1 0 0 0 0  0 1 0 0 0  0 0 1 0 0  0 0 0 1 0"/>
				</filter>
			</defs>
			<mask maskUnits="userSpaceOnUse" x="253.946" y="192.85" width="36.484" height="22.797" id="SVGID_22_">
				<g filter="url(#Adobe_OpacityMaskFilter_1_)">
					
						<linearGradient id="SVGID_23_" gradientUnits="userSpaceOnUse" x1="-23.5835" y1="677.0195" x2="-23.0455" y2="677.0195" gradientTransform="matrix(-0.172 -40.9644 149.1717 -0.6308 -100723.9453 -323.9651)">
						<stop  offset="0" style="stop-color:#FFFFFF"/>
						<stop  offset="0.0049" style="stop-color:#FFFFFF"/>
						<stop  offset="0.0956" style="stop-color:#F9F9F9"/>
						<stop  offset="0.2209" style="stop-color:#E7E7E7"/>
						<stop  offset="0.3665" style="stop-color:#C9C9C9"/>
						<stop  offset="0.5273" style="stop-color:#A1A1A1"/>
						<stop  offset="0.7007" style="stop-color:#6C6C6C"/>
						<stop  offset="0.8817" style="stop-color:#2D2D2D"/>
						<stop  offset="1" style="stop-color:#000000"/>
					</linearGradient>
					<polygon clip-path="url(#SVGID_21_)" fill="url(#SVGID_23_)" points="290.43,215.398 290.369,192.85 253.946,193.096 
						254.006,215.646 					"/>
				</g>
			</mask>
			<linearGradient id="SVGID_24_" gradientUnits="userSpaceOnUse" x1="272.1875" y1="192.8496" x2="272.1875" y2="215.6465">
				<stop  offset="0" style="stop-color:#FFFFFF"/>
				<stop  offset="0.6344" style="stop-color:#8970B1"/>
			</linearGradient>
			<polygon clip-path="url(#SVGID_21_)" mask="url(#SVGID_22_)" fill="url(#SVGID_24_)" points="290.43,215.398 290.369,192.85 
				253.946,193.096 254.006,215.646 			"/>
		</g>
	</g>
</g>
<polygon fill="#F7F9F9" stroke="#06588F" stroke-miterlimit="10" points="108.244,219.538 77.746,185.585 32.393,180.492 
	55.37,153.658 35.83,116.219 80.526,133.587 113.804,115.542 118.452,153.11 158.558,179.396 116.733,185.247 "/>
<rect x="9.655" y="82.423" fill="#F7F9F9" stroke="#06588F" stroke-miterlimit="10" width="122.5" height="207.697"/>
<text transform="matrix(1 0 0 1 10.2998 93.814)"><tspan x="0" y="0" fill="#040000" font-family="'ArialMT'" font-size="10">·Gene Name</tspan><tspan x="0" y="12" fill="#040000" font-family="'ArialMT'" font-size="10">·Also known as </tspan><tspan x="0" y="24" fill="#040000" font-family="'ArialMT'" font-size="10">·Entrez gene ID</tspan><tspan x="0" y="36" fill="#040000" font-family="'ArialMT'" font-size="10">·Ensembl gene ID</tspan><tspan x="0" y="48" fill="#040000" font-family="'ArialMT'" font-size="10">·Gene Type </tspan><tspan x="0" y="60" fill="#040000" font-family="'ArialMT'" font-size="10">·Interacting Gene </tspan><tspan x="0" y="72" fill="#040000" font-family="'ArialMT'" font-size="10">·TF family</tspan><tspan x="0" y="84" fill="#040000" font-family="'ArialMT'" font-size="10">·Cell Name</tspan><tspan x="0" y="96" fill="#040000" font-family="'ArialMT'" font-size="10">·Cell Type</tspan><tspan x="0" y="108" fill="#040000" font-family="'ArialMT'" font-size="10">·Tissue Type</tspan><tspan x="0" y="120" fill="#040000" font-family="'ArialMT'" font-size="10">·Experiment Type</tspan><tspan x="0" y="132" fill="#040000" font-family="'ArialMT'" font-size="10">·Experimental name</tspan><tspan x="0" y="144" fill="#040000" font-family="'ArialMT'" font-size="10">·PMID</tspan><tspan x="0" y="156" fill="#040000" font-family="'ArialMT'" font-size="10">·Title</tspan><tspan x="0" y="168" fill="#040000" font-family="'ArialMT'" font-size="10">·Description of Gene</tspan><tspan x="0" y="180" fill="#040000" font-family="'ArialMT'" font-size="10">·the TF information in CRC</tspan><tspan x="0" y="192" fill="#040000" font-family="'ArialMT'" font-size="10">·expression atlas of the TF</tspan></text>
<ellipse fill="#F7F9F9" stroke="#F7F9F9" stroke-width="2" stroke-miterlimit="10" stroke-dasharray="5" cx="125.734" cy="171.655" rx="8.04" ry="16.34"/>
<polygon fill="#F7F9F9" stroke="#06588F" stroke-miterlimit="10" points="382.855,366.405 361.369,361.941 343.631,374.86 
	343.41,355.642 324.73,346.023 346.08,338.609 352.275,319.744 365.691,334.383 388.197,332.344 375.143,348.802 "/>
<g>
	<rect x="252.426" y="331.805" fill="#F7F9F9" stroke="#06588F" stroke-miterlimit="10" width="234.238" height="71.881"/>
	<text transform="matrix(1 0 0 1 255.9395 346.4492)"><tspan x="0" y="0" fill="#040000" font-family="'ArialMT'" font-size="10">·What information is available in the TF-Marker?</tspan><tspan x="0" y="12" fill="#040000" font-family="'ArialMT'" font-size="10">·Database content and construction</tspan><tspan x="0" y="24" fill="#040000" font-family="'ArialMT'" font-size="10">·How to use the TF-Marker?</tspan><tspan x="0" y="36" fill="#040000" font-family="'ArialMT'" font-size="10">·Explanation of the definitions used by the website</tspan><tspan x="0" y="48" fill="#040000" font-family="'ArialMT'" font-size="10">·Development environment</tspan></text>
</g>
<path fill="#F7F9F9" stroke="#F7F9F9" stroke-width="2" stroke-miterlimit="10" stroke-dasharray="5" d="M355.939,332.342
	c3.48,0.039,6.309-0.437,6.314-1.062c0.008-0.624-2.807-1.163-6.289-1.202c-3.477-0.039-6.303,0.437-6.311,1.062
	S352.461,332.303,355.939,332.342z"/>
<g>
	<rect x="45.715" y="328.999" fill="#F7F9F9" stroke="#06588F" stroke-miterlimit="10" width="166.039" height="53.053"/>
	<text transform="matrix(1 0 0 1 50.7148 342.7104)" fill="#040000" font-family="'ArialMT'" font-size="10">·Searching by Tissue and Cell Type</text>
	<text transform="matrix(1 0 0 1 50.7148 357.4038)" fill="#040000" font-family="'ArialMT'" font-size="10">·Searching by Gene</text>
	<text transform="matrix(1 0 0 1 50.7148 372.2114)" fill="#040000" font-family="'ArialMT'" font-size="10">·Searching by TFs related to CRC</text>
</g>
<g>
	<rect x="139.106" y="9.983" fill="#F7F9F9" stroke="#06588F" stroke-miterlimit="10" width="300.249" height="64.75"/>
	<text transform="matrix(1 0 0 1 142.4844 20.4829)"><tspan x="0" y="0" fill="#040000" font-family="'ArialMT'" font-size="10">·TF: the TF regulates the expression of the markers</tspan><tspan x="0" y="12" fill="#040000" font-family="'ArialMT'" font-size="10">·T Marker: the marker which is regulated by the TF</tspan><tspan x="0" y="24" fill="#040000" font-family="'ArialMT'" font-size="10">·I Marker: the marker which influences the activity of the TF</tspan><tspan x="0" y="36" fill="#040000" font-family="'ArialMT'" font-size="10">·TFMarker: TFs play roles as markers</tspan><tspan x="0" y="48" fill="#040000" font-family="'ArialMT'" font-size="10">·TF Pmarker: TFs play roles as potential markers</tspan></text>
	
		<image overflow="visible" width="145" height="58" xlink:href="C8103E66.jpg"  transform="matrix(0.3686 0 0 0.3686 374.4043 51.5957)">
	</image>
</g>
<path fill="#EFB134" d="M185.774,250.794v-2.179h4.358V239.9h-26.15v8.716h4.358v2.179h-4.358c-0.578,0-1.132-0.229-1.541-0.638
	c-0.408-0.409-0.638-0.963-0.638-1.541V239.9c0-1.205,0.976-2.18,2.179-2.18h26.15c1.204,0,2.179,0.975,2.179,2.18v8.716
	c0,1.203-0.976,2.179-2.179,2.179H185.774z M185.774,250.794"/>
<path fill="#EFB134" d="M185.426,251.165c-0.388,0.004-0.772,0.077-1.133,0.219c-0.556-0.867-1.498-1.412-2.528-1.461
	c-0.351-0.004-0.699,0.063-1.024,0.196c-0.507-0.954-1.513-1.537-2.593-1.503c-0.231-0.034-0.466-0.034-0.697,0v-1.917
	c0.017-0.772-0.274-1.521-0.811-2.077c-0.536-0.557-1.272-0.876-2.044-0.887c-0.784,0-1.536,0.312-2.088,0.869
	c-0.552,0.556-0.859,1.31-0.854,2.095v8.716l-0.61-0.697c-0.573-0.583-1.363-0.898-2.179-0.872
	c-0.819,0.003-1.604,0.332-2.179,0.916c-0.603,0.563-0.945,1.353-0.945,2.179s0.342,1.615,0.945,2.179l6.646,6.712
	c1.829,1.734,4.31,2.606,6.821,2.397c8.172,0,8.172-5.296,8.172-9.152v-4.946c0.036-0.786-0.255-1.551-0.805-2.113
	C186.97,251.455,186.211,251.146,185.426,251.165L185.426,251.165z M186.145,259.076c0,4.054,0,6.974-5.993,6.974
	c-1.925,0.196-3.844-0.438-5.273-1.744l-6.538-6.776c-0.226-0.27-0.278-0.644-0.134-0.964c0.144-0.32,0.458-0.53,0.809-0.54
	c0.216-0.001,0.425,0.076,0.589,0.218l4.358,4.358v-13.902c0-0.426,0.338-0.773,0.762-0.785c0.195,0.011,0.377,0.101,0.505,0.248
	c0.127,0.148,0.189,0.342,0.171,0.537v8.716c0.143,0.473,0.574,0.799,1.068,0.807c0.493,0.005,0.925-0.329,1.046-0.807v-3.879
	c-0.014-0.373,0.261-0.696,0.632-0.741c0.206-0.021,0.411,0.053,0.556,0.201c0.145,0.149,0.213,0.356,0.185,0.562v4.86
	c0.087,0.532,0.55,0.922,1.09,0.915c0.493-0.008,0.925-0.334,1.067-0.806v-3.553c-0.018-0.194,0.044-0.388,0.171-0.536
	c0.127-0.147,0.309-0.238,0.504-0.249c0.437,0,0.794,0.349,0.806,0.785v4.358c0,0.602,0.488,1.089,1.09,1.089
	c0.602,0,1.089-0.487,1.089-1.089v-3.203c-0.018-0.202,0.049-0.402,0.186-0.552s0.331-0.234,0.533-0.233
	c0.283,0,0.719,0,0.719,0.785V259.076z M186.145,259.076"/>
</svg>
