<?xml version="1.0" encoding="utf-8"?>
<!-- Generator: Adobe Illustrator 16.0.0, SVG Export Plug-In . SVG Version: 6.00 Build 0)  -->
<!DOCTYPE svg PUBLIC "-//W3C//DTD SVG 1.1//EN" "http://www.w3.org/Graphics/SVG/1.1/DTD/svg11.dtd">
<svg version="1.1" id="图层_1" xmlns="http://www.w3.org/2000/svg" xmlns:xlink="http://www.w3.org/1999/xlink" x="0px" y="0px"
	 width="700.617px" height="448.25px" viewBox="6.367 121.446 700.617 448.25"
	 enable-background="new 6.367 121.446 700.617 448.25" xml:space="preserve">
<rect x="-26.766" y="121.446" fill="#FFFFFF" width="733.75" height="448.25"/>
<polygon fill="none" stroke="#503993" stroke-miterlimit="10" points="335.431,417.229 335.431,423.472 342.977,423.472 
	342.977,421.485 344.787,418.365 343.579,417.229 "/>
<polygon fill="#EAC31A" points="331.606,297.852 355.752,297.852 349.111,327.931 345.188,331.336 339.152,328.215 "/>
<polygon fill="#FEEFDE" stroke="#503993" stroke-miterlimit="10" points="338.278,228.823 344.315,228.823 344.315,292.387 
	360.01,356.235 361.518,357.939 363.028,359.359 364.534,359.359 364.534,360.492 366.346,360.492 368.157,360.492 370.271,360.492 
	370.271,359.641 372.082,360.492 372.082,358.506 373.289,357.939 374.797,355.102 390.189,292.672 390.189,240.459 
	399.546,240.743 399.546,239.04 401.356,238.756 401.356,236.202 403.469,235.351 403.469,232.515 403.469,230.243 402.262,228.823 
	401.054,226.27 398.94,225.136 397.434,223.718 395.623,223.718 342.505,222.3 341.6,223.718 339.79,225.136 338.278,225.987 "/>
<ellipse fill="#DEEDF9" stroke="#42276A" stroke-width="14" stroke-miterlimit="10" cx="330.76" cy="360.202" rx="106.634" ry="100.397"/>
<path fill="#42276A" stroke="#42276A" stroke-width="12" stroke-miterlimit="10" d="M525.751,526.255
	c6.235,5.941,7.194,14.686,2.139,19.519l-5.082,4.86c-5.049,4.832-14.196,3.931-20.434-2.021l-99.714-95.131
	c-6.232-5.949-7.191-14.688-2.145-19.521l5.082-4.862c5.053-4.832,14.202-3.93,20.435,2.021L525.751,526.255z"/>
<line fill="none" stroke="#503993" stroke-width="2" stroke-miterlimit="10" x1="-225.334" y1="644.557" x2="-217" y2="644.557"/>
<rect x="618.138" y="194.196" fill="#42276A" width="46.979" height="176.586"/>
<rect x="588.803" y="186.868" fill="#42276A" width="65.572" height="7.325"/>
<rect x="629.066" y="252.813" fill="#149DAA" width="12.558" height="40.116"/>
<rect x="654.375" y="194.196" fill="#149DAA" width="10.738" height="21.801"/>
<path fill="#42276A" d="M592.158,186.564c-2.688,0-2.688,0-2.688,0l-2.685,2.934l-1.341,1.099v1.071v7.722l3.354-0.733l1.06-1.099
	l0.957-1.465l0.89-1.088l0.454-0.563"/>
<polygon fill="#149DAA" points="629.074,403.946 621.979,370.782 651.892,370.782 642.879,402.846 641.624,403.946 "/>
<rect x="628.97" y="403.946" fill="#149DAA" width="13.526" height="94.133"/>
<rect x="633.027" y="498.073" fill="#149DAA" width="6.396" height="14.65"/>
<rect x="632.717" y="157.186" fill="#149DAA" width="16.489" height="28.576"/>
<rect x="624.944" y="143.263" fill="#EAC31A" width="33.357" height="13.922"/>
<polygon fill="#DEEDF9" points="631.367,507.247 636.227,560.556 641.624,507.247 "/>
<path fill="none" stroke="#503993" stroke-miterlimit="10" d="M296.793,313.264"/>
<path fill="#149DAA" d="M302.546,359.791c-0.056-0.795-0.313-1.39-0.407-2.167c-0.691-0.14-1.017-0.917-1.287-1.35
	c0.021-0.383-0.086-0.836-0.063-1.217c-1.23-0.666-1.271-3.946-2.119-5.302c-0.609-0.977-1.107-1.298-1.299-2.463
	c-0.305-1.854,0.245-3.794,0.146-5.673c-0.114-2.13-0.529-4.235-0.529-6.375c0-2.635-0.125-5.36,0.144-7.935
	c0.448-4.251-0.12-8.504-0.287-12.754c-0.069-1.756,0.03-2.661-1.385-3.867c-0.387-0.332-2.734-2.139-3.108-2.161
	c-2.351-0.133-4.264-0.677-6.43,0.473c-1.917,1.015-3.163,2.746-4.129,4.58c-1.539,2.919-0.296,6.381,0.047,9.571
	c0.328,3.044,0.73,5.826,1.342,8.792c0.566,2.746,2.123,4.817,3.068,7.328c0.238,0.63,0.508,1.317,0.598,1.983
	c2.407,0.673,1.96,7.341,4.696,8.485c0.322,1.482,3.076,3.921,4.038,5.154c1.273,1.638,4.568,5.351,6.773,5.257"/>
<path fill="#EAC31A" d="M358.709,359.791c-0.056-0.795-0.312-1.39-0.407-2.167c-0.69-0.14-1.018-0.917-1.287-1.35
	c0.022-0.383-0.084-0.836-0.063-1.217c-1.229-0.666-1.271-3.946-2.119-5.302c-0.608-0.977-1.107-1.298-1.299-2.463
	c-0.313-1.854,0.245-3.794,0.146-5.673c-0.115-2.13-0.526-4.235-0.526-6.375c0-2.635-0.126-5.36,0.144-7.935
	c0.447-4.251-0.12-8.504-0.285-12.754c-0.069-1.756,0.027-2.661-1.387-3.867c-0.386-0.332-2.734-2.139-3.107-2.161
	c-2.35-0.133-4.266-0.677-6.428,0.473c-1.917,1.015-3.163,2.746-4.129,4.58c-1.54,2.919-0.297,6.381,0.047,9.571
	c0.328,3.044,0.73,5.826,1.343,8.792c0.565,2.746,2.122,4.817,3.068,7.328c0.237,0.63,0.508,1.317,0.598,1.983
	c2.407,0.673,1.96,7.341,4.697,8.485c0.321,1.482,3.075,3.921,4.037,5.154c1.272,1.638,4.57,5.351,6.776,5.257"/>
<path fill="#149DAA" d="M304.624,362.061c0.044,0.795,0.291,1.394,0.374,2.172c0.692,0.146,1.003,0.934,1.266,1.362
	c-0.021,0.384,0.073,0.839,0.047,1.218c1.225,0.687,1.217,3.965,2.04,5.333c0.598,0.982,1.091,1.314,1.266,2.481
	c0.274,1.854-0.306,3.79-0.231,5.67c0.082,2.13,0.467,4.242,0.438,6.383c-0.04,2.633,0.045,5.361-0.267,7.928
	c-0.511,4.246-0.007,8.505,0.099,12.755c0.042,1.761-0.07,2.661,1.324,3.891c0.385,0.336,2.701,2.174,3.074,2.201
	c2.353,0.166,4.254,0.734,6.438-0.384c1.931-0.986,3.202-2.699,4.193-4.521c1.583-2.898,0.396-6.375,0.101-9.573
	c-0.282-3.046-0.646-5.837-1.209-8.812c-0.524-2.753-2.05-4.846-2.958-7.366c-0.229-0.636-0.487-1.326-0.568-1.993
	c-2.396-0.706-1.849-7.365-4.564-8.548c-0.303-1.487-3.02-3.961-3.961-5.209c-1.25-1.655-4.486-5.413-6.692-5.354"/>
<path fill="#149DAA" d="M304.301,359.791c0.06-0.795,0.313-1.39,0.407-2.167c0.695-0.14,1.018-0.917,1.286-1.35
	c-0.021-0.383,0.087-0.836,0.063-1.217c1.229-0.666,1.271-3.946,2.118-5.302c0.608-0.977,1.106-1.298,1.3-2.463
	c0.309-1.854-0.242-3.794-0.146-5.673c0.113-2.13,0.528-4.235,0.528-6.375c0-2.635,0.126-5.36-0.146-7.935
	c-0.446-4.251,0.12-8.504,0.287-12.754c0.068-1.756-0.03-2.661,1.385-3.867c0.391-0.332,2.734-2.139,3.108-2.161
	c2.351-0.133,4.265-0.677,6.43,0.473c1.916,1.015,3.162,2.746,4.129,4.58c1.539,2.919,0.297,6.381-0.048,9.571
	c-0.327,3.044-0.729,5.826-1.342,8.792c-0.566,2.746-2.123,4.817-3.068,7.328c-0.234,0.63-0.509,1.317-0.599,1.983
	c-2.406,0.673-1.96,7.341-4.695,8.485c-0.319,1.482-3.076,3.921-4.038,5.154c-1.271,1.638-4.564,5.351-6.771,5.257"/>
<path fill="#EAC31A" d="M360.119,359.791c0.054-0.795,0.313-1.39,0.408-2.167c0.69-0.14,1.016-0.917,1.279-1.35
	c-0.021-0.383,0.085-0.836,0.067-1.217c1.227-0.666,1.27-3.946,2.118-5.302c0.605-0.977,1.104-1.298,1.301-2.463
	c0.309-1.854-0.247-3.794-0.146-5.673c0.109-2.13,0.525-4.235,0.525-6.375c0-2.635,0.125-5.36-0.145-7.935
	c-0.447-4.251,0.122-8.504,0.288-12.754c0.067-1.756-0.029-2.661,1.384-3.867c0.387-0.332,2.731-2.139,3.104-2.161
	c2.354-0.133,4.269-0.677,6.435,0.473c1.917,1.015,3.161,2.746,4.13,4.58c1.539,2.919,0.297,6.381-0.047,9.571
	c-0.328,3.044-0.73,5.826-1.346,8.792c-0.563,2.746-2.119,4.817-3.065,7.328c-0.238,0.63-0.503,1.317-0.599,1.983
	c-2.406,0.673-1.959,7.341-4.695,8.485c-0.321,1.482-3.075,3.921-4.042,5.154c-1.271,1.638-4.567,5.351-6.771,5.257"/>
<path fill="#149DAA" d="M302.222,362.061c-0.043,0.795-0.291,1.394-0.373,2.172c-0.688,0.146-1.003,0.934-1.266,1.362
	c0.024,0.384-0.073,0.839-0.047,1.218c-1.221,0.687-1.213,3.965-2.04,5.333c-0.594,0.982-1.087,1.314-1.261,2.481
	c-0.278,1.854,0.301,3.79,0.23,5.67c-0.082,2.13-0.466,4.242-0.435,6.383c0.041,2.633-0.045,5.361,0.265,7.928
	c0.509,4.246,0.006,8.505-0.096,12.755c-0.042,1.761,0.071,2.661-1.326,3.891c-0.382,0.336-2.704,2.174-3.076,2.201
	c-2.349,0.166-4.254,0.734-6.436-0.384c-1.932-0.986-3.203-2.699-4.196-4.521c-1.584-2.898-0.394-6.375-0.097-9.573
	c0.28-3.046,0.643-5.837,1.208-8.812c0.525-2.753,2.05-4.846,2.957-7.366c0.228-0.636,0.489-1.326,0.568-1.993
	c2.396-0.706,1.849-7.365,4.568-8.548c0.3-1.487,3.018-3.961,3.959-5.209c1.25-1.655,4.488-5.413,6.694-5.354"/>
<path fill="#EAC31A" d="M358.063,362.061c-0.048,0.795-0.295,1.394-0.375,2.172c-0.691,0.146-0.997,0.934-1.269,1.362
	c0.025,0.384-0.071,0.839-0.047,1.218c-1.22,0.687-1.211,3.965-2.037,5.333c-0.598,0.982-1.087,1.314-1.265,2.481
	c-0.278,1.854,0.306,3.79,0.229,5.67c-0.083,2.13-0.467,4.242-0.436,6.383c0.04,2.633-0.045,5.361,0.263,7.928
	c0.51,4.246,0.009,8.505-0.094,12.755c-0.041,1.761,0.07,2.661-1.326,3.891c-0.382,0.336-2.705,2.174-3.074,2.201
	c-2.35,0.166-4.255,0.734-6.437-0.384c-1.936-0.986-3.203-2.699-4.196-4.521c-1.584-2.898-0.395-6.375-0.097-9.573
	c0.276-3.046,0.643-5.837,1.209-8.812c0.521-2.753,2.05-4.846,2.956-7.366c0.229-0.636,0.485-1.326,0.564-1.993
	c2.396-0.706,1.853-7.365,4.567-8.548c0.301-1.487,3.018-3.961,3.959-5.209c1.25-1.655,4.486-5.413,6.691-5.354"/>
<path fill="#EAC31A" d="M360.441,362.839c0.045,0.795,0.293,1.391,0.376,2.173c0.688,0.146,1.002,0.93,1.265,1.362
	c-0.022,0.384,0.074,0.839,0.047,1.218c1.225,0.684,1.211,3.965,2.04,5.333c0.594,0.979,1.083,1.313,1.261,2.479
	c0.278,1.855-0.301,3.79-0.229,5.673c0.083,2.13,0.468,4.239,0.437,6.383c-0.041,2.633,0.045,5.358-0.264,7.928
	c-0.512,4.246-0.011,8.505,0.095,12.755c0.038,1.758-0.07,2.661,1.323,3.887c0.382,0.336,2.705,2.178,3.074,2.202
	c2.35,0.165,4.255,0.737,6.438-0.381c1.934-0.989,3.202-2.702,4.193-4.521c1.585-2.898,0.394-6.376,0.097-9.573
	c-0.276-3.046-0.643-5.838-1.208-8.813c-0.522-2.753-2.052-4.843-2.957-7.363c-0.225-0.638-0.486-1.326-0.563-1.993
	c-2.397-0.705-1.853-7.365-4.572-8.548c-0.301-1.488-3.018-3.964-3.957-5.211c-1.249-1.654-4.486-5.412-6.69-5.353"/>
<path fill="#149DAA" d="M304.271,359.791c-0.47-0.143-1.28-0.363-1.781-0.187c-0.329,0.116-0.699,1.078-0.709,1.436
	c-0.034,1.236,2.038,1.081,2.918,1.03c0.396-0.738,0.524-1.988-0.569-2.234"/>
<path fill="#F5E331" d="M360.209,359.883c-0.717-0.251-1.543-0.469-2.218,0.167c-0.646,0.604-0.467,1.708,0.304,2.102
	c0.47,0.241,2.007,0.772,2.254,0.203c0.121-0.283-0.021-0.834-0.007-1.144c0.018-0.36,0.137-0.799,0.002-1.146"/>
<polygon fill="#FEEFDE" stroke="#503993" stroke-miterlimit="10" points="521.506,230.361 527.544,230.361 527.544,293.924 
	543.236,357.77 544.747,359.472 546.255,360.892 547.764,360.892 547.764,362.027 549.574,362.027 551.384,362.027 553.497,362.027 
	553.497,361.176 555.309,362.027 555.309,360.042 556.516,359.472 558.026,356.636 573.417,294.207 573.417,241.994 
	582.773,242.278 582.773,240.576 584.584,240.292 584.584,237.738 586.696,236.886 586.696,234.05 586.696,231.778 585.49,230.361 
	584.283,227.806 582.17,226.67 580.66,225.252 578.85,225.252 525.731,223.833 524.826,225.252 523.018,226.67 521.506,227.523 "/>
<polygon fill="none" stroke="#503993" stroke-miterlimit="10" points="573.417,230.927 573.417,237.168 580.962,237.168 
	580.962,235.183 582.773,232.063 581.565,230.927 "/>
<polygon fill="#EAC31A" points="538.104,325.421 562.25,325.421 555.611,355.5 551.688,358.906 545.652,355.785 "/>
<polygon fill="#42276A" points="73.578,216.603 12.881,276.433 3.242,267.508 63.938,207.677 "/>
<polygon fill="#42276A" points="75.396,334.694 14.699,394.525 5.062,385.601 65.759,325.77 "/>
<polygon fill="#42276A" points="75.398,310.153 14.701,369.986 5.062,361.06 65.76,301.229 "/>
<polygon fill="#42276A" points="77.796,238.115 17.099,297.945 7.461,289.021 68.158,229.189 "/>
<rect x="318.447" y="163.153" fill="#EAC31A" width="23.43" height="2.056"/>
<rect x="318.566" y="170.562" fill="#EAC31A" width="23.43" height="2.053"/>
<rect x="319.87" y="177.184" fill="#EAC31A" width="20.824" height="2.052"/>
<rect x="317.899" y="197.346" fill="#EAC31A" width="23.431" height="2.053"/>
<rect x="318.566" y="191.071" fill="#EAC31A" width="23.43" height="2.056"/>
<rect x="319.17" y="186.587" fill="#EAC31A" width="22.223" height="2.053"/>
<rect x="360.588" y="166.797" width="21.995" height="2.575"/>
<rect x="362.256" y="187.858" width="19.354" height="2.573"/>
<rect x="361.118" y="196.077" width="21.995" height="2.569"/>
<rect x="361.953" y="174.934" width="19.806" height="2.575"/>
<polyline fill="#149DAA" points="653.225,186.868 672.015,187.996 672.781,189.615 673.932,190.531 674.891,191.659 675.85,193.308 
	677,193.308 677,194.957 665.111,194.957 663.771,194.957 654.375,194.196 654.375,186.938 "/>
<polyline fill="none" stroke="#EAC31A" stroke-width="3" stroke-miterlimit="10" points="318.566,175.53 319.388,177.184 
	318.324,174.517 318.324,160.977 "/>
<polyline fill="none" stroke="#EAC31A" stroke-width="3" stroke-miterlimit="10" points="319.17,176.606 320.514,179.237 
	322.023,180.85 323.576,181.82 326.166,182.386 330.282,182.476 332.068,183.314 334.691,183.381 336.881,183.891 338.161,184.468 
	339.64,185.482 340.694,186.571 341.393,187.614 341.996,189.097 341.996,206.799 "/>
<polyline fill="none" stroke="#503993" stroke-width="3" stroke-miterlimit="10" points="341.996,159.637 341.667,175.671 
	341.393,176.607 340.694,178.211 340.049,179.237 338.873,180.563 337.658,181.469 335.809,182.22 332.23,182.476 324.975,183.526 
	323.576,183.93 322.273,184.539 321.018,185.406 319.87,185.406 "/>
<polyline fill="none" stroke="#503993" stroke-width="3" stroke-miterlimit="10" points="321.018,185.406 319.17,186.587 
	318.566,188.64 318.324,206.799 "/>
<rect x="361.657" y="159.983" fill="#503993" width="19.551" height="1.347"/>
<rect x="360.588" y="166.298" fill="#503993" width="21.995" height="2.575"/>
<rect x="361.811" y="174.602" fill="#503993" width="19.555" height="2.574"/>
<rect x="360.436" y="195.663" fill="#503993" width="21.995" height="2.571"/>
<rect x="361.002" y="187.444" fill="#503993" width="20.863" height="2.572"/>
<polyline fill="none" stroke="#149DAA" stroke-width="3" stroke-miterlimit="10" points="360.588,172.526 361.359,174.602 
	360.359,171.259 360.359,154.281 "/>
<polyline fill="none" stroke="#149DAA" stroke-width="3" stroke-miterlimit="10" points="361.002,174.926 362.263,178.227 
	363.681,180.248 365.139,181.465 367.57,182.176 371.434,182.288 373.111,183.339 375.573,183.423 377.629,184.061 378.831,184.785 
	380.22,186.057 381.207,187.421 381.865,188.73 382.431,190.589 382.431,212.785 "/>
<polyline fill="none" stroke="#503993" stroke-width="3" stroke-miterlimit="10" points="382.431,153.65 382.12,173.754 
	381.865,174.928 381.207,176.939 380.604,178.227 379.501,179.889 378.359,181.025 376.622,181.966 373.264,182.288 
	366.451,183.603 365.139,184.111 363.916,184.874 362.734,185.96 361.66,185.96 "/>
<polyline fill="none" stroke="#503993" stroke-width="3" stroke-miterlimit="10" points="362.734,185.96 361.002,187.444 
	360.436,190.016 360.208,212.785 "/>
<polygon fill="#752168" points="16.007,250.262 76.704,310.093 67.066,319.018 6.369,259.187 "/>
<polygon fill="#752168" points="17.101,277.497 77.798,337.329 68.16,346.253 7.463,286.422 "/>
<polygon fill="#752168" points="14.702,345.011 75.399,404.843 65.761,413.766 5.064,353.936 "/>
<polygon fill="#752168" points="16.004,371.483 76.701,431.314 67.063,440.239 6.367,380.407 "/>
<rect x="67.051" y="196.031" fill="#FFFFFF" width="40.839" height="255.472"/>
<rect x="-21.61" y="214.049" fill="#FFFFFF" width="40.839" height="255.468"/>
<rect x="92.742" y="279.069" fill="#149DAA" width="9.585" height="161.189"/>
<rect x="198.547" y="279.069" fill="#149DAA" width="9.586" height="161.189"/>
<rect x="102.327" y="284.017" fill="#149DAA" width="96.222" height="10.748"/>
<rect x="102.327" y="302.633" fill="#EAC31A" width="96.222" height="10.748"/>
<rect x="102.327" y="318.392" fill="#503993" width="96.222" height="10.749"/>
<rect x="102.327" y="336.53" fill="#149DAA" width="96.222" height="10.749"/>
<rect x="102.327" y="352.652" fill="#149DAA" width="96.222" height="10.748"/>
<rect x="102.327" y="370.527" fill="#EAC31A" width="96.222" height="10.746"/>
<rect x="102.327" y="386.562" fill="#752168" width="96.222" height="10.746"/>
<rect x="102.327" y="427.276" fill="#503993" width="96.222" height="10.746"/>
<rect x="102.327" y="405.772" fill="#EAC31A" width="96.222" height="10.748"/>
<polygon fill="#503993" points="198.547,284.017 150.438,284.017 150.438,286.329 150.438,287.428 152.341,288.344 152.724,290.541 
	152.341,292.007 150.438,292.007 150.438,292.923 150.438,294.765 197.974,294.765 "/>
<polygon fill="#752168" points="198.547,302.633 147.164,302.633 147.164,303.547 153.108,303.547 152.916,305.092 147.164,305.092 
	147.164,306.844 152.916,306.844 153.108,309.959 147.931,309.959 147.164,310.691 153.491,310.691 153.108,312.34 198.547,313.381 
	"/>
<polygon fill="#149DAA" points="198.547,318.392 149.848,318.392 150.438,321.684 149.848,321.684 148.506,321.684 147.164,322.965 
	147.164,324.613 148.314,326.078 149.848,326.078 150.438,328.737 198.547,329.141 "/>
<polygon fill="#503993" points="198.547,336.53 150.438,336.53 150.438,338.351 152.724,339.467 152.724,341.906 152.533,343.298 
	151.573,343.298 150.438,344.397 150.438,345.312 150.438,347.279 198.547,347.279 "/>
<polygon fill="#503993" points="198.547,352.652 150.438,352.652 150.438,356.058 151.958,356.058 151.958,357.219 152.724,358.022 
	152.916,359.663 152.148,360.699 150.438,360.699 150.438,363.4 198.547,363.4 "/>
<polygon fill="#752168" points="198.547,370.527 147.164,370.527 147.164,372.423 152.916,372.423 153.299,374.438 147.164,374.438 
	147.164,375.9 153.108,375.9 153.108,378.284 147.164,378.284 147.164,379.201 152.916,379.201 153.108,380.652 198.547,381.275 "/>
<polygon fill="#EAC31A" points="198.547,386.562 152.724,386.562 152.724,389.082 147.164,389.082 147.164,391.935 152.341,391.935 
	152.724,393.296 147.164,393.296 147.164,395.311 153.108,395.311 152.724,396.226 152.916,397.31 198.547,397.31 "/>
<polygon fill="#752168" points="198.547,405.772 153.108,405.772 153.108,406.667 147.164,406.667 147.164,408.171 153.491,408.171 
	153.299,409.78 147.164,409.78 147.164,412.528 153.108,412.528 152.916,413.811 147.164,413.811 147.164,416.52 198.547,416.52 "/>
<polygon fill="#149DAA" points="198.547,427.276 150.438,427.276 150.438,428.807 149.657,428.807 148.314,428.807 147.164,430.136 
	147.164,431.005 147.164,432.649 148.89,432.649 150.438,433.752 150.438,438.023 198.547,438.023 "/>
<polygon fill="none" stroke="#503993" stroke-miterlimit="10" points="387.213,227.805 387.213,234.048 394.76,234.048 
	394.76,232.062 396.57,228.942 395.361,227.805 "/>
<polygon fill="#FEEFDE" stroke="#503993" stroke-miterlimit="10" points="431.612,230.954 437.65,230.954 437.65,294.517 
	453.343,358.365 454.852,360.067 456.361,361.487 457.868,361.487 457.868,362.621 459.68,362.621 461.491,362.621 463.604,362.621 
	463.604,361.769 465.416,362.621 465.416,360.636 466.622,360.067 468.132,357.23 483.524,294.802 483.524,242.589 492.88,242.872 
	492.88,241.17 494.691,240.885 494.691,238.332 496.804,237.48 496.804,234.644 496.804,232.373 495.597,230.954 494.388,228.401 
	492.274,227.265 490.767,225.846 488.957,225.846 435.839,224.428 434.934,225.846 433.122,227.265 431.612,228.115 "/>
<polygon fill="none" stroke="#503993" stroke-miterlimit="10" points="483.524,231.521 483.524,237.764 491.068,237.764 
	491.068,235.778 492.88,232.656 491.673,231.521 "/>
<polygon fill="#EAC31A" points="448.213,326.016 472.357,326.016 465.717,356.094 461.794,359.5 455.758,356.379 "/>
<rect x="498.289" y="398.033" fill="#EAC31A" width="28.3" height="2.488"/>
<rect x="498.436" y="407.017" fill="#EAC31A" width="28.302" height="2.491"/>
<rect x="500.009" y="415.047" fill="#EAC31A" width="25.148" height="2.489"/>
<rect x="498.436" y="442.503" fill="#EAC31A" width="28.302" height="2.488"/>
<rect x="498.436" y="434.395" fill="#EAC31A" width="28.302" height="2.491"/>
<rect x="499.164" y="426.448" fill="#EAC31A" width="26.841" height="2.488"/>
<polyline fill="none" stroke="#EAC31A" stroke-width="3" stroke-miterlimit="10" points="498.436,413.04 499.426,415.047 
	498.143,411.813 498.143,395.399 "/>
<polyline fill="none" stroke="#EAC31A" stroke-width="3" stroke-miterlimit="10" points="499.164,414.345 500.786,417.535 
	502.609,419.491 504.485,420.667 507.613,421.354 512.584,421.464 514.743,422.479 517.91,422.561 520.555,423.177 522.101,423.878 
	523.887,425.107 525.159,426.426 526.005,427.692 526.732,429.49 526.732,450.949 "/>
<polyline fill="none" stroke="#503993" stroke-width="3" stroke-miterlimit="10" points="526.732,393.77 526.334,413.213 
	526.005,414.346 525.159,416.292 524.381,417.535 522.96,419.145 521.495,420.241 519.26,421.153 514.938,421.464 506.173,422.737 
	504.485,423.226 502.912,423.964 501.393,425.015 500.009,425.015 "/>
<polyline fill="none" stroke="#503993" stroke-width="3" stroke-miterlimit="10" points="501.393,425.015 499.164,426.448 
	498.436,428.936 498.143,450.949 "/>
<rect x="331.506" y="500.817" fill="#EAC31A" width="28.301" height="2.491"/>
<rect x="331.651" y="509.803" fill="#EAC31A" width="28.301" height="2.49"/>
<rect x="333.225" y="517.827" fill="#EAC31A" width="25.151" height="2.49"/>
<rect x="331.651" y="545.284" fill="#EAC31A" width="28.301" height="2.492"/>
<rect x="331.651" y="537.179" fill="#EAC31A" width="28.301" height="2.49"/>
<rect x="332.38" y="529.231" fill="#EAC31A" width="26.841" height="2.489"/>
<polyline fill="none" stroke="#EAC31A" stroke-width="3" stroke-miterlimit="10" points="331.651,515.823 332.644,517.827 
	331.358,514.596 331.358,498.182 "/>
<polyline fill="none" stroke="#EAC31A" stroke-width="3" stroke-miterlimit="10" points="332.38,517.131 334.002,520.32 
	335.825,522.276 337.702,523.45 340.83,524.14 345.801,524.245 347.959,525.262 351.129,525.346 353.773,525.96 355.319,526.659 
	357.103,527.893 358.377,529.21 359.221,530.476 359.951,532.274 359.951,553.738 "/>
<polyline fill="none" stroke="#503993" stroke-width="3" stroke-miterlimit="10" points="359.951,496.554 359.55,515.994 
	359.221,517.131 358.377,519.073 357.6,520.32 356.179,521.929 354.711,523.027 352.478,523.938 348.156,524.245 339.391,525.521 
	337.702,526.012 336.13,526.749 334.61,527.8 333.225,527.8 "/>
<polyline fill="none" stroke="#503993" stroke-width="3" stroke-miterlimit="10" points="334.61,527.8 332.38,529.231 
	331.651,531.721 331.358,553.738 "/>
<rect x="568.624" y="494.241" fill="#EAC31A" width="28.3" height="2.488"/>
<rect x="568.771" y="503.228" fill="#EAC31A" width="28.303" height="2.489"/>
<rect x="570.345" y="511.255" fill="#EAC31A" width="25.151" height="2.488"/>
<rect x="568.771" y="538.714" fill="#EAC31A" width="28.303" height="2.485"/>
<rect x="568.771" y="530.604" fill="#EAC31A" width="28.303" height="2.489"/>
<rect x="569.498" y="522.656" fill="#EAC31A" width="26.842" height="2.491"/>
<polyline fill="none" stroke="#EAC31A" stroke-width="3" stroke-miterlimit="10" points="568.771,509.247 569.763,511.255 
	568.479,508.025 568.479,491.607 "/>
<polyline fill="none" stroke="#EAC31A" stroke-width="3" stroke-miterlimit="10" points="569.498,510.555 571.121,513.743 
	572.944,515.698 574.82,516.877 577.95,517.564 582.919,517.672 585.078,518.689 588.246,518.771 590.893,519.388 592.438,520.087 
	594.222,521.318 595.496,522.637 596.34,523.9 597.068,525.698 597.068,547.157 "/>
<polyline fill="none" stroke="#503993" stroke-width="3" stroke-miterlimit="10" points="597.068,489.981 596.669,509.421 
	596.34,510.556 595.496,512.502 594.718,513.743 593.297,515.354 591.83,516.449 589.597,517.365 585.273,517.672 576.51,518.946 
	574.82,519.436 573.25,520.174 571.729,521.225 570.345,521.225 "/>
<polyline fill="none" stroke="#503993" stroke-width="3" stroke-miterlimit="10" points="571.729,521.225 569.498,522.656 
	568.771,525.147 568.479,547.157 "/>
<rect x="256.377" y="499.134" width="31.27" height="2.674"/>
<rect x="256.377" y="507.932" width="31.27" height="2.676"/>
<rect x="258.963" y="528.723" width="27.511" height="2.676"/>
<rect x="257.348" y="537.263" width="31.27" height="2.678"/>
<rect x="258.317" y="516.386" width="28.157" height="2.676"/>
<rect x="256.377" y="498.698" fill="#503993" width="31.27" height="2.68"/>
<rect x="256.377" y="507.41" fill="#503993" width="31.27" height="2.679"/>
<rect x="258.116" y="516.038" fill="#503993" width="27.792" height="2.678"/>
<rect x="256.377" y="536.828" fill="#503993" width="31.27" height="2.678"/>
<rect x="257.182" y="528.286" fill="#503993" width="29.66" height="2.681"/>
<polyline fill="none" stroke="#149DAA" stroke-width="3" stroke-miterlimit="10" points="256.377,513.886 257.473,516.038 
	256.053,512.568 256.053,494.928 "/>
<polyline fill="none" stroke="#149DAA" stroke-width="3" stroke-miterlimit="10" points="257.182,515.283 258.974,518.716 
	260.989,520.818 263.063,522.078 266.519,522.819 272.012,522.935 274.398,524.027 277.897,524.114 280.819,524.78 282.529,525.53 
	284.501,526.852 285.909,528.268 286.842,529.629 287.646,531.563 287.646,554.617 "/>
<polyline fill="none" stroke="#503993" stroke-width="3" stroke-miterlimit="10" points="287.646,493.182 287.206,514.07 
	286.842,515.284 285.909,517.378 285.049,518.716 283.478,520.444 281.857,521.624 279.389,522.602 274.613,522.935 
	264.929,524.302 263.063,524.827 261.325,525.619 259.646,526.753 258.116,526.753 "/>
<polyline fill="none" stroke="#503993" stroke-width="3" stroke-miterlimit="10" points="259.646,526.753 257.182,528.286 
	256.377,530.967 256.053,554.617 "/>
<rect x="397.604" y="500.378" width="31.271" height="2.674"/>
<rect x="397.604" y="509.177" width="31.271" height="2.675"/>
<rect x="400.19" y="529.967" width="27.512" height="2.675"/>
<rect x="398.574" y="538.507" width="31.271" height="2.677"/>
<rect x="399.546" y="517.633" width="28.157" height="2.673"/>
<rect x="397.604" y="499.946" fill="#503993" width="31.271" height="2.677"/>
<rect x="397.604" y="508.657" fill="#503993" width="31.271" height="2.675"/>
<rect x="399.343" y="517.283" fill="#503993" width="27.793" height="2.678"/>
<rect x="397.604" y="538.073" fill="#503993" width="31.271" height="2.678"/>
<rect x="398.412" y="529.534" fill="#503993" width="29.658" height="2.677"/>
<polyline fill="none" stroke="#149DAA" stroke-width="3" stroke-miterlimit="10" points="397.604,515.13 398.7,517.283 
	397.28,513.813 397.28,496.173 "/>
<polyline fill="none" stroke="#149DAA" stroke-width="3" stroke-miterlimit="10" points="398.412,516.531 400.201,519.958 
	402.217,522.061 404.292,523.323 407.747,524.064 413.24,524.182 415.625,525.271 419.124,525.358 422.047,526.024 423.757,526.775 
	425.73,528.097 427.136,529.513 428.07,530.874 428.876,532.806 428.876,555.865 "/>
<polyline fill="none" stroke="#503993" stroke-width="3" stroke-miterlimit="10" points="428.876,494.425 428.434,515.315 
	428.07,516.531 427.136,518.62 426.276,519.958 424.707,521.689 423.086,522.866 420.616,523.846 415.842,524.182 406.156,525.546 
	404.292,526.073 402.552,526.865 400.873,527.993 399.343,527.993 "/>
<polyline fill="none" stroke="#503993" stroke-width="3" stroke-miterlimit="10" points="400.873,527.993 398.412,529.534 
	397.604,532.21 397.28,555.865 "/>
<rect x="566.813" y="398.704" width="31.271" height="2.674"/>
<rect x="566.813" y="407.504" width="31.271" height="2.674"/>
<rect x="569.399" y="428.294" width="27.512" height="2.674"/>
<rect x="567.785" y="436.834" width="31.271" height="2.677"/>
<rect x="568.756" y="415.958" width="28.156" height="2.673"/>
<rect x="566.813" y="398.273" fill="#503993" width="31.271" height="2.68"/>
<rect x="566.813" y="406.986" fill="#503993" width="31.271" height="2.677"/>
<rect x="568.554" y="415.613" fill="#503993" width="27.79" height="2.678"/>
<rect x="566.813" y="436.403" fill="#503993" width="31.271" height="2.675"/>
<rect x="567.62" y="427.863" fill="#503993" width="29.659" height="2.675"/>
<polyline fill="none" stroke="#149DAA" stroke-width="3" stroke-miterlimit="10" points="566.813,413.456 567.91,415.613 
	566.491,412.139 566.491,394.499 "/>
<polyline fill="none" stroke="#149DAA" stroke-width="3" stroke-miterlimit="10" points="567.62,414.859 569.411,418.287 
	571.427,420.389 573.501,421.652 576.957,422.391 582.449,422.507 584.835,423.598 588.334,423.685 591.256,424.35 592.966,425.101 
	594.938,426.423 596.346,427.84 597.28,429.198 598.086,431.133 598.086,454.192 "/>
<polyline fill="none" stroke="#503993" stroke-width="3" stroke-miterlimit="10" points="598.086,392.752 597.643,413.641 
	597.28,414.86 596.346,416.95 595.485,418.287 593.916,420.015 592.295,421.196 589.826,422.174 585.052,422.507 575.366,423.87 
	573.501,424.401 571.761,425.194 570.083,426.323 568.554,426.323 "/>
<polyline fill="none" stroke="#503993" stroke-width="3" stroke-miterlimit="10" points="570.083,426.323 567.62,427.863 
	566.813,430.534 566.491,454.192 "/>
<rect x="38.73" y="496.454" width="31.27" height="2.679"/>
<rect x="38.73" y="505.255" width="31.27" height="2.677"/>
<rect x="41.316" y="526.045" width="27.512" height="2.677"/>
<rect x="39.702" y="534.587" width="31.27" height="2.675"/>
<rect x="40.671" y="513.711" width="28.157" height="2.673"/>
<rect x="38.73" y="496.026" fill="#503993" width="31.27" height="2.675"/>
<rect x="38.73" y="504.739" fill="#503993" width="31.27" height="2.674"/>
<rect x="40.47" y="513.365" fill="#503993" width="27.792" height="2.678"/>
<rect x="38.73" y="534.155" fill="#503993" width="31.27" height="2.677"/>
<rect x="39.536" y="525.615" fill="#503993" width="29.66" height="2.674"/>
<polyline fill="none" stroke="#149DAA" stroke-width="3" stroke-miterlimit="10" points="38.73,511.208 39.827,513.365 
	38.407,509.893 38.407,492.251 "/>
<polyline fill="none" stroke="#149DAA" stroke-width="3" stroke-miterlimit="10" points="39.536,512.612 41.328,516.037 
	43.344,518.143 45.417,519.404 48.873,520.142 54.367,520.26 56.751,521.351 60.251,521.439 63.173,522.103 64.883,522.854 
	66.855,524.175 68.263,525.591 69.196,526.949 70,528.884 70,551.946 "/>
<polyline fill="none" stroke="#503993" stroke-width="3" stroke-miterlimit="10" points="70,490.504 69.56,511.393 69.196,512.613 
	68.263,514.7 67.403,516.037 65.832,517.769 64.211,518.948 61.744,519.928 56.967,520.26 47.283,521.626 45.417,522.153 
	43.679,522.948 42,524.073 40.47,524.073 "/>
<polyline fill="none" stroke="#503993" stroke-width="3" stroke-miterlimit="10" points="42,524.073 39.536,525.615 38.73,528.285 
	38.407,551.946 "/>
<rect x="147.487" y="496.454" width="31.27" height="2.68"/>
<rect x="147.487" y="505.255" width="31.27" height="2.677"/>
<rect x="150.073" y="526.045" width="27.512" height="2.677"/>
<rect x="148.458" y="534.588" width="31.271" height="2.675"/>
<rect x="149.428" y="513.712" width="28.157" height="2.672"/>
<rect x="147.487" y="496.026" fill="#503993" width="31.27" height="2.675"/>
<rect x="147.487" y="504.739" fill="#503993" width="31.27" height="2.675"/>
<rect x="149.227" y="513.365" fill="#503993" width="27.792" height="2.678"/>
<rect x="147.487" y="534.156" fill="#503993" width="31.27" height="2.678"/>
<rect x="148.293" y="525.615" fill="#503993" width="29.659" height="2.674"/>
<polyline fill="none" stroke="#149DAA" stroke-width="3" stroke-miterlimit="10" points="147.487,511.208 148.583,513.365 
	147.164,509.894 147.164,492.251 "/>
<polyline fill="none" stroke="#149DAA" stroke-width="3" stroke-miterlimit="10" points="148.293,512.613 150.085,516.038 
	152.1,518.144 154.173,519.404 157.628,520.142 163.124,520.261 165.508,521.352 169.007,521.439 171.929,522.103 173.639,522.856 
	175.612,524.176 177.019,525.592 177.952,526.949 178.758,528.885 178.758,551.946 "/>
<polyline fill="none" stroke="#503993" stroke-width="3" stroke-miterlimit="10" points="178.758,490.504 178.317,511.393 
	177.952,512.613 177.019,514.701 176.16,516.038 174.588,517.771 172.967,518.948 170.499,519.928 165.723,520.261 156.039,521.626 
	154.173,522.154 152.435,522.948 150.756,524.073 149.227,524.073 "/>
<polyline fill="none" stroke="#503993" stroke-width="3" stroke-miterlimit="10" points="150.756,524.073 148.293,525.615 
	147.487,528.285 147.164,551.946 "/>
<rect x="209.978" y="498.326" fill="#EAC31A" width="28.299" height="2.49"/>
<rect x="210.124" y="507.313" fill="#EAC31A" width="28.298" height="2.491"/>
<rect x="211.696" y="515.342" fill="#EAC31A" width="25.151" height="2.487"/>
<rect x="210.124" y="542.799" fill="#EAC31A" width="28.298" height="2.487"/>
<rect x="210.124" y="534.691" fill="#EAC31A" width="28.298" height="2.487"/>
<rect x="210.852" y="526.74" fill="#EAC31A" width="26.841" height="2.493"/>
<polyline fill="none" stroke="#EAC31A" stroke-width="3" stroke-miterlimit="10" points="210.124,513.335 211.114,515.342 
	209.831,512.109 209.831,495.692 "/>
<polyline fill="none" stroke="#EAC31A" stroke-width="3" stroke-miterlimit="10" points="210.852,514.642 212.474,517.828 
	214.297,519.785 216.174,520.962 219.303,521.649 224.272,521.761 226.432,522.773 229.6,522.858 232.245,523.473 233.79,524.171 
	235.575,525.403 236.849,526.723 237.693,527.989 238.422,529.783 238.422,551.249 "/>
<polyline fill="none" stroke="#503993" stroke-width="3" stroke-miterlimit="10" points="238.422,494.066 238.022,513.509 
	237.693,514.642 236.849,516.587 236.071,517.828 234.649,519.442 233.184,520.535 230.95,521.448 226.627,521.761 217.863,523.03 
	216.174,523.522 214.603,524.259 213.082,525.31 211.696,525.31 "/>
<polyline fill="none" stroke="#503993" stroke-width="3" stroke-miterlimit="10" points="213.082,525.31 210.852,526.74 
	210.124,529.232 209.831,551.249 "/>
<rect x="93.742" y="495.633" fill="#EAC31A" width="28.3" height="2.489"/>
<rect x="93.888" y="504.615" fill="#EAC31A" width="28.299" height="2.492"/>
<rect x="95.46" y="512.646" fill="#EAC31A" width="25.151" height="2.49"/>
<rect x="93.888" y="540.103" fill="#EAC31A" width="28.299" height="2.492"/>
<rect x="93.888" y="531.991" fill="#EAC31A" width="28.299" height="2.49"/>
<rect x="94.616" y="524.047" fill="#EAC31A" width="26.841" height="2.487"/>
<polyline fill="none" stroke="#EAC31A" stroke-width="3" stroke-miterlimit="10" points="93.888,510.638 94.878,512.646 
	93.595,509.409 93.595,492.995 "/>
<polyline fill="none" stroke="#EAC31A" stroke-width="3" stroke-miterlimit="10" points="94.616,511.945 96.238,515.135 
	98.061,517.092 99.938,518.266 103.067,518.95 108.036,519.064 110.195,520.073 113.364,520.157 116.009,520.777 117.553,521.478 
	119.339,522.702 120.612,524.027 121.457,525.288 122.187,527.09 122.187,548.553 "/>
<polyline fill="none" stroke="#503993" stroke-width="3" stroke-miterlimit="10" points="122.187,491.366 121.786,510.813 
	121.457,511.945 120.612,513.89 119.834,515.135 118.413,516.742 116.947,517.842 114.713,518.752 110.391,519.064 101.626,520.335 
	99.938,520.823 98.366,521.563 96.845,522.613 95.46,522.613 "/>
<polyline fill="none" stroke="#503993" stroke-width="3" stroke-miterlimit="10" points="96.845,522.613 94.616,524.047 
	93.888,526.533 93.595,548.553 "/>
<rect x="455.581" y="166.803" fill="#EAC31A" width="23.428" height="2.053"/>
<rect x="455.7" y="174.213" fill="#EAC31A" width="23.432" height="2.052"/>
<rect x="457.006" y="180.835" fill="#EAC31A" width="20.823" height="2.052"/>
<rect x="455.033" y="200.995" fill="#EAC31A" width="23.431" height="2.053"/>
<rect x="455.7" y="194.721" fill="#EAC31A" width="23.432" height="2.053"/>
<rect x="456.305" y="190.239" fill="#EAC31A" width="22.228" height="2.055"/>
<polyline fill="none" stroke="#EAC31A" stroke-width="3" stroke-miterlimit="10" points="455.7,179.18 456.522,180.835 
	455.459,178.169 455.459,164.628 "/>
<polyline fill="none" stroke="#EAC31A" stroke-width="3" stroke-miterlimit="10" points="456.305,180.258 457.647,182.887 
	459.158,184.501 460.708,185.47 463.302,186.037 467.415,186.127 469.204,186.964 471.826,187.031 474.017,187.542 475.296,188.117 
	476.774,189.133 477.828,190.221 478.528,191.264 479.132,192.748 479.132,210.45 "/>
<polyline fill="none" stroke="#503993" stroke-width="3" stroke-miterlimit="10" points="479.132,163.286 478.802,179.322 
	478.528,180.258 477.828,181.861 477.185,182.887 476.008,184.215 474.794,185.12 472.943,185.871 469.364,186.127 462.11,187.177 
	460.708,187.582 459.41,188.191 458.151,189.057 457.006,189.057 "/>
<polyline fill="none" stroke="#503993" stroke-width="3" stroke-miterlimit="10" points="458.151,189.057 456.305,190.239 
	455.7,192.29 455.459,210.45 "/>
<rect x="513.456" y="145.604" width="34.636" height="2.793"/>
<rect x="513.456" y="154.794" width="34.636" height="2.794"/>
<rect x="516.32" y="176.51" width="30.469" height="2.794"/>
<rect x="514.531" y="185.43" width="34.636" height="2.795"/>
<rect x="515.607" y="163.625" width="31.185" height="2.794"/>
<rect x="513.456" y="145.154" fill="#503993" width="34.636" height="2.794"/>
<rect x="513.456" y="154.254" fill="#503993" width="34.636" height="2.793"/>
<rect x="515.383" y="163.265" fill="#503993" width="30.784" height="2.794"/>
<rect x="513.456" y="184.979" fill="#503993" width="34.636" height="2.794"/>
<rect x="514.349" y="176.059" fill="#503993" width="32.854" height="2.794"/>
<polyline fill="none" stroke="#149DAA" stroke-width="3" stroke-miterlimit="10" points="513.456,161.012 514.672,163.265 
	513.1,159.637 513.1,141.211 "/>
<polyline fill="none" stroke="#149DAA" stroke-width="3" stroke-miterlimit="10" points="514.349,162.477 516.332,166.058 
	518.565,168.254 520.864,169.573 524.69,170.344 530.774,170.466 533.417,171.606 537.294,171.696 540.527,172.391 542.42,173.175 
	544.604,174.555 546.167,176.036 547.199,177.456 548.092,179.475 548.092,203.561 "/>
<polyline fill="none" stroke="#503993" stroke-width="3" stroke-miterlimit="10" points="548.092,139.387 547.602,161.205 
	547.199,162.477 546.167,164.661 545.212,166.058 543.473,167.863 541.681,169.096 538.945,170.117 533.656,170.466 
	522.929,171.893 520.864,172.444 518.935,173.271 517.077,174.452 515.383,174.452 "/>
<polyline fill="none" stroke="#503993" stroke-width="3" stroke-miterlimit="10" points="517.077,174.452 514.349,176.059 
	513.456,178.853 513.1,203.561 "/>
<text transform="matrix(0.7062 0 0 1 61.3647 241.0459)" fill="#A2692B" font-family="'ArialRoundedMTBold'" font-size="69.3171">Gene type</text>
<text transform="matrix(0.7062 0 0 1 61.3647 241.0459)" fill="none" stroke="#A2692B" stroke-miterlimit="10" font-family="'ArialRoundedMTBold'" font-size="69.3171">Gene type</text>
</svg>
