<?xml version="1.0" encoding="utf-8"?>
<!-- Generator: Adobe Illustrator 16.0.0, SVG Export Plug-In . SVG Version: 6.00 Build 0)  -->
<!DOCTYPE svg PUBLIC "-//W3C//DTD SVG 1.1//EN" "http://www.w3.org/Graphics/SVG/1.1/DTD/svg11.dtd">
<svg version="1.1" id="图层_1" xmlns="http://www.w3.org/2000/svg" xmlns:xlink="http://www.w3.org/1999/xlink" x="0px" y="0px"
	 width="595.281px" height="841.891px" viewBox="0 0 595.281 841.891" enable-background="new 0 0 595.281 841.891"
	 xml:space="preserve">
<polygon fill="none" stroke="#503993" stroke-miterlimit="10" points="288.753,383.484 288.753,389.164 295.312,389.164 
	295.312,387.356 296.886,384.517 295.836,383.484 "/>
<polygon fill="#EAC31A" points="285.428,274.868 306.417,274.868 300.645,302.236 297.235,305.334 291.988,302.494 "/>
<polygon fill="#FEEFDE" stroke="#503993" stroke-miterlimit="10" points="291.228,212.064 296.476,212.064 296.476,269.897 
	310.118,327.989 311.43,329.538 312.742,330.83 314.052,330.83 314.052,331.862 315.626,331.862 317.201,331.862 319.038,331.862 
	319.038,331.087 320.612,331.862 320.612,330.055 321.662,329.538 322.973,326.957 336.353,270.156 336.353,222.65 344.486,222.908 
	344.486,221.359 346.06,221.1 346.06,218.777 347.896,218.002 347.896,215.422 347.896,213.355 346.847,212.064 345.797,209.74 
	343.96,208.708 342.649,207.417 341.076,207.417 294.902,206.127 294.115,207.417 292.542,208.708 291.228,209.482 "/>
<ellipse fill="#DEEDF9" stroke="#42276A" stroke-width="14" stroke-miterlimit="10" cx="284.693" cy="331.598" rx="92.693" ry="91.347"/>
<path fill="#42276A" stroke="#42276A" stroke-width="12" stroke-miterlimit="10" d="M454.191,482.681
	c5.42,5.409,6.254,13.361,1.86,17.759l-4.418,4.423c-4.389,4.396-12.344,3.575-17.762-1.837l-86.678-86.555
	c-5.418-5.413-6.252-13.364-1.861-17.763l4.418-4.424c4.389-4.396,12.346-3.575,17.76,1.838L454.191,482.681z"/>
<line fill="none" stroke="#503993" stroke-width="2" stroke-miterlimit="10" x1="-225.334" y1="644.557" x2="-217" y2="644.557"/>
<rect x="534.5" y="180.557" fill="#42276A" width="40.834" height="160.667"/>
<rect x="509" y="173.89" fill="#42276A" width="57" height="6.667"/>
<rect x="544" y="233.89" fill="#149DAA" width="10.916" height="36.5"/>
<rect x="566" y="180.557" fill="#149DAA" width="9.334" height="19.833"/>
<path fill="#42276A" d="M511.917,173.613c-2.334,0-2.334,0-2.334,0l-2.334,2.667l-1.166,1v0.974v7.026l2.916-0.667l0.918-1
	l0.832-1.333l0.773-0.991l0.395-0.509"/>
<polygon fill="#149DAA" points="544.007,371.398 537.841,341.224 563.841,341.224 556.007,370.398 554.916,371.398 "/>
<rect x="543.916" y="371.398" fill="#149DAA" width="11.758" height="85.646"/>
<rect x="547.443" y="457.043" fill="#149DAA" width="5.563" height="13.331"/>
<rect x="547.173" y="146.883" fill="#149DAA" width="14.334" height="26"/>
<rect x="540.417" y="134.216" fill="#EAC31A" width="29" height="12.667"/>
<polygon fill="#DEEDF9" points="546,465.39 550.224,513.89 554.916,465.39 "/>
<path fill="none" stroke="#503993" stroke-miterlimit="10" d="M255.167,288.891"/>
<path fill="#149DAA" d="M260.167,331.224c-0.048-0.724-0.271-1.262-0.354-1.972c-0.604-0.124-0.884-0.834-1.118-1.225
	c0.017-0.349-0.075-0.761-0.057-1.108c-1.069-0.605-1.105-3.591-1.842-4.824c-0.529-0.887-0.962-1.182-1.129-2.241
	c-0.265-1.685,0.213-3.452,0.127-5.162c-0.099-1.938-0.46-3.854-0.46-5.801c0-2.395-0.109-4.877,0.125-7.217
	c0.389-3.868-0.104-7.737-0.249-11.604c-0.06-1.598,0.026-2.421-1.204-3.519c-0.336-0.302-2.377-1.946-2.702-1.966
	c-2.043-0.121-3.707-0.616-5.589,0.428c-1.666,0.924-2.749,2.498-3.589,4.167c-1.338,2.656-0.258,5.806,0.041,8.711
	c0.285,2.769,0.635,5.301,1.167,8c0.492,2.498,1.845,4.383,2.667,6.667c0.207,0.573,0.442,1.198,0.52,1.805
	c2.092,0.612,1.704,6.678,4.082,7.72c0.28,1.351,2.674,3.567,3.51,4.692c1.107,1.488,3.971,4.866,5.888,4.783"/>
<path fill="#EAC31A" d="M308.988,331.224c-0.049-0.724-0.271-1.262-0.354-1.972c-0.604-0.124-0.885-0.834-1.119-1.225
	c0.019-0.349-0.073-0.761-0.057-1.108c-1.068-0.605-1.104-3.591-1.842-4.824c-0.529-0.887-0.963-1.182-1.129-2.241
	c-0.269-1.685,0.213-3.452,0.127-5.162c-0.101-1.938-0.461-3.854-0.461-5.801c0-2.395-0.109-4.877,0.125-7.217
	c0.389-3.868-0.104-7.737-0.248-11.604c-0.062-1.598,0.024-2.421-1.205-3.519c-0.336-0.302-2.377-1.946-2.701-1.966
	c-2.043-0.121-3.708-0.616-5.588,0.428c-1.666,0.924-2.749,2.498-3.589,4.167c-1.338,2.656-0.258,5.806,0.041,8.711
	c0.285,2.769,0.635,5.301,1.167,8c0.492,2.498,1.845,4.383,2.667,6.667c0.207,0.573,0.442,1.198,0.52,1.805
	c2.092,0.612,1.704,6.678,4.083,7.72c0.279,1.351,2.674,3.567,3.51,4.692c1.107,1.488,3.972,4.866,5.89,4.783"/>
<path fill="#149DAA" d="M261.974,333.289c0.038,0.724,0.253,1.266,0.325,1.977c0.602,0.133,0.872,0.847,1.1,1.239
	c-0.022,0.35,0.064,0.764,0.041,1.109c1.061,0.622,1.054,3.607,1.773,4.852c0.516,0.894,0.945,1.195,1.097,2.258
	c0.242,1.688-0.262,3.448-0.201,5.159c0.071,1.939,0.405,3.859,0.377,5.808c-0.035,2.395,0.039,4.878-0.229,7.213
	c-0.444,3.863-0.006,7.738,0.083,11.605c0.036,1.6-0.061,2.421,1.153,3.537c0.332,0.306,2.349,1.979,2.673,2.003
	c2.042,0.15,3.698,0.671,5.595-0.347c1.679-0.899,2.784-2.458,3.649-4.115c1.376-2.637,0.341-5.801,0.084-8.71
	c-0.245-2.771-0.559-5.311-1.051-8.017c-0.456-2.505-1.782-4.407-2.571-6.703c-0.198-0.578-0.424-1.206-0.494-1.813
	c-2.083-0.642-1.607-6.701-3.971-7.777c-0.26-1.354-2.622-3.605-3.442-4.741c-1.086-1.505-3.901-4.924-5.819-4.868"/>
<path fill="#149DAA" d="M261.693,331.224c0.048-0.724,0.271-1.262,0.354-1.972c0.604-0.124,0.884-0.834,1.118-1.225
	c-0.017-0.349,0.075-0.761,0.057-1.108c1.069-0.605,1.105-3.591,1.842-4.824c0.529-0.887,0.962-1.182,1.129-2.241
	c0.265-1.685-0.213-3.452-0.127-5.162c0.099-1.938,0.46-3.854,0.46-5.801c0-2.395,0.109-4.877-0.125-7.217
	c-0.389-3.868,0.104-7.737,0.249-11.604c0.06-1.598-0.026-2.421,1.204-3.519c0.336-0.302,2.377-1.946,2.702-1.966
	c2.043-0.121,3.707-0.616,5.589,0.428c1.666,0.924,2.749,2.498,3.589,4.167c1.338,2.656,0.258,5.806-0.041,8.711
	c-0.285,2.769-0.635,5.301-1.167,8c-0.492,2.498-1.845,4.383-2.667,6.667c-0.207,0.573-0.442,1.198-0.52,1.805
	c-2.092,0.612-1.704,6.678-4.082,7.72c-0.28,1.351-2.674,3.567-3.51,4.692c-1.107,1.488-3.971,4.866-5.888,4.783"/>
<path fill="#EAC31A" d="M310.214,331.224c0.047-0.724,0.271-1.262,0.354-1.972c0.604-0.124,0.883-0.834,1.116-1.225
	c-0.018-0.349,0.074-0.761,0.058-1.108c1.067-0.605,1.104-3.591,1.842-4.824c0.529-0.887,0.963-1.182,1.131-2.241
	c0.267-1.685-0.215-3.452-0.127-5.162c0.098-1.938,0.459-3.854,0.459-5.801c0-2.395,0.109-4.877-0.125-7.217
	c-0.389-3.868,0.105-7.737,0.25-11.604c0.062-1.598-0.026-2.421,1.203-3.519c0.336-0.302,2.377-1.946,2.701-1.966
	c2.045-0.121,3.707-0.616,5.59,0.428c1.666,0.924,2.748,2.498,3.59,4.167c1.338,2.656,0.258,5.806-0.041,8.711
	c-0.285,2.769-0.635,5.301-1.168,8c-0.49,2.498-1.844,4.383-2.666,6.667c-0.207,0.573-0.438,1.198-0.52,1.805
	c-2.093,0.612-1.703,6.678-4.082,7.72c-0.279,1.351-2.674,3.567-3.513,4.692c-1.104,1.488-3.971,4.866-5.887,4.783"/>
<path fill="#149DAA" d="M259.886,333.289c-0.038,0.724-0.253,1.266-0.325,1.977c-0.602,0.133-0.872,0.847-1.1,1.239
	c0.021,0.35-0.064,0.764-0.041,1.109c-1.061,0.622-1.054,3.607-1.773,4.852c-0.516,0.894-0.945,1.195-1.096,2.258
	c-0.242,1.688,0.262,3.448,0.2,5.159c-0.071,1.939-0.405,3.859-0.378,5.808c0.035,2.395-0.039,4.878,0.23,7.213
	c0.443,3.863,0.006,7.738-0.083,11.605c-0.036,1.6,0.062,2.421-1.153,3.537c-0.332,0.306-2.35,1.979-2.673,2.003
	c-2.042,0.15-3.698,0.671-5.595-0.347c-1.679-0.899-2.784-2.458-3.648-4.115c-1.377-2.637-0.342-5.801-0.084-8.71
	c0.244-2.771,0.559-5.311,1.051-8.017c0.456-2.505,1.782-4.407,2.57-6.703c0.198-0.578,0.425-1.206,0.494-1.813
	c2.083-0.642,1.607-6.701,3.971-7.777c0.261-1.354,2.623-3.605,3.442-4.741c1.087-1.505,3.901-4.924,5.819-4.868"/>
<path fill="#EAC31A" d="M308.427,333.289c-0.039,0.724-0.254,1.266-0.326,1.977c-0.602,0.133-0.868,0.847-1.1,1.239
	c0.021,0.35-0.063,0.764-0.041,1.109c-1.061,0.622-1.053,3.607-1.771,4.852c-0.519,0.894-0.945,1.195-1.099,2.258
	c-0.242,1.688,0.265,3.448,0.201,5.159c-0.072,1.939-0.406,3.859-0.379,5.808c0.035,2.395-0.039,4.878,0.229,7.213
	c0.443,3.863,0.007,7.738-0.081,11.605c-0.037,1.6,0.061,2.421-1.154,3.537c-0.332,0.306-2.351,1.979-2.672,2.003
	c-2.043,0.15-3.699,0.671-5.595-0.347c-1.679-0.899-2.784-2.458-3.648-4.115c-1.377-2.637-0.342-5.801-0.084-8.71
	c0.244-2.771,0.559-5.311,1.051-8.017c0.456-2.505,1.782-4.407,2.57-6.703c0.198-0.578,0.425-1.206,0.494-1.813
	c2.083-0.642,1.607-6.701,3.97-7.777c0.262-1.354,2.623-3.605,3.442-4.741c1.087-1.505,3.9-4.924,5.818-4.868"/>
<path fill="#EAC31A" d="M310.494,333.997c0.039,0.724,0.254,1.266,0.326,1.977c0.602,0.133,0.871,0.847,1.1,1.239
	c-0.02,0.35,0.064,0.764,0.041,1.109c1.063,0.622,1.053,3.607,1.773,4.852c0.516,0.894,0.942,1.195,1.096,2.258
	c0.242,1.688-0.262,3.448-0.201,5.159c0.072,1.939,0.406,3.859,0.379,5.808c-0.035,2.395,0.039,4.878-0.229,7.213
	c-0.445,3.863-0.009,7.738,0.082,11.605c0.034,1.6-0.063,2.421,1.151,3.537c0.332,0.306,2.351,1.979,2.672,2.003
	c2.043,0.15,3.699,0.671,5.599-0.347c1.678-0.899,2.783-2.458,3.646-4.115c1.377-2.637,0.342-5.801,0.084-8.71
	c-0.244-2.771-0.559-5.311-1.051-8.017c-0.457-2.505-1.783-4.407-2.57-6.703c-0.196-0.578-0.426-1.206-0.491-1.813
	c-2.084-0.642-1.607-6.701-3.974-7.777c-0.262-1.354-2.623-3.605-3.44-4.741c-1.086-1.505-3.9-4.924-5.818-4.868"/>
<path fill="#149DAA" d="M261.667,331.224c-0.407-0.127-1.115-0.33-1.551-0.167c-0.286,0.105-0.607,0.98-0.616,1.304
	c-0.03,1.127,1.772,0.983,2.536,0.939c0.347-0.674,0.46-1.811-0.494-2.035"/>
<path fill="#F5E331" d="M310.292,331.307c-0.623-0.229-1.342-0.427-1.928,0.152c-0.56,0.551-0.406,1.554,0.264,1.912
	c0.408,0.22,1.744,0.703,1.959,0.185c0.105-0.258-0.02-0.759-0.006-1.041c0.016-0.327,0.119-0.727,0.002-1.041"/>
<polygon fill="#FEEFDE" stroke="#503993" stroke-miterlimit="10" points="450.501,213.461 455.75,213.461 455.75,271.294 
	469.391,329.385 470.704,330.934 472.015,332.226 473.326,332.226 473.326,333.258 474.9,333.258 476.474,333.258 478.311,333.258 
	478.311,332.484 479.885,333.258 479.885,331.452 480.935,330.934 482.247,328.354 495.626,271.552 495.626,224.046 
	503.759,224.304 503.759,222.756 505.333,222.497 505.333,220.173 507.169,219.399 507.169,216.818 507.169,214.751 
	506.121,213.461 505.071,211.137 503.234,210.104 501.922,208.814 500.349,208.814 454.175,207.523 453.388,208.814 
	451.815,210.104 450.501,210.879 "/>
<polygon fill="none" stroke="#503993" stroke-miterlimit="10" points="495.626,213.977 495.626,219.656 502.185,219.656 
	502.185,217.849 503.759,215.01 502.709,213.977 "/>
<polygon fill="#EAC31A" points="464.931,299.952 485.919,299.952 480.148,327.32 476.738,330.419 471.491,327.579 "/>
<rect x="-7.335" y="218.274" transform="matrix(-0.696 0.7181 -0.7181 -0.696 212.7708 358.1295)" fill="#42276A" width="75.807" height="11.668"/>
<rect x="-5.748" y="325.722" transform="matrix(-0.696 0.7181 -0.7181 -0.696 292.614 539.2195)" fill="#42276A" width="75.807" height="11.666"/>
<rect x="-5.749" y="303.396" transform="matrix(-0.696 0.7181 -0.7181 -0.696 276.5831 501.3531)" fill="#42276A" width="75.808" height="11.667"/>
<rect x="-3.665" y="237.846" transform="matrix(-0.696 0.7181 -0.7181 -0.696 233.0466 388.6891)" fill="#42276A" width="75.807" height="11.667"/>
<rect x="186.765" y="219.15" fill="#EAC31A" width="20.367" height="1.868"/>
<rect x="186.869" y="225.891" fill="#EAC31A" width="20.367" height="1.868"/>
<rect x="188.002" y="231.916" fill="#EAC31A" width="18.102" height="1.867"/>
<rect x="186.289" y="250.26" fill="#EAC31A" width="20.367" height="1.868"/>
<rect x="186.869" y="244.551" fill="#EAC31A" width="20.367" height="1.868"/>
<rect x="187.393" y="240.471" fill="#EAC31A" width="19.318" height="1.868"/>
<rect x="101.122" y="204.209" width="19.12" height="2.343"/>
<rect x="102.572" y="223.371" width="16.821" height="2.341"/>
<rect x="101.583" y="230.85" width="19.12" height="2.341"/>
<rect x="102.309" y="211.613" width="17.216" height="2.342"/>
<polyline fill="#149DAA" points="565,173.89 581.333,174.916 582,176.39 583,177.223 583.833,178.249 584.667,179.749 
	585.667,179.749 585.667,181.249 575.333,181.249 574.167,181.249 566,180.557 566,173.953 "/>
<polyline fill="none" stroke="#EAC31A" stroke-width="3" stroke-miterlimit="10" points="186.869,230.41 187.583,231.916 
	186.658,229.49 186.658,217.17 "/>
<polyline fill="none" stroke="#EAC31A" stroke-width="3" stroke-miterlimit="10" points="187.393,231.39 188.561,233.783 
	189.874,235.251 191.223,236.134 193.475,236.649 197.053,236.731 198.606,237.493 200.886,237.554 202.789,238.018 
	203.902,238.543 205.187,239.466 206.104,240.456 206.711,241.406 207.236,242.755 207.236,258.861 "/>
<polyline fill="none" stroke="#503993" stroke-width="3" stroke-miterlimit="10" points="207.236,215.95 206.949,230.539 
	206.711,231.391 206.104,232.85 205.543,233.783 204.521,234.991 203.465,235.815 201.857,236.498 198.746,236.731 192.44,237.686 
	191.223,238.054 190.092,238.608 188.999,239.397 188.002,239.397 "/>
<polyline fill="none" stroke="#503993" stroke-width="3" stroke-miterlimit="10" points="188.999,239.397 187.393,240.471 
	186.869,242.339 186.658,258.861 "/>
<rect x="102.052" y="198.009" fill="#503993" width="16.995" height="1.223"/>
<rect x="101.122" y="203.755" fill="#503993" width="19.12" height="2.343"/>
<rect x="102.186" y="211.311" fill="#503993" width="16.993" height="2.342"/>
<rect x="100.99" y="230.473" fill="#503993" width="19.12" height="2.342"/>
<rect x="101.483" y="222.994" fill="#503993" width="18.135" height="2.341"/>
<polyline fill="none" stroke="#149DAA" stroke-width="3" stroke-miterlimit="10" points="101.122,209.422 101.793,211.311 
	100.924,208.269 100.924,192.822 "/>
<polyline fill="none" stroke="#149DAA" stroke-width="3" stroke-miterlimit="10" points="101.483,211.606 102.578,214.609 
	103.811,216.448 105.078,217.555 107.191,218.201 110.55,218.304 112.009,219.26 114.149,219.336 115.936,219.917 116.98,220.575 
	118.187,221.733 119.046,222.974 119.618,224.165 120.11,225.857 120.11,246.052 "/>
<polyline fill="none" stroke="#503993" stroke-width="3" stroke-miterlimit="10" points="120.11,192.247 119.84,210.539 
	119.618,211.608 119.046,213.437 118.521,214.609 117.562,216.121 116.571,217.155 115.061,218.011 112.141,218.304 106.219,219.5 
	105.078,219.962 104.016,220.657 102.989,221.645 102.055,221.645 "/>
<polyline fill="none" stroke="#503993" stroke-width="3" stroke-miterlimit="10" points="102.989,221.645 101.483,222.994 
	100.99,225.335 100.792,246.052 "/>
<rect x="-4.616" y="257.005" transform="matrix(0.696 0.7181 -0.7181 0.696 198.8573 56.0081)" fill="#752168" width="75.807" height="11.667"/>
<rect x="-3.664" y="281.785" transform="matrix(0.696 0.7181 -0.7181 0.696 216.9401 62.8579)" fill="#752168" width="75.807" height="11.667"/>
<rect x="-5.747" y="343.211" transform="matrix(0.696 0.7181 -0.7181 0.696 260.4144 83.0289)" fill="#752168" width="75.807" height="11.666"/>
<rect x="-4.613" y="367.296" transform="matrix(0.696 0.7181 -0.7181 0.696 278.0529 89.5363)" fill="#752168" width="75.807" height="11.667"/>
<rect x="55.46" y="182.228" fill="#FFFFFF" width="35.5" height="232.438"/>
<rect x="-21.61" y="198.62" fill="#FFFFFF" width="35.5" height="232.438"/>
<rect x="77.792" y="257.779" fill="#149DAA" width="8.332" height="146.658"/>
<rect x="169.765" y="257.779" fill="#149DAA" width="8.333" height="146.658"/>
<rect x="86.124" y="262.281" fill="#149DAA" width="83.642" height="9.779"/>
<rect x="86.124" y="279.218" fill="#EAC31A" width="83.642" height="9.779"/>
<rect x="86.124" y="293.557" fill="#503993" width="83.642" height="9.779"/>
<rect x="86.124" y="310.06" fill="#149DAA" width="83.642" height="9.779"/>
<rect x="86.124" y="324.728" fill="#149DAA" width="83.642" height="9.779"/>
<rect x="86.124" y="340.991" fill="#EAC31A" width="83.642" height="9.778"/>
<rect x="86.124" y="355.581" fill="#752168" width="83.642" height="9.778"/>
<rect x="86.124" y="392.624" fill="#503993" width="83.642" height="9.778"/>
<rect x="86.124" y="373.06" fill="#EAC31A" width="83.642" height="9.779"/>
<polygon fill="#503993" points="169.765,262.281 127.945,262.281 127.945,264.384 127.945,265.384 129.599,266.217 129.932,268.217 
	129.599,269.55 127.945,269.55 127.945,270.384 127.945,272.06 169.266,272.06 "/>
<polygon fill="#752168" points="169.765,279.218 125.099,279.218 125.099,280.05 130.266,280.05 130.099,281.455 125.099,281.455 
	125.099,283.05 130.099,283.05 130.266,285.884 125.766,285.884 125.099,286.55 130.599,286.55 130.266,288.05 169.765,288.997 "/>
<polygon fill="#149DAA" points="169.765,293.557 127.432,293.557 127.945,296.552 127.432,296.552 126.266,296.552 125.099,297.717 
	125.099,299.217 126.099,300.55 127.432,300.55 127.945,302.969 169.765,303.337 "/>
<polygon fill="#503993" points="169.765,310.06 127.945,310.06 127.945,311.717 129.932,312.732 129.932,314.95 129.766,316.217 
	128.932,316.217 127.945,317.217 127.945,318.05 127.945,319.839 169.765,319.839 "/>
<polygon fill="#503993" points="169.765,324.728 127.945,324.728 127.945,327.827 129.266,327.827 129.266,328.884 129.932,329.615 
	130.099,331.108 129.432,332.05 127.945,332.05 127.945,334.507 169.765,334.507 "/>
<polygon fill="#752168" points="169.765,340.991 125.099,340.991 125.099,342.717 130.099,342.717 130.432,344.55 125.099,344.55 
	125.099,345.88 130.266,345.88 130.266,348.05 125.099,348.05 125.099,348.884 130.099,348.884 130.266,350.204 169.765,350.771 "/>
<polygon fill="#EAC31A" points="169.765,355.581 129.932,355.581 129.932,357.874 125.099,357.874 125.099,360.47 129.599,360.47 
	129.932,361.708 125.099,361.708 125.099,363.541 130.266,363.541 129.932,364.374 130.099,365.361 169.765,365.361 "/>
<polygon fill="#752168" points="169.765,373.06 130.266,373.06 130.266,373.874 125.099,373.874 125.099,375.242 130.599,375.242 
	130.432,376.706 125.099,376.706 125.099,379.206 130.266,379.206 130.099,380.374 125.099,380.374 125.099,382.839 
	169.765,382.839 "/>
<polygon fill="#149DAA" points="169.765,392.624 127.945,392.624 127.945,394.018 127.266,394.018 126.099,394.018 125.099,395.227 
	125.099,396.018 125.099,397.513 126.599,397.513 127.945,398.518 127.945,402.403 169.765,402.403 "/>
<polygon fill="none" stroke="#503993" stroke-miterlimit="10" points="333.766,211.136 333.766,216.817 340.325,216.817 
	340.325,215.009 341.899,212.17 340.849,211.136 "/>
<polygon fill="#FEEFDE" stroke="#503993" stroke-miterlimit="10" points="372.36,214.001 377.608,214.001 377.608,271.834 
	391.25,329.926 392.562,331.475 393.874,332.767 395.184,332.767 395.184,333.799 396.758,333.799 398.333,333.799 400.169,333.799 
	400.169,333.024 401.744,333.799 401.744,331.992 402.793,331.475 404.105,328.894 417.485,272.093 417.485,224.587 
	425.618,224.845 425.618,223.296 427.192,223.037 427.192,220.714 429.028,219.939 429.028,217.359 429.028,215.292 
	427.979,214.001 426.929,211.678 425.092,210.645 423.781,209.354 422.208,209.354 376.034,208.064 375.247,209.354 
	373.673,210.645 372.36,211.419 "/>
<polygon fill="none" stroke="#503993" stroke-miterlimit="10" points="417.485,214.517 417.485,220.198 424.043,220.198 
	424.043,218.39 425.618,215.551 424.568,214.517 "/>
<polygon fill="#EAC31A" points="386.79,300.493 407.778,300.493 402.006,327.861 398.596,330.959 393.349,328.119 "/>
<rect x="430.32" y="366.019" fill="#EAC31A" width="24.6" height="2.266"/>
<rect x="430.447" y="374.193" fill="#EAC31A" width="24.599" height="2.266"/>
<rect x="431.814" y="381.498" fill="#EAC31A" width="21.862" height="2.265"/>
<rect x="430.447" y="406.48" fill="#EAC31A" width="24.599" height="2.266"/>
<rect x="430.447" y="399.102" fill="#EAC31A" width="24.599" height="2.266"/>
<rect x="431.08" y="391.871" fill="#EAC31A" width="23.332" height="2.265"/>
<polyline fill="none" stroke="#EAC31A" stroke-width="3" stroke-miterlimit="10" points="430.447,379.672 431.308,381.498 
	430.192,378.556 430.192,363.621 "/>
<polyline fill="none" stroke="#EAC31A" stroke-width="3" stroke-miterlimit="10" points="431.08,380.86 432.49,383.762 
	434.075,385.542 435.706,386.612 438.425,387.237 442.746,387.337 444.623,388.26 447.376,388.335 449.675,388.896 451.019,389.533 
	452.571,390.652 453.677,391.852 454.412,393.003 455.045,394.64 455.045,414.167 "/>
<polyline fill="none" stroke="#503993" stroke-width="3" stroke-miterlimit="10" points="455.045,362.14 454.698,379.829 
	454.412,380.861 453.677,382.631 453.001,383.762 451.766,385.227 450.492,386.225 448.549,387.054 444.792,387.337 
	437.173,388.494 435.706,388.94 434.339,389.612 433.018,390.568 431.814,390.568 "/>
<polyline fill="none" stroke="#503993" stroke-width="3" stroke-miterlimit="10" points="433.018,390.568 431.08,391.871 
	430.447,394.135 430.192,414.167 "/>
<rect x="285.341" y="459.537" fill="#EAC31A" width="24.601" height="2.267"/>
<rect x="285.468" y="467.712" fill="#EAC31A" width="24.6" height="2.266"/>
<rect x="286.835" y="475.016" fill="#EAC31A" width="21.863" height="2.266"/>
<rect x="285.468" y="499.998" fill="#EAC31A" width="24.6" height="2.267"/>
<rect x="285.468" y="492.621" fill="#EAC31A" width="24.6" height="2.265"/>
<rect x="286.101" y="485.389" fill="#EAC31A" width="23.332" height="2.266"/>
<polyline fill="none" stroke="#EAC31A" stroke-width="3" stroke-miterlimit="10" points="285.468,473.19 286.33,475.016 
	285.213,472.074 285.213,457.139 "/>
<polyline fill="none" stroke="#EAC31A" stroke-width="3" stroke-miterlimit="10" points="286.101,474.38 287.511,477.281 
	289.096,479.061 290.727,480.132 293.447,480.757 297.767,480.856 299.644,481.778 302.398,481.854 304.697,482.414 
	306.041,483.052 307.592,484.171 308.699,485.371 309.433,486.522 310.067,488.158 310.067,507.686 "/>
<polyline fill="none" stroke="#503993" stroke-width="3" stroke-miterlimit="10" points="310.067,455.658 309.719,473.348 
	309.433,474.38 308.699,476.149 308.023,477.281 306.788,478.746 305.513,479.744 303.571,480.573 299.814,480.856 292.195,482.012 
	290.727,482.46 289.361,483.132 288.04,484.087 286.835,484.087 "/>
<polyline fill="none" stroke="#503993" stroke-width="3" stroke-miterlimit="10" points="288.04,484.087 286.101,485.389 
	285.468,487.655 285.213,507.686 "/>
<rect x="491.46" y="453.556" fill="#EAC31A" width="24.6" height="2.265"/>
<rect x="491.587" y="461.73" fill="#EAC31A" width="24.6" height="2.265"/>
<rect x="492.955" y="469.034" fill="#EAC31A" width="21.863" height="2.266"/>
<rect x="491.587" y="494.017" fill="#EAC31A" width="24.6" height="2.265"/>
<rect x="491.587" y="486.639" fill="#EAC31A" width="24.6" height="2.265"/>
<rect x="492.22" y="479.407" fill="#EAC31A" width="23.332" height="2.266"/>
<polyline fill="none" stroke="#EAC31A" stroke-width="3" stroke-miterlimit="10" points="491.587,467.209 492.449,469.034 
	491.333,466.094 491.333,451.157 "/>
<polyline fill="none" stroke="#EAC31A" stroke-width="3" stroke-miterlimit="10" points="492.22,468.397 493.63,471.3 
	495.215,473.078 496.846,474.149 499.566,474.774 503.886,474.873 505.763,475.797 508.517,475.871 510.816,476.433 512.16,477.07 
	513.711,478.189 514.818,479.389 515.552,480.539 516.186,482.177 516.186,501.703 "/>
<polyline fill="none" stroke="#503993" stroke-width="3" stroke-miterlimit="10" points="516.186,449.677 515.838,467.365 
	515.552,468.398 514.818,470.168 514.142,471.3 512.907,472.764 511.632,473.762 509.69,474.592 505.933,474.873 498.314,476.031 
	496.846,476.477 495.48,477.149 494.159,478.105 492.955,478.105 "/>
<polyline fill="none" stroke="#503993" stroke-width="3" stroke-miterlimit="10" points="494.159,478.105 492.22,479.407 
	491.587,481.673 491.333,501.703 "/>
<rect x="220.034" y="458.005" width="27.182" height="2.433"/>
<rect x="220.034" y="466.01" width="27.182" height="2.434"/>
<rect x="222.282" y="484.927" width="23.915" height="2.434"/>
<rect x="220.878" y="492.697" width="27.182" height="2.435"/>
<rect x="221.721" y="473.702" width="24.476" height="2.434"/>
<rect x="220.034" y="457.612" fill="#503993" width="27.182" height="2.435"/>
<rect x="220.034" y="465.539" fill="#503993" width="27.182" height="2.434"/>
<rect x="221.546" y="473.388" fill="#503993" width="24.159" height="2.434"/>
<rect x="220.034" y="492.304" fill="#503993" width="27.182" height="2.434"/>
<rect x="220.734" y="484.533" fill="#503993" width="25.782" height="2.435"/>
<polyline fill="none" stroke="#149DAA" stroke-width="3" stroke-miterlimit="10" points="220.034,471.427 220.987,473.388 
	219.753,470.228 219.753,454.178 "/>
<polyline fill="none" stroke="#149DAA" stroke-width="3" stroke-miterlimit="10" points="220.734,472.702 222.292,475.822 
	224.043,477.734 225.846,478.884 228.85,479.555 233.625,479.661 235.699,480.654 238.741,480.733 241.281,481.339 242.767,482.021 
	244.482,483.224 245.705,484.513 246.516,485.751 247.216,487.51 247.216,508.49 "/>
<polyline fill="none" stroke="#503993" stroke-width="3" stroke-miterlimit="10" points="247.216,452.589 246.833,471.594 
	246.516,472.703 245.705,474.605 244.958,475.822 243.592,477.394 242.183,478.469 240.038,479.358 235.886,479.661 
	227.468,480.905 225.846,481.385 224.335,482.106 222.876,483.134 221.546,483.134 "/>
<polyline fill="none" stroke="#503993" stroke-width="3" stroke-miterlimit="10" points="222.876,483.134 220.734,484.533 
	220.034,486.968 219.753,508.49 "/>
<rect x="342.798" y="459.137" width="27.184" height="2.433"/>
<rect x="342.798" y="467.143" width="27.184" height="2.434"/>
<rect x="345.046" y="486.059" width="23.915" height="2.434"/>
<rect x="343.642" y="493.829" width="27.184" height="2.435"/>
<rect x="344.486" y="474.836" width="24.476" height="2.433"/>
<rect x="342.798" y="458.744" fill="#503993" width="27.184" height="2.435"/>
<rect x="342.798" y="466.673" fill="#503993" width="27.184" height="2.433"/>
<rect x="344.31" y="474.521" fill="#503993" width="24.159" height="2.434"/>
<rect x="342.798" y="493.437" fill="#503993" width="27.184" height="2.434"/>
<rect x="343.5" y="485.667" fill="#503993" width="25.781" height="2.434"/>
<polyline fill="none" stroke="#149DAA" stroke-width="3" stroke-miterlimit="10" points="342.798,472.559 343.751,474.521 
	342.517,471.361 342.517,455.311 "/>
<polyline fill="none" stroke="#149DAA" stroke-width="3" stroke-miterlimit="10" points="343.5,473.836 345.056,476.954 
	346.808,478.866 348.611,480.016 351.615,480.688 356.39,480.795 358.463,481.786 361.505,481.865 364.045,482.471 365.531,483.154 
	367.247,484.357 368.469,485.646 369.281,486.884 369.981,488.642 369.981,509.623 "/>
<polyline fill="none" stroke="#503993" stroke-width="3" stroke-miterlimit="10" points="369.981,453.721 369.597,472.727 
	369.281,473.837 368.469,475.738 367.722,476.954 366.357,478.527 364.948,479.601 362.802,480.49 358.651,480.795 350.232,482.037 
	348.611,482.517 347.099,483.239 345.64,484.266 344.31,484.266 "/>
<polyline fill="none" stroke="#503993" stroke-width="3" stroke-miterlimit="10" points="345.64,484.266 343.5,485.667 
	342.798,488.1 342.517,509.623 "/>
<rect x="489.886" y="366.629" width="27.184" height="2.433"/>
<rect x="489.886" y="374.635" width="27.184" height="2.434"/>
<rect x="492.134" y="393.551" width="23.915" height="2.434"/>
<rect x="490.73" y="401.322" width="27.183" height="2.435"/>
<rect x="491.574" y="382.327" width="24.476" height="2.433"/>
<rect x="489.886" y="366.237" fill="#503993" width="27.184" height="2.435"/>
<rect x="489.886" y="374.164" fill="#503993" width="27.184" height="2.433"/>
<rect x="491.398" y="382.013" fill="#503993" width="24.158" height="2.434"/>
<rect x="489.886" y="400.929" fill="#503993" width="27.184" height="2.434"/>
<rect x="490.587" y="393.158" fill="#503993" width="25.781" height="2.434"/>
<polyline fill="none" stroke="#149DAA" stroke-width="3" stroke-miterlimit="10" points="489.886,380.051 490.839,382.013 
	489.605,378.853 489.605,362.803 "/>
<polyline fill="none" stroke="#149DAA" stroke-width="3" stroke-miterlimit="10" points="490.587,381.327 492.144,384.447 
	493.896,386.359 495.699,387.508 498.703,388.18 503.478,388.286 505.551,389.279 508.593,389.358 511.133,389.963 512.619,390.646 
	514.334,391.849 515.557,393.138 516.369,394.375 517.069,396.134 517.069,417.115 "/>
<polyline fill="none" stroke="#503993" stroke-width="3" stroke-miterlimit="10" points="517.069,361.213 516.685,380.219 
	516.369,381.328 515.557,383.23 514.81,384.447 513.445,386.019 512.036,387.093 509.89,387.983 505.739,388.286 497.32,389.53 
	495.699,390.009 494.187,390.731 492.728,391.758 491.398,391.758 "/>
<polyline fill="none" stroke="#503993" stroke-width="3" stroke-miterlimit="10" points="492.728,391.758 490.587,393.158 
	489.886,395.592 489.605,417.115 "/>
<rect x="30.842" y="455.57" width="27.182" height="2.434"/>
<rect x="30.842" y="463.575" width="27.182" height="2.435"/>
<rect x="33.09" y="482.491" width="23.915" height="2.435"/>
<rect x="31.686" y="490.262" width="27.182" height="2.434"/>
<rect x="32.529" y="471.268" width="24.476" height="2.433"/>
<rect x="30.842" y="455.177" fill="#503993" width="27.182" height="2.434"/>
<rect x="30.842" y="463.105" fill="#503993" width="27.182" height="2.433"/>
<rect x="32.354" y="470.953" fill="#503993" width="24.159" height="2.435"/>
<rect x="30.842" y="489.869" fill="#503993" width="27.182" height="2.435"/>
<rect x="31.542" y="482.099" fill="#503993" width="25.782" height="2.434"/>
<polyline fill="none" stroke="#149DAA" stroke-width="3" stroke-miterlimit="10" points="30.842,468.991 31.795,470.953 
	30.561,467.794 30.561,451.743 "/>
<polyline fill="none" stroke="#149DAA" stroke-width="3" stroke-miterlimit="10" points="31.542,470.268 33.1,473.387 34.852,475.3 
	36.654,476.448 39.658,477.12 44.434,477.227 46.507,478.219 49.549,478.299 52.089,478.904 53.575,479.587 55.29,480.789 
	56.513,482.078 57.324,483.316 58.024,485.074 58.024,506.056 "/>
<polyline fill="none" stroke="#503993" stroke-width="3" stroke-miterlimit="10" points="58.024,450.154 57.641,469.159 
	57.324,470.269 56.513,472.171 55.766,473.387 54.4,474.96 52.991,476.033 50.846,476.924 46.694,477.227 38.276,478.47 
	36.654,478.949 35.143,479.672 33.684,480.698 32.354,480.698 "/>
<polyline fill="none" stroke="#503993" stroke-width="3" stroke-miterlimit="10" points="33.684,480.698 31.542,482.099 
	30.842,484.532 30.561,506.056 "/>
<rect x="125.38" y="455.57" width="27.182" height="2.435"/>
<rect x="125.38" y="463.575" width="27.182" height="2.435"/>
<rect x="127.628" y="482.491" width="23.915" height="2.435"/>
<rect x="126.224" y="490.263" width="27.182" height="2.434"/>
<rect x="127.067" y="471.269" width="24.476" height="2.432"/>
<rect x="125.38" y="455.177" fill="#503993" width="27.182" height="2.434"/>
<rect x="125.38" y="463.105" fill="#503993" width="27.182" height="2.434"/>
<rect x="126.892" y="470.954" fill="#503993" width="24.159" height="2.435"/>
<rect x="125.38" y="489.87" fill="#503993" width="27.182" height="2.435"/>
<rect x="126.081" y="482.099" fill="#503993" width="25.782" height="2.434"/>
<polyline fill="none" stroke="#149DAA" stroke-width="3" stroke-miterlimit="10" points="125.38,468.991 126.333,470.954 
	125.099,467.795 125.099,451.743 "/>
<polyline fill="none" stroke="#149DAA" stroke-width="3" stroke-miterlimit="10" points="126.081,470.269 127.638,473.388 
	129.39,475.301 131.192,476.448 134.196,477.12 138.972,477.228 141.045,478.22 144.087,478.299 146.627,478.904 148.113,479.588 
	149.828,480.79 151.051,482.079 151.862,483.316 152.563,485.075 152.563,506.056 "/>
<polyline fill="none" stroke="#503993" stroke-width="3" stroke-miterlimit="10" points="152.563,450.154 152.179,469.159 
	151.862,470.269 151.051,472.172 150.304,473.388 148.938,474.961 147.529,476.034 145.384,476.924 141.232,477.228 132.814,478.47 
	131.192,478.95 129.681,479.672 128.222,480.698 126.892,480.698 "/>
<polyline fill="none" stroke="#503993" stroke-width="3" stroke-miterlimit="10" points="128.222,480.698 126.081,482.099 
	125.38,484.532 125.099,506.056 "/>
<rect x="179.701" y="457.273" fill="#EAC31A" width="24.6" height="2.266"/>
<rect x="179.828" y="465.447" fill="#EAC31A" width="24.599" height="2.267"/>
<rect x="181.195" y="472.752" fill="#EAC31A" width="21.863" height="2.266"/>
<rect x="179.828" y="497.734" fill="#EAC31A" width="24.599" height="2.266"/>
<rect x="179.828" y="490.357" fill="#EAC31A" width="24.599" height="2.264"/>
<rect x="180.461" y="483.124" fill="#EAC31A" width="23.332" height="2.267"/>
<polyline fill="none" stroke="#EAC31A" stroke-width="3" stroke-miterlimit="10" points="179.828,470.926 180.689,472.752 
	179.573,469.81 179.573,454.874 "/>
<polyline fill="none" stroke="#EAC31A" stroke-width="3" stroke-miterlimit="10" points="180.461,472.115 181.871,475.017 
	183.456,476.797 185.087,477.866 187.807,478.491 192.127,478.592 194.004,479.513 196.758,479.59 199.057,480.15 200.4,480.786 
	201.952,481.906 203.059,483.107 203.793,484.258 204.427,485.894 204.427,505.422 "/>
<polyline fill="none" stroke="#503993" stroke-width="3" stroke-miterlimit="10" points="204.427,453.394 204.079,471.084 
	203.793,472.115 203.059,473.885 202.383,475.017 201.147,476.482 199.873,477.48 197.931,478.308 194.174,478.592 186.555,479.747 
	185.087,480.195 183.721,480.866 182.399,481.822 181.195,481.822 "/>
<polyline fill="none" stroke="#503993" stroke-width="3" stroke-miterlimit="10" points="182.399,481.822 180.461,483.124 
	179.828,485.39 179.573,505.422 "/>
<rect x="78.661" y="454.82" fill="#EAC31A" width="24.6" height="2.267"/>
<rect x="78.788" y="462.993" fill="#EAC31A" width="24.599" height="2.267"/>
<rect x="80.155" y="470.299" fill="#EAC31A" width="21.863" height="2.266"/>
<rect x="78.788" y="495.281" fill="#EAC31A" width="24.599" height="2.267"/>
<rect x="78.788" y="487.904" fill="#EAC31A" width="24.599" height="2.265"/>
<rect x="79.421" y="480.672" fill="#EAC31A" width="23.332" height="2.266"/>
<polyline fill="none" stroke="#EAC31A" stroke-width="3" stroke-miterlimit="10" points="78.788,468.472 79.649,470.299 
	78.533,467.357 78.533,452.422 "/>
<polyline fill="none" stroke="#EAC31A" stroke-width="3" stroke-miterlimit="10" points="79.421,469.661 80.831,472.564 
	82.416,474.344 84.047,475.413 86.767,476.038 91.087,476.138 92.964,477.06 95.718,477.136 98.017,477.697 99.36,478.334 
	100.912,479.452 102.019,480.654 102.753,481.804 103.387,483.441 103.387,502.969 "/>
<polyline fill="none" stroke="#503993" stroke-width="3" stroke-miterlimit="10" points="103.387,450.941 103.039,468.631 
	102.753,469.661 102.019,471.431 101.343,472.564 100.107,474.029 98.833,475.027 96.891,475.855 93.134,476.138 85.515,477.295 
	84.047,477.741 82.681,478.413 81.359,479.368 80.155,479.368 "/>
<polyline fill="none" stroke="#503993" stroke-width="3" stroke-miterlimit="10" points="81.359,479.368 79.421,480.672 
	78.788,482.937 78.533,502.969 "/>
<text transform="matrix(1.1053 0 0 1 8.1699 158.3831)" fill="#EAC31A" stroke="#EAC31A" stroke-width="5" stroke-miterlimit="10" font-family="'AdobeSongStd-Light-GBpc-EUC-H'" font-size="60.4825">TF</text>
<text transform="matrix(1.1124 0 0 1 187.5835 161.5627)" fill="#EAC31A" stroke="#EAC31A" stroke-width="3" stroke-miterlimit="10" font-family="'AdobeSongStd-Light-GBpc-EUC-H'" font-size="64.2787">Marker</text>
<text transform="matrix(0.8702 0 0 1 110.5498 159.8831)" fill="#EAC31A" stroke="#EAC31A" stroke-width="2" stroke-miterlimit="10" font-family="'AdobeSongStd-Light-GBpc-EUC-H'" font-size="37.6548">C e l l</text>
<rect x="251.695" y="179.753" fill="#EAC31A" width="20.366" height="1.868"/>
<rect x="251.799" y="186.494" fill="#EAC31A" width="20.368" height="1.868"/>
<rect x="252.933" y="192.52" fill="#EAC31A" width="18.102" height="1.867"/>
<rect x="251.219" y="210.863" fill="#EAC31A" width="20.368" height="1.868"/>
<rect x="251.799" y="205.154" fill="#EAC31A" width="20.368" height="1.868"/>
<rect x="252.324" y="201.075" fill="#EAC31A" width="19.318" height="1.868"/>
<polyline fill="none" stroke="#EAC31A" stroke-width="3" stroke-miterlimit="10" points="251.799,191.014 252.514,192.52 
	251.589,190.094 251.589,177.774 "/>
<polyline fill="none" stroke="#EAC31A" stroke-width="3" stroke-miterlimit="10" points="252.324,191.994 253.491,194.387 
	254.804,195.855 256.153,196.737 258.406,197.253 261.983,197.334 263.537,198.096 265.816,198.158 267.72,198.622 268.833,199.146 
	270.118,200.07 271.034,201.06 271.642,202.009 272.167,203.359 272.167,219.465 "/>
<polyline fill="none" stroke="#503993" stroke-width="3" stroke-miterlimit="10" points="272.167,176.553 271.88,191.143 
	271.642,191.994 271.034,193.453 270.474,194.387 269.451,195.595 268.396,196.418 266.788,197.102 263.677,197.334 257.371,198.29 
	256.153,198.658 255.023,199.212 253.93,200 252.933,200 "/>
<polyline fill="none" stroke="#503993" stroke-width="3" stroke-miterlimit="10" points="253.93,200 252.324,201.075 
	251.799,202.942 251.589,219.465 "/>
<rect x="443.504" y="136.346" width="30.107" height="2.541"/>
<rect x="443.504" y="144.707" width="30.107" height="2.542"/>
<rect x="445.994" y="164.465" width="26.485" height="2.542"/>
<rect x="444.438" y="172.581" width="30.108" height="2.543"/>
<rect x="445.374" y="152.742" width="27.107" height="2.542"/>
<rect x="443.504" y="135.936" fill="#503993" width="30.107" height="2.542"/>
<rect x="443.504" y="144.216" fill="#503993" width="30.107" height="2.541"/>
<rect x="445.179" y="152.414" fill="#503993" width="26.759" height="2.542"/>
<rect x="443.504" y="172.171" fill="#503993" width="30.107" height="2.542"/>
<rect x="444.28" y="164.055" fill="#503993" width="28.556" height="2.542"/>
<polyline fill="none" stroke="#149DAA" stroke-width="3" stroke-miterlimit="10" points="443.504,150.365 444.561,152.414 
	443.194,149.114 443.194,132.349 "/>
<polyline fill="none" stroke="#149DAA" stroke-width="3" stroke-miterlimit="10" points="444.28,151.698 446.004,154.955 
	447.945,156.953 449.943,158.154 453.27,158.855 458.559,158.966 460.855,160.003 464.226,160.085 467.036,160.718 468.682,161.431 
	470.581,162.687 471.938,164.034 472.836,165.326 473.611,167.163 473.611,189.077 "/>
<polyline fill="none" stroke="#503993" stroke-width="3" stroke-miterlimit="10" points="473.611,130.689 473.186,150.54 
	472.836,151.698 471.938,153.685 471.108,154.955 469.597,156.598 468.039,157.72 465.661,158.649 461.063,158.966 451.738,160.265 
	449.943,160.766 448.267,161.519 446.651,162.593 445.179,162.593 "/>
<polyline fill="none" stroke="#503993" stroke-width="3" stroke-miterlimit="10" points="446.651,162.593 444.28,164.055 
	443.504,166.597 443.194,189.077 "/>
</svg>
