<?xml version="1.0" encoding="utf-8"?>
<!-- Generator: Adobe Illustrator 16.0.0, SVG Export Plug-In . SVG Version: 6.00 Build 0)  -->
<!DOCTYPE svg PUBLIC "-//W3C//DTD SVG 1.1//EN" "http://www.w3.org/Graphics/SVG/1.1/DTD/svg11.dtd">
<svg version="1.1" id="图层_1" xmlns="http://www.w3.org/2000/svg" xmlns:xlink="http://www.w3.org/1999/xlink" x="0px" y="0px"
	 width="366.103px" height="157.288px" viewBox="0 0 366.103 157.288" enable-background="new 0 0 366.103 157.288"
	 xml:space="preserve">
<ellipse fill="#A185BC" cx="61.756" cy="91.254" rx="40" ry="26"/>
<g>
	
		<ellipse transform="matrix(0.959 -0.2834 0.2834 0.959 -21.3973 21.9694)" fill="#E4A273" cx="65.239" cy="84.944" rx="14.355" ry="8.853"/>
	<g>
		<path fill="none" stroke="#0B318F" stroke-miterlimit="10" d="M72.952,81.587c0,0.155-0.126,0.281-0.281,0.281l0,0
			c-0.155,0-0.281-0.126-0.281-0.281v-4.813c0-0.155,0.126-0.281,0.281-0.281l0,0c0.155,0,0.281,0.126,0.281,0.281V81.587z"/>
		<path fill="none" stroke="#0B318F" stroke-miterlimit="10" d="M74.79,80.98c-0.083,0.11-0.329,0.066-0.55-0.1l-4-3
			c-0.221-0.166-0.333-0.389-0.25-0.5l0,0c0.083-0.11,0.329-0.066,0.55,0.1l4,3C74.761,80.646,74.873,80.87,74.79,80.98L74.79,80.98
			z"/>
	</g>
	<g>
		<path fill="none" stroke="#0B318F" stroke-miterlimit="10" d="M56.129,88.182c-0.091,0.126-0.267,0.155-0.393,0.064l0,0
			c-0.126-0.091-0.155-0.267-0.064-0.393l2.81-3.907c0.091-0.126,0.267-0.155,0.393-0.064l0,0c0.126,0.091,0.155,0.267,0.064,0.393
			L56.129,88.182z"/>
		<path fill="none" stroke="#0B318F" stroke-miterlimit="10" d="M57.975,88.763c-0.132,0.041-0.306-0.139-0.388-0.403l-1.497-4.771
			c-0.083-0.263-0.043-0.51,0.089-0.552l0,0c0.132-0.041,0.306,0.139,0.388,0.403l1.497,4.771
			C58.146,88.475,58.107,88.721,57.975,88.763L57.975,88.763z"/>
	</g>
	<g>
		<path fill="none" stroke="#0B318F" stroke-miterlimit="10" d="M65.824,83.157c0.012,0.129-0.068,0.246-0.179,0.26l0,0
			c-0.111,0.014-0.21-0.08-0.222-0.209l-0.369-4.002c-0.012-0.129,0.068-0.245,0.179-0.259l0,0c0.11-0.014,0.209,0.08,0.222,0.209
			L65.824,83.157z"/>
		<path fill="none" stroke="#0B318F" stroke-miterlimit="10" d="M67.086,82.489c-0.05,0.099-0.229,0.084-0.399-0.034l-3.08-2.136
			c-0.17-0.118-0.267-0.294-0.217-0.394l0,0c0.05-0.099,0.229-0.084,0.4,0.034l3.08,2.136C67.04,82.213,67.137,82.389,67.086,82.489
			L67.086,82.489z"/>
	</g>
	<g>
		<path fill="none" stroke="#0B318F" stroke-miterlimit="10" d="M63.284,91.587c-0.025,0.098-0.129,0.158-0.233,0.134l0,0
			c-0.104-0.024-0.167-0.123-0.142-0.221l0.781-3.037c0.025-0.098,0.129-0.158,0.233-0.134l0,0c0.104,0.024,0.167,0.123,0.142,0.221
			L63.284,91.587z"/>
		<path fill="none" stroke="#0B318F" stroke-miterlimit="10" d="M64.607,91.487c-0.073,0.057-0.229-0.009-0.35-0.147l-2.178-2.507
			c-0.12-0.139-0.158-0.297-0.085-0.354l0,0c0.073-0.057,0.229,0.009,0.35,0.147l2.178,2.507
			C64.642,91.271,64.68,91.43,64.607,91.487L64.607,91.487z"/>
	</g>
	<g>
		<path fill="none" stroke="#0B318F" stroke-miterlimit="10" d="M70.858,89.274c-0.064,0.098-0.175,0.107-0.248,0.02l0,0
			c-0.072-0.087-0.079-0.238-0.014-0.336l1.998-3.044c0.064-0.098,0.176-0.107,0.248-0.02l0,0c0.072,0.088,0.079,0.238,0.015,0.337
			L70.858,89.274z"/>
		<path fill="none" stroke="#0B318F" stroke-miterlimit="10" d="M71.968,89.924c-0.084,0.023-0.181-0.144-0.215-0.373l-0.622-4.148
			c-0.034-0.229,0.006-0.433,0.091-0.457l0,0c0.084-0.023,0.181,0.144,0.215,0.373l0.622,4.148
			C72.093,89.696,72.052,89.901,71.968,89.924L71.968,89.924z"/>
	</g>
</g>
<ellipse fill="#FFFFFF" cx="89.344" cy="93.781" rx="1.906" ry="1.469"/>
<path stroke="#FFFFFF" stroke-miterlimit="10" d="M40.438,95.25c0,0.604-0.49,1.094-1.094,1.094h-2.813
	c-0.604,0-1.094-0.49-1.094-1.094l0,0c0-0.604,0.49-1.094,1.094-1.094h2.813C39.948,94.156,40.438,94.646,40.438,95.25L40.438,95.25
	z"/>
<path stroke="#FFFFFF" stroke-miterlimit="10" d="M52.266,104.417c-0.456,0.396-1.146,0.348-1.543-0.107l-1.846-2.122
	c-0.396-0.456-0.349-1.146,0.107-1.543l0,0c0.456-0.396,1.146-0.348,1.543,0.107l1.846,2.122
	C52.77,103.33,52.722,104.021,52.266,104.417L52.266,104.417z"/>
<path stroke="#FFFFFF" stroke-miterlimit="10" d="M77.06,107.508c-0.267,0.542-0.923,0.764-1.465,0.497l-2.522-1.244
	c-0.542-0.267-0.764-0.923-0.497-1.465l0,0c0.267-0.542,0.923-0.764,1.465-0.497l2.522,1.244
	C77.104,106.31,77.327,106.966,77.06,107.508L77.06,107.508z"/>
<path stroke="#FFFFFF" stroke-miterlimit="10" d="M85.252,76.937c-0.34,0.499-1.021,0.627-1.52,0.287l-2.323-1.586
	c-0.499-0.341-0.627-1.021-0.286-1.52l0,0c0.34-0.499,1.021-0.627,1.52-0.287l2.323,1.586
	C85.464,75.758,85.593,76.438,85.252,76.937L85.252,76.937z"/>
<path fill="#3F5FAB" d="M194.625,106.127c-3.139-1.092-5.036-3.837-4.238-6.131L223.22,5.634c0.798-2.294,3.99-3.269,7.128-2.177
	l0,0c3.139,1.092,5.036,3.837,4.238,6.131l-32.832,94.361C200.956,106.245,197.764,107.219,194.625,106.127L194.625,106.127z"/>
<path fill="#3F5FAB" d="M250.626,95.476c-2.383,2.316-5.687,2.782-7.38,1.04l-69.637-71.643c-1.693-1.742-1.134-5.032,1.249-7.348
	l0,0c2.383-2.316,5.688-2.782,7.38-1.04l69.637,71.643C253.569,89.87,253.009,93.159,250.626,95.476L250.626,95.476z"/>
<g>
	<path fill="none" stroke="#FFFFFF" stroke-linecap="round" stroke-miterlimit="10" d="M178.641,18.698
		c2.257,2.315-0.928,5.419,1.329,7.735c2.257,2.316,5.442-0.789,7.699,1.527c2.258,2.316-0.927,5.42,1.331,7.737
		c2.256,2.315,5.441-0.789,7.697,1.526c2.255,2.313-0.93,5.418,1.326,7.731c2.257,2.316,5.442-0.789,7.699,1.527
		c2.256,2.314-0.929,5.419,1.327,7.733c2.257,2.315,5.442-0.789,7.699,1.527c2.258,2.317-0.927,5.421,1.332,7.738
		c2.258,2.316,5.443-0.788,7.701,1.529c2.258,2.317-0.927,5.421,1.332,7.738c2.257,2.316,5.442-0.788,7.699,1.528
		c2.258,2.316-0.927,5.42,1.331,7.737c2.26,2.318,5.444-0.786,7.704,1.532c2.261,2.32-0.923,5.424,1.338,7.745
		c2.261,2.32,5.446-0.785,7.707,1.535"/>
</g>
<g>
	<path fill="none" stroke="#FFFFFF" stroke-linecap="round" stroke-miterlimit="10" d="M247.797,95.762
		c-2.262-2.31,0.909-5.415-1.353-7.725c-2.263-2.311-5.434,0.794-7.696-1.517s0.908-5.416-1.354-7.727
		c-2.262-2.31-5.433,0.795-7.694-1.515c-2.26-2.309,0.91-5.413-1.35-7.722c-2.263-2.311-5.434,0.794-7.696-1.517
		c-2.261-2.309,0.91-5.414-1.352-7.723c-2.262-2.311-5.433,0.794-7.695-1.516c-2.263-2.312,0.907-5.416-1.356-7.728
		s-5.434,0.793-7.697-1.519s0.907-5.416-1.356-7.728c-2.263-2.311-5.434,0.794-7.696-1.517s0.908-5.416-1.355-7.727
		c-2.265-2.313-5.436,0.792-7.701-1.521c-2.267-2.314,0.905-5.419-1.362-7.734s-5.438,0.79-7.704-1.525"/>
</g>
<line fill="none" stroke="#FFFFFF" stroke-linecap="round" stroke-miterlimit="10" x1="179.083" y1="19.58" x2="176.75" y2="22.163"/>
<line fill="none" stroke="#FFFFFF" stroke-linecap="round" stroke-miterlimit="10" x1="182.083" y1="22.955" x2="179.875" y2="25.413"/>
<line fill="none" stroke="#FFFFFF" stroke-linecap="round" stroke-miterlimit="10" x1="183.292" y1="24.184" x2="180.979" y2="26.746"/>
<line fill="none" stroke="#FFFFFF" stroke-linecap="round" stroke-miterlimit="10" x1="186.167" y1="27.371" x2="184.208" y2="29.58"/>
<line fill="none" stroke="#FFFFFF" stroke-linecap="round" stroke-miterlimit="10" x1="187.771" y1="28.476" x2="185.188" y2="31.371"/>
<line fill="none" stroke="#FFFFFF" stroke-linecap="round" stroke-miterlimit="10" x1="191.042" y1="32.315" x2="189.105" y2="34.417"/>
<line fill="none" stroke="#FFFFFF" stroke-linecap="round" stroke-miterlimit="10" x1="192.605" y1="33.201" x2="189.855" y2="36.285"/>
<line fill="none" stroke="#FFFFFF" stroke-linecap="round" stroke-miterlimit="10" x1="195.458" y1="36.982" x2="193.292" y2="39.399"/>
<line fill="none" stroke="#FFFFFF" stroke-linecap="round" stroke-miterlimit="10" x1="197.083" y1="38.19" x2="194.75" y2="40.774"/>
<line fill="none" stroke="#FFFFFF" stroke-linecap="round" stroke-miterlimit="10" x1="199.792" y1="41.315" x2="197.625" y2="43.732"/>
<line fill="none" stroke="#FFFFFF" stroke-linecap="round" stroke-miterlimit="10" x1="201.708" y1="42.94" x2="199.417" y2="45.524"/>
<line fill="none" stroke="#FFFFFF" stroke-linecap="round" stroke-miterlimit="10" x1="204.5" y1="45.875" x2="202.208" y2="48.459"/>
<line fill="none" stroke="#FFFFFF" stroke-linecap="round" stroke-miterlimit="10" x1="206.083" y1="47.334" x2="203.708" y2="49.959"/>
<line fill="none" stroke="#FFFFFF" stroke-linecap="round" stroke-miterlimit="10" x1="209.125" y1="50.667" x2="206.792" y2="53.292"/>
<line fill="none" stroke="#FFFFFF" stroke-linecap="round" stroke-miterlimit="10" x1="210.792" y1="51.98" x2="208.292" y2="54.792"/>
<line fill="none" stroke="#FFFFFF" stroke-linecap="round" stroke-miterlimit="10" x1="213.674" y1="55.354" x2="211.299" y2="58.021"/>
<line fill="none" stroke="#FFFFFF" stroke-linecap="round" stroke-miterlimit="10" x1="215.258" y1="56.688" x2="212.799" y2="59.396"/>
<line fill="none" stroke="#FFFFFF" stroke-linecap="round" stroke-miterlimit="10" x1="218.258" y1="59.771" x2="215.841" y2="62.479"/>
<line fill="none" stroke="#FFFFFF" stroke-linecap="round" stroke-miterlimit="10" x1="219.758" y1="61.125" x2="217.216" y2="63.938"/>
<line fill="none" stroke="#FFFFFF" stroke-linecap="round" stroke-miterlimit="10" x1="222.549" y1="64.282" x2="220.216" y2="66.907"/>
<line fill="none" stroke="#FFFFFF" stroke-linecap="round" stroke-miterlimit="10" x1="224.133" y1="65.595" x2="221.633" y2="68.324"/>
<line fill="none" stroke="#FFFFFF" stroke-linecap="round" stroke-miterlimit="10" x1="227.008" y1="68.956" x2="224.758" y2="71.456"/>
<line fill="none" stroke="#FFFFFF" stroke-linecap="round" stroke-miterlimit="10" x1="228.841" y1="70.206" x2="226.091" y2="73.289"/>
<line fill="none" stroke="#FFFFFF" stroke-linecap="round" stroke-miterlimit="10" x1="231.924" y1="73.831" x2="229.341" y2="76.706"/>
<line fill="none" stroke="#FFFFFF" stroke-linecap="round" stroke-miterlimit="10" x1="233.299" y1="75.268" x2="230.893" y2="77.919"/>
<line fill="none" stroke="#FFFFFF" stroke-linecap="round" stroke-miterlimit="10" x1="236.133" y1="78.644" x2="234.008" y2="81.039"/>
<line fill="none" stroke="#FFFFFF" stroke-linecap="round" stroke-miterlimit="10" x1="237.549" y1="79.841" x2="235.341" y2="82.248"/>
<line fill="none" stroke="#FFFFFF" stroke-linecap="round" stroke-miterlimit="10" x1="240.633" y1="83.414" x2="238.841" y2="85.414"/>
<line fill="none" stroke="#FFFFFF" stroke-linecap="round" stroke-miterlimit="10" x1="242.049" y1="84.623" x2="240.133" y2="86.748"/>
<line fill="none" stroke="#FFFFFF" stroke-linecap="round" stroke-miterlimit="10" x1="245.341" y1="87.456" x2="242.758" y2="90.289"/>
<line fill="none" stroke="#FFFFFF" stroke-linecap="round" stroke-miterlimit="10" x1="246.883" y1="89.289" x2="244.383" y2="92.081"/>
<line fill="none" stroke="#FFFFFF" stroke-linecap="round" stroke-miterlimit="10" x1="250.174" y1="92.373" x2="247.633" y2="95.164"/>
<g>
	<path fill="none" stroke="#FFFFFF" stroke-linecap="round" stroke-miterlimit="10" d="M231.722,7.707
		c-1.058,3.055-6.603,1.134-7.661,4.189c-1.059,3.056,4.486,4.977,3.428,8.033s-6.604,1.136-7.662,4.192s4.486,4.977,3.428,8.033
		c-1.059,3.056-6.604,1.135-7.662,4.191c-1.059,3.057,4.487,4.978,3.428,8.034c-1.058,3.054-6.603,1.132-7.661,4.186
		c-1.059,3.055,4.487,4.976,3.429,8.031c-1.059,3.057-6.604,1.135-7.663,4.192c-1.059,3.056,4.487,4.978,3.428,8.034
		c-1.059,3.057-6.604,1.135-7.663,4.192c-1.059,3.057,4.486,4.978,3.427,8.035c-1.058,3.056-6.604,1.135-7.662,4.19
		c-1.06,3.058,4.486,4.979,3.426,8.038c-1.06,3.06-6.605,1.14-7.665,4.2c-1.06,3.061,4.485,4.981,3.425,8.042"/>
</g>
<g>
	<path fill="none" stroke="#FFFFFF" stroke-linecap="round" stroke-miterlimit="10" d="M192.478,103.603
		c1.051-3.057,6.605-1.147,7.656-4.205c1.052-3.058-4.502-4.968-3.451-8.026c1.051-3.059,6.606-1.148,7.657-4.207
		c1.052-3.059-4.502-4.968-3.451-8.026c1.051-3.059,6.605-1.149,7.657-4.207c1.052-3.059-4.502-4.969-3.45-8.027
		c1.051-3.056,6.604-1.146,7.655-4.202c1.051-3.058-4.502-4.967-3.451-8.024c1.051-3.059,6.605-1.149,7.657-4.208
		c1.052-3.059-4.502-4.968-3.45-8.027c1.052-3.059,6.605-1.149,7.657-4.208c1.052-3.06-4.502-4.97-3.45-8.029
		c1.051-3.058,6.605-1.148,7.657-4.207c1.052-3.06-4.502-4.97-3.449-8.031c1.053-3.063,6.607-1.153,7.66-4.215
		c1.053-3.063-4.501-4.973-3.448-8.035"/>
</g>
<line fill="none" stroke="#FFFFFF" stroke-linecap="round" stroke-miterlimit="10" x1="230.46" y1="8.265" x2="227.105" y2="7.337"/>
<line fill="none" stroke="#FFFFFF" stroke-linecap="round" stroke-miterlimit="10" x1="228.788" y1="12.46" x2="225.6" y2="11.587"/>
<line fill="none" stroke="#FFFFFF" stroke-linecap="round" stroke-miterlimit="10" x1="228.23" y1="14.091" x2="224.903" y2="13.172"/>
<line fill="none" stroke="#FFFFFF" stroke-linecap="round" stroke-miterlimit="10" x1="226.67" y1="18.09" x2="223.818" y2="17.329"/>
<line fill="none" stroke="#FFFFFF" stroke-linecap="round" stroke-miterlimit="10" x1="226.401" y1="20.019" x2="222.656" y2="19.007"/>
<line fill="none" stroke="#FFFFFF" stroke-linecap="round" stroke-miterlimit="10" x1="224.435" y1="24.664" x2="221.689" y2="23.874"/>
<line fill="none" stroke="#FFFFFF" stroke-linecap="round" stroke-miterlimit="10" x1="224.344" y1="26.458" x2="220.355" y2="25.382"/>
<line fill="none" stroke="#FFFFFF" stroke-linecap="round" stroke-miterlimit="10" x1="222.243" y1="30.703" x2="219.112" y2="29.85"/>
<line fill="none" stroke="#FFFFFF" stroke-linecap="round" stroke-miterlimit="10" x1="221.891" y1="32.698" x2="218.536" y2="31.77"/>
<line fill="none" stroke="#FFFFFF" stroke-linecap="round" stroke-miterlimit="10" x1="220.312" y1="36.52" x2="217.18" y2="35.665"/>
<line fill="none" stroke="#FFFFFF" stroke-linecap="round" stroke-miterlimit="10" x1="219.718" y1="38.961" x2="216.381" y2="38.071"/>
<line fill="none" stroke="#FFFFFF" stroke-linecap="round" stroke-miterlimit="10" x1="218.345" y1="42.772" x2="215.009" y2="41.881"/>
<line fill="none" stroke="#FFFFFF" stroke-linecap="round" stroke-miterlimit="10" x1="217.751" y1="44.841" x2="214.34" y2="43.895"/>
<line fill="none" stroke="#FFFFFF" stroke-linecap="round" stroke-miterlimit="10" x1="216.135" y1="49.054" x2="212.742" y2="48.146"/>
<line fill="none" stroke="#FFFFFF" stroke-linecap="round" stroke-miterlimit="10" x1="215.708" y1="51.133" x2="212.074" y2="50.158"/>
<line fill="none" stroke="#FFFFFF" stroke-linecap="round" stroke-miterlimit="10" x1="213.984" y1="55.222" x2="210.536" y2="54.293"/>
<line fill="none" stroke="#FFFFFF" stroke-linecap="round" stroke-miterlimit="10" x1="213.502" y1="57.235" x2="209.979" y2="56.251"/>
<line fill="none" stroke="#FFFFFF" stroke-linecap="round" stroke-miterlimit="10" x1="212.09" y1="61.299" x2="208.586" y2="60.352"/>
<line fill="none" stroke="#FFFFFF" stroke-linecap="round" stroke-miterlimit="10" x1="211.552" y1="63.246" x2="207.899" y2="62.235"/>
<line fill="none" stroke="#FFFFFF" stroke-linecap="round" stroke-miterlimit="10" x1="209.981" y1="67.157" x2="206.589" y2="66.248"/>
<line fill="none" stroke="#FFFFFF" stroke-linecap="round" stroke-miterlimit="10" x1="209.517" y1="69.161" x2="205.957" y2="68.149"/>
<line fill="none" stroke="#FFFFFF" stroke-linecap="round" stroke-miterlimit="10" x1="207.802" y1="73.237" x2="204.558" y2="72.346"/>
<line fill="none" stroke="#FFFFFF" stroke-linecap="round" stroke-miterlimit="10" x1="207.506" y1="75.436" x2="203.517" y2="74.36"/>
<line fill="none" stroke="#FFFFFF" stroke-linecap="round" stroke-miterlimit="10" x1="205.647" y1="79.817" x2="201.919" y2="78.797"/>
<line fill="none" stroke="#FFFFFF" stroke-linecap="round" stroke-miterlimit="10" x1="204.979" y1="81.69" x2="201.53" y2="80.727"/>
<line fill="none" stroke="#FFFFFF" stroke-linecap="round" stroke-miterlimit="10" x1="203.231" y1="85.736" x2="200.137" y2="84.91"/>
<line fill="none" stroke="#FFFFFF" stroke-linecap="round" stroke-miterlimit="10" x1="202.795" y1="87.54" x2="199.655" y2="86.645"/>
<line fill="none" stroke="#FFFFFF" stroke-linecap="round" stroke-miterlimit="10" x1="200.983" y1="91.897" x2="198.393" y2="91.192"/>
<line fill="none" stroke="#FFFFFF" stroke-linecap="round" stroke-miterlimit="10" x1="200.538" y1="93.705" x2="197.779" y2="92.944"/>
<line fill="none" stroke="#FFFFFF" stroke-linecap="round" stroke-miterlimit="10" x1="199.481" y1="97.917" x2="195.79" y2="96.878"/>
<line fill="none" stroke="#FFFFFF" stroke-linecap="round" stroke-miterlimit="10" x1="198.533" y1="100.118" x2="194.917" y2="99.134"/>
<line fill="none" stroke="#FFFFFF" stroke-linecap="round" stroke-miterlimit="10" x1="197.252" y1="104.442" x2="193.617" y2="103.421"/>
<g id="XMLID_1_" opacity="0.5">
	<g>
		<path fill="#A48B78" d="M172.964,24.791c1.303-0.108,2.866,3.342,3.598,4.326c0.992,1.347,2.355,3.195,4.149,3.342
			c1.143,3.077,5.302,5.79,7.546,7.963c1.063,1.042,1.694,2.31,2.616,3.421c0.963,1.15,2.375,2.301,3.628,3.166
			c3.077,2.153,6.173,5.171,8.308,8.287c0.432,0.629,0.822,1.18,1.314,1.691c0.591,0.619,1.073,0.57,1.163,1.494
			c0.14,1.357-1.073,3.116-1.674,4.316c-1.584,3.156-2.316,6.753-3.358,9.968c-0.711,2.192-0.981,4.404-1.613,6.567
			c-0.421,1.455-0.942,5.132-2.656,5.79c0.4,2.291-2.235,5.102-3.208,6.872c-0.582,1.082-0.752,2.212-1.043,3.333
			c-0.28,1.071-1.062,2.163-0.881,3.323c-2.917-0.678-5.582-0.993-8.719-0.993c-3.057,0-5.663-0.807-8.66-1.091
			c-3.217-0.314-6.444-1.14-9.631-1.73c-3.057-0.57-6.274-0.62-9.331-1.229c-3.167-0.629-6.475-0.718-9.701-0.855
			c-3.358-0.147-6.565-1.13-9.832-1.573c-3.778-0.501-7.327-0.826-11.135-1.16c-3.097-0.276-6.064-1.121-9.07-1.603
			c-6.354-1.002-12.277-2.556-18.822-2.556c-3.077,0-6.194-0.049-9.16-0.609c-1.774-0.334-3.638-0.816-5.442-1.356
			c-1.894-0.57-3.338-0.678-5.321-0.846c-2.306-0.207-4.63-0.668-6.956-0.993c-1.954-0.275-6.404-3.805-2.346-4.434
			c1.023-0.157,1.855-0.02,2.817-0.334c1.183-0.374,2.034-1.219,3.126-1.996c1.654-1.18,3.488-1.927,5.442-2.713
			c0.04-1.15,2.795-1.671,3.748-2.143c1.374-0.688,2.756-1.612,4.29-1.996c1.303-0.325,2.836-0.551,4.069-1.219
			c1.513-0.816,3.147-2.143,4.58-3.106c2.586-1.74,5.102-3.195,7.999-4.345c2.937-1.17,6.193-2.969,9.04-4.512
			c1.554-0.846,2.937-1.976,4.49-2.782c1.713-0.895,3.578-1.543,5.361-2.31c1.323-0.57,2.786-1.308,4.159-1.661
			c1.042-0.266,2.656-0.61,3.708-0.61c0.32-1.367,2.385-2.772,3.567-3.44c1.504-0.855,2.857-1.78,4.26-2.615
			c1.153-0.688,2.586-1.012,3.718-1.592c1.253-0.639,2.616-0.679,3.949-1.17c1.293-0.481,2.275-1.494,3.508-2.202
			c1.323-0.767,2.545-1.209,3.738-2.015c2.896-1.957,5.823-4.502,9.27-5.496c3.919-1.13,7.897-2.684,11.266-4.817L172.964,24.791z"
			/>
	</g>
	<g>
		<path fill="none" stroke="#A48B78" stroke-linecap="round" stroke-miterlimit="10" d="M172.964,24.791
			c1.303-0.108,2.866,3.342,3.598,4.326c0.992,1.347,2.355,3.195,4.149,3.342c1.143,3.077,5.302,5.79,7.546,7.963
			c1.063,1.042,1.694,2.31,2.616,3.421c0.963,1.15,2.375,2.301,3.628,3.166c3.077,2.153,6.173,5.171,8.308,8.287
			c0.432,0.629,0.822,1.18,1.314,1.691c0.591,0.619,1.073,0.57,1.163,1.494c0.14,1.357-1.073,3.116-1.674,4.316
			c-1.584,3.156-2.316,6.753-3.358,9.968c-0.711,2.192-0.981,4.404-1.613,6.567c-0.421,1.455-0.942,5.132-2.656,5.79
			c0.4,2.291-2.235,5.102-3.208,6.872c-0.582,1.082-0.752,2.212-1.043,3.333c-0.28,1.071-1.062,2.163-0.881,3.323
			c-2.917-0.678-5.582-0.993-8.719-0.993c-3.057,0-5.663-0.807-8.66-1.091c-3.217-0.314-6.444-1.14-9.631-1.73
			c-3.057-0.57-6.274-0.62-9.331-1.229c-3.167-0.629-6.475-0.718-9.701-0.855c-3.358-0.147-6.565-1.13-9.832-1.573
			c-3.778-0.501-7.327-0.826-11.135-1.16c-3.097-0.276-6.064-1.121-9.07-1.603c-6.354-1.002-12.277-2.556-18.822-2.556
			c-3.077,0-6.194-0.049-9.16-0.609c-1.774-0.334-3.638-0.816-5.442-1.356c-1.894-0.57-3.338-0.678-5.321-0.846
			c-2.306-0.207-4.63-0.668-6.956-0.993c-1.954-0.275-6.404-3.805-2.346-4.434c1.023-0.157,1.855-0.02,2.817-0.334
			c1.183-0.374,2.034-1.219,3.126-1.996c1.654-1.18,3.488-1.927,5.442-2.713c0.04-1.15,2.795-1.671,3.748-2.143
			c1.374-0.688,2.756-1.612,4.29-1.996c1.303-0.325,2.836-0.551,4.069-1.219c1.513-0.816,3.147-2.143,4.58-3.106
			c2.586-1.74,5.102-3.195,7.999-4.345c2.937-1.17,6.193-2.969,9.04-4.512c1.554-0.846,2.937-1.976,4.49-2.782
			c1.713-0.895,3.578-1.543,5.361-2.31c1.323-0.57,2.786-1.308,4.159-1.661c1.042-0.266,2.656-0.61,3.708-0.61
			c0.32-1.367,2.385-2.772,3.567-3.44c1.504-0.855,2.857-1.78,4.26-2.615c1.153-0.688,2.586-1.012,3.718-1.592
			c1.253-0.639,2.616-0.679,3.949-1.17c1.293-0.481,2.275-1.494,3.508-2.202c1.323-0.767,2.545-1.209,3.738-2.015
			c2.896-1.957,5.823-4.502,9.27-5.496c3.919-1.13,7.897-2.684,11.266-4.817"/>
	</g>
</g>
<rect x="261.483" y="79.841" fill="#006934" width="1.467" height="14.973"/>
<rect x="268.223" y="71.682" transform="matrix(0.972 -0.2349 0.2349 0.972 -11.6652 65.433)" fill="#006934" width="1.304" height="20.017"/>
<rect x="273.203" y="70.324" transform="matrix(0.9781 -0.2083 0.2083 0.9781 -10.4738 58.8126)" fill="#006934" width="1.624" height="17.628"/>
<rect x="278.664" y="72.453" transform="matrix(0.9976 -0.0691 0.0691 0.9976 -4.7795 19.4978)" fill="#006934" width="1.25" height="12.689"/>
<rect x="300.125" y="72.207" fill="#006934" width="1.021" height="7.104"/>
<rect x="305.977" y="69.479" transform="matrix(0.9817 0.1905 -0.1905 0.9817 19.8538 -57.0197)" fill="#006934" width="1.179" height="10.598"/>
<rect x="311.84" y="70.183" transform="matrix(-0.9938 -0.1108 0.1108 -0.9938 615.4717 183.7518)" fill="#006934" width="2.001" height="9.189"/>
<rect x="317.297" y="71.422" transform="matrix(0.9585 0.2849 -0.2849 0.9585 34.7624 -87.4184)" fill="#006934" width="1.026" height="8.673"/>
<rect x="319.975" y="114.278" transform="matrix(0.6988 0.7154 -0.7154 0.6988 182.4311 -202.7032)" fill="#006934" width="23.846" height="1.966"/>
<rect x="325.992" y="107.229" transform="matrix(0.8672 0.498 -0.498 0.8672 98.9929 -154.7083)" fill="#006934" width="27.023" height="1.966"/>
<rect x="331.242" y="91.961" transform="matrix(0.9995 0.0308 -0.0308 0.9995 3.0264 -10.4871)" fill="#006934" width="21.027" height="1.966"/>
<rect x="327.788" y="79.744" transform="matrix(-0.9201 0.3916 -0.3916 -0.9201 678.1719 23.1278)" fill="#006934" width="17.878" height="1.966"/>
<rect x="299.637" y="131.891" transform="matrix(0.2172 0.9761 -0.9761 0.2172 371.1496 -197.0857)" fill="#006934" width="17.648" height="1.966"/>
<rect x="289.328" y="132.051" transform="matrix(0.1067 0.9943 -0.9943 0.1067 401.3461 -180.6405)" fill="#006934" width="23.747" height="1.967"/>
<rect x="282.512" y="131.733" transform="matrix(-0.0818 0.9967 -0.9967 -0.0818 450.9572 -149.7298)" fill="#006934" width="23.883" height="2.283"/>
<rect x="276.046" y="129.879" transform="matrix(-0.2259 0.9741 -0.9741 -0.2259 477.1634 -117.4463)" fill="#006934" width="18.398" height="1.967"/>
<rect x="246.592" y="129.685" transform="matrix(7.170001e-004 1 -1 7.170001e-004 388.9936 -127.9362)" fill="#006934" width="23.837" height="1.966"/>
<rect x="261.38" y="132.04" transform="matrix(-0.0172 0.9999 -0.9999 -0.0172 405.7741 -132.7884)" fill="#006934" width="13.531" height="1.967"/>
<rect x="251.504" y="129.809" transform="matrix(-0.0234 0.9997 -0.9997 -0.0234 399.1217 -128.2862)" fill="#006934" width="21.426" height="1.966"/>
<rect x="245.199" y="129" transform="matrix(-0.0837 0.9965 -0.9965 -0.0837 404.6987 -112.1707)" fill="#006934" width="17.446" height="1.966"/>
<rect x="234.293" y="134.859" transform="matrix(0.0252 0.9997 -0.9997 0.0252 369.903 -107.6516)" fill="#006934" width="11.715" height="1.966"/>
<rect x="225.849" y="136.912" transform="matrix(-0.0394 0.9992 -0.9992 -0.0394 382.3703 -91.8096)" fill="#006934" width="18.936" height="1.966"/>
<rect x="219.931" y="137.757" transform="matrix(-0.0746 0.9972 -0.9972 -0.0746 386.4019 -81.0945)" fill="#006934" width="21.795" height="1.966"/>
<rect x="215.769" y="140.292" transform="matrix(0.0269 0.9996 -0.9996 0.0269 359.3695 -86.6362)" fill="#006934" width="16.834" height="1.967"/>
<rect x="190.694" y="135.551" transform="matrix(-0.0305 0.9995 -0.9995 -0.0305 343.5439 -60.1473)" fill="#006934" width="20.495" height="1.966"/>
<rect x="182.102" y="135.36" transform="matrix(0.0885 0.9961 -0.9961 0.0885 309.0508 -65.0492)" fill="#006934" width="15.935" height="1.966"/>
<rect x="185.18" y="134.31" transform="matrix(-0.037 0.9993 -0.9993 -0.037 338.1986 -55.3146)" fill="#006934" width="21.142" height="1.967"/>
<rect x="201.427" y="138.005" transform="matrix(-0.0869 0.9962 -0.9962 -0.0869 363.8973 -55.5518)" fill="#006934" width="11.959" height="1.966"/>
<path fill="none" d="M268.875,103.25c-4.34,1.238-9.259,0.625-13.75,0.625"/>
<ellipse fill="#006934" cx="252.622" cy="93.325" rx="0.41" ry="1.751"/>
<rect x="261.483" y="79.841" fill="#13AE67" width="1.467" height="7.25"/>
<rect x="269.399" y="81.55" transform="matrix(0.972 -0.2349 0.2349 0.972 -12.7746 65.8452)" fill="#13AE67" width="1.304" height="10.009"/>
<rect x="272.038" y="70.447" transform="matrix(0.9781 -0.2083 0.2083 0.9781 -9.3593 58.4497)" fill="#13AE67" width="1.624" height="6.435"/>
<rect x="278.896" y="79.513" transform="matrix(0.9976 -0.0691 0.0691 0.9976 -5.0345 19.5227)" fill="#13AE67" width="1.25" height="5.961"/>
<rect x="300.125" y="72.207" fill="#13AE67" width="1.021" height="3.062"/>
<rect x="305.404" y="75.618" transform="matrix(0.9817 0.1906 -0.1906 0.9817 20.4614 -56.8945)" fill="#13AE67" width="1.176" height="4.603"/>
<rect x="312.118" y="69.781" transform="matrix(-0.9938 -0.1108 0.1108 -0.9938 616.3473 177.9855)" fill="#13AE67" width="2.001" height="4.179"/>
<rect x="316.707" y="75.654" transform="matrix(0.9585 0.2849 -0.2849 0.9585 35.3538 -87.1604)" fill="#13AE67" width="1.026" height="4.531"/>
<rect x="337.811" y="77.844" transform="matrix(-0.9201 0.3916 -0.3916 -0.9201 685.8289 17.7663)" fill="#13AE67" width="6.584" height="1.966"/>
<rect x="331.927" y="91.789" transform="matrix(0.9995 0.0308 -0.0308 0.9995 3.0176 -10.3323)" fill="#13AE67" width="9.844" height="1.966"/>
<rect x="337.206" y="109.941" transform="matrix(0.8672 0.498 -0.498 0.8672 100.9678 -156.7035)" fill="#13AE67" width="14.073" height="1.966"/>
<rect x="322.389" y="108.544" transform="matrix(0.6988 0.7153 -0.7153 0.6988 176.6218 -200.4141)" fill="#13AE67" width="7.817" height="1.966"/>
<rect x="305.149" y="136.272" transform="matrix(0.2173 0.9761 -0.9761 0.2173 376.1867 -194.6185)" fill="#13AE67" width="8.591" height="1.966"/>
<rect x="295.882" y="124.694" transform="matrix(0.1067 0.9943 -0.9943 0.1067 393.2804 -186.371)" fill="#13AE67" width="8.949" height="1.967"/>
<rect x="289.001" y="137.953" transform="matrix(-0.0819 0.9966 -0.9966 -0.0819 456.576 -142.4012)" fill="#13AE67" width="9.752" height="2.283"/>
<rect x="280.164" y="127.107" transform="matrix(-0.2259 0.9742 -0.9742 -0.2259 475.383 -121.5919)" fill="#13AE67" width="11.68" height="1.967"/>
<rect x="264.772" y="135.55" transform="matrix(-0.0172 0.9999 -0.9999 -0.0172 409.2587 -129.2311)" fill="#13AE67" width="6.747" height="1.967"/>
<rect x="256.505" y="124.924" transform="matrix(-0.0234 0.9997 -0.9997 -0.0234 394.3483 -133.404)" fill="#13AE67" width="11.654" height="1.966"/>
<rect x="252.116" y="134.859" transform="matrix(7.249871e-004 1 -1 7.249871e-004 394.169 -122.7713)" fill="#13AE67" width="12.797" height="1.966"/>
<rect x="249.541" y="124.467" transform="matrix(-0.0836 0.9965 -0.9965 -0.0836 400.5361 -117.423)" fill="#13AE67" width="9.433" height="1.966"/>
<rect x="237.558" y="138.043" transform="matrix(0.0252 0.9997 -0.9997 0.0252 373.154 -104.6332)" fill="#13AE67" width="5.344" height="1.966"/>
<rect x="232.391" y="130.006" transform="matrix(-0.0393 0.9992 -0.9992 -0.0393 375.7412 -99.2651)" fill="#13AE67" width="6.394" height="1.966"/>
<rect x="226.724" y="145.077" transform="matrix(-0.0745 0.9972 -0.9972 -0.0745 393.1016 -72.6902)" fill="#13AE67" width="7.113" height="1.966"/>
<rect x="221.043" y="134.819" transform="matrix(0.027 0.9996 -0.9996 0.027 353.6973 -91.7637)" fill="#13AE67" width="5.884" height="1.967"/>
<rect x="205.571" y="133.989" transform="matrix(-0.0868 0.9962 -0.9962 -0.0868 360.2419 -60.2588)" fill="#13AE67" width="4.335" height="1.966"/>
<rect x="194.167" y="138.401" transform="matrix(-0.0305 0.9995 -0.9995 -0.0305 346.2789 -57.1017)" fill="#13AE67" width="13.33" height="1.966"/>
<rect x="189.813" y="130.354" transform="matrix(-0.037 0.9993 -0.9993 -0.037 334.4131 -59.5852)" fill="#13AE67" width="12.207" height="1.967"/>
<rect x="186.247" y="131.892" transform="matrix(0.0886 0.9961 -0.9961 0.0886 305.3563 -67.9647)" fill="#13AE67" width="7.139" height="1.966"/>
<g>
	<path fill="none" stroke="#00913A" stroke-width="2" stroke-linecap="round" stroke-miterlimit="10" d="M253.764,94.836
		c8.256,0,12.267-0.576,19.127-4.597c4.954-2.903,9.454-6.341,13.937-9.826c7.055-5.484,13.265-9.826,22.22-10.678
		c10.261-0.977,15.689,5.378,19.638,13.799c1.943,4.143,2.77,7.926,2.471,12.679c-0.178,2.826-0.085,2.109-2.226,3.858
		c-1.331,1.088-3.324,2.3-4.187,3.872c-3.338,6.08-4.132,14.433-5.539,21.014c-1.614,7.548-5.896,18.944-15.085,19.761
		c-4.92,0.437-10.96,0.629-15.357-1.24c-4.468-1.898-8.095-5.344-11.767-8.229c-4.643-3.648-7.976-8.487-11.875-12.715
		c-2.92-3.166-5.651-5.182-9.507-2.333c-4.019,2.968-5.022,7.914-7.853,11.837c-3.037,4.208-6.142,8.611-9.651,12.424
		c-2.877,3.126-5.59,5.357-10.001,5.507c-5.258,0.179-8.777-3.101-12.453-6.414c-5.404-4.871-10.589-20.77-20.317-18.677
		c-4.279,0.919-7.827,5.522-10.116,8.798c-3.113,4.456-6.451,9.622-10.375,13.376"/>
	<path fill="none" stroke="#00913A" stroke-width="2" stroke-linecap="round" stroke-miterlimit="10" d="M173.35,125.443
		c5.276,3.874,8.59,11.291,13.792,15.734c2.175,1.859,4.79,4.699,7.621,5.377c2.764,0.662,6.75-0.527,9.438-0.947
		c9.184-1.435,15.267-9.729,22.277-15.27c3.627-2.867,7.174-4.25,11.061-2.015c3.896,2.241,8.091,5.079,11.939,7.735
		c3.133,2.163,6.844,5.399,10.511,6.251c5.34,1.241,8.703-2.582,11.597-6.239c4.971-6.283,10.846-12.244,18.323-14.985
		c8.404-3.081,16.534,3.568,24.313,5.36c9.707,2.237,22.449,0.517,30.935-5.135c7.113-4.739,9.23-13.121,8.119-21.488
		c-1.111-8.365-4.498-24.802-14.677-25.883c-9.118-0.968-16.391,5.483-25.137,5.422c-8.225-0.058-17.165,0.453-25.013-1.492
		c-5.828-1.444-14.291-10.792-20.503-7.037c-3.114,1.882-4.739,8.251-6.732,11.232c-1.917,2.867-5.167,8.298-8.013,9.646"/>
</g>
<rect x="39.715" y="50.432" fill="none" width="32.665" height="13.76"/>
<text transform="matrix(1 0 0 1 39.7148 60.9922)" font-family="'AdobeSongStd-Light-GBpc-EUC-H'" font-size="12">cell</text>
<rect x="147.15" y="104.789" fill="none" width="29.6" height="7.123"/>
<text transform="matrix(1 0 0 1 147.1499 110.9487)" font-family="'AdobeSongStd-Light-GBpc-EUC-H'" font-size="7">Telomere</text>
<line stroke="#000000" stroke-width="0.4" stroke-miterlimit="10" x1="177.084" y1="108.394" x2="187.187" y2="103.695"/>
<rect x="236.722" y="38.308" fill="none" width="63.038" height="11.175"/>
<text transform="matrix(1 0 0 1 236.7222 44.4678)" font-family="'AdobeSongStd-Light-GBpc-EUC-H'" font-size="7">Chromosome</text>
<rect x="184.983" y="119.364" fill="none" width="6.247" height="7.555"/>
<text transform="matrix(1 0 0 1 184.9829 125.5244)" font-family="'AdobeSongStd-Light-GBpc-EUC-H'" font-size="7">C</text>
<rect x="192.793" y="116.281" fill="none" width="6.247" height="7.555"/>
<text transform="matrix(1 0 0 1 192.793 122.4414)" font-family="'AdobeSongStd-Light-GBpc-EUC-H'" font-size="7">C</text>
<rect x="200.417" y="115.439" fill="none" width="6.733" height="9.239"/>
<text transform="matrix(1 0 0 1 200.4165 121.5996)" font-family="'AdobeSongStd-Light-GBpc-EUC-H'" font-size="7">A</text>
<rect x="183.756" y="145.896" fill="none" width="6.861" height="7.568"/>
<text transform="matrix(1 0 0 1 183.7559 152.0562)" font-family="'AdobeSongStd-Light-GBpc-EUC-H'" font-size="7">G</text>
<rect x="190.944" y="147.395" fill="none" width="6.861" height="7.568"/>
<text transform="matrix(1 0 0 1 190.9443 153.5547)" font-family="'AdobeSongStd-Light-GBpc-EUC-H'" font-size="7">G</text>
<rect x="198.678" y="147.572" fill="none" width="6.012" height="7.213"/>
<text transform="matrix(1 0 0 1 198.6777 153.7324)" font-family="'AdobeSongStd-Light-GBpc-EUC-H'" font-size="7">T</text>
</svg>
