<?xml version="1.0" encoding="utf-8"?>
<!-- Generator: Adobe Illustrator 16.0.0, SVG Export Plug-In . SVG Version: 6.00 Build 0)  -->
<!DOCTYPE svg PUBLIC "-//W3C//DTD SVG 1.1//EN" "http://www.w3.org/Graphics/SVG/1.1/DTD/svg11.dtd">
<svg version="1.1" id="图层_1" xmlns="http://www.w3.org/2000/svg" xmlns:xlink="http://www.w3.org/1999/xlink" x="0px" y="0px"
	 width="507px" height="399.5px" viewBox="11.5 0 507 399.5" enable-background="new 11.5 0 507 399.5" xml:space="preserve">
<rect x="382.736" y="86.401" fill="#EA5514" width="78.891" height="19.055"/>
<ellipse fill="none" stroke="#040000" stroke-miterlimit="10" stroke-dasharray="10.1166,10.1166" cx="292.643" cy="294.598" rx="39.77" ry="30.262"/>
<g>
	<g>
		<g>
			<g>
				<g>
					<defs>
						<rect id="SVGID_1_" x="168.293" y="280.102" width="23.448" height="21.418"/>
					</defs>
					<clipPath id="SVGID_2_">
						<use xlink:href="#SVGID_1_"  overflow="visible"/>
					</clipPath>
					<path clip-path="url(#SVGID_2_)" fill="#121C3B" d="M169.335,294.934c-1.198-2.719-1.398-4.998-0.334-8.146
						c0.802-2.347,1.865-3.517,4.063-4.627c0.466-0.244,2.463-1.17,2.796-1.295c2.397-1.109,4.193-0.925,7.056,0.125
						c1.331,0.489,1.466,0.557,1.93,0.676c2.196,0.558,4.128,2.596,5.193,4.629c0.131,0.187,0.2,0.373,0.399,0.679
						c0.065,0.122,0.065,0.122,0.134,0.186c0.731,1.359,1.065,2.154,1.132,3.457c0.198,2.467-3.329,8.326-6.394,9.871
						c-3.126,1.541-9.385,1.297-11.382-0.31C171.931,298.756,170.136,296.784,169.335,294.934L169.335,294.934z M170.601,294.5
						c0.729,1.602,2.328,3.453,4.192,4.875c1.533,1.23,7.258,1.479,9.919,0.127c2.598-1.299,5.859-6.668,5.659-8.703
						c-0.066-1.113-0.333-1.789-0.998-3.023c-0.066-0.125-0.066-0.125-0.133-0.188c-0.2-0.307-0.268-0.492-0.401-0.74
						c-0.867-1.791-2.597-3.576-4.325-4.012c-0.535-0.123-0.733-0.184-2.131-0.74c-2.531-0.988-3.995-1.108-5.926-0.182
						c-0.401,0.182-2.33,1.047-2.795,1.297c-1.933,0.982-2.73,1.844-3.463,3.883C169.335,290.059,169.536,292.03,170.601,294.5
						L170.601,294.5z"/>
				</g>
			</g>
		</g>
	</g>
	<path fill="#9F69A3" d="M180.319,295.486c2.576,0,4.662-1.934,4.662-4.315c0-2.389-2.086-4.317-4.662-4.317
		c-2.574,0-4.66,1.932-4.66,4.317c0,1.142,0.493,2.24,1.366,3.054C177.898,295.032,179.083,295.486,180.319,295.486L180.319,295.486
		z"/>
</g>
<g>
	<g>
		<g>
			<g>
				<g>
					<defs>
						<rect id="SVGID_3_" x="160.297" y="306.053" width="23.447" height="21.418"/>
					</defs>
					<clipPath id="SVGID_4_">
						<use xlink:href="#SVGID_3_"  overflow="visible"/>
					</clipPath>
					<path clip-path="url(#SVGID_4_)" fill="#121C3B" d="M161.339,320.885c-1.199-2.717-1.401-4.998-0.333-8.146
						c0.799-2.345,1.864-3.519,4.062-4.623c0.465-0.252,2.462-1.177,2.797-1.3c2.396-1.11,4.193-0.926,7.057,0.123
						c1.329,0.492,1.464,0.556,1.93,0.683c2.196,0.558,4.126,2.592,5.194,4.625c0.13,0.185,0.199,0.373,0.398,0.678
						c0.067,0.128,0.067,0.128,0.134,0.187c0.732,1.359,1.065,2.154,1.132,3.457c0.199,2.467-3.328,8.324-6.394,9.869
						c-3.126,1.543-9.383,1.297-11.382-0.308C163.934,324.708,162.137,322.736,161.339,320.885L161.339,320.885z M162.603,320.452
						c0.731,1.603,2.332,3.452,4.194,4.875c1.534,1.229,7.258,1.478,9.921,0.125c2.598-1.302,5.858-6.664,5.659-8.701
						c-0.067-1.112-0.332-1.787-1-3.022c-0.064-0.127-0.064-0.127-0.131-0.185c-0.199-0.31-0.267-0.494-0.399-0.744
						c-0.867-1.786-2.599-3.577-4.327-4.01c-0.531-0.125-0.73-0.185-2.131-0.74c-2.529-0.987-3.995-1.108-5.923-0.186
						c-0.402,0.186-2.33,1.047-2.797,1.301c-1.932,0.983-2.73,1.849-3.461,3.885C161.339,316.008,161.538,317.984,162.603,320.452
						L162.603,320.452z"/>
				</g>
			</g>
		</g>
	</g>
	<path fill="#9F69A3" d="M172.322,321.441c2.574,0,4.66-1.938,4.66-4.321c0-2.379-2.084-4.318-4.66-4.318
		c-2.573,0-4.66,1.939-4.66,4.318c0,1.146,0.49,2.243,1.365,3.057C169.902,320.984,171.087,321.441,172.322,321.441L172.322,321.441
		z"/>
</g>
<g>
	<g>
		<g>
			<g>
				<g>
					<defs>
						<rect id="SVGID_5_" x="209.051" y="312.686" width="23.449" height="21.418"/>
					</defs>
					<clipPath id="SVGID_6_">
						<use xlink:href="#SVGID_5_"  overflow="visible"/>
					</clipPath>
					<path clip-path="url(#SVGID_6_)" fill="#121C3B" d="M210.093,327.52c-1.199-2.721-1.398-5.004-0.334-8.146
						c0.8-2.347,1.865-3.515,4.064-4.627c0.464-0.25,2.461-1.175,2.795-1.297c2.397-1.111,4.195-0.927,7.055,0.122
						c1.331,0.496,1.465,0.56,1.933,0.683c2.195,0.558,4.127,2.59,5.192,4.627c0.132,0.185,0.2,0.373,0.397,0.679
						c0.068,0.123,0.068,0.123,0.137,0.182c0.73,1.361,1.064,2.158,1.132,3.457c0.198,2.469-3.329,8.332-6.394,9.871
						c-3.126,1.545-9.386,1.297-11.381-0.307C212.69,331.342,210.892,329.368,210.093,327.52L210.093,327.52z M211.358,327.083
						c0.73,1.606,2.33,3.455,4.196,4.875c1.53,1.235,7.253,1.481,9.917,0.129c2.597-1.297,5.859-6.664,5.658-8.698
						c-0.064-1.115-0.331-1.791-0.999-3.025c-0.063-0.125-0.063-0.125-0.131-0.187c-0.2-0.311-0.267-0.493-0.401-0.741
						c-0.863-1.789-2.596-3.574-4.327-4.011c-0.532-0.125-0.731-0.184-2.128-0.739c-2.531-0.99-3.997-1.111-5.925-0.185
						c-0.401,0.185-2.331,1.047-2.796,1.297c-1.933,0.984-2.729,1.849-3.462,3.886C210.093,322.646,210.294,324.616,211.358,327.083
						L211.358,327.083z"/>
				</g>
			</g>
		</g>
	</g>
	<path fill="#9F69A3" d="M221.077,328.075c2.574,0,4.659-1.935,4.659-4.32c0-2.385-2.085-4.319-4.659-4.319
		c-2.572,0-4.662,1.938-4.662,4.319c0,1.144,0.494,2.244,1.367,3.056C218.658,327.616,219.841,328.075,221.077,328.075
		L221.077,328.075z"/>
</g>
<g>
	<g>
		<g>
			<g>
				<g>
					<defs>
						<rect id="SVGID_7_" x="191.74" y="317.364" width="23.446" height="21.416"/>
					</defs>
					<clipPath id="SVGID_8_">
						<use xlink:href="#SVGID_7_"  overflow="visible"/>
					</clipPath>
					<path clip-path="url(#SVGID_8_)" fill="#121C3B" d="M192.781,332.198c-1.199-2.72-1.4-4.998-0.333-8.146
						c0.8-2.348,1.865-3.52,4.062-4.625c0.466-0.246,2.463-1.174,2.797-1.297c2.396-1.109,4.196-0.926,7.057,0.123
						c1.33,0.492,1.464,0.557,1.93,0.68c2.197,0.558,4.127,2.592,5.195,4.627c0.13,0.185,0.197,0.373,0.398,0.679
						c0.067,0.122,0.067,0.122,0.136,0.182c0.729,1.361,1.063,2.158,1.131,3.455c0.198,2.472-3.33,8.33-6.394,9.871
						c-3.126,1.545-9.386,1.301-11.383-0.31C195.377,336.021,193.58,334.045,192.781,332.198L192.781,332.198z M194.045,331.764
						c0.731,1.604,2.332,3.453,4.196,4.875c1.532,1.232,7.256,1.479,9.919,0.127c2.597-1.301,5.859-6.664,5.656-8.705
						c-0.066-1.108-0.329-1.787-0.998-3.022c-0.063-0.123-0.063-0.123-0.13-0.185c-0.202-0.309-0.269-0.492-0.401-0.739
						c-0.866-1.789-2.598-3.582-4.329-4.013c-0.531-0.125-0.732-0.182-2.128-0.737c-2.531-0.988-3.997-1.111-5.924-0.185
						c-0.403,0.185-2.333,1.045-2.798,1.297c-1.932,0.984-2.73,1.849-3.462,3.886C192.781,327.32,192.982,329.295,194.045,331.764
						L194.045,331.764z"/>
				</g>
			</g>
		</g>
	</g>
	<path fill="#9F69A3" d="M203.766,332.75c2.572,0,4.66-1.934,4.66-4.316c0-2.382-2.087-4.32-4.66-4.32
		c-2.574,0-4.662,1.938-4.662,4.32c0,1.144,0.491,2.244,1.366,3.051C201.347,332.299,202.529,332.75,203.766,332.75L203.766,332.75z
		"/>
</g>
<g>
	<g>
		<g>
			<g>
				<g>
					<defs>
						<rect id="SVGID_9_" x="155.928" y="329.424" width="23.448" height="21.416"/>
					</defs>
					<clipPath id="SVGID_10_">
						<use xlink:href="#SVGID_9_"  overflow="visible"/>
					</clipPath>
					<path clip-path="url(#SVGID_10_)" fill="#121C3B" d="M156.97,344.254c-1.198-2.721-1.399-4.996-0.333-8.146
						c0.799-2.344,1.865-3.518,4.063-4.625c0.464-0.248,2.461-1.174,2.795-1.299c2.396-1.108,4.194-0.922,7.056,0.125
						c1.33,0.496,1.465,0.555,1.929,0.68c2.198,0.558,4.13,2.591,5.193,4.628c0.132,0.188,0.201,0.372,0.399,0.678
						c0.066,0.125,0.066,0.125,0.134,0.185c0.731,1.364,1.065,2.157,1.132,3.455c0.199,2.473-3.329,8.33-6.393,9.873
						c-3.126,1.549-9.386,1.301-11.383-0.306C159.567,348.079,157.769,346.102,156.97,344.254L156.97,344.254z M158.235,343.82
						c0.731,1.604,2.331,3.455,4.194,4.878c1.534,1.231,7.256,1.479,9.919,0.125c2.597-1.298,5.86-6.664,5.658-8.699
						c-0.064-1.115-0.333-1.787-0.998-3.026c-0.064-0.123-0.064-0.123-0.131-0.185c-0.199-0.308-0.267-0.49-0.399-0.74
						c-0.865-1.791-2.597-3.575-4.327-4.008c-0.533-0.127-0.732-0.187-2.131-0.742c-2.532-0.989-3.995-1.108-5.925-0.187
						c-0.401,0.187-2.331,1.05-2.797,1.3c-1.933,0.983-2.729,1.846-3.462,3.887C156.97,339.377,157.17,341.355,158.235,343.82
						L158.235,343.82z"/>
				</g>
			</g>
		</g>
	</g>
	<path fill="#9F69A3" d="M167.955,344.811c2.574,0,4.66-1.934,4.66-4.315c0-2.39-2.086-4.322-4.66-4.322
		c-2.573,0-4.662,1.937-4.662,4.322c0,1.141,0.491,2.239,1.366,3.051S166.719,344.811,167.955,344.811L167.955,344.811z"/>
</g>
<g>
	<g>
		<g>
			<g>
				<g>
					<defs>
						<rect id="SVGID_11_" x="132.481" y="291.527" width="23.447" height="21.416"/>
					</defs>
					<clipPath id="SVGID_12_">
						<use xlink:href="#SVGID_11_"  overflow="visible"/>
					</clipPath>
					<path clip-path="url(#SVGID_12_)" fill="#121C3B" d="M133.523,306.361c-1.196-2.723-1.398-5.002-0.332-8.151
						c0.799-2.342,1.863-3.51,4.061-4.623c0.464-0.248,2.46-1.174,2.796-1.295c2.396-1.11,4.194-0.924,7.056,0.123
						c1.33,0.492,1.467,0.555,1.93,0.683c2.197,0.555,4.126,2.588,5.194,4.622c0.131,0.185,0.2,0.373,0.399,0.679
						c0.066,0.127,0.066,0.127,0.136,0.186c0.727,1.363,1.062,2.16,1.128,3.455c0.202,2.469-3.327,8.33-6.392,9.871
						c-3.125,1.547-9.385,1.299-11.383-0.307C136.119,310.182,134.322,308.204,133.523,306.361L133.523,306.361z M134.788,305.922
						c0.731,1.607,2.331,3.455,4.195,4.877c1.532,1.232,7.256,1.482,9.917,0.125c2.598-1.295,5.861-6.662,5.661-8.699
						c-0.066-1.113-0.333-1.789-0.999-3.024c-0.066-0.121-0.066-0.121-0.133-0.183c-0.201-0.311-0.269-0.494-0.4-0.744
						c-0.866-1.789-2.598-3.573-4.327-4.012c-0.532-0.123-0.73-0.182-2.129-0.736c-2.531-0.989-3.996-1.11-5.925-0.186
						c-0.401,0.186-2.331,1.049-2.798,1.295c-1.93,0.986-2.73,1.85-3.463,3.889C133.523,301.48,133.724,303.458,134.788,305.922
						L134.788,305.922z"/>
				</g>
			</g>
		</g>
	</g>
	<path fill="#9F69A3" d="M144.507,306.911c2.576,0,4.662-1.937,4.662-4.316c0-2.385-2.086-4.319-4.662-4.319
		c-2.573,0-4.66,1.938-4.66,4.319c0,1.146,0.491,2.244,1.364,3.052C142.088,306.459,143.272,306.911,144.507,306.911
		L144.507,306.911z"/>
</g>
<g>
	<g>
		<g>
			<g>
				<g>
					<defs>
						<rect id="SVGID_13_" x="186.312" y="291.527" width="23.446" height="21.416"/>
					</defs>
					<clipPath id="SVGID_14_">
						<use xlink:href="#SVGID_13_"  overflow="visible"/>
					</clipPath>
					<path clip-path="url(#SVGID_14_)" fill="#121C3B" d="M187.353,306.361c-1.199-2.723-1.4-5.002-0.333-8.151
						c0.799-2.342,1.864-3.51,4.062-4.623c0.465-0.248,2.462-1.174,2.797-1.295c2.395-1.108,4.193-0.924,7.055,0.123
						c1.33,0.492,1.463,0.555,1.93,0.683c2.196,0.555,4.128,2.588,5.193,4.622c0.13,0.185,0.198,0.373,0.399,0.679
						c0.065,0.127,0.065,0.127,0.132,0.186c0.731,1.363,1.066,2.16,1.132,3.455c0.199,2.469-3.329,8.33-6.394,9.871
						c-3.126,1.547-9.385,1.299-11.383-0.307C189.948,310.182,188.151,308.204,187.353,306.361L187.353,306.361z M188.617,305.922
						c0.731,1.607,2.331,3.455,4.194,4.877c1.533,1.232,7.257,1.482,9.921,0.125c2.596-1.295,5.857-6.662,5.657-8.699
						c-0.069-1.113-0.334-1.787-1-3.024c-0.064-0.121-0.064-0.121-0.13-0.183c-0.2-0.311-0.267-0.494-0.401-0.744
						c-0.866-1.789-2.597-3.573-4.327-4.012c-0.531-0.123-0.731-0.182-2.13-0.736c-2.532-0.989-3.996-1.11-5.924-0.186
						c-0.401,0.186-2.33,1.049-2.797,1.295c-1.93,0.986-2.73,1.85-3.461,3.889C187.353,301.48,187.552,303.458,188.617,305.922
						L188.617,305.922z"/>
				</g>
			</g>
		</g>
	</g>
	<path fill="#9F69A3" d="M198.338,306.911c2.572,0,4.659-1.937,4.659-4.313c0-2.388-2.086-4.322-4.659-4.322
		c-2.576,0-4.662,1.938-4.662,4.322c0,1.143,0.493,2.241,1.366,3.053C195.917,306.459,197.101,306.911,198.338,306.911
		L198.338,306.911z"/>
</g>
<g>
	<g>
		<g>
			<g>
				<g>
					<defs>
						<rect id="SVGID_15_" x="167.754" y="349.208" width="23.447" height="21.416"/>
					</defs>
					<clipPath id="SVGID_16_">
						<use xlink:href="#SVGID_15_"  overflow="visible"/>
					</clipPath>
					<path clip-path="url(#SVGID_16_)" fill="#121C3B" d="M168.797,364.04c-1.199-2.717-1.399-5.002-0.333-8.146
						c0.801-2.345,1.864-3.517,4.062-4.625c0.465-0.246,2.463-1.174,2.794-1.299c2.399-1.109,4.196-0.923,7.058,0.125
						c1.331,0.493,1.464,0.557,1.931,0.678c2.198,0.559,4.127,2.596,5.194,4.629c0.131,0.184,0.199,0.373,0.399,0.678
						c0.064,0.123,0.064,0.123,0.134,0.184c0.73,1.359,1.063,2.158,1.13,3.457c0.199,2.467-3.329,8.332-6.394,9.871
						c-3.126,1.543-9.384,1.301-11.383-0.311C171.393,367.861,169.595,365.887,168.797,364.04L168.797,364.04z M170.063,363.605
						c0.729,1.603,2.33,3.451,4.194,4.875c1.532,1.23,7.256,1.478,9.919,0.127c2.597-1.303,5.859-6.67,5.659-8.703
						c-0.067-1.112-0.332-1.79-1-3.022c-0.065-0.125-0.065-0.125-0.13-0.187c-0.199-0.307-0.269-0.493-0.401-0.737
						c-0.868-1.793-2.599-3.58-4.328-4.013c-0.531-0.129-0.73-0.186-2.13-0.741c-2.53-0.99-3.996-1.109-5.923-0.183
						c-0.402,0.183-2.33,1.045-2.796,1.297c-1.934,0.982-2.732,1.847-3.463,3.884C168.797,359.163,168.996,361.135,170.063,363.605
						L170.063,363.605z"/>
				</g>
			</g>
		</g>
	</g>
	<path fill="#9F69A3" d="M179.78,364.59c2.574,0,4.661-1.934,4.661-4.316c0-2.385-2.085-4.315-4.661-4.315
		c-2.573,0-4.66,1.933-4.66,4.315c0,1.144,0.491,2.24,1.366,3.056C177.36,364.139,178.545,364.59,179.78,364.59L179.78,364.59z"/>
</g>
<g>
	<g>
		<g>
			<g>
				<g>
					<defs>
						<rect id="SVGID_17_" x="192.042" y="338.499" width="23.446" height="21.416"/>
					</defs>
					<clipPath id="SVGID_18_">
						<use xlink:href="#SVGID_17_"  overflow="visible"/>
					</clipPath>
					<path clip-path="url(#SVGID_18_)" fill="#121C3B" d="M193.083,353.327c-1.199-2.72-1.399-4.998-0.333-8.146
						c0.8-2.343,1.865-3.515,4.062-4.625c0.465-0.248,2.463-1.175,2.797-1.298c2.396-1.108,4.194-0.922,7.056,0.123
						c1.33,0.492,1.464,0.558,1.929,0.683c2.198,0.557,4.13,2.592,5.195,4.623c0.13,0.188,0.197,0.377,0.399,0.682
						c0.067,0.125,0.067,0.125,0.133,0.184c0.733,1.363,1.067,2.16,1.134,3.455c0.198,2.471-3.33,8.328-6.395,9.871
						c-3.125,1.547-9.384,1.297-11.383-0.307C195.68,357.15,193.882,355.174,193.083,353.327L193.083,353.327z M194.348,352.891
						c0.73,1.605,2.33,3.455,4.194,4.877c1.533,1.232,7.256,1.48,9.919,0.127c2.597-1.297,5.858-6.668,5.658-8.703
						c-0.066-1.112-0.332-1.784-1-3.022c-0.062-0.125-0.062-0.125-0.129-0.185c-0.201-0.309-0.267-0.493-0.402-0.743
						c-0.865-1.787-2.596-3.576-4.328-4.013c-0.531-0.123-0.73-0.182-2.127-0.737c-2.533-0.986-3.998-1.109-5.925-0.185
						c-0.401,0.185-2.331,1.049-2.796,1.299c-1.933,0.986-2.731,1.849-3.462,3.886C193.083,348.45,193.283,350.426,194.348,352.891
						L194.348,352.891z"/>
				</g>
			</g>
		</g>
	</g>
	<path fill="#9F69A3" d="M204.068,353.881c2.573,0,4.659-1.936,4.659-4.316c0-2.387-2.086-4.321-4.659-4.321
		c-2.576,0-4.662,1.938-4.662,4.321c0,1.144,0.492,2.24,1.366,3.054C201.647,353.426,202.831,353.881,204.068,353.881
		L204.068,353.881z"/>
</g>
<line fill="none" stroke="#706F6F" stroke-width="2" stroke-miterlimit="10" stroke-dasharray="6" x1="206.481" y1="294.926" x2="258.52" y2="277.232"/>
<line fill="none" stroke="#706F6F" stroke-width="2" stroke-miterlimit="10" stroke-dasharray="6" x1="232.09" y1="318.607" x2="285.98" y2="327.864"/>
<g>
	<g>
		<g>
			<g>
				<g>
					<defs>
						<rect id="SVGID_19_" x="363.847" y="240.495" width="25.584" height="22.241"/>
					</defs>
					<clipPath id="SVGID_20_">
						<use xlink:href="#SVGID_19_"  overflow="visible"/>
					</clipPath>
					<path clip-path="url(#SVGID_20_)" fill="#121C3B" d="M364.982,255.9c-1.31-2.825-1.527-5.192-0.361-8.463
						c0.873-2.434,2.033-3.649,4.432-4.805c0.506-0.258,2.688-1.219,3.051-1.348c2.615-1.15,4.578-0.957,7.699,0.129
						c1.451,0.516,1.601,0.576,2.107,0.707c2.395,0.578,4.502,2.689,5.666,4.803c0.143,0.195,0.217,0.389,0.434,0.703
						c0.072,0.129,0.072,0.129,0.15,0.193c0.795,1.416,1.16,2.242,1.231,3.59c0.222,2.564-3.633,8.65-6.977,10.248
						c-3.414,1.609-10.242,1.352-12.42-0.314C367.813,259.872,365.853,257.818,364.982,255.9L364.982,255.9z M366.361,255.445
						c0.797,1.669,2.543,3.589,4.58,5.064c1.67,1.279,7.914,1.539,10.819,0.131c2.832-1.348,6.396-6.922,6.172-9.035
						c-0.067-1.157-0.356-1.858-1.088-3.145c-0.067-0.127-0.067-0.127-0.143-0.191c-0.219-0.319-0.293-0.514-0.439-0.77
						c-0.94-1.859-2.832-3.715-4.721-4.164c-0.58-0.129-0.801-0.191-2.324-0.77c-2.76-1.025-4.358-1.154-6.465-0.191
						c-0.436,0.191-2.539,1.092-3.053,1.348c-2.105,1.021-2.979,1.922-3.777,4.035C364.982,250.833,365.203,252.885,366.361,255.445
						L366.361,255.445z"/>
				</g>
			</g>
		</g>
	</g>
	<path fill="none" stroke="#706F6F" stroke-width="2" stroke-miterlimit="10" stroke-dasharray="6" d="M376.968,256.475
		c2.81,0,5.088-2.006,5.088-4.481c0-2.479-2.278-4.49-5.088-4.49c-2.807,0-5.086,2.011-5.086,4.49c0,1.184,0.537,2.325,1.49,3.17
		C374.33,256.002,375.619,256.475,376.968,256.475L376.968,256.475z"/>
</g>
<g>
	<g>
		<g>
			<g>
				<g>
					<defs>
						<rect id="SVGID_21_" x="333.505" y="256.655" width="25.584" height="22.239"/>
					</defs>
					<clipPath id="SVGID_22_">
						<use xlink:href="#SVGID_21_"  overflow="visible"/>
					</clipPath>
					<path clip-path="url(#SVGID_22_)" fill="#121C3B" d="M334.64,272.059c-1.307-2.826-1.524-5.192-0.362-8.463
						c0.873-2.434,2.035-3.65,4.432-4.805c0.508-0.256,2.688-1.219,3.053-1.344c2.613-1.154,4.576-0.961,7.699,0.125
						c1.451,0.514,1.598,0.578,2.105,0.709c2.396,0.576,4.506,2.688,5.666,4.801c0.145,0.191,0.215,0.389,0.436,0.705
						c0.074,0.129,0.074,0.129,0.146,0.191c0.801,1.416,1.164,2.244,1.235,3.59c0.217,2.563-3.633,8.649-6.977,10.248
						c-3.41,1.608-10.238,1.352-12.42-0.314C337.472,276.025,335.513,273.975,334.64,272.059L334.64,272.059z M336.021,271.604
						c0.797,1.668,2.543,3.588,4.577,5.064c1.675,1.279,7.918,1.539,10.824,0.129c2.834-1.346,6.394-6.92,6.174-9.037
						c-0.071-1.154-0.362-1.854-1.092-3.139c-0.065-0.129-0.065-0.129-0.143-0.193c-0.22-0.32-0.291-0.512-0.439-0.77
						c-0.94-1.859-2.832-3.715-4.723-4.166c-0.576-0.127-0.797-0.188-2.322-0.768c-2.762-1.025-4.359-1.154-6.465-0.189
						c-0.439,0.189-2.543,1.09-3.053,1.346c-2.105,1.023-2.979,1.922-3.775,4.035C334.64,266.991,334.859,269.043,336.021,271.604
						L336.021,271.604z"/>
				</g>
			</g>
		</g>
	</g>
	<path fill="#62B2B3" d="M346.626,272.633c2.809,0,5.084-2.012,5.084-4.484c0-2.479-2.275-4.487-5.084-4.487
		s-5.088,2.01-5.088,4.487c0,1.187,0.539,2.328,1.49,3.172C343.984,272.161,345.277,272.633,346.626,272.633L346.626,272.633z"/>
</g>
<g>
	<g>
		<g>
			<g>
				<g>
					<defs>
						<rect id="SVGID_23_" x="370.242" y="261.116" width="25.584" height="22.241"/>
					</defs>
					<clipPath id="SVGID_24_">
						<use xlink:href="#SVGID_23_"  overflow="visible"/>
					</clipPath>
					<path clip-path="url(#SVGID_24_)" fill="#121C3B" d="M371.38,276.518c-1.309-2.821-1.527-5.192-0.365-8.459
						c0.875-2.436,2.033-3.651,4.435-4.807c0.506-0.254,2.688-1.217,3.051-1.348c2.617-1.15,4.58-0.957,7.699,0.129
						c1.453,0.512,1.6,0.58,2.104,0.705c2.398,0.576,4.504,2.693,5.666,4.807c0.148,0.191,0.22,0.389,0.439,0.703
						c0.067,0.127,0.067,0.127,0.145,0.191c0.799,1.412,1.162,2.242,1.232,3.59c0.221,2.563-3.631,8.65-6.978,10.25
						c-3.409,1.604-10.235,1.35-12.416-0.32C374.212,280.489,372.25,278.439,371.38,276.518L371.38,276.518z M372.759,276.068
						c0.797,1.666,2.543,3.589,4.578,5.064c1.67,1.277,7.918,1.535,10.824,0.131c2.832-1.352,6.393-6.928,6.174-9.041
						c-0.074-1.156-0.365-1.856-1.09-3.139c-0.074-0.129-0.074-0.129-0.146-0.195c-0.217-0.317-0.293-0.512-0.438-0.766
						c-0.947-1.861-2.836-3.717-4.721-4.166c-0.582-0.131-0.8-0.193-2.324-0.77c-2.765-1.027-4.361-1.152-6.465-0.189
						c-0.439,0.189-2.545,1.086-3.054,1.348c-2.106,1.021-2.979,1.916-3.776,4.033C371.38,271.454,371.597,273.504,372.759,276.068
						L372.759,276.068z"/>
				</g>
			</g>
		</g>
	</g>
	<path fill="#9F69A3" d="M383.365,277.092c2.809,0,5.084-2.006,5.084-4.482c0-2.479-2.275-4.485-5.084-4.485
		c-2.812,0-5.086,2.008-5.086,4.485c0,1.187,0.537,2.326,1.487,3.171C380.724,276.622,382.013,277.092,383.365,277.092
		L383.365,277.092z"/>
</g>
<g>
	<g>
		<g>
			<g>
				<g>
					<defs>
						<rect id="SVGID_25_" x="403.326" y="258.846" width="25.584" height="22.242"/>
					</defs>
					<clipPath id="SVGID_26_">
						<use xlink:href="#SVGID_25_"  overflow="visible"/>
					</clipPath>
					<path clip-path="url(#SVGID_26_)" fill="#121C3B" d="M404.46,274.25c-1.305-2.822-1.527-5.189-0.363-8.461
						c0.875-2.436,2.033-3.65,4.435-4.803c0.506-0.256,2.688-1.219,3.053-1.346c2.613-1.156,4.576-0.964,7.697,0.127
						c1.449,0.512,1.598,0.577,2.104,0.707c2.396,0.577,4.504,2.688,5.668,4.803c0.144,0.192,0.218,0.389,0.437,0.703
						c0.071,0.131,0.071,0.131,0.146,0.192c0.799,1.412,1.162,2.24,1.236,3.591c0.215,2.561-3.633,8.647-6.979,10.247
						c-3.409,1.604-10.237,1.351-12.42-0.317C407.294,278.221,405.332,276.17,404.46,274.25L404.46,274.25z M405.843,273.801
						c0.797,1.668,2.541,3.586,4.578,5.063c1.67,1.278,7.916,1.534,10.822,0.131c2.832-1.353,6.393-6.922,6.176-9.039
						c-0.076-1.152-0.363-1.856-1.09-3.14c-0.072-0.129-0.072-0.129-0.146-0.19c-0.217-0.319-0.291-0.512-0.438-0.771
						c-0.943-1.858-2.832-3.717-4.721-4.168c-0.58-0.127-0.802-0.188-2.324-0.766c-2.76-1.025-4.359-1.154-6.465-0.191
						c-0.439,0.191-2.539,1.086-3.054,1.347c-2.106,1.022-2.979,1.922-3.776,4.037C404.46,269.186,404.679,271.239,405.843,273.801
						L405.843,273.801z"/>
				</g>
			</g>
		</g>
	</g>
	<path fill="#EB9D30" stroke="#706F6F" stroke-miterlimit="10" stroke-dasharray="6" d="M416.447,274.827
		c2.811,0,5.088-2.011,5.088-4.486c0-2.475-2.277-4.483-5.088-4.483c-2.812,0-5.084,2.01-5.084,4.483
		c0,1.189,0.535,2.33,1.487,3.175C413.804,274.354,415.101,274.827,416.447,274.827L416.447,274.827z"/>
</g>
<g>
	<g>
		<g>
			<g>
				<g>
					<defs>
						<rect id="SVGID_27_" x="396.927" y="285.627" width="25.586" height="22.242"/>
					</defs>
					<clipPath id="SVGID_28_">
						<use xlink:href="#SVGID_27_"  overflow="visible"/>
					</clipPath>
					<path clip-path="url(#SVGID_28_)" fill="#121C3B" d="M398.063,301.03c-1.308-2.822-1.525-5.189-0.361-8.46
						c0.873-2.438,2.033-3.651,4.432-4.803c0.508-0.26,2.688-1.219,3.053-1.348c2.613-1.154,4.578-0.961,7.697,0.129
						c1.451,0.51,1.601,0.576,2.107,0.707c2.395,0.576,4.502,2.689,5.666,4.803c0.143,0.191,0.219,0.39,0.436,0.703
						c0.072,0.129,0.072,0.129,0.146,0.191c0.799,1.412,1.162,2.24,1.233,3.59c0.22,2.563-3.633,8.648-6.977,10.252
						c-3.412,1.604-10.238,1.348-12.418-0.32C400.896,305.002,398.933,302.952,398.063,301.03L398.063,301.03z M399.445,300.581
						c0.797,1.666,2.541,3.586,4.573,5.063c1.675,1.277,7.919,1.535,10.822,0.129c2.834-1.35,6.396-6.922,6.176-9.037
						c-0.071-1.153-0.36-1.856-1.09-3.141c-0.069-0.129-0.069-0.129-0.145-0.19c-0.219-0.318-0.293-0.513-0.438-0.771
						c-0.944-1.856-2.834-3.717-4.721-4.166c-0.582-0.127-0.799-0.188-2.324-0.766c-2.762-1.027-4.358-1.154-6.465-0.193
						c-0.438,0.193-2.541,1.089-3.051,1.349c-2.109,1.022-2.98,1.92-3.779,4.037C398.063,295.967,398.281,298.02,399.445,300.581
						L399.445,300.581z"/>
				</g>
			</g>
		</g>
	</g>
	<path fill="#C89797" stroke="#706F6F" stroke-miterlimit="10" stroke-dasharray="2" d="M410.046,301.607
		c2.813,0,5.088-2.01,5.088-4.483c0-2.478-2.274-4.488-5.088-4.488c-2.807,0-5.082,2.013-5.082,4.488
		c0,1.188,0.535,2.328,1.488,3.17C407.406,301.133,408.703,301.607,410.046,301.607L410.046,301.607z"/>
</g>
<g>
	<g>
		<g>
			<g>
				<g>
					<defs>
						<rect id="SVGID_29_" x="369.914" y="287.459" width="25.584" height="22.242"/>
					</defs>
					<clipPath id="SVGID_30_">
						<use xlink:href="#SVGID_29_"  overflow="visible"/>
					</clipPath>
					<path clip-path="url(#SVGID_30_)" fill="#121C3B" d="M371.048,302.864c-1.309-2.824-1.526-5.191-0.36-8.464
						c0.872-2.432,2.032-3.647,4.432-4.803c0.506-0.258,2.688-1.219,3.051-1.348c2.615-1.15,4.576-0.957,7.697,0.129
						c1.453,0.516,1.6,0.576,2.106,0.707c2.396,0.578,4.504,2.689,5.668,4.801c0.144,0.197,0.218,0.391,0.435,0.705
						c0.072,0.129,0.072,0.129,0.147,0.191c0.798,1.418,1.16,2.244,1.234,3.592c0.219,2.564-3.633,8.65-6.975,10.248
						c-3.414,1.609-10.244,1.352-12.423-0.314C373.88,306.836,371.919,304.784,371.048,302.864L371.048,302.864z M372.427,302.413
						c0.797,1.668,2.543,3.586,4.578,5.063c1.672,1.281,7.918,1.539,10.824,0.129c2.832-1.348,6.395-6.922,6.172-9.032
						c-0.07-1.16-0.359-1.859-1.09-3.146c-0.068-0.129-0.068-0.129-0.144-0.19c-0.221-0.32-0.293-0.514-0.438-0.771
						c-0.943-1.856-2.832-3.715-4.721-4.164c-0.58-0.131-0.804-0.192-2.326-0.77c-2.76-1.025-4.359-1.154-6.463-0.193
						c-0.439,0.193-2.541,1.093-3.056,1.349c-2.104,1.022-2.979,1.922-3.774,4.035C371.048,297.797,371.267,299.85,372.427,302.413
						L372.427,302.413z"/>
				</g>
			</g>
		</g>
	</g>
	<path fill="none" stroke="#706F6F" stroke-width="2" stroke-miterlimit="10" stroke-dasharray="6" d="M383.033,303.439
		c2.809,0,5.088-2.006,5.088-4.481c0-2.479-2.279-4.49-5.088-4.49c-2.81,0-5.086,2.011-5.086,4.49c0,1.185,0.539,2.326,1.492,3.17
		C380.394,302.967,381.685,303.439,383.033,303.439L383.033,303.439z"/>
</g>
<g>
	<g>
		<g>
			<g>
				<g>
					<defs>
						<rect id="SVGID_31_" x="382.705" y="302.711" width="25.584" height="22.244"/>
					</defs>
					<clipPath id="SVGID_32_">
						<use xlink:href="#SVGID_31_"  overflow="visible"/>
					</clipPath>
					<path clip-path="url(#SVGID_32_)" fill="#121C3B" d="M383.837,318.118c-1.305-2.828-1.524-5.193-0.361-8.468
						c0.873-2.432,2.035-3.647,4.431-4.803c0.51-0.258,2.688-1.219,3.055-1.346c2.613-1.152,4.576-0.959,7.699,0.127
						c1.449,0.512,1.596,0.578,2.104,0.707c2.398,0.578,4.506,2.689,5.668,4.803c0.146,0.191,0.218,0.389,0.438,0.705
						c0.074,0.129,0.074,0.129,0.145,0.191c0.804,1.414,1.164,2.242,1.236,3.59c0.217,2.563-3.633,8.65-6.977,10.25
						c-3.41,1.607-10.238,1.35-12.421-0.316C386.671,322.084,384.71,320.034,383.837,318.118L383.837,318.118z M385.22,317.665
						c0.797,1.664,2.543,3.586,4.578,5.063c1.672,1.279,7.918,1.539,10.824,0.131c2.832-1.348,6.393-6.924,6.172-9.041
						c-0.072-1.153-0.361-1.854-1.09-3.141c-0.068-0.127-0.068-0.127-0.146-0.191c-0.219-0.317-0.291-0.512-0.438-0.77
						c-0.943-1.857-2.832-3.713-4.723-4.166c-0.578-0.127-0.8-0.188-2.322-0.768c-2.764-1.025-4.361-1.154-6.465-0.189
						c-0.439,0.189-2.543,1.09-3.054,1.346c-2.104,1.025-2.979,1.923-3.776,4.037C383.837,313.049,384.058,315.1,385.22,317.665
						L385.22,317.665z"/>
				</g>
			</g>
		</g>
	</g>
	<path fill="#62B2B3" d="M395.826,318.689c2.809,0,5.084-2.01,5.084-4.483c0-2.478-2.275-4.488-5.084-4.488
		c-2.812,0-5.088,2.011-5.088,4.488c0,1.187,0.539,2.33,1.487,3.174C393.183,318.219,394.476,318.689,395.826,318.689
		L395.826,318.689z"/>
</g>
<g>
	<g>
		<g>
			<g>
				<g>
					<defs>
						<rect id="SVGID_33_" x="349.742" y="291.571" width="25.586" height="22.243"/>
					</defs>
					<clipPath id="SVGID_34_">
						<use xlink:href="#SVGID_33_"  overflow="visible"/>
					</clipPath>
					<path clip-path="url(#SVGID_34_)" fill="#121C3B" d="M350.88,306.977c-1.307-2.824-1.527-5.19-0.365-8.461
						c0.877-2.438,2.035-3.651,4.435-4.805c0.508-0.256,2.688-1.219,3.053-1.346c2.615-1.156,4.578-0.961,7.697,0.127
						c1.449,0.514,1.6,0.578,2.106,0.707c2.396,0.578,4.502,2.689,5.666,4.805c0.144,0.191,0.22,0.387,0.437,0.701
						c0.072,0.131,0.072,0.131,0.146,0.195c0.799,1.41,1.162,2.24,1.236,3.588c0.215,2.563-3.633,8.65-6.975,10.248
						c-3.416,1.604-10.242,1.352-12.423-0.318C353.712,310.948,351.748,308.896,350.88,306.977L350.88,306.977z M352.259,306.525
						c0.799,1.668,2.543,3.586,4.578,5.064c1.672,1.277,7.918,1.535,10.822,0.131c2.834-1.352,6.395-6.922,6.178-9.039
						c-0.076-1.154-0.365-1.858-1.092-3.141c-0.072-0.129-0.072-0.129-0.146-0.191c-0.215-0.319-0.291-0.512-0.436-0.77
						c-0.945-1.857-2.834-3.717-4.721-4.166c-0.58-0.129-0.802-0.188-2.324-0.768c-2.762-1.025-4.359-1.154-6.467-0.189
						c-0.438,0.189-2.539,1.084-3.052,1.346c-2.106,1.023-2.979,1.92-3.776,4.037C350.88,301.913,351.097,303.963,352.259,306.525
						L352.259,306.525z"/>
				</g>
			</g>
		</g>
	</g>
	<path fill="#EB9D30" stroke="#706F6F" stroke-miterlimit="10" stroke-dasharray="6" d="M362.865,307.553
		c2.809,0,5.086-2.01,5.086-4.486c0-2.476-2.277-4.485-5.086-4.485c-2.812,0-5.086,2.01-5.086,4.485c0,1.188,0.537,2.33,1.487,3.173
		C360.222,307.079,361.517,307.553,362.865,307.553L362.865,307.553z"/>
</g>
<g>
	<g>
		<g>
			<g>
				<g>
					<defs>
						<rect id="SVGID_35_" x="294.059" y="329.372" width="25.583" height="22.239"/>
					</defs>
					<clipPath id="SVGID_36_">
						<use xlink:href="#SVGID_35_"  overflow="visible"/>
					</clipPath>
					<path clip-path="url(#SVGID_36_)" fill="#121C3B" d="M295.193,344.775c-1.309-2.825-1.528-5.19-0.362-8.463
						c0.873-2.434,2.032-3.647,4.432-4.803c0.506-0.26,2.688-1.221,3.054-1.348c2.612-1.152,4.575-0.959,7.696,0.127
						c1.451,0.516,1.601,0.576,2.107,0.707c2.395,0.578,4.502,2.691,5.666,4.803c0.143,0.193,0.217,0.387,0.434,0.705
						c0.074,0.127,0.074,0.127,0.15,0.191c0.797,1.414,1.16,2.242,1.231,3.59c0.222,2.564-3.633,8.65-6.975,10.25
						c-3.414,1.609-10.244,1.35-12.42-0.314C298.024,348.747,296.064,346.695,295.193,344.775L295.193,344.775z M296.57,344.32
						c0.8,1.669,2.547,3.587,4.582,5.064c1.67,1.281,7.916,1.539,10.821,0.131c2.832-1.348,6.396-6.922,6.175-9.035
						c-0.072-1.157-0.361-1.858-1.093-3.145c-0.067-0.127-0.067-0.127-0.143-0.191c-0.219-0.319-0.293-0.514-0.439-0.77
						c-0.938-1.857-2.832-3.715-4.719-4.164c-0.58-0.129-0.801-0.191-2.326-0.77c-2.76-1.025-4.358-1.154-6.463-0.191
						c-0.438,0.191-2.541,1.092-3.053,1.348c-2.107,1.021-2.979,1.922-3.778,4.037C295.193,339.708,295.413,341.758,296.57,344.32
						L296.57,344.32z"/>
				</g>
			</g>
		</g>
	</g>
	<path fill="none" stroke="#706F6F" stroke-width="2" stroke-miterlimit="10" stroke-dasharray="6" d="M307.179,345.35
		c2.81,0,5.088-2.006,5.088-4.479c0-2.479-2.278-4.492-5.088-4.492c-2.807,0-5.086,2.013-5.086,4.492
		c0,1.182,0.537,2.323,1.492,3.168C304.541,344.877,305.83,345.35,307.179,345.35L307.179,345.35z"/>
</g>
<g>
	<g>
		<g>
			<g>
				<g>
					<defs>
						<rect id="SVGID_37_" x="259.148" y="348.913" width="25.584" height="22.239"/>
					</defs>
					<clipPath id="SVGID_38_">
						<use xlink:href="#SVGID_37_"  overflow="visible"/>
					</clipPath>
					<path clip-path="url(#SVGID_38_)" fill="#121C3B" d="M260.282,364.314c-1.306-2.825-1.526-5.192-0.363-8.463
						c0.873-2.434,2.035-3.649,4.431-4.805c0.51-0.256,2.689-1.219,3.055-1.344c2.613-1.152,4.574-0.961,7.699,0.125
						c1.449,0.514,1.597,0.578,2.104,0.709c2.398,0.576,4.506,2.688,5.668,4.801c0.145,0.193,0.215,0.389,0.436,0.707
						c0.074,0.127,0.074,0.127,0.146,0.189c0.801,1.416,1.164,2.244,1.236,3.59c0.217,2.563-3.633,8.65-6.978,10.248
						c-3.411,1.609-10.237,1.352-12.42-0.314C263.116,368.284,261.154,366.23,260.282,364.314L260.282,364.314z M261.664,363.859
						c0.796,1.668,2.542,3.589,4.578,5.064c1.672,1.279,7.917,1.539,10.822,0.131c2.834-1.348,6.394-6.922,6.175-9.039
						c-0.073-1.154-0.362-1.854-1.091-3.139c-0.068-0.129-0.068-0.129-0.145-0.193c-0.218-0.32-0.29-0.512-0.438-0.77
						c-0.942-1.859-2.832-3.715-4.723-4.164c-0.578-0.129-0.799-0.189-2.322-0.768c-2.763-1.025-4.36-1.156-6.465-0.191
						c-0.438,0.191-2.543,1.09-3.053,1.346c-2.105,1.023-2.979,1.922-3.775,4.035C260.282,359.249,260.501,361.299,261.664,363.859
						L261.664,363.859z"/>
				</g>
			</g>
		</g>
	</g>
	<path fill="#62B2B3" d="M272.27,364.889c2.81,0,5.084-2.012,5.084-4.484c0-2.479-2.274-4.487-5.084-4.487s-5.088,2.01-5.088,4.487
		c0,1.187,0.539,2.328,1.49,3.173C269.627,364.417,270.92,364.889,272.27,364.889L272.27,364.889z"/>
</g>
<g>
	<g>
		<g>
			<g>
				<g>
					<defs>
						<rect id="SVGID_39_" x="295.884" y="353.372" width="25.584" height="22.242"/>
					</defs>
					<clipPath id="SVGID_40_">
						<use xlink:href="#SVGID_39_"  overflow="visible"/>
					</clipPath>
					<path clip-path="url(#SVGID_40_)" fill="#121C3B" d="M297.021,368.773c-1.309-2.819-1.526-5.19-0.364-8.459
						c0.876-2.436,2.036-3.651,4.434-4.807c0.508-0.254,2.689-1.215,3.051-1.348c2.617-1.15,4.58-0.957,7.699,0.129
						c1.453,0.514,1.601,0.58,2.105,0.705c2.397,0.578,4.504,2.693,5.666,4.809c0.146,0.189,0.219,0.387,0.438,0.701
						c0.072,0.127,0.072,0.127,0.146,0.193c0.799,1.41,1.162,2.24,1.231,3.588c0.222,2.563-3.631,8.65-6.977,10.25
						c-3.41,1.604-10.238,1.35-12.414-0.32C299.853,372.745,297.893,370.695,297.021,368.773L297.021,368.773z M298.402,368.327
						c0.797,1.664,2.543,3.586,4.575,5.063c1.675,1.276,7.921,1.534,10.826,0.131c2.832-1.353,6.394-6.929,6.174-9.041
						c-0.073-1.156-0.364-1.857-1.092-3.14c-0.071-0.129-0.071-0.129-0.145-0.194c-0.217-0.318-0.293-0.511-0.438-0.765
						c-0.944-1.862-2.834-3.719-4.721-4.168c-0.582-0.131-0.799-0.192-2.324-0.771c-2.762-1.026-4.36-1.149-6.465-0.188
						c-0.438,0.188-2.545,1.086-3.051,1.346c-2.109,1.021-2.98,1.918-3.779,4.033C297.021,363.709,297.24,365.76,298.402,368.327
						L298.402,368.327z"/>
				</g>
			</g>
		</g>
	</g>
	<path fill="#9F69A3" d="M309.007,369.35c2.81,0,5.084-2.008,5.084-4.483c0-2.479-2.274-4.484-5.084-4.484
		c-2.809,0-5.086,2.007-5.086,4.484c0,1.186,0.537,2.325,1.49,3.17C306.367,368.877,307.658,369.35,309.007,369.35L309.007,369.35z"
		/>
</g>
<g>
	<g>
		<g>
			<g>
				<g>
					<defs>
						<rect id="SVGID_41_" x="328.968" y="351.102" width="25.584" height="22.242"/>
					</defs>
					<clipPath id="SVGID_42_">
						<use xlink:href="#SVGID_41_"  overflow="visible"/>
					</clipPath>
					<path clip-path="url(#SVGID_42_)" fill="#121C3B" d="M330.103,366.506c-1.305-2.822-1.524-5.189-0.362-8.461
						c0.877-2.434,2.035-3.65,4.434-4.803c0.508-0.256,2.689-1.219,3.053-1.346c2.615-1.156,4.576-0.963,7.697,0.127
						c1.449,0.512,1.601,0.578,2.105,0.709c2.397,0.574,4.506,2.688,5.668,4.803c0.143,0.191,0.219,0.387,0.436,0.701
						c0.072,0.131,0.072,0.131,0.146,0.193c0.801,1.413,1.162,2.239,1.235,3.592c0.216,2.559-3.633,8.646-6.975,10.246
						c-3.414,1.604-10.242,1.35-12.42-0.318C332.938,370.477,330.976,368.428,330.103,366.506L330.103,366.506z M331.486,366.057
						c0.797,1.668,2.541,3.586,4.575,5.064c1.673,1.277,7.919,1.533,10.822,0.131c2.834-1.354,6.396-6.924,6.176-9.041
						c-0.073-1.152-0.36-1.857-1.09-3.137c-0.069-0.131-0.069-0.131-0.145-0.193c-0.217-0.32-0.291-0.512-0.439-0.77
						c-0.94-1.859-2.832-3.717-4.719-4.168c-0.58-0.127-0.801-0.187-2.326-0.766c-2.76-1.023-4.356-1.154-6.465-0.189
						c-0.438,0.189-2.539,1.084-3.049,1.346c-2.111,1.023-2.98,1.92-3.779,4.035C330.103,361.441,330.322,363.495,331.486,366.057
						L331.486,366.057z"/>
				</g>
			</g>
		</g>
	</g>
	<path fill="#EB9D30" stroke="#706F6F" stroke-miterlimit="10" stroke-dasharray="6" d="M342.089,367.083
		c2.812,0,5.088-2.008,5.088-4.485c0-2.476-2.276-4.484-5.088-4.484c-2.809,0-5.084,2.01-5.084,4.484
		c0,1.188,0.535,2.329,1.49,3.174C339.449,366.611,340.744,367.083,342.089,367.083L342.089,367.083z"/>
</g>
<g>
	<g>
		<g>
			<g>
				<g>
					<defs>
						<rect id="SVGID_43_" x="307.15" y="236.381" width="25.584" height="22.242"/>
					</defs>
					<clipPath id="SVGID_44_">
						<use xlink:href="#SVGID_43_"  overflow="visible"/>
					</clipPath>
					<path clip-path="url(#SVGID_44_)" fill="#121C3B" d="M308.285,251.782c-1.308-2.82-1.527-5.188-0.363-8.459
						c0.875-2.438,2.033-3.652,4.435-4.804c0.506-0.258,2.688-1.217,3.051-1.348c2.614-1.154,4.578-0.959,7.696,0.131
						c1.451,0.51,1.603,0.574,2.107,0.705c2.395,0.578,4.504,2.691,5.666,4.803c0.145,0.193,0.219,0.39,0.436,0.703
						c0.074,0.131,0.074,0.131,0.148,0.193c0.799,1.412,1.162,2.238,1.234,3.59c0.217,2.563-3.634,8.648-6.978,10.252
						c-3.414,1.604-10.24,1.348-12.418-0.32C311.117,255.756,309.156,253.706,308.285,251.782L308.285,251.782z M309.666,251.334
						c0.799,1.666,2.543,3.586,4.578,5.064c1.672,1.276,7.918,1.535,10.82,0.129c2.834-1.351,6.396-6.922,6.178-9.037
						c-0.074-1.154-0.365-1.859-1.092-3.141c-0.07-0.132-0.07-0.132-0.146-0.191c-0.217-0.32-0.291-0.512-0.436-0.77
						c-0.945-1.859-2.834-3.72-4.722-4.166c-0.582-0.128-0.801-0.189-2.323-0.767c-2.763-1.026-4.359-1.154-6.468-0.192
						c-0.438,0.192-2.541,1.086-3.049,1.348c-2.108,1.022-2.979,1.92-3.781,4.035C308.285,246.721,308.501,248.771,309.666,251.334
						L309.666,251.334z"/>
				</g>
			</g>
		</g>
	</g>
	<path fill="#C89797" stroke="#706F6F" stroke-miterlimit="10" stroke-dasharray="2" d="M320.269,252.361
		c2.812,0,5.089-2.01,5.089-4.485s-2.277-4.485-5.089-4.485c-2.809,0-5.084,2.01-5.084,4.485c0,1.188,0.535,2.33,1.488,3.172
		C317.628,251.887,318.923,252.361,320.269,252.361L320.269,252.361z"/>
</g>
<g>
	<g>
		<g>
			<g>
				<g>
					<defs>
						<rect id="SVGID_45_" x="254.391" y="240.497" width="25.584" height="22.239"/>
					</defs>
					<clipPath id="SVGID_46_">
						<use xlink:href="#SVGID_45_"  overflow="visible"/>
					</clipPath>
					<path clip-path="url(#SVGID_46_)" fill="#121C3B" d="M255.525,255.9c-1.308-2.823-1.527-5.19-0.361-8.463
						c0.873-2.434,2.033-3.647,4.432-4.805c0.506-0.258,2.688-1.217,3.051-1.346c2.615-1.15,4.578-0.959,7.697,0.129
						c1.453,0.516,1.6,0.574,2.107,0.705c2.396,0.578,4.504,2.691,5.668,4.803c0.143,0.195,0.217,0.389,0.434,0.705
						c0.072,0.129,0.072,0.129,0.149,0.191c0.796,1.416,1.159,2.244,1.233,3.59c0.219,2.564-3.634,8.65-6.976,10.25
						c-3.414,1.609-10.243,1.35-12.42-0.314C258.357,259.874,256.396,257.821,255.525,255.9L255.525,255.9z M256.904,255.45
						c0.797,1.668,2.543,3.586,4.58,5.063c1.67,1.279,7.916,1.539,10.822,0.129c2.832-1.348,6.396-6.922,6.172-9.035
						c-0.069-1.159-0.358-1.858-1.088-3.145c-0.07-0.127-0.07-0.127-0.143-0.189c-0.221-0.321-0.293-0.514-0.439-0.77
						c-0.942-1.859-2.832-3.715-4.721-4.164c-0.58-0.131-0.801-0.193-2.324-0.77c-2.761-1.027-4.361-1.154-6.464-0.193
						c-0.438,0.193-2.541,1.09-3.053,1.348c-2.106,1.023-2.979,1.92-3.778,4.035C255.525,250.834,255.745,252.885,256.904,255.45
						L256.904,255.45z"/>
				</g>
			</g>
		</g>
	</g>
	<path fill="none" stroke="#706F6F" stroke-width="2" stroke-miterlimit="10" stroke-dasharray="6" d="M267.511,256.475
		c2.808,0,5.087-2.006,5.087-4.479c0-2.479-2.279-4.49-5.087-4.49c-2.807,0-5.086,2.011-5.086,4.49c0,1.185,0.538,2.323,1.492,3.17
		C264.872,256.004,266.162,256.475,267.511,256.475L267.511,256.475z"/>
</g>
<g>
	<g>
		<g>
			<g>
				<g>
					<defs>
						<rect id="SVGID_47_" x="219.395" y="241.655" width="25.583" height="22.241"/>
					</defs>
					<clipPath id="SVGID_48_">
						<use xlink:href="#SVGID_47_"  overflow="visible"/>
					</clipPath>
					<path clip-path="url(#SVGID_48_)" fill="#121C3B" d="M220.528,257.059c-1.306-2.826-1.526-5.192-0.363-8.467
						c0.873-2.432,2.035-3.646,4.431-4.803c0.509-0.256,2.688-1.219,3.054-1.346c2.613-1.15,4.576-0.957,7.699,0.127
						c1.45,0.514,1.598,0.58,2.104,0.709c2.397,0.576,4.506,2.688,5.667,4.803c0.145,0.191,0.215,0.387,0.436,0.703
						c0.073,0.131,0.073,0.131,0.146,0.191c0.801,1.416,1.165,2.243,1.237,3.592c0.215,2.563-3.633,8.649-6.978,10.248
						c-3.411,1.606-10.239,1.352-12.42-0.316C223.361,261.027,221.4,258.975,220.528,257.059L220.528,257.059z M221.91,256.605
						c0.796,1.666,2.542,3.586,4.578,5.064c1.672,1.281,7.916,1.539,10.822,0.131c2.834-1.348,6.394-6.922,6.174-9.039
						c-0.072-1.154-0.362-1.854-1.09-3.141c-0.068-0.127-0.068-0.127-0.145-0.191c-0.217-0.32-0.29-0.512-0.438-0.77
						c-0.943-1.857-2.832-3.715-4.723-4.166c-0.578-0.127-0.798-0.189-2.322-0.768c-2.763-1.025-4.36-1.154-6.465-0.191
						c-0.439,0.191-2.542,1.09-3.053,1.348c-2.106,1.023-2.979,1.92-3.776,4.037C220.528,251.993,220.747,254.043,221.91,256.605
						L221.91,256.605z"/>
				</g>
			</g>
		</g>
	</g>
	<path fill="#62B2B3" d="M232.516,257.633c2.808,0,5.084-2.012,5.084-4.484c0-2.479-2.276-4.489-5.084-4.489
		c-2.811,0-5.088,2.012-5.088,4.489c0,1.187,0.539,2.328,1.49,3.173C229.872,257.161,231.166,257.633,232.516,257.633
		L232.516,257.633z"/>
</g>
<g>
	<g>
		<g>
			<g>
				<g>
					<defs>
						<rect id="SVGID_49_" x="331.25" y="312.631" width="25.584" height="22.244"/>
					</defs>
					<clipPath id="SVGID_50_">
						<use xlink:href="#SVGID_49_"  overflow="visible"/>
					</clipPath>
					<path clip-path="url(#SVGID_50_)" fill="#121C3B" d="M332.386,328.038c-1.305-2.824-1.524-5.192-0.362-8.461
						c0.877-2.438,2.036-3.652,4.434-4.806c0.51-0.256,2.688-1.219,3.051-1.346c2.617-1.156,4.58-0.963,7.699,0.127
						c1.449,0.514,1.6,0.578,2.104,0.707c2.398,0.578,4.507,2.691,5.669,4.803c0.143,0.193,0.219,0.392,0.436,0.705
						c0.074,0.131,0.074,0.131,0.148,0.193c0.799,1.41,1.159,2.24,1.231,3.588c0.217,2.563-3.631,8.65-6.973,10.25
						c-3.414,1.604-10.242,1.35-12.42-0.32C335.22,332.008,333.257,329.956,332.386,328.038L332.386,328.038z M333.769,327.588
						c0.798,1.666,2.544,3.586,4.576,5.061c1.672,1.281,7.92,1.537,10.822,0.132c2.832-1.351,6.395-6.921,6.176-9.037
						c-0.071-1.154-0.362-1.856-1.088-3.142c-0.074-0.129-0.074-0.129-0.147-0.19c-0.218-0.317-0.289-0.513-0.437-0.771
						c-0.945-1.856-2.834-3.717-4.721-4.166c-0.58-0.129-0.799-0.188-2.326-0.768c-2.76-1.025-4.359-1.154-6.463-0.189
						c-0.439,0.189-2.543,1.084-3.051,1.345c-2.111,1.022-2.979,1.922-3.779,4.038C332.386,322.973,332.607,325.025,333.769,327.588
						L333.769,327.588z"/>
				</g>
			</g>
		</g>
	</g>
	<path fill="#EB9D30" stroke="#706F6F" stroke-miterlimit="10" stroke-dasharray="6" d="M344.373,328.614
		c2.811,0,5.086-2.013,5.086-4.486s-2.275-4.485-5.086-4.485c-2.812,0-5.084,2.012-5.084,4.485c0,1.188,0.535,2.33,1.488,3.172
		C341.732,328.139,343.025,328.614,344.373,328.614L344.373,328.614z"/>
</g>
<line fill="none" stroke="#706E6F" stroke-width="2" stroke-miterlimit="10" x1="409.572" y1="58.488" x2="409.572" y2="82.063"/>
<g>
	<g>
		<polygon fill="#DCBAD5" points="211.969,36.735 211.753,36.814 210.117,37.404 207.562,37.404 205.518,37.991 203.73,38.997 
			200.794,39.666 198.496,41.092 196.707,42.516 195.557,44.023 195.557,45.783 195.557,46.955 197.217,46.955 198.749,48.045 
			203.093,50.307 210.373,44.19 211.969,40.505 		"/>
		<path fill="none" d="M172.951,51.774"/>
		<path fill="#6A4491" d="M215.059,37.991l5.679,2.011v1.341v2.344v3.854l-0.631,2.341l0.076,2.602l-1.725,0.738l-1.874,1.215
			c0,0,0,0.055,0,0.475c0,0.418,0,1.088,0,1.257c0,0.167-1.525,1.339-1.525,1.339l0.553,1.677c0,0-1.729,0.74-2.318,1.209
			c-0.59,0.467-2.183,1.64-2.183,1.64l-4.164,1.771l1.462,1.915l2.702,0.836l3.394,1.174l2.076,0.585h2.492h3.186l3.184-0.585
			l2.771-0.251l3.048-0.838l3.188-0.836l3.188-1.677l3.875-1.842l1.94-2.598l1.246-2.262v-3.183v-3.939v-1.088l-0.831-0.671
			l-1.385-1.591l-1.664-1.677l-1.938-1.76l-2.906-1.172l-2.771-0.838l-2.491-0.418L227.665,40l-3.048-1.005l-3.325-1.005h-1.939
			L215.059,37.991L215.059,37.991L215.059,37.991z"/>
		<path fill="none" d="M214.97,36.735"/>
		<path fill="#706E6F" stroke="#231815" stroke-width="0.25" stroke-miterlimit="10" d="M228.507,39.498l1.533,1.592l2.299,0.42
			l3.959,0.668l1.276,1.343l0.64,1.506v1.677v1.927v2.598v1.928l-0.896,1.76l-1.021,1.59l-1.532,2.262l-1.406,1.508l-1.275,1.759
			l-1.66,1.088l-1.917,1.341l-2.974,1.675l-2.773,0.923l-2.938,0.584c0,0-2.682,0-2.809,0c-0.126,0-2.171-0.587-2.043-0.251
			c0.13,0.336-2.032-0.474-2.032-0.474l-2.191-0.775l1.223,1.08l1.342,1.508c0,0,2.042,0.42,2.426,0.502
			c0.382,0.084,2.937,0,2.937,0l3.577,0.038l4.905-1.74l2.758-1.567l2.426-1.84l2.171-1.759l1.532-1.759l3.194-4.609l1.658-3.517
			v-2.849v-2.681V45.53v-0.587l-1.149-2.093l-1.661-1.759l-2.554-1.174l-2.173-0.418h-2.424L228.507,39.498L228.507,39.498z"/>
		<path fill="#706E6F" stroke="#231815" stroke-width="0.25" stroke-miterlimit="10" d="M212.543,38.997h2.426v-1.005l1.021-1.256
			l1.022-0.588h2.938h2.299l2.298,1.005l2.171,0.839l3.193,5.53v1.59v1.844l-0.765,2.681l-1.533,3.562l-2.082,2.554l-1.877,2.18
			l-2.811,2.177l-3.832,2.347l-3.191,1.339l-4.343,1.928l-4.214,1.005l-1.5,0.669l-2.714,0.251l-2.411,0.671l-2.443,0.418h-1.915
			h-1.791h-2.554h-2.809l-3.066-0.418h-2.425l-1.533-0.42h-1.533l-1.915-0.503l-2.81-0.585l-2.172-0.838l-1.66-0.585l-2.426-0.754
			l-2.684-1.092l-2.938-1.005l-2.555-1.593l-2.043-0.669l-1.789-1.257l-1.789-0.502l-2.298-1.088l-2.299-1.259l-2.938-0.754
			l-1.789-0.083l-1.406-0.418H113.69l-0.51-2.431h29.247l3.065,0.671l3.449,1.003l3.576,0.756l3.321,1.926l2.809,1.173l2.299,1.174
			c0,0,2.682,1.172,3.321,1.172s1.66,1.09,2.043,1.341c0.382,0.251,2.682,1.006,2.682,1.006l2.045,0.836l2.555,1.005l4.342,1.005
			l2.682,0.251l2.426,0.575h2.427h2.937l2.426-0.073c0,0,2.555,0.167,3.193,0c0.637-0.169,2.171,0,2.171,0l1.789-0.336l2.809-0.333
			l2.299-0.42l1.915-0.418l1.789-0.669l1.332-0.322l2.087-0.658l1.755-0.695l2.232-0.672l1.917-1.005l1.532-0.754l0.767-0.921
			l1.405-0.671l1.405-1.003l0.895-0.671l0.511-0.923l1.021-0.921l0.894-0.587l0.255-1.17l0.731-0.671l0.802-1.759l0.512-0.923
			v-1.087V47.29v-1.255v-2.513v-1.007l-0.64-1.508l-0.676-0.836l-1.113-1.172l-1.225-0.403l-1.84-0.603l-2.044-0.336h-2.297
			l-1.406,0.336"/>
		<polygon fill="#BD9BC3" points="203.093,49.889 201.304,47.627 198.112,46.034 197.089,46.034 195.047,47.375 194.024,47.96 
			193.514,48.463 193.514,50.307 193.514,51.815 193.514,53.91 194.791,56.088 195.557,57.009 196.196,57.512 199.133,55.669 
			202.327,52.485 203.763,51.774 		"/>
		<polygon fill="#9F69A3" points="216.918,53.993 212.704,52.736 210.533,51.982 208.106,51.228 204.53,49.805 203.765,48.966 
			203.765,47.04 203.765,45.113 203.765,43.939 204.53,42.934 205.933,41.426 206.957,40.505 208.746,39.081 210.342,38.076 
			212.321,38.076 212.64,38.076 214.875,38.076 216.918,38.076 218.707,38.661 220.112,39.583 220.749,41.174 221.517,42.767 
			221.517,45.113 221.005,47.04 221.005,48.381 220.749,50.474 219.217,52.569 		"/>
		<polygon fill="#E5CFE3" points="217.013,53.993 217.013,55.418 215.098,58.517 213.437,59.942 211.969,61.533 209.223,62.623 
			206.795,63.21 204.625,63.21 201.56,62.12 198.749,60.194 196.833,58.183 196.196,56.59 196.196,54.496 197.983,52.736 
			199.516,51.564 201.048,50.392 203.86,49.805 204.497,49.805 208.074,49.805 216.12,51.564 		"/>
	</g>
	<polygon fill="#706E6F" stroke="#231815" stroke-width="0.25" stroke-miterlimit="10" points="366.921,63.373 366.921,61.136 
		368.38,61.724 371.32,62.645 373.617,63.373 375.787,65.325 377.449,67.463 378.728,70.077 379.875,72.614 379.875,74.709 
		381.279,76.887 383.578,79.4 385.876,80.824 387.792,81.914 388.814,82.332 459.188,82.332 459.188,83.757 388.431,84.009 
		386.515,83.337 384.216,82.332 381.279,80.239 379.748,78.31 378.851,76.635 378.345,74.625 377.32,72.026 376.552,70.077 
		375.279,68.131 373.873,66.415 371.83,64.655 368.38,63.147 	"/>
	<polygon fill="#DCBAD5" points="334.591,48.467 334.371,48.546 332.736,49.137 330.179,49.137 328.138,49.724 326.347,50.729 
		323.412,51.399 321.113,52.825 319.324,54.248 318.175,55.756 318.175,57.516 318.175,58.688 319.833,58.688 321.367,59.778 
		325.71,62.04 332.992,55.923 334.591,52.237 	"/>
	<path fill="none" d="M295.57,63.506"/>
	<path fill="#6A4491" d="M337.675,49.724l5.685,2.011v1.342v2.344v3.854l-0.634,2.34l0.074,2.602l-1.725,0.738l-1.873,1.215
		c0,0,0,0.055,0,0.476c0,0.418,0,1.087,0,1.256c0,0.167-1.527,1.339-1.527,1.339l0.56,1.677c0,0-1.73,0.741-2.318,1.21
		c-0.596,0.467-2.189,1.64-2.189,1.64l-4.161,1.773l1.465,1.913l2.696,0.836l3.396,1.174l2.074,0.585h2.494h3.186l3.186-0.585
		l2.771-0.251l3.049-0.839l3.188-0.836l3.188-1.677l3.873-1.841l1.943-2.598l1.244-2.262v-3.183v-3.938V60.95l-0.836-0.671
		l-1.382-1.59l-1.659-1.677l-1.939-1.759l-2.904-1.172l-2.772-0.838l-2.49-0.418l-3.047-1.089l-3.045-1.006l-3.324-1.005h-1.941
		h-4.295v-0.001H337.675z"/>
	<path fill="none" d="M337.587,48.467"/>
	<path fill="#706E6F" stroke="#231815" stroke-width="0.25" stroke-miterlimit="10" d="M351.128,51.23l1.531,1.592l2.299,0.42
		l3.961,0.667l1.275,1.343l0.639,1.506v1.677v1.926v2.598v1.929l-0.893,1.759l-1.021,1.59l-1.533,2.262l-1.403,1.508l-1.275,1.76
		l-1.662,1.088l-1.914,1.341l-2.977,1.675l-2.771,0.923l-2.938,0.585c0,0-2.685,0-2.808,0c-0.129,0-2.174-0.587-2.047-0.251
		c0.129,0.336-2.031-0.473-2.031-0.473l-2.19-0.776l1.227,1.08l1.338,1.508c0,0,2.041,0.42,2.427,0.503c0.385,0.084,2.938,0,2.938,0
		l3.574,0.037l4.904-1.738l2.762-1.569l2.424-1.84l2.172-1.759l1.533-1.759l3.191-4.609l1.661-3.517v-2.849v-2.68v-1.426v-0.587
		l-1.147-2.093l-1.662-1.76l-2.553-1.174l-2.174-0.418h-2.425L351.128,51.23L351.128,51.23z"/>
	<path fill="#706E6F" stroke="#231815" stroke-width="0.25" stroke-miterlimit="10" d="M335.16,50.729h2.428v-1.006l1.021-1.256
		l1.024-0.587h2.937h2.299l2.297,1.005l2.178,0.838l3.191,5.53v1.591v1.844l-0.769,2.68l-1.53,3.562l-2.082,2.555l-1.877,2.18
		l-2.814,2.178l-3.828,2.346l-3.19,1.339l-4.345,1.928l-4.215,1.005l-1.5,0.67l-2.715,0.251l-2.408,0.671l-2.442,0.418h-1.914
		h-1.791h-2.56h-2.807l-3.066-0.418h-2.428l-1.531-0.42h-1.528l-1.918-0.502l-2.809-0.585l-2.174-0.838l-1.657-0.585l-2.429-0.754
		l-2.685-1.092l-2.938-1.005l-2.555-1.592l-2.043-0.67l-1.787-1.256l-1.791-0.503l-2.297-1.088l-2.301-1.259l-2.937-0.754
		l-1.789-0.082l-1.405-0.418h-29.375l-0.508-2.431h29.246l3.064,0.672l3.449,1.003l3.576,0.756l3.319,1.926l2.812,1.172l2.299,1.174
		c0,0,2.684,1.172,3.32,1.172c0.639,0,1.659,1.09,2.045,1.341c0.383,0.251,2.682,1.005,2.682,1.005l2.045,0.836l2.553,1.005
		l4.344,1.005l2.683,0.251l2.424,0.575h2.428h2.939l2.426-0.073c0,0,2.555,0.167,3.189,0c0.639-0.168,2.176,0,2.176,0l1.787-0.335
		l2.811-0.334l2.299-0.42l1.916-0.418l1.787-0.669l1.332-0.322l2.086-0.658l1.754-0.695l2.236-0.671l1.916-1.005l1.533-0.754
		l0.766-0.921l1.404-0.671l1.403-1.004l0.896-0.671l0.512-0.923l1.021-0.921l0.895-0.587l0.256-1.17l0.73-0.672l0.807-1.759
		l0.508-0.923v-1.088v-1.425v-1.255v-2.514v-1.007l-0.637-1.508l-0.678-0.837l-1.113-1.172l-1.227-0.403l-1.838-0.603l-2.046-0.335
		h-2.295l-1.407,0.335"/>
	<polygon fill="#BD9BC3" points="325.71,61.622 323.925,59.359 320.73,57.767 319.708,57.767 317.664,59.108 316.644,59.693 
		316.132,60.196 316.132,62.04 316.132,63.548 316.132,65.643 317.41,67.82 318.175,68.741 318.814,69.244 321.75,67.402 
		324.945,64.217 326.382,63.506 	"/>
	<polygon fill="#9F69A3" points="339.539,65.725 335.324,64.469 333.15,63.715 330.724,62.96 327.146,61.537 326.382,60.699 
		326.382,58.772 326.382,56.846 326.382,55.672 327.146,54.667 328.552,53.158 329.576,52.237 331.361,50.813 332.96,49.809 
		334.941,49.809 335.257,49.809 337.492,49.809 339.539,49.809 341.326,50.394 342.728,51.316 343.369,52.907 344.136,54.5 
		344.136,56.846 343.623,58.772 343.623,60.113 343.369,62.207 341.835,64.302 	"/>
	<polygon fill="#E5CFE3" points="339.634,65.725 339.634,67.151 337.716,70.25 336.054,71.675 334.591,73.266 331.841,74.355 
		329.414,74.942 327.244,74.942 324.179,73.853 321.367,71.926 319.451,69.916 318.814,68.323 318.814,66.228 320.601,64.469 
		322.134,63.296 323.666,62.124 326.476,61.537 327.115,61.537 330.693,61.537 338.738,63.296 	"/>
</g>
<ellipse transform="matrix(-0.9375 -0.348 0.348 -0.9375 520.7294 218.5486)" fill="#898989" cx="279.991" cy="62.511" rx="16.711" ry="15.791"/>
<text transform="matrix(1.013 0 0 1 268.9932 69.1201)" fill="#FFFFFF" font-family="'ArialMT'" font-size="18">TF</text>
<g>
	<g>
		<line fill="none" stroke="#706E6F" stroke-width="2" stroke-miterlimit="10" x1="409.572" y1="58.488" x2="423.857" y2="58.689"/>
		<g>
			<polygon fill="#706E6F" points="437.976,58.889 417.966,66.738 422.802,58.674 418.195,50.48 			"/>
		</g>
	</g>
</g>
<text transform="matrix(1 0 0 1 384.7617 102.1553)" fill="#FFFFFF" font-family="'ArialMT'" font-size="17">TFMarker</text>
<text transform="matrix(1 0 0 1 68.3228 57.7666)" font-family="'ArialMT'" font-size="17">DNA</text>
<text transform="matrix(1 0 0 1 256.9209 298.9541)" fill="#E60012" font-family="'ArialMT'" font-size="17">TFMarker</text>
<line fill="none" stroke="#706E6F" stroke-width="2" stroke-miterlimit="10" x1="408.181" y1="164.846" x2="408.181" y2="188.422"/>
<g>
	<g>
		<polygon fill="#DCBAD5" points="210.579,143.094 210.363,143.172 208.727,143.763 206.171,143.763 204.127,144.35 202.34,145.355 
			199.403,146.024 197.105,147.45 195.316,148.874 194.166,150.382 194.166,152.141 194.166,153.313 195.827,153.313 
			197.358,154.403 201.703,156.666 208.982,150.549 210.579,146.863 		"/>
		<path fill="none" d="M171.56,158.133"/>
		<path fill="#6A4491" d="M213.668,144.35l5.679,2.011v1.341v2.345v3.854l-0.631,2.341l0.076,2.603l-1.725,0.738l-1.874,1.215
			c0,0,0,0.055,0,0.475c0,0.419,0,1.088,0,1.258c0,0.166-1.525,1.339-1.525,1.339l0.553,1.677c0,0-1.729,0.74-2.318,1.209
			c-0.59,0.468-2.183,1.641-2.183,1.641l-4.164,1.771l1.462,1.915l2.702,0.836l3.394,1.175l2.076,0.585h2.492h3.186l3.184-0.585
			l2.771-0.251l3.047-0.839l3.188-0.837l3.187-1.677l3.875-1.842l1.94-2.598l1.246-2.263v-3.183v-3.938v-1.088l-0.83-0.672
			l-1.386-1.591l-1.663-1.677l-1.938-1.76l-2.907-1.172l-2.771-0.838l-2.491-0.419l-3.046-1.09l-3.047-1.005l-3.325-1.006h-1.939
			h-4.294v0.002H213.668z"/>
		<path fill="none" d="M213.579,143.094"/>
		<path fill="#706E6F" stroke="#231815" stroke-width="0.25" stroke-miterlimit="10" d="M227.117,145.855l1.533,1.593l2.299,0.42
			l3.959,0.668l1.275,1.343l0.641,1.506v1.678v1.926v2.598v1.929l-0.895,1.76l-1.021,1.591l-1.533,2.262l-1.406,1.508l-1.275,1.76
			l-1.659,1.088l-1.917,1.341l-2.974,1.675l-2.773,0.924l-2.938,0.584c0,0-2.682,0-2.809,0c-0.126,0-2.171-0.587-2.043-0.251
			c0.13,0.336-2.032-0.474-2.032-0.474l-2.191-0.775l1.223,1.08l1.342,1.508c0,0,2.042,0.42,2.426,0.503
			c0.382,0.085,2.937,0,2.937,0l3.577,0.038l4.906-1.74l2.758-1.566l2.426-1.841l2.171-1.759l1.532-1.76l3.193-4.609l1.658-3.516
			v-2.85v-2.681v-1.425v-0.588l-1.148-2.094l-1.662-1.759l-2.553-1.175l-2.172-0.418h-2.426h-2.428V145.855L227.117,145.855z"/>
		<path fill="#706E6F" stroke="#231815" stroke-width="0.25" stroke-miterlimit="10" d="M211.153,145.355h2.426v-1.006l1.021-1.256
			l1.022-0.588h2.938h2.299l2.298,1.005l2.171,0.839l3.193,5.529v1.591v1.844l-0.766,2.681l-1.533,3.563l-2.082,2.554l-1.877,2.181
			l-2.811,2.177l-3.832,2.347l-3.191,1.34l-4.343,1.928l-4.214,1.006l-1.5,0.669l-2.714,0.251l-2.411,0.672l-2.443,0.418h-1.915
			h-1.791h-2.554h-2.809l-3.066-0.418h-2.425l-1.533-0.42h-1.533l-1.915-0.503l-2.81-0.585l-2.172-0.839l-1.66-0.585l-2.426-0.754
			l-2.684-1.092l-2.938-1.006l-2.555-1.592l-2.043-0.67l-1.789-1.257l-1.789-0.503l-2.298-1.088l-2.299-1.258l-2.938-0.754
			l-1.789-0.083l-1.406-0.418h-29.372l-0.51-2.431h29.247l3.065,0.671l3.449,1.003l3.576,0.757l3.321,1.926l2.809,1.173l2.299,1.174
			c0,0,2.682,1.172,3.321,1.172s1.66,1.09,2.043,1.342c0.382,0.251,2.682,1.006,2.682,1.006l2.045,0.836l2.555,1.006l4.342,1.005
			l2.682,0.251l2.426,0.576h2.427h2.937l2.426-0.073c0,0,2.555,0.167,3.193,0c0.637-0.169,2.171,0,2.171,0l1.789-0.336L199.4,172
			l2.299-0.421l1.915-0.419l1.789-0.669l1.332-0.321l2.087-0.658l1.755-0.695l2.232-0.672l1.917-1.005l1.532-0.755l0.767-0.92
			l1.405-0.672l1.405-1.004l0.895-0.671l0.511-0.923l1.021-0.922l0.894-0.586l0.255-1.171l0.731-0.671l0.802-1.76l0.512-0.924
			v-1.087v-1.426v-1.255v-2.514v-1.007l-0.64-1.509l-0.676-0.836l-1.113-1.172l-1.225-0.403l-1.84-0.603l-2.044-0.336h-2.297
			l-1.406,0.336"/>
		<polygon fill="#BD9BC3" points="201.703,156.247 199.914,153.985 196.722,152.393 195.699,152.393 193.656,153.734 
			192.634,154.318 192.124,154.822 192.124,156.666 192.124,158.174 192.124,160.269 193.4,162.446 194.166,163.367 194.805,163.87 
			197.742,162.027 200.936,158.844 202.372,158.133 		"/>
		<polygon fill="#9F69A3" points="215.527,160.352 211.313,159.094 209.142,158.341 206.716,157.586 203.139,156.163 
			202.374,155.324 202.374,153.398 202.374,151.472 202.374,150.297 203.139,149.292 204.542,147.784 205.566,146.863 
			207.355,145.439 208.951,144.434 210.931,144.434 211.25,144.434 213.485,144.434 215.527,144.434 217.316,145.02 
			218.721,145.941 219.358,147.533 220.126,149.125 220.126,151.472 219.614,153.398 219.614,154.739 219.358,156.832 
			217.827,158.928 		"/>
		<polygon fill="#E5CFE3" points="215.623,160.352 215.623,161.777 213.707,164.875 212.046,166.301 210.579,167.892 
			207.832,168.981 205.404,169.568 203.234,169.568 200.169,168.479 197.358,166.553 195.442,164.541 194.805,162.949 
			194.805,160.854 196.592,159.094 198.125,157.922 199.658,156.75 202.469,156.163 203.106,156.163 206.683,156.163 
			214.729,157.922 		"/>
	</g>
	<polygon fill="#706E6F" stroke="#231815" stroke-width="0.25" stroke-miterlimit="10" points="365.531,169.731 365.531,167.494 
		366.99,168.082 369.929,169.003 372.226,169.731 374.396,171.684 376.058,173.822 377.337,176.436 378.484,178.973 
		378.484,181.067 379.888,183.245 382.188,185.759 384.486,187.182 386.402,188.271 387.423,188.689 457.796,188.689 
		457.796,190.115 387.041,190.367 385.125,189.695 382.826,188.689 379.888,186.598 378.357,184.668 377.46,182.994 
		376.955,180.982 375.929,178.385 375.162,176.436 373.888,174.489 372.482,172.773 370.439,171.014 366.99,169.506 	"/>
	<polygon fill="#DCBAD5" points="333.201,154.826 332.98,154.904 331.345,155.495 328.789,155.495 326.748,156.082 324.957,157.088 
		322.021,157.758 319.722,159.184 317.933,160.606 316.785,162.114 316.785,163.874 316.785,165.047 318.443,165.047 
		319.976,166.137 324.32,168.398 331.601,162.281 333.201,158.596 	"/>
	<path fill="none" d="M294.18,169.865"/>
	<path fill="#6A4491" d="M336.285,156.082l5.682,2.011v1.342v2.345v3.854l-0.631,2.341l0.074,2.603l-1.726,0.738l-1.872,1.215
		c0,0,0,0.055,0,0.476c0,0.418,0,1.087,0,1.257c0,0.167-1.527,1.339-1.527,1.339l0.557,1.677c0,0-1.729,0.74-2.315,1.21
		c-0.599,0.468-2.189,1.64-2.189,1.64l-4.164,1.773l1.465,1.912l2.699,0.836l3.396,1.175l2.071,0.585h2.494h3.188l3.186-0.585
		l2.771-0.251l3.049-0.839l3.186-0.837l3.189-1.677l3.873-1.841l1.94-2.599l1.244-2.263v-3.183v-3.938v-1.088l-0.834-0.672
		l-1.381-1.59l-1.66-1.678l-1.938-1.76l-2.904-1.172l-2.773-0.838l-2.489-0.419l-3.048-1.089l-3.045-1.006l-3.323-1.006h-1.941
		h-4.295v0.002H336.285z"/>
	<path fill="none" d="M336.197,154.826"/>
	<path fill="#706E6F" stroke="#231815" stroke-width="0.25" stroke-miterlimit="10" d="M349.738,157.588l1.53,1.593l2.3,0.421
		l3.961,0.667l1.274,1.343l0.64,1.506v1.678v1.926v2.598v1.93l-0.894,1.759l-1.021,1.591l-1.533,2.262l-1.406,1.508l-1.272,1.76
		l-1.662,1.088l-1.914,1.341l-2.979,1.675l-2.77,0.924l-2.939,0.584c0,0-2.684,0-2.807,0c-0.129,0-2.174-0.586-2.047-0.251
		c0.129,0.336-2.031-0.474-2.031-0.474l-2.191-0.775l1.228,1.08l1.338,1.508c0,0,2.041,0.421,2.424,0.504
		c0.385,0.084,2.941,0,2.941,0l3.574,0.037l4.903-1.738l2.763-1.568l2.424-1.841l2.172-1.759l1.533-1.76l3.19-4.609l1.662-3.516
		v-2.85v-2.68v-1.426v-0.588l-1.147-2.093l-1.662-1.76l-2.554-1.174l-2.174-0.419h-2.424h-2.43V157.588z"/>
	<path fill="#706E6F" stroke="#231815" stroke-width="0.25" stroke-miterlimit="10" d="M333.769,157.088h2.431v-1.006l1.02-1.256
		l1.025-0.588h2.936h2.299l2.3,1.006l2.178,0.838l3.188,5.529v1.592v1.844l-0.768,2.68l-1.531,3.563l-2.082,2.555l-1.877,2.18
		l-2.813,2.178l-3.828,2.346l-3.193,1.34l-4.342,1.928l-4.215,1.006l-1.5,0.67l-2.715,0.25l-2.408,0.672l-2.445,0.418h-1.914h-1.791
		h-2.557h-2.807l-3.066-0.418h-2.428l-1.531-0.42h-1.531l-1.918-0.502l-2.807-0.586l-2.174-0.838l-1.658-0.586l-2.428-0.754
		l-2.685-1.092l-2.938-1.006l-2.555-1.592l-2.043-0.67l-1.787-1.256l-1.791-0.504l-2.297-1.088l-2.301-1.258l-2.936-0.754
		l-1.789-0.082l-1.406-0.419h-29.374l-0.508-2.431h29.246l3.063,0.672l3.449,1.003l3.576,0.756l3.32,1.927l2.811,1.172l2.299,1.174
		c0,0,2.684,1.172,3.32,1.172c0.639,0,1.66,1.09,2.045,1.342c0.383,0.252,2.682,1.006,2.682,1.006l2.045,0.836l2.554,1.006
		l4.344,1.005l2.682,0.251l2.427,0.576h2.428h2.938l2.427-0.073c0,0,2.555,0.167,3.19,0c0.637-0.169,2.174,0,2.174,0l1.787-0.335
		l2.812-0.334l2.299-0.421l1.916-0.418l1.787-0.669l1.332-0.322l2.086-0.658l1.754-0.695l2.236-0.672l1.915-1.005l1.533-0.755
		l0.767-0.92l1.403-0.672l1.406-1.004l0.894-0.671l0.512-0.923l1.02-0.921l0.896-0.587l0.256-1.17l0.729-0.672l0.81-1.76
		l0.508-0.923v-1.088v-1.425v-1.256v-2.514v-1.007l-0.637-1.508l-0.681-0.837l-1.11-1.172l-1.229-0.402l-1.838-0.604l-2.045-0.336
		h-2.295l-1.408,0.336"/>
	<polygon fill="#BD9BC3" points="324.32,167.98 322.535,165.718 319.339,164.125 318.318,164.125 316.273,165.467 315.253,166.051 
		314.742,166.555 314.742,168.398 314.742,169.906 314.742,172.001 316.019,174.179 316.785,175.1 317.423,175.603 320.359,173.761 
		323.554,170.576 324.992,169.865 	"/>
	<polygon fill="#9F69A3" points="338.148,172.084 333.933,170.827 331.759,170.073 329.333,169.318 325.755,167.896 
		324.992,167.057 324.992,165.131 324.992,163.204 324.992,162.03 325.755,161.025 327.162,159.517 328.185,158.596 329.97,157.172 
		331.57,156.167 333.55,156.167 333.867,156.167 336.101,156.167 338.148,156.167 339.935,156.752 341.337,157.675 341.978,159.266 
		342.746,160.857 342.746,163.204 342.232,165.131 342.232,166.472 341.978,168.564 340.445,170.66 	"/>
	<polygon fill="#E5CFE3" points="338.244,172.084 338.244,173.51 336.326,176.607 334.664,178.033 333.201,179.624 330.451,180.714 
		328.023,181.301 325.853,181.301 322.789,180.211 319.976,178.285 318.06,176.273 317.423,174.682 317.423,172.586 319.21,170.827 
		320.744,169.654 322.275,168.482 325.085,167.896 325.724,167.896 329.302,167.896 337.347,169.654 	"/>
</g>
<ellipse transform="matrix(-0.9375 -0.348 0.348 -0.9375 478.0313 428.3305)" fill="#EA5514" cx="277.482" cy="171.236" rx="19.866" ry="15.79"/>
<g>
	<g>
		
			<line fill="none" stroke="#706E6F" stroke-width="2" stroke-miterlimit="10" x1="408.181" y1="164.846" x2="422.466" y2="165.048"/>
		<g>
			<polygon fill="#706E6F" points="436.585,165.247 416.576,173.096 421.412,165.033 416.804,156.838 			"/>
		</g>
	</g>
</g>
<text transform="matrix(1 0 0 1 66.9321 164.126)" font-family="'ArialMT'" font-size="17">DNA</text>
<text transform="matrix(1.013 0 0 1 266.1719 176.6357)" fill="#FFFFFF" font-family="'ArialMT'" font-size="18">TF</text>
<text transform="matrix(1 0 0 1 399.1973 206.4561)" font-family="'ArialMT'" font-size="17">genes</text>
<g>
	<g>
		<path fill="none" stroke="#EA5514" stroke-width="2" stroke-miterlimit="10" stroke-dasharray="5,5" d="M294.217,138.176
			c11.152-28,46.867-46.216,87.104-42.248"/>
		<g>
			<polygon fill="#EA5514" points="290.873,151.896 303.789,134.713 294.727,137.216 288.063,130.585 			"/>
		</g>
	</g>
</g>
<text transform="matrix(1 0 0 1 374.2441 353.3701)" font-family="'ArialMT'" font-size="17">Others</text>
<text transform="matrix(1 0 0 1 74.2207 271.6318)" font-family="'ArialMT'" font-size="17">Specific cell types</text>
</svg>
