<?xml version="1.0" encoding="utf-8"?>
<!-- Generator: Adobe Illustrator 16.0.0, SVG Export Plug-In . SVG Version: 6.00 Build 0)  -->
<!DOCTYPE svg PUBLIC "-//W3C//DTD SVG 1.1//EN" "http://www.w3.org/Graphics/SVG/1.1/DTD/svg11.dtd">
<svg version="1.1" id="图层_1" xmlns="http://www.w3.org/2000/svg" xmlns:xlink="http://www.w3.org/1999/xlink" x="0px" y="0px"
	 width="443px" height="176px" viewBox="75.14 42.445 443 176" enable-background="new 75.14 42.445 443 176" xml:space="preserve">
<rect x="411.375" y="177.472" fill="#006934" width="73.336" height="23.737"/>
<line fill="none" stroke="#706E6F" stroke-width="2" stroke-miterlimit="10" x1="438.638" y1="150.95" x2="438.638" y2="174.526"/>
<g>
	<g>
		<polygon fill="#DCBAD5" points="241.035,129.198 240.818,129.276 239.183,129.867 236.627,129.867 234.583,130.454 
			232.796,131.46 229.859,132.129 227.561,133.555 225.772,134.979 224.622,136.486 224.622,138.245 224.622,139.418 
			226.283,139.418 227.814,140.508 232.159,142.771 239.438,136.653 241.035,132.968 		"/>
		<path fill="none" d="M202.016,144.237"/>
		<path fill="#6A4491" d="M244.124,130.454l5.679,2.011v1.341v2.345v3.854l-0.631,2.341l0.076,2.603l-1.726,0.738l-1.873,1.215
			c0,0,0,0.055,0,0.475c0,0.419,0,1.088,0,1.258c0,0.166-1.525,1.339-1.525,1.339l0.553,1.677c0,0-1.728,0.74-2.317,1.209
			c-0.59,0.468-2.184,1.641-2.184,1.641l-4.164,1.771l1.463,1.915l2.701,0.836l3.395,1.175l2.076,0.585h2.491h3.186l3.185-0.585
			l2.771-0.251l3.047-0.839l3.188-0.837l3.187-1.677l3.875-1.842l1.94-2.598l1.246-2.263v-3.183v-3.938v-1.088l-0.83-0.672
			l-1.386-1.591l-1.663-1.677l-1.938-1.76l-2.906-1.172l-2.771-0.838l-2.491-0.419l-3.046-1.09l-3.047-1.005l-3.325-1.006h-1.938
			h-4.295v0.002H244.124z"/>
		<path fill="none" d="M244.035,129.198"/>
		<path fill="#706E6F" stroke="#231815" stroke-width="0.25" stroke-miterlimit="10" d="M257.573,131.96l1.533,1.593l2.299,0.42
			l3.959,0.668l1.275,1.343l0.641,1.506v1.678v1.926v2.598v1.929l-0.895,1.76l-1.021,1.591l-1.533,2.262l-1.406,1.508l-1.275,1.76
			l-1.66,1.088l-1.916,1.341l-2.975,1.675l-2.773,0.924l-2.938,0.584c0,0-2.682,0-2.809,0s-2.172-0.587-2.044-0.251
			c0.131,0.336-2.032-0.474-2.032-0.474l-2.19-0.775l1.223,1.08l1.342,1.508c0,0,2.042,0.42,2.427,0.503
			c0.382,0.085,2.936,0,2.936,0l3.577,0.038l4.905-1.74l2.758-1.566l2.426-1.841l2.172-1.759l1.531-1.76l3.194-4.609l1.658-3.516
			v-2.85v-2.681v-1.425v-0.588l-1.149-2.094l-1.661-1.759l-2.554-1.175l-2.172-0.418H260h-2.427V131.96z"/>
		<path fill="#706E6F" stroke="#231815" stroke-width="0.25" stroke-miterlimit="10" d="M241.609,131.46h2.426v-1.006l1.021-1.256
			l1.023-0.588h2.938h2.3l2.298,1.005l2.172,0.839l3.193,5.529v1.591v1.844l-0.766,2.681l-1.533,3.563l-2.082,2.554l-1.877,2.181
			l-2.811,2.177l-3.832,2.347l-3.19,1.34l-4.344,1.928l-4.213,1.006l-1.5,0.669l-2.714,0.251l-2.411,0.672l-2.443,0.418h-1.915
			h-1.791h-2.554h-2.809l-3.066-0.418h-2.425l-1.533-0.42h-1.533l-1.915-0.503l-2.81-0.585l-2.172-0.839l-1.66-0.585l-2.426-0.754
			l-2.684-1.092l-2.938-1.006l-2.555-1.592l-2.043-0.67l-1.789-1.257l-1.789-0.503l-2.298-1.088l-2.299-1.258l-2.938-0.754
			l-1.789-0.083l-1.406-0.418h-29.372l-0.51-2.431h29.247l3.065,0.671l3.449,1.003l3.576,0.757l3.321,1.926l2.809,1.173l2.299,1.174
			c0,0,2.682,1.172,3.321,1.172s1.66,1.09,2.043,1.342c0.382,0.251,2.682,1.006,2.682,1.006l2.045,0.836l2.555,1.006l4.342,1.005
			l2.682,0.251l2.426,0.576h2.427h2.937l2.426-0.073c0,0,2.555,0.167,3.193,0c0.637-0.169,2.171,0,2.171,0l1.789-0.336l2.809-0.333
			l2.299-0.421l1.915-0.419l1.789-0.669l1.332-0.321l2.087-0.658l1.756-0.695l2.232-0.672l1.917-1.005l1.531-0.755l0.767-0.92
			l1.405-0.672l1.404-1.004l0.895-0.671l0.512-0.923l1.021-0.922l0.894-0.586l0.256-1.171l0.73-0.671l0.803-1.76l0.512-0.924v-1.087
			v-1.426v-1.255v-2.514v-1.007l-0.641-1.509l-0.676-0.836l-1.113-1.172l-1.225-0.403l-1.84-0.603l-2.043-0.336h-2.297l-1.407,0.336
			"/>
		<polygon fill="#BD9BC3" points="232.159,142.352 230.37,140.09 227.178,138.497 226.155,138.497 224.112,139.839 223.09,140.423 
			222.58,140.927 222.58,142.771 222.58,144.278 222.58,146.373 223.856,148.551 224.622,149.472 225.261,149.975 228.198,148.132 
			231.392,144.948 232.828,144.237 		"/>
		<polygon fill="#9F69A3" points="245.983,146.456 241.77,145.198 239.598,144.445 237.172,143.69 233.595,142.268 232.83,141.429 
			232.83,139.503 232.83,137.576 232.83,136.401 233.595,135.396 234.999,133.889 236.022,132.968 237.811,131.544 239.407,130.538 
			241.387,130.538 241.705,130.538 243.941,130.538 245.983,130.538 247.772,131.124 249.177,132.046 249.814,133.638 
			250.583,135.229 250.583,137.576 250.07,139.503 250.07,140.844 249.814,142.937 248.282,145.032 		"/>
		<polygon fill="#E5CFE3" points="246.079,146.456 246.079,147.882 244.163,150.979 242.502,152.405 241.035,153.996 
			238.288,155.086 235.86,155.673 233.69,155.673 230.625,154.583 227.814,152.657 225.898,150.646 225.261,149.054 
			225.261,146.958 227.048,145.198 228.582,144.026 230.114,142.854 232.925,142.268 233.562,142.268 237.139,142.268 
			245.186,144.026 		"/>
	</g>
	<polygon fill="#706E6F" stroke="#231815" stroke-width="0.25" stroke-miterlimit="10" points="395.988,155.836 395.988,153.599 
		397.447,154.187 400.386,155.107 402.683,155.836 404.853,157.788 406.515,159.927 407.794,162.54 408.941,165.077 
		408.941,167.172 410.345,169.35 412.644,171.863 414.943,173.286 416.859,174.376 417.88,174.794 488.253,174.794 488.253,176.22 
		417.498,176.472 415.582,175.8 413.283,174.794 410.345,172.702 408.812,170.772 407.917,169.099 407.412,167.087 406.386,164.489 
		405.619,162.54 404.345,160.594 402.937,158.878 400.896,157.118 397.447,155.61 	"/>
	<polygon fill="#DCBAD5" points="363.658,140.931 363.437,141.009 361.802,141.6 359.246,141.6 357.205,142.187 355.414,143.192 
		352.478,143.862 350.179,145.288 348.39,146.711 347.242,148.219 347.242,149.979 347.242,151.151 348.9,151.151 350.433,152.241 
		354.777,154.503 362.058,148.386 363.658,144.7 	"/>
	<path fill="none" d="M324.636,155.97"/>
	<path fill="#6A4491" d="M366.742,142.187l5.682,2.011v1.342v2.345v3.854l-0.631,2.341l0.074,2.603l-1.727,0.738l-1.873,1.215
		c0,0,0,0.055,0,0.476c0,0.418,0,1.087,0,1.257c0,0.167-1.525,1.339-1.525,1.339l0.557,1.677c0,0-1.73,0.74-2.318,1.21
		c-0.596,0.468-2.188,1.64-2.188,1.64l-4.164,1.773l1.465,1.912l2.699,0.836l3.395,1.175l2.074,0.585h2.494h3.186l3.186-0.585
		l2.771-0.251l3.049-0.839l3.186-0.837l3.188-1.677l3.873-1.841l1.943-2.599l1.244-2.263v-3.183v-3.938v-1.088l-0.834-0.672
		l-1.381-1.59l-1.66-1.678l-1.941-1.76l-2.904-1.172l-2.773-0.838l-2.49-0.419l-3.047-1.089l-3.045-1.006l-3.324-1.006h-1.939
		h-4.295v0.002H366.742z"/>
	<path fill="none" d="M366.654,140.931"/>
	<path fill="#706E6F" stroke="#231815" stroke-width="0.25" stroke-miterlimit="10" d="M380.195,143.692l1.529,1.593l2.301,0.421
		l3.961,0.667l1.273,1.343l0.641,1.506v1.678v1.926v2.598v1.93l-0.895,1.759l-1.02,1.591l-1.533,2.262l-1.406,1.508l-1.275,1.76
		l-1.662,1.088l-1.914,1.341l-2.977,1.675l-2.771,0.924l-2.939,0.584c0,0-2.684,0-2.807,0c-0.129,0-2.174-0.586-2.047-0.251
		c0.129,0.336-2.031-0.474-2.031-0.474l-2.191-0.775l1.229,1.08l1.338,1.508c0,0,2.041,0.421,2.424,0.504
		c0.385,0.084,2.941,0,2.941,0l3.574,0.037l4.902-1.738l2.762-1.568l2.426-1.841l2.172-1.759l1.533-1.76l3.189-4.609l1.662-3.516
		v-2.85v-2.68v-1.426v-0.588l-1.148-2.093l-1.66-1.76l-2.555-1.174l-2.174-0.419h-2.424h-2.428V143.692z"/>
	<path fill="#706E6F" stroke="#231815" stroke-width="0.25" stroke-miterlimit="10" d="M364.226,143.192h2.428v-1.006l1.021-1.256
		l1.025-0.588h2.936h2.299l2.297,1.006l2.178,0.838l3.191,5.529v1.592v1.844l-0.768,2.68l-1.531,3.563l-2.082,2.555l-1.877,2.18
		l-2.814,2.178l-3.828,2.346l-3.193,1.34l-4.342,1.928l-4.215,1.006l-1.5,0.67l-2.715,0.25l-2.408,0.672l-2.445,0.418h-1.914h-1.791
		h-2.557h-2.807l-3.066-0.418h-2.428l-1.531-0.42h-1.531l-1.918-0.502l-2.807-0.586l-2.174-0.838l-1.658-0.586l-2.428-0.754
		l-2.684-1.092l-2.938-1.006l-2.557-1.592l-2.043-0.67l-1.787-1.256l-1.791-0.504l-2.297-1.088l-2.301-1.258l-2.935-0.754
		l-1.79-0.082l-1.406-0.419h-29.373l-0.509-2.431h29.245l3.064,0.672l3.45,1.003l3.576,0.756l3.318,1.927l2.813,1.172l2.299,1.174
		c0,0,2.684,1.172,3.32,1.172c0.639,0,1.66,1.09,2.045,1.342c0.383,0.252,2.682,1.006,2.682,1.006l2.045,0.836l2.553,1.006
		l4.344,1.005l2.682,0.251l2.424,0.576h2.43h2.938l2.426-0.073c0,0,2.555,0.167,3.191,0c0.637-0.169,2.174,0,2.174,0l1.787-0.335
		l2.811-0.334l2.299-0.421l1.916-0.418l1.787-0.669l1.332-0.322l2.086-0.658l1.754-0.695l2.236-0.672l1.916-1.005l1.533-0.755
		l0.766-0.92l1.404-0.672l1.406-1.004l0.893-0.671l0.512-0.923l1.02-0.921l0.896-0.587l0.256-1.17l0.729-0.672l0.809-1.76
		l0.508-0.923v-1.088v-1.425v-1.256v-2.514v-1.007l-0.637-1.508l-0.68-0.837l-1.111-1.172l-1.229-0.402l-1.838-0.604l-2.045-0.336
		h-2.295l-1.408,0.336"/>
	<polygon fill="#BD9BC3" points="354.777,154.085 352.992,151.822 349.796,150.229 348.775,150.229 346.728,151.571 345.71,152.155 
		345.199,152.659 345.199,154.503 345.199,156.011 345.199,158.105 346.476,160.283 347.242,161.204 347.88,161.707 
		350.816,159.865 354.011,156.681 355.449,155.97 	"/>
	<polygon fill="#9F69A3" points="368.603,158.188 364.39,156.932 362.216,156.178 359.791,155.423 356.212,154 355.449,153.161 
		355.449,151.235 355.449,149.309 355.449,148.135 356.212,147.13 357.619,145.621 358.642,144.7 360.427,143.276 362.027,142.271 
		364.007,142.271 364.324,142.271 366.558,142.271 368.603,142.271 370.392,142.856 371.794,143.779 372.435,145.37 
		373.203,146.962 373.203,149.309 372.687,151.235 372.687,152.576 372.435,154.669 370.902,156.765 	"/>
	<polygon fill="#E5CFE3" points="368.701,158.188 368.701,159.614 366.783,162.712 365.121,164.138 363.658,165.729 
		360.908,166.818 358.478,167.405 356.31,167.405 353.246,166.315 350.433,164.39 348.517,162.378 347.88,160.786 347.88,158.69 
		349.667,156.932 351.201,155.759 352.732,154.587 355.542,154 356.181,154 359.759,154 367.804,155.759 	"/>
</g>
<ellipse transform="matrix(0.348 -0.9375 0.9375 0.348 53.2788 391.2868)" fill="#F39800" cx="307.935" cy="157.341" rx="15.79" ry="19.867"/>
<g>
	<g>
		
			<line fill="none" stroke="#706E6F" stroke-width="2" stroke-miterlimit="10" x1="438.638" y1="150.95" x2="452.921" y2="151.152"/>
		<g>
			<polygon fill="#706E6F" points="467.042,151.352 447.031,159.201 451.867,151.137 447.261,142.942 			"/>
		</g>
	</g>
</g>
<text transform="matrix(1 0 0 1 97.3882 150.23)" font-family="'ArialMT'" font-size="17">DNA</text>
<text transform="matrix(1.013 0 0 1 296.6274 162.7397)" fill="#FFFFFF" font-family="'ArialMT'" font-size="18">TF</text>
<text transform="matrix(1 0 0 1 414.6382 194.2104)" fill="#FFFFFF" font-family="'ArialMT'" font-size="17">T Marker</text>
<ellipse fill="#EA5514" cx="365.816" cy="68.439" rx="36.469" ry="15"/>
<text transform="matrix(1 0 0 1 335.2847 75.4399)" fill="#FFFFFF" font-family="'ArialMT'" font-size="17">I Marker</text>
<g>
	<g>
		<path fill="none" stroke="#000000" stroke-miterlimit="10" stroke-dasharray="5,5" d="M307.201,128.93
			c2.443-26.099,18.262-46.207,37.441-46.207"/>
		<g>
			<polygon points="306.873,135.984 311.509,126.288 307.312,128.409 303.392,125.816 			"/>
		</g>
	</g>
</g>
</svg>
