<?xml version="1.0" encoding="utf-8"?>
<!-- Generator: Adobe Illustrator 16.0.0, SVG Export Plug-In . SVG Version: 6.00 Build 0)  -->
<!DOCTYPE svg PUBLIC "-//W3C//DTD SVG 1.1//EN" "http://www.w3.org/Graphics/SVG/1.1/DTD/svg11.dtd">
<svg version="1.1" id="图层_1" xmlns="http://www.w3.org/2000/svg" xmlns:xlink="http://www.w3.org/1999/xlink" x="0px" y="0px"
	 width="495px" height="373px" viewBox="9.14 18.445 495 373" enable-background="new 9.14 18.445 495 373" xml:space="preserve">
<rect x="362.867" y="86.401" fill="#13AE67" width="92.484" height="19.055"/>
<ellipse fill="none" stroke="#040000" stroke-miterlimit="10" stroke-dasharray="10.1166,10.1166" cx="272.773" cy="294.598" rx="39.77" ry="30.262"/>
<g>
	<g>
		<g>
			<g>
				<defs>
					<rect id="SVGID_1_" x="148.424" y="280.102" width="23.448" height="21.418"/>
				</defs>
				<clipPath id="SVGID_2_">
					<use xlink:href="#SVGID_1_"  overflow="visible"/>
				</clipPath>
				<path clip-path="url(#SVGID_2_)" fill="#121C3B" d="M149.466,294.934c-1.198-2.719-1.398-4.998-0.334-8.146
					c0.802-2.346,1.865-3.516,4.063-4.627c0.466-0.244,2.463-1.17,2.796-1.295c2.397-1.109,4.193-0.924,7.056,0.125
					c1.331,0.49,1.466,0.557,1.93,0.676c2.196,0.557,4.128,2.596,5.193,4.629c0.131,0.186,0.2,0.373,0.399,0.678
					c0.065,0.123,0.065,0.123,0.134,0.186c0.731,1.359,1.065,2.154,1.132,3.457c0.198,2.467-3.329,8.326-6.394,9.871
					c-3.126,1.541-9.385,1.297-11.382-0.309C152.062,298.756,150.267,296.784,149.466,294.934L149.466,294.934z M150.731,294.5
					c0.729,1.602,2.328,3.453,4.192,4.875c1.533,1.23,7.258,1.479,9.919,0.127c2.598-1.299,5.859-6.668,5.659-8.703
					c-0.066-1.113-0.333-1.789-0.998-3.023c-0.066-0.125-0.066-0.125-0.133-0.188c-0.2-0.307-0.268-0.492-0.401-0.74
					c-0.867-1.791-2.597-3.576-4.325-4.012c-0.535-0.123-0.733-0.184-2.131-0.74c-2.531-0.988-3.995-1.109-5.926-0.182
					c-0.401,0.182-2.33,1.047-2.795,1.297c-1.933,0.982-2.73,1.844-3.463,3.883C149.466,290.059,149.667,292.03,150.731,294.5
					L150.731,294.5z"/>
			</g>
		</g>
	</g>
	<path fill="#9F69A3" d="M160.45,295.487c2.576,0,4.662-1.934,4.662-4.316c0-2.389-2.086-4.318-4.662-4.318
		c-2.574,0-4.66,1.932-4.66,4.318c0,1.141,0.493,2.24,1.366,3.053C158.029,295.032,159.214,295.487,160.45,295.487L160.45,295.487z"
		/>
</g>
<g>
	<g>
		<g>
			<g>
				<defs>
					<rect id="SVGID_3_" x="140.428" y="306.053" width="23.447" height="21.418"/>
				</defs>
				<clipPath id="SVGID_4_">
					<use xlink:href="#SVGID_3_"  overflow="visible"/>
				</clipPath>
				<path clip-path="url(#SVGID_4_)" fill="#121C3B" d="M141.47,320.885c-1.199-2.717-1.401-4.998-0.333-8.146
					c0.799-2.344,1.864-3.518,4.062-4.623c0.465-0.252,2.462-1.176,2.797-1.299c2.396-1.111,4.193-0.926,7.057,0.123
					c1.329,0.492,1.464,0.555,1.93,0.682c2.196,0.557,4.126,2.592,5.194,4.625c0.13,0.184,0.199,0.373,0.398,0.678
					c0.067,0.127,0.067,0.127,0.134,0.186c0.732,1.359,1.065,2.154,1.132,3.457c0.199,2.467-3.328,8.324-6.394,9.869
					c-3.126,1.543-9.383,1.297-11.382-0.307C144.064,324.708,142.268,322.737,141.47,320.885L141.47,320.885z M142.734,320.452
					c0.731,1.602,2.332,3.453,4.194,4.875c1.534,1.23,7.258,1.477,9.921,0.125c2.598-1.301,5.858-6.664,5.659-8.701
					c-0.067-1.113-0.332-1.787-1-3.023c-0.064-0.127-0.064-0.127-0.131-0.184c-0.199-0.309-0.267-0.494-0.399-0.744
					c-0.867-1.787-2.599-3.578-4.327-4.01c-0.531-0.125-0.73-0.184-2.131-0.74c-2.529-0.988-3.995-1.109-5.923-0.186
					c-0.402,0.186-2.33,1.047-2.797,1.301c-1.932,0.984-2.73,1.848-3.461,3.885C141.47,316.008,141.669,317.985,142.734,320.452
					L142.734,320.452z"/>
			</g>
		</g>
	</g>
	<path fill="#9F69A3" d="M152.453,321.442c2.574,0,4.66-1.938,4.66-4.322c0-2.379-2.084-4.318-4.66-4.318
		c-2.573,0-4.66,1.939-4.66,4.318c0,1.145,0.49,2.244,1.365,3.057C150.033,320.985,151.218,321.442,152.453,321.442L152.453,321.442
		z"/>
</g>
<g>
	<g>
		<g>
			<g>
				<defs>
					<rect id="SVGID_5_" x="189.182" y="312.686" width="23.449" height="21.418"/>
				</defs>
				<clipPath id="SVGID_6_">
					<use xlink:href="#SVGID_5_"  overflow="visible"/>
				</clipPath>
				<path clip-path="url(#SVGID_6_)" fill="#121C3B" d="M190.224,327.52c-1.199-2.721-1.398-5.004-0.334-8.146
					c0.8-2.346,1.865-3.514,4.064-4.627c0.464-0.25,2.461-1.174,2.795-1.297c2.396-1.111,4.195-0.926,7.055,0.123
					c1.332,0.496,1.466,0.559,1.933,0.682c2.196,0.557,4.128,2.59,5.192,4.627c0.131,0.184,0.2,0.373,0.398,0.678
					c0.066,0.123,0.066,0.123,0.136,0.182c0.729,1.361,1.065,2.158,1.132,3.457c0.197,2.469-3.328,8.332-6.395,9.871
					c-3.125,1.545-9.385,1.297-11.381-0.307C192.821,331.342,191.023,329.368,190.224,327.52L190.224,327.52z M191.489,327.083
					c0.73,1.607,2.33,3.455,4.196,4.875c1.53,1.236,7.253,1.482,9.917,0.129c2.597-1.297,5.859-6.664,5.657-8.699
					c-0.065-1.115-0.331-1.791-0.999-3.025c-0.063-0.125-0.063-0.125-0.131-0.186c-0.2-0.311-0.268-0.494-0.401-0.742
					c-0.864-1.789-2.596-3.574-4.327-4.01c-0.532-0.125-0.731-0.184-2.129-0.74c-2.531-0.99-3.996-1.111-5.925-0.184
					c-0.401,0.184-2.331,1.047-2.796,1.297c-1.933,0.984-2.729,1.848-3.462,3.885C190.224,322.647,190.425,324.616,191.489,327.083
					L191.489,327.083z"/>
			</g>
		</g>
	</g>
	<path fill="#9F69A3" d="M201.207,328.075c2.574,0,4.66-1.934,4.66-4.32c0-2.385-2.086-4.32-4.66-4.32
		c-2.572,0-4.661,1.938-4.661,4.32c0,1.143,0.493,2.244,1.366,3.055C198.789,327.616,199.973,328.075,201.207,328.075
		L201.207,328.075z"/>
</g>
<g>
	<g>
		<g>
			<g>
				<defs>
					<rect id="SVGID_7_" x="171.871" y="317.364" width="23.446" height="21.416"/>
				</defs>
				<clipPath id="SVGID_8_">
					<use xlink:href="#SVGID_7_"  overflow="visible"/>
				</clipPath>
				<path clip-path="url(#SVGID_8_)" fill="#121C3B" d="M172.912,332.198c-1.199-2.719-1.4-4.998-0.333-8.145
					c0.8-2.348,1.865-3.52,4.062-4.625c0.466-0.246,2.463-1.174,2.797-1.297c2.396-1.109,4.196-0.926,7.057,0.123
					c1.33,0.492,1.464,0.557,1.93,0.68c2.197,0.557,4.127,2.592,5.195,4.627c0.13,0.184,0.197,0.373,0.398,0.678
					c0.067,0.123,0.067,0.123,0.136,0.182c0.729,1.361,1.063,2.158,1.131,3.455c0.199,2.471-3.329,8.33-6.393,9.871
					c-3.126,1.545-9.386,1.301-11.383-0.309C175.508,336.022,173.71,334.045,172.912,332.198L172.912,332.198z M174.176,331.764
					c0.731,1.604,2.332,3.453,4.196,4.875c1.532,1.232,7.256,1.479,9.919,0.127c2.597-1.301,5.859-6.664,5.656-8.705
					c-0.066-1.109-0.329-1.787-0.998-3.023c-0.063-0.123-0.063-0.123-0.13-0.184c-0.202-0.309-0.269-0.492-0.401-0.74
					c-0.866-1.789-2.598-3.582-4.329-4.012c-0.531-0.125-0.732-0.182-2.128-0.738c-2.531-0.988-3.997-1.111-5.924-0.184
					c-0.403,0.184-2.333,1.045-2.798,1.297c-1.932,0.984-2.73,1.848-3.462,3.885C172.912,327.321,173.113,329.295,174.176,331.764
					L174.176,331.764z"/>
			</g>
		</g>
	</g>
	<path fill="#9F69A3" d="M183.896,332.75c2.572,0,4.66-1.934,4.66-4.316c0-2.382-2.087-4.32-4.66-4.32
		c-2.574,0-4.662,1.938-4.662,4.32c0,1.143,0.491,2.244,1.366,3.051C181.478,332.299,182.66,332.75,183.896,332.75L183.896,332.75z"
		/>
</g>
<g>
	<g>
		<g>
			<g>
				<defs>
					<rect id="SVGID_9_" x="136.059" y="329.424" width="23.448" height="21.416"/>
				</defs>
				<clipPath id="SVGID_10_">
					<use xlink:href="#SVGID_9_"  overflow="visible"/>
				</clipPath>
				<path clip-path="url(#SVGID_10_)" fill="#121C3B" d="M137.101,344.254c-1.198-2.721-1.399-4.996-0.333-8.146
					c0.799-2.344,1.865-3.518,4.063-4.625c0.464-0.248,2.461-1.174,2.795-1.299c2.396-1.109,4.194-0.922,7.056,0.125
					c1.33,0.496,1.465,0.555,1.929,0.68c2.198,0.557,4.13,2.59,5.193,4.627c0.132,0.189,0.201,0.373,0.399,0.678
					c0.066,0.125,0.066,0.125,0.134,0.184c0.731,1.365,1.065,2.158,1.132,3.455c0.199,2.473-3.329,8.33-6.393,9.873
					c-3.126,1.549-9.386,1.301-11.383-0.305C139.698,348.079,137.9,346.102,137.101,344.254L137.101,344.254z M138.366,343.821
					c0.731,1.604,2.331,3.455,4.194,4.877c1.534,1.232,7.256,1.479,9.919,0.125c2.597-1.297,5.86-6.664,5.658-8.699
					c-0.064-1.115-0.333-1.787-0.998-3.027c-0.064-0.123-0.064-0.123-0.131-0.184c-0.199-0.307-0.267-0.49-0.399-0.74
					c-0.865-1.791-2.597-3.576-4.327-4.008c-0.533-0.127-0.732-0.186-2.131-0.742c-2.532-0.99-3.995-1.109-5.925-0.186
					c-0.401,0.186-2.331,1.049-2.797,1.299c-1.933,0.984-2.729,1.846-3.462,3.887C137.101,339.377,137.301,341.356,138.366,343.821
					L138.366,343.821z"/>
			</g>
		</g>
	</g>
	<path fill="#9F69A3" d="M148.085,344.811c2.574,0,4.66-1.934,4.66-4.316c0-2.389-2.086-4.322-4.66-4.322
		c-2.573,0-4.662,1.936-4.662,4.322c0,1.141,0.491,2.24,1.366,3.051S146.85,344.811,148.085,344.811L148.085,344.811z"/>
</g>
<g>
	<g>
		<g>
			<g>
				<defs>
					<rect id="SVGID_11_" x="112.612" y="291.528" width="23.447" height="21.416"/>
				</defs>
				<clipPath id="SVGID_12_">
					<use xlink:href="#SVGID_11_"  overflow="visible"/>
				</clipPath>
				<path clip-path="url(#SVGID_12_)" fill="#121C3B" d="M113.654,306.362c-1.196-2.723-1.398-5.002-0.332-8.152
					c0.799-2.342,1.863-3.51,4.061-4.623c0.464-0.248,2.46-1.174,2.796-1.295c2.396-1.111,4.194-0.924,7.056,0.123
					c1.33,0.492,1.467,0.555,1.93,0.682c2.197,0.555,4.126,2.588,5.194,4.623c0.131,0.184,0.2,0.373,0.399,0.678
					c0.066,0.127,0.066,0.127,0.136,0.186c0.727,1.363,1.062,2.16,1.128,3.455c0.202,2.469-3.327,8.33-6.392,9.871
					c-3.125,1.547-9.385,1.299-11.383-0.307C116.25,310.182,114.453,308.204,113.654,306.362L113.654,306.362z M114.918,305.922
					c0.731,1.607,2.331,3.455,4.195,4.877c1.532,1.232,7.256,1.482,9.917,0.125c2.598-1.295,5.861-6.662,5.661-8.699
					c-0.066-1.113-0.333-1.789-0.999-3.025c-0.066-0.121-0.066-0.121-0.133-0.182c-0.201-0.311-0.269-0.494-0.4-0.744
					c-0.866-1.789-2.598-3.574-4.327-4.012c-0.532-0.123-0.73-0.182-2.129-0.736c-2.531-0.99-3.996-1.111-5.925-0.186
					c-0.401,0.186-2.331,1.049-2.798,1.295c-1.93,0.986-2.73,1.85-3.463,3.889C113.654,301.481,113.854,303.458,114.918,305.922
					L114.918,305.922z"/>
			</g>
		</g>
	</g>
	<path fill="#9F69A3" d="M124.638,306.911c2.576,0,4.662-1.936,4.662-4.316c0-2.385-2.086-4.32-4.662-4.32
		c-2.573,0-4.66,1.938-4.66,4.32c0,1.146,0.491,2.244,1.364,3.051C122.219,306.459,123.403,306.911,124.638,306.911L124.638,306.911
		z"/>
</g>
<g>
	<g>
		<g>
			<g>
				<defs>
					<rect id="SVGID_13_" x="166.443" y="291.528" width="23.446" height="21.416"/>
				</defs>
				<clipPath id="SVGID_14_">
					<use xlink:href="#SVGID_13_"  overflow="visible"/>
				</clipPath>
				<path clip-path="url(#SVGID_14_)" fill="#121C3B" d="M167.483,306.362c-1.199-2.723-1.4-5.002-0.333-8.152
					c0.799-2.342,1.864-3.51,4.062-4.623c0.465-0.248,2.462-1.174,2.797-1.295c2.395-1.109,4.193-0.924,7.055,0.123
					c1.33,0.492,1.463,0.555,1.93,0.682c2.196,0.555,4.128,2.588,5.193,4.623c0.13,0.184,0.198,0.373,0.399,0.678
					c0.065,0.127,0.065,0.127,0.132,0.186c0.731,1.363,1.066,2.16,1.132,3.455c0.199,2.469-3.329,8.33-6.394,9.871
					c-3.126,1.547-9.385,1.299-11.383-0.307C170.079,310.182,168.282,308.204,167.483,306.362L167.483,306.362z M168.748,305.922
					c0.731,1.607,2.331,3.455,4.194,4.877c1.533,1.232,7.257,1.482,9.921,0.125c2.596-1.295,5.857-6.662,5.657-8.699
					c-0.069-1.113-0.334-1.787-1-3.025c-0.064-0.121-0.064-0.121-0.13-0.182c-0.2-0.311-0.267-0.494-0.401-0.744
					c-0.866-1.789-2.597-3.574-4.327-4.012c-0.531-0.123-0.731-0.182-2.13-0.736c-2.532-0.99-3.996-1.111-5.924-0.186
					c-0.401,0.186-2.33,1.049-2.797,1.295c-1.93,0.986-2.73,1.85-3.461,3.889C167.483,301.481,167.683,303.458,168.748,305.922
					L168.748,305.922z"/>
			</g>
		</g>
	</g>
	<path fill="#9F69A3" d="M178.469,306.911c2.572,0,4.659-1.936,4.659-4.314c0-2.387-2.086-4.322-4.659-4.322
		c-2.576,0-4.662,1.938-4.662,4.322c0,1.143,0.493,2.242,1.366,3.053C176.047,306.459,177.232,306.911,178.469,306.911
		L178.469,306.911z"/>
</g>
<g>
	<g>
		<g>
			<g>
				<defs>
					<rect id="SVGID_15_" x="147.885" y="349.208" width="23.447" height="21.416"/>
				</defs>
				<clipPath id="SVGID_16_">
					<use xlink:href="#SVGID_15_"  overflow="visible"/>
				</clipPath>
				<path clip-path="url(#SVGID_16_)" fill="#121C3B" d="M148.928,364.04c-1.199-2.717-1.399-5.002-0.333-8.146
					c0.801-2.344,1.864-3.516,4.062-4.625c0.465-0.246,2.463-1.174,2.794-1.299c2.399-1.109,4.196-0.922,7.058,0.125
					c1.331,0.494,1.464,0.557,1.931,0.678c2.198,0.559,4.127,2.596,5.194,4.629c0.131,0.184,0.199,0.373,0.399,0.678
					c0.064,0.123,0.064,0.123,0.134,0.184c0.73,1.359,1.063,2.158,1.13,3.457c0.199,2.467-3.329,8.332-6.394,9.871
					c-3.126,1.543-9.384,1.301-11.383-0.311C151.523,367.862,149.726,365.887,148.928,364.04L148.928,364.04z M150.194,363.606
					c0.729,1.602,2.33,3.451,4.194,4.875c1.532,1.23,7.256,1.477,9.919,0.127c2.597-1.303,5.859-6.67,5.659-8.703
					c-0.067-1.113-0.332-1.791-1-3.023c-0.065-0.125-0.065-0.125-0.13-0.186c-0.199-0.307-0.269-0.494-0.401-0.738
					c-0.868-1.793-2.599-3.58-4.328-4.012c-0.531-0.129-0.73-0.186-2.13-0.742c-2.53-0.99-3.996-1.109-5.923-0.182
					c-0.402,0.182-2.33,1.045-2.796,1.297c-1.934,0.982-2.732,1.846-3.463,3.883C148.928,359.163,149.127,361.135,150.194,363.606
					L150.194,363.606z"/>
			</g>
		</g>
	</g>
	<path fill="#9F69A3" d="M159.911,364.59c2.574,0,4.661-1.934,4.661-4.316c0-2.385-2.085-4.316-4.661-4.316
		c-2.573,0-4.66,1.932-4.66,4.316c0,1.143,0.491,2.24,1.366,3.055C157.491,364.139,158.676,364.59,159.911,364.59L159.911,364.59z"
		/>
</g>
<g>
	<g>
		<g>
			<g>
				<defs>
					<rect id="SVGID_17_" x="172.173" y="338.499" width="23.446" height="21.416"/>
				</defs>
				<clipPath id="SVGID_18_">
					<use xlink:href="#SVGID_17_"  overflow="visible"/>
				</clipPath>
				<path clip-path="url(#SVGID_18_)" fill="#121C3B" d="M173.214,353.327c-1.199-2.719-1.399-4.998-0.333-8.146
					c0.8-2.342,1.865-3.514,4.062-4.625c0.465-0.248,2.463-1.174,2.797-1.297c2.396-1.109,4.194-0.922,7.056,0.123
					c1.33,0.492,1.464,0.557,1.929,0.682c2.198,0.557,4.13,2.592,5.195,4.623c0.13,0.188,0.197,0.377,0.399,0.682
					c0.067,0.125,0.067,0.125,0.132,0.184c0.733,1.363,1.067,2.16,1.135,3.455c0.197,2.471-3.33,8.328-6.395,9.871
					c-3.125,1.547-9.384,1.297-11.383-0.307C175.811,357.151,174.013,355.174,173.214,353.327L173.214,353.327z M174.479,352.891
					c0.73,1.605,2.33,3.455,4.194,4.877c1.533,1.232,7.256,1.48,9.919,0.127c2.597-1.297,5.858-6.668,5.658-8.703
					c-0.066-1.113-0.332-1.785-1-3.023c-0.062-0.125-0.062-0.125-0.129-0.184c-0.201-0.309-0.267-0.494-0.402-0.744
					c-0.865-1.787-2.596-3.576-4.328-4.012c-0.531-0.123-0.73-0.182-2.127-0.738c-2.533-0.986-3.998-1.109-5.925-0.184
					c-0.401,0.184-2.331,1.049-2.796,1.299c-1.933,0.986-2.731,1.848-3.462,3.885C173.214,348.45,173.414,350.426,174.479,352.891
					L174.479,352.891z"/>
			</g>
		</g>
	</g>
	<path fill="#9F69A3" d="M184.199,353.881c2.573,0,4.659-1.936,4.659-4.316c0-2.387-2.086-4.322-4.659-4.322
		c-2.576,0-4.662,1.939-4.662,4.322c0,1.143,0.492,2.24,1.366,3.053C181.778,353.426,182.962,353.881,184.199,353.881
		L184.199,353.881z"/>
</g>
<line fill="none" stroke="#706F6F" stroke-width="2" stroke-miterlimit="10" stroke-dasharray="6" x1="186.612" y1="294.926" x2="238.65" y2="277.233"/>
<line fill="none" stroke="#706F6F" stroke-width="2" stroke-miterlimit="10" stroke-dasharray="6" x1="212.221" y1="318.608" x2="266.112" y2="327.864"/>
<g>
	<g>
		<g>
			<g>
				<defs>
					<rect id="SVGID_19_" x="343.978" y="240.495" width="25.584" height="22.242"/>
				</defs>
				<clipPath id="SVGID_20_">
					<use xlink:href="#SVGID_19_"  overflow="visible"/>
				</clipPath>
				<path clip-path="url(#SVGID_20_)" fill="#121C3B" d="M345.113,255.901c-1.309-2.826-1.527-5.193-0.361-8.463
					c0.873-2.434,2.033-3.65,4.432-4.805c0.506-0.258,2.688-1.219,3.051-1.348c2.615-1.15,4.578-0.957,7.699,0.129
					c1.451,0.516,1.6,0.576,2.107,0.707c2.395,0.578,4.502,2.689,5.666,4.803c0.143,0.195,0.217,0.389,0.434,0.703
					c0.072,0.129,0.072,0.129,0.15,0.193c0.795,1.416,1.16,2.242,1.234,3.59c0.219,2.564-3.635,8.65-6.979,10.248
					c-3.414,1.609-10.242,1.352-12.42-0.314C347.945,259.872,345.986,257.819,345.113,255.901L345.113,255.901z M346.492,255.446
					c0.797,1.668,2.543,3.588,4.58,5.064c1.67,1.279,7.916,1.539,10.82,0.131c2.832-1.348,6.396-6.922,6.174-9.035
					c-0.07-1.158-0.359-1.859-1.09-3.145c-0.068-0.127-0.068-0.127-0.143-0.191c-0.219-0.32-0.293-0.514-0.439-0.77
					c-0.941-1.859-2.832-3.715-4.721-4.164c-0.58-0.129-0.801-0.191-2.324-0.77c-2.76-1.025-4.359-1.154-6.465-0.191
					c-0.436,0.191-2.539,1.092-3.053,1.348c-2.105,1.021-2.979,1.922-3.777,4.035C345.113,250.833,345.333,252.885,346.492,255.446
					L346.492,255.446z"/>
			</g>
		</g>
	</g>
	<path fill="none" stroke="#706F6F" stroke-width="2" stroke-miterlimit="10" stroke-dasharray="6" d="M357.099,256.475
		c2.809,0,5.088-2.006,5.088-4.482c0-2.48-2.279-4.49-5.088-4.49c-2.807,0-5.086,2.01-5.086,4.49c0,1.184,0.537,2.326,1.49,3.17
		C354.46,256.002,355.75,256.475,357.099,256.475L357.099,256.475z"/>
</g>
<g>
	<g>
		<g>
			<g>
				<defs>
					<rect id="SVGID_21_" x="313.636" y="256.655" width="25.584" height="22.24"/>
				</defs>
				<clipPath id="SVGID_22_">
					<use xlink:href="#SVGID_21_"  overflow="visible"/>
				</clipPath>
				<path clip-path="url(#SVGID_22_)" fill="#121C3B" d="M314.771,272.059c-1.307-2.826-1.525-5.193-0.363-8.463
					c0.873-2.434,2.035-3.65,4.432-4.805c0.508-0.256,2.688-1.219,3.053-1.344c2.613-1.154,4.576-0.961,7.699,0.125
					c1.451,0.514,1.6,0.578,2.105,0.709c2.396,0.576,4.506,2.688,5.666,4.801c0.145,0.191,0.215,0.389,0.436,0.705
					c0.074,0.129,0.074,0.129,0.146,0.191c0.801,1.416,1.164,2.244,1.236,3.59c0.217,2.563-3.633,8.65-6.977,10.248
					c-3.41,1.609-10.238,1.352-12.42-0.314C317.603,276.026,315.644,273.975,314.771,272.059L314.771,272.059z M316.152,271.604
					c0.797,1.668,2.543,3.588,4.576,5.064c1.674,1.279,7.92,1.539,10.824,0.129c2.834-1.346,6.395-6.92,6.174-9.037
					c-0.072-1.154-0.361-1.854-1.092-3.139c-0.066-0.129-0.066-0.129-0.143-0.193c-0.217-0.32-0.291-0.512-0.438-0.77
					c-0.943-1.859-2.832-3.715-4.723-4.166c-0.578-0.127-0.799-0.188-2.322-0.768c-2.762-1.025-4.359-1.154-6.465-0.189
					c-0.439,0.189-2.543,1.09-3.053,1.346c-2.105,1.023-2.98,1.922-3.777,4.035C314.771,266.991,314.99,269.043,316.152,271.604
					L316.152,271.604z"/>
			</g>
		</g>
	</g>
	<path fill="#62B2B3" d="M326.757,272.633c2.809,0,5.084-2.012,5.084-4.484c0-2.479-2.275-4.488-5.084-4.488
		s-5.088,2.01-5.088,4.488c0,1.186,0.539,2.328,1.49,3.172C324.115,272.161,325.408,272.633,326.757,272.633L326.757,272.633z"/>
</g>
<g>
	<g>
		<g>
			<g>
				<defs>
					<rect id="SVGID_23_" x="350.373" y="261.116" width="25.584" height="22.242"/>
				</defs>
				<clipPath id="SVGID_24_">
					<use xlink:href="#SVGID_23_"  overflow="visible"/>
				</clipPath>
				<path clip-path="url(#SVGID_24_)" fill="#121C3B" d="M351.511,276.518c-1.309-2.822-1.527-5.193-0.365-8.459
					c0.875-2.436,2.033-3.652,4.434-4.807c0.506-0.254,2.688-1.217,3.051-1.348c2.617-1.15,4.58-0.957,7.699,0.129
					c1.453,0.512,1.6,0.58,2.105,0.705c2.398,0.576,4.504,2.693,5.666,4.807c0.148,0.191,0.219,0.389,0.439,0.703
					c0.07,0.127,0.07,0.127,0.145,0.191c0.799,1.412,1.162,2.242,1.232,3.59c0.221,2.563-3.631,8.65-6.975,10.25
					c-3.412,1.604-10.238,1.35-12.416-0.32C354.343,280.489,352.38,278.44,351.511,276.518L351.511,276.518z M352.89,276.069
					c0.797,1.666,2.543,3.588,4.578,5.064c1.67,1.277,7.918,1.535,10.824,0.131c2.832-1.352,6.393-6.928,6.174-9.041
					c-0.074-1.156-0.365-1.857-1.09-3.139c-0.074-0.129-0.074-0.129-0.145-0.195c-0.219-0.318-0.293-0.512-0.439-0.766
					c-0.947-1.861-2.836-3.717-4.721-4.166c-0.582-0.131-0.799-0.193-2.324-0.77c-2.764-1.027-4.361-1.152-6.465-0.189
					c-0.439,0.189-2.545,1.086-3.053,1.348c-2.107,1.02-2.979,1.916-3.777,4.033C351.511,271.454,351.728,273.504,352.89,276.069
					L352.89,276.069z"/>
			</g>
		</g>
	</g>
	<path fill="#9F69A3" d="M363.496,277.092c2.809,0,5.084-2.006,5.084-4.482c0-2.479-2.275-4.486-5.084-4.486
		c-2.811,0-5.086,2.008-5.086,4.486c0,1.186,0.537,2.326,1.49,3.17C360.853,276.622,362.144,277.092,363.496,277.092
		L363.496,277.092z"/>
</g>
<g>
	<g>
		<g>
			<g>
				<defs>
					<rect id="SVGID_25_" x="383.457" y="258.846" width="25.584" height="22.242"/>
				</defs>
				<clipPath id="SVGID_26_">
					<use xlink:href="#SVGID_25_"  overflow="visible"/>
				</clipPath>
				<path clip-path="url(#SVGID_26_)" fill="#121C3B" d="M384.591,274.25c-1.305-2.822-1.527-5.189-0.363-8.461
					c0.875-2.436,2.033-3.65,4.434-4.803c0.506-0.256,2.688-1.219,3.053-1.346c2.613-1.156,4.576-0.963,7.697,0.127
					c1.449,0.512,1.598,0.578,2.105,0.707c2.396,0.578,4.504,2.689,5.668,4.803c0.143,0.193,0.217,0.389,0.436,0.703
					c0.072,0.131,0.072,0.131,0.146,0.193c0.799,1.412,1.162,2.24,1.236,3.59c0.215,2.561-3.633,8.648-6.977,10.248
					c-3.412,1.604-10.24,1.35-12.42-0.318C387.425,278.221,385.462,276.17,384.591,274.25L384.591,274.25z M385.974,273.801
					c0.797,1.668,2.541,3.586,4.578,5.063c1.67,1.279,7.916,1.535,10.822,0.131c2.832-1.352,6.393-6.922,6.176-9.039
					c-0.076-1.152-0.363-1.857-1.09-3.139c-0.072-0.129-0.072-0.129-0.146-0.191c-0.217-0.32-0.291-0.512-0.438-0.77
					c-0.943-1.859-2.832-3.717-4.721-4.168c-0.58-0.127-0.799-0.188-2.324-0.766c-2.76-1.025-4.359-1.154-6.465-0.191
					c-0.439,0.191-2.539,1.086-3.051,1.346c-2.109,1.023-2.98,1.922-3.779,4.037C384.591,269.186,384.81,271.239,385.974,273.801
					L385.974,273.801z"/>
			</g>
		</g>
	</g>
	<path fill="#EB9D30" stroke="#706F6F" stroke-miterlimit="10" stroke-dasharray="6" d="M396.578,274.827
		c2.811,0,5.088-2.01,5.088-4.486c0-2.475-2.277-4.484-5.088-4.484s-5.084,2.01-5.084,4.484c0,1.189,0.535,2.33,1.49,3.174
		C393.935,274.354,395.232,274.827,396.578,274.827L396.578,274.827z"/>
</g>
<g>
	<g>
		<g>
			<g>
				<defs>
					<rect id="SVGID_27_" x="377.058" y="285.627" width="25.586" height="22.242"/>
				</defs>
				<clipPath id="SVGID_28_">
					<use xlink:href="#SVGID_27_"  overflow="visible"/>
				</clipPath>
				<path clip-path="url(#SVGID_28_)" fill="#121C3B" d="M378.195,301.03c-1.309-2.822-1.527-5.189-0.363-8.459
					c0.873-2.438,2.033-3.652,4.432-4.803c0.508-0.26,2.688-1.219,3.053-1.348c2.613-1.154,4.578-0.961,7.697,0.129
					c1.451,0.51,1.6,0.576,2.107,0.707c2.395,0.576,4.502,2.689,5.666,4.803c0.143,0.191,0.219,0.389,0.436,0.703
					c0.072,0.129,0.072,0.129,0.146,0.191c0.799,1.412,1.162,2.24,1.234,3.59c0.219,2.563-3.633,8.648-6.977,10.252
					c-3.412,1.604-10.238,1.348-12.418-0.32C381.027,305.002,379.062,302.952,378.195,301.03L378.195,301.03z M379.576,300.581
					c0.797,1.666,2.541,3.586,4.576,5.064c1.672,1.277,7.918,1.535,10.82,0.129c2.834-1.35,6.396-6.922,6.178-9.037
					c-0.074-1.154-0.363-1.857-1.092-3.141c-0.07-0.129-0.07-0.129-0.145-0.191c-0.219-0.318-0.293-0.512-0.438-0.771
					c-0.945-1.857-2.834-3.717-4.721-4.166c-0.582-0.127-0.799-0.188-2.324-0.766c-2.762-1.027-4.359-1.154-6.465-0.193
					c-0.438,0.193-2.541,1.088-3.051,1.348c-2.109,1.023-2.98,1.92-3.779,4.037C378.195,295.967,378.412,298.02,379.576,300.581
					L379.576,300.581z"/>
			</g>
		</g>
	</g>
	<path fill="#C89797" stroke="#706F6F" stroke-miterlimit="10" stroke-dasharray="2" d="M390.177,301.608
		c2.813,0,5.088-2.01,5.088-4.484c0-2.477-2.275-4.488-5.088-4.488c-2.807,0-5.082,2.012-5.082,4.488
		c0,1.188,0.535,2.328,1.488,3.17C387.537,301.133,388.833,301.608,390.177,301.608L390.177,301.608z"/>
</g>
<g>
	<g>
		<g>
			<g>
				<defs>
					<rect id="SVGID_29_" x="350.044" y="287.459" width="25.584" height="22.242"/>
				</defs>
				<clipPath id="SVGID_30_">
					<use xlink:href="#SVGID_29_"  overflow="visible"/>
				</clipPath>
				<path clip-path="url(#SVGID_30_)" fill="#121C3B" d="M351.179,302.864c-1.309-2.824-1.527-5.191-0.361-8.463
					c0.873-2.432,2.033-3.648,4.432-4.803c0.506-0.258,2.688-1.219,3.051-1.348c2.615-1.15,4.576-0.957,7.697,0.129
					c1.453,0.516,1.6,0.576,2.107,0.707c2.396,0.578,4.504,2.689,5.668,4.801c0.143,0.197,0.217,0.391,0.434,0.705
					c0.072,0.129,0.072,0.129,0.148,0.191c0.797,1.418,1.16,2.244,1.234,3.592c0.219,2.564-3.633,8.65-6.975,10.248
					c-3.414,1.609-10.244,1.352-12.42-0.314C354.011,306.836,352.05,304.784,351.179,302.864L351.179,302.864z M352.558,302.413
					c0.797,1.668,2.543,3.586,4.578,5.064c1.672,1.281,7.918,1.539,10.824,0.129c2.832-1.348,6.395-6.922,6.172-9.033
					c-0.07-1.16-0.359-1.859-1.09-3.146c-0.068-0.129-0.068-0.129-0.141-0.191c-0.223-0.32-0.293-0.514-0.439-0.77
					c-0.943-1.857-2.832-3.715-4.721-4.164c-0.58-0.131-0.801-0.193-2.326-0.77c-2.76-1.025-4.359-1.154-6.463-0.193
					c-0.439,0.193-2.541,1.092-3.053,1.348c-2.107,1.023-2.98,1.922-3.777,4.035C351.179,297.797,351.398,299.85,352.558,302.413
					L352.558,302.413z"/>
			</g>
		</g>
	</g>
	<path fill="none" stroke="#706F6F" stroke-width="2" stroke-miterlimit="10" stroke-dasharray="6" d="M363.164,303.44
		c2.809,0,5.088-2.006,5.088-4.482c0-2.48-2.279-4.49-5.088-4.49c-2.807,0-5.086,2.01-5.086,4.49c0,1.184,0.539,2.326,1.492,3.17
		C360.525,302.967,361.816,303.44,363.164,303.44L363.164,303.44z"/>
</g>
<g>
	<g>
		<g>
			<g>
				<defs>
					<rect id="SVGID_31_" x="362.835" y="302.711" width="25.584" height="22.244"/>
				</defs>
				<clipPath id="SVGID_32_">
					<use xlink:href="#SVGID_31_"  overflow="visible"/>
				</clipPath>
				<path clip-path="url(#SVGID_32_)" fill="#121C3B" d="M363.968,318.118c-1.305-2.828-1.525-5.193-0.361-8.467
					c0.873-2.432,2.035-3.648,4.43-4.803c0.51-0.258,2.689-1.219,3.055-1.346c2.613-1.152,4.576-0.959,7.699,0.127
					c1.449,0.512,1.596,0.578,2.104,0.707c2.398,0.578,4.508,2.689,5.668,4.803c0.146,0.191,0.217,0.389,0.438,0.705
					c0.074,0.129,0.074,0.129,0.145,0.191c0.803,1.414,1.164,2.242,1.236,3.59c0.217,2.563-3.633,8.65-6.977,10.25
					c-3.41,1.607-10.238,1.35-12.42-0.316C366.802,322.084,364.841,320.034,363.968,318.118L363.968,318.118z M365.351,317.665
					c0.797,1.664,2.543,3.586,4.578,5.064c1.672,1.279,7.918,1.539,10.824,0.131c2.832-1.348,6.393-6.924,6.172-9.041
					c-0.072-1.154-0.361-1.855-1.09-3.141c-0.068-0.127-0.068-0.127-0.143-0.191c-0.221-0.318-0.291-0.512-0.439-0.77
					c-0.943-1.857-2.832-3.713-4.723-4.166c-0.578-0.127-0.799-0.189-2.322-0.768c-2.764-1.025-4.361-1.154-6.465-0.189
					c-0.439,0.189-2.543,1.09-3.053,1.346c-2.105,1.025-2.979,1.922-3.777,4.037C363.968,313.049,364.187,315.1,365.351,317.665
					L365.351,317.665z"/>
			</g>
		</g>
	</g>
	<path fill="#62B2B3" d="M375.957,318.69c2.809,0,5.084-2.01,5.084-4.484c0-2.477-2.275-4.488-5.084-4.488
		c-2.811,0-5.088,2.01-5.088,4.488c0,1.186,0.539,2.33,1.49,3.174C373.312,318.219,374.607,318.69,375.957,318.69L375.957,318.69z"
		/>
</g>
<g>
	<g>
		<g>
			<g>
				<defs>
					<rect id="SVGID_33_" x="329.873" y="291.571" width="25.586" height="22.244"/>
				</defs>
				<clipPath id="SVGID_34_">
					<use xlink:href="#SVGID_33_"  overflow="visible"/>
				</clipPath>
				<path clip-path="url(#SVGID_34_)" fill="#121C3B" d="M331.011,306.977c-1.307-2.824-1.527-5.191-0.365-8.461
					c0.877-2.438,2.035-3.652,4.434-4.805c0.508-0.256,2.688-1.219,3.053-1.346c2.615-1.156,4.578-0.961,7.697,0.127
					c1.449,0.514,1.6,0.578,2.107,0.707c2.396,0.578,4.502,2.689,5.666,4.805c0.143,0.191,0.219,0.387,0.436,0.701
					c0.072,0.131,0.072,0.131,0.146,0.195c0.799,1.41,1.162,2.24,1.236,3.588c0.215,2.563-3.633,8.65-6.975,10.248
					c-3.416,1.605-10.242,1.352-12.42-0.318C333.843,310.948,331.878,308.897,331.011,306.977L331.011,306.977z M332.39,306.526
					c0.799,1.668,2.543,3.586,4.578,5.064c1.672,1.277,7.918,1.535,10.822,0.131c2.834-1.352,6.395-6.922,6.178-9.039
					c-0.076-1.154-0.365-1.859-1.092-3.141c-0.072-0.129-0.072-0.129-0.146-0.191c-0.215-0.32-0.291-0.512-0.436-0.77
					c-0.945-1.857-2.834-3.717-4.721-4.166c-0.58-0.129-0.799-0.188-2.324-0.768c-2.762-1.025-4.359-1.154-6.467-0.189
					c-0.438,0.189-2.539,1.084-3.049,1.346c-2.109,1.023-2.98,1.92-3.779,4.037C331.011,301.913,331.228,303.963,332.39,306.526
					L332.39,306.526z"/>
			</g>
		</g>
	</g>
	<path fill="#EB9D30" stroke="#706F6F" stroke-miterlimit="10" stroke-dasharray="6" d="M342.996,307.553
		c2.809,0,5.086-2.01,5.086-4.486s-2.277-4.486-5.086-4.486c-2.811,0-5.086,2.01-5.086,4.486c0,1.188,0.537,2.33,1.49,3.172
		C340.353,307.079,341.648,307.553,342.996,307.553L342.996,307.553z"/>
</g>
<g>
	<g>
		<g>
			<g>
				<defs>
					<rect id="SVGID_35_" x="274.188" y="329.372" width="25.585" height="22.24"/>
				</defs>
				<clipPath id="SVGID_36_">
					<use xlink:href="#SVGID_35_"  overflow="visible"/>
				</clipPath>
				<path clip-path="url(#SVGID_36_)" fill="#121C3B" d="M275.325,344.776c-1.309-2.826-1.529-5.191-0.363-8.463
					c0.873-2.434,2.033-3.648,4.432-4.803c0.507-0.26,2.688-1.221,3.052-1.348c2.615-1.152,4.577-0.959,7.698,0.127
					c1.451,0.516,1.6,0.576,2.107,0.707c2.396,0.578,4.502,2.691,5.667,4.803c0.142,0.193,0.216,0.387,0.433,0.705
					c0.074,0.127,0.074,0.127,0.15,0.191c0.797,1.414,1.16,2.242,1.234,3.59c0.219,2.564-3.634,8.65-6.977,10.25
					c-3.414,1.609-10.243,1.35-12.42-0.314C278.155,348.747,276.196,346.696,275.325,344.776L275.325,344.776z M276.702,344.321
					c0.799,1.668,2.545,3.586,4.58,5.064c1.671,1.281,7.917,1.539,10.823,0.131c2.833-1.348,6.396-6.922,6.174-9.035
					c-0.072-1.158-0.361-1.859-1.091-3.145c-0.069-0.127-0.069-0.127-0.143-0.191c-0.219-0.32-0.293-0.514-0.439-0.77
					c-0.941-1.857-2.832-3.715-4.72-4.164c-0.58-0.129-0.801-0.191-2.325-0.77c-2.76-1.025-4.36-1.154-6.463-0.191
					c-0.438,0.191-2.541,1.092-3.053,1.348c-2.107,1.021-2.979,1.922-3.778,4.037C275.325,339.708,275.544,341.758,276.702,344.321
					L276.702,344.321z"/>
			</g>
		</g>
	</g>
	<path fill="none" stroke="#706F6F" stroke-width="2" stroke-miterlimit="10" stroke-dasharray="6" d="M287.31,345.35
		c2.809,0,5.088-2.006,5.088-4.48c0-2.48-2.279-4.492-5.088-4.492c-2.807,0-5.086,2.012-5.086,4.492
		c0,1.182,0.537,2.324,1.492,3.168C284.671,344.877,285.96,345.35,287.31,345.35L287.31,345.35z"/>
</g>
<g>
	<g>
		<g>
			<g>
				<defs>
					<rect id="SVGID_37_" x="239.279" y="348.913" width="25.584" height="22.24"/>
				</defs>
				<clipPath id="SVGID_38_">
					<use xlink:href="#SVGID_37_"  overflow="visible"/>
				</clipPath>
				<path clip-path="url(#SVGID_38_)" fill="#121C3B" d="M240.413,364.315c-1.306-2.826-1.526-5.193-0.362-8.463
					c0.873-2.434,2.034-3.65,4.43-4.805c0.51-0.256,2.689-1.219,3.055-1.344c2.613-1.152,4.575-0.961,7.699,0.125
					c1.45,0.514,1.597,0.578,2.104,0.709c2.398,0.576,4.506,2.688,5.668,4.801c0.145,0.193,0.215,0.389,0.436,0.707
					c0.074,0.127,0.074,0.127,0.146,0.189c0.801,1.416,1.164,2.244,1.236,3.59c0.217,2.563-3.633,8.65-6.977,10.248
					c-3.411,1.609-10.238,1.352-12.42-0.314C243.246,368.284,241.286,366.231,240.413,364.315L240.413,364.315z M241.795,363.86
					c0.797,1.668,2.543,3.588,4.578,5.064c1.672,1.279,7.917,1.539,10.823,0.131c2.834-1.348,6.393-6.922,6.174-9.039
					c-0.073-1.154-0.362-1.854-1.091-3.139c-0.068-0.129-0.068-0.129-0.144-0.193c-0.218-0.32-0.29-0.512-0.437-0.77
					c-0.943-1.859-2.832-3.715-4.723-4.164c-0.578-0.129-0.799-0.189-2.322-0.768c-2.763-1.025-4.361-1.156-6.465-0.191
					c-0.439,0.191-2.543,1.09-3.053,1.346c-2.105,1.023-2.979,1.922-3.777,4.035C240.413,359.249,240.632,361.299,241.795,363.86
					L241.795,363.86z"/>
			</g>
		</g>
	</g>
	<path fill="#62B2B3" d="M252.4,364.889c2.809,0,5.084-2.012,5.084-4.484c0-2.479-2.275-4.488-5.084-4.488
		c-2.81,0-5.088,2.01-5.088,4.488c0,1.186,0.539,2.328,1.49,3.172C249.758,364.417,251.051,364.889,252.4,364.889L252.4,364.889z"/>
</g>
<g>
	<g>
		<g>
			<g>
				<defs>
					<rect id="SVGID_39_" x="276.015" y="353.372" width="25.584" height="22.242"/>
				</defs>
				<clipPath id="SVGID_40_">
					<use xlink:href="#SVGID_39_"  overflow="visible"/>
				</clipPath>
				<path clip-path="url(#SVGID_40_)" fill="#121C3B" d="M277.153,368.774c-1.309-2.82-1.527-5.191-0.365-8.459
					c0.876-2.436,2.035-3.652,4.435-4.807c0.507-0.254,2.688-1.215,3.05-1.348c2.617-1.15,4.58-0.957,7.699,0.129
					c1.453,0.514,1.6,0.58,2.105,0.705c2.399,0.578,4.504,2.693,5.667,4.809c0.146,0.189,0.219,0.387,0.438,0.701
					c0.072,0.127,0.072,0.127,0.146,0.193c0.799,1.41,1.162,2.24,1.232,3.588c0.221,2.563-3.631,8.65-6.976,10.25
					c-3.41,1.604-10.238,1.35-12.415-0.32C279.985,372.745,278.023,370.696,277.153,368.774L277.153,368.774z M278.532,368.327
					c0.798,1.664,2.544,3.586,4.578,5.063c1.672,1.277,7.919,1.535,10.825,0.131c2.832-1.352,6.393-6.928,6.174-9.041
					c-0.074-1.156-0.365-1.857-1.092-3.139c-0.072-0.129-0.072-0.129-0.145-0.195c-0.217-0.318-0.293-0.51-0.438-0.764
					c-0.946-1.863-2.834-3.719-4.721-4.168c-0.581-0.131-0.799-0.193-2.324-0.77c-2.762-1.027-4.361-1.15-6.465-0.188
					c-0.438,0.188-2.544,1.086-3.051,1.346c-2.109,1.02-2.98,1.918-3.778,4.033C277.153,363.709,277.371,365.76,278.532,368.327
					L278.532,368.327z"/>
			</g>
		</g>
	</g>
	<path fill="#9F69A3" d="M289.138,369.35c2.809,0,5.084-2.008,5.084-4.484c0-2.479-2.275-4.484-5.084-4.484
		c-2.808,0-5.086,2.006-5.086,4.484c0,1.186,0.538,2.326,1.49,3.17C286.497,368.877,287.788,369.35,289.138,369.35L289.138,369.35z"
		/>
</g>
<g>
	<g>
		<g>
			<g>
				<defs>
					<rect id="SVGID_41_" x="309.099" y="351.102" width="25.584" height="22.242"/>
				</defs>
				<clipPath id="SVGID_42_">
					<use xlink:href="#SVGID_41_"  overflow="visible"/>
				</clipPath>
				<path clip-path="url(#SVGID_42_)" fill="#121C3B" d="M310.234,366.506c-1.307-2.822-1.527-5.189-0.363-8.461
					c0.875-2.434,2.035-3.65,4.434-4.803c0.508-0.256,2.688-1.219,3.053-1.346c2.615-1.156,4.576-0.963,7.697,0.127
					c1.449,0.512,1.6,0.578,2.105,0.709c2.396,0.574,4.504,2.688,5.668,4.803c0.143,0.191,0.217,0.387,0.436,0.701
					c0.072,0.131,0.072,0.131,0.146,0.193c0.801,1.414,1.162,2.24,1.234,3.592c0.217,2.559-3.633,8.646-6.975,10.246
					c-3.414,1.604-10.242,1.35-12.42-0.318C313.068,370.477,311.107,368.428,310.234,366.506L310.234,366.506z M311.617,366.057
					c0.797,1.668,2.541,3.586,4.578,5.064c1.67,1.277,7.916,1.533,10.82,0.131c2.834-1.354,6.395-6.924,6.178-9.041
					c-0.076-1.152-0.363-1.857-1.092-3.137c-0.07-0.131-0.07-0.131-0.145-0.193c-0.217-0.32-0.291-0.512-0.439-0.77
					c-0.941-1.859-2.832-3.717-4.719-4.168c-0.58-0.127-0.801-0.186-2.326-0.766c-2.76-1.023-4.357-1.154-6.465-0.189
					c-0.438,0.189-2.539,1.084-3.049,1.346c-2.111,1.023-2.98,1.92-3.779,4.035C310.234,361.442,310.453,363.495,311.617,366.057
					L311.617,366.057z"/>
			</g>
		</g>
	</g>
	<path fill="#EB9D30" stroke="#706F6F" stroke-miterlimit="10" stroke-dasharray="6" d="M322.22,367.083
		c2.811,0,5.088-2.008,5.088-4.486c0-2.475-2.277-4.484-5.088-4.484c-2.809,0-5.084,2.01-5.084,4.484c0,1.189,0.535,2.33,1.49,3.174
		C319.58,366.612,320.875,367.083,322.22,367.083L322.22,367.083z"/>
</g>
<g>
	<g>
		<g>
			<g>
				<defs>
					<rect id="SVGID_43_" x="287.28" y="236.381" width="25.585" height="22.242"/>
				</defs>
				<clipPath id="SVGID_44_">
					<use xlink:href="#SVGID_43_"  overflow="visible"/>
				</clipPath>
				<path clip-path="url(#SVGID_44_)" fill="#121C3B" d="M288.416,251.782c-1.307-2.82-1.527-5.188-0.364-8.459
					c0.875-2.437,2.033-3.652,4.434-4.803c0.506-0.258,2.688-1.217,3.051-1.348c2.615-1.154,4.578-0.959,7.699,0.131
					c1.449,0.51,1.6,0.574,2.105,0.705c2.396,0.578,4.504,2.691,5.666,4.803c0.145,0.193,0.219,0.389,0.436,0.703
					c0.074,0.131,0.074,0.131,0.148,0.193c0.799,1.412,1.162,2.238,1.234,3.59c0.217,2.563-3.633,8.648-6.977,10.252
					c-3.414,1.604-10.239,1.348-12.417-0.32C291.248,255.756,289.286,253.706,288.416,251.782L288.416,251.782z M289.796,251.334
					c0.799,1.666,2.543,3.586,4.578,5.064c1.672,1.277,7.918,1.535,10.821,0.129c2.834-1.35,6.396-6.922,6.178-9.037
					c-0.074-1.154-0.365-1.859-1.092-3.141c-0.07-0.131-0.07-0.131-0.146-0.191c-0.217-0.32-0.291-0.512-0.436-0.77
					c-0.945-1.859-2.834-3.719-4.721-4.166c-0.582-0.127-0.801-0.189-2.324-0.766c-2.762-1.027-4.359-1.154-6.467-0.193
					c-0.438,0.193-2.54,1.086-3.049,1.348c-2.11,1.023-2.979,1.92-3.781,4.035C288.416,246.721,288.632,248.772,289.796,251.334
					L289.796,251.334z"/>
			</g>
		</g>
	</g>
	<path fill="#C89797" stroke="#706F6F" stroke-miterlimit="10" stroke-dasharray="2" d="M300.4,252.362
		c2.811,0,5.088-2.01,5.088-4.486s-2.277-4.486-5.088-4.486c-2.81,0-5.085,2.01-5.085,4.486c0,1.189,0.535,2.33,1.489,3.172
		C297.759,251.887,299.054,252.362,300.4,252.362L300.4,252.362z"/>
</g>
<g>
	<g>
		<g>
			<g>
				<defs>
					<rect id="SVGID_45_" x="234.521" y="240.497" width="25.584" height="22.24"/>
				</defs>
				<clipPath id="SVGID_46_">
					<use xlink:href="#SVGID_45_"  overflow="visible"/>
				</clipPath>
				<path clip-path="url(#SVGID_46_)" fill="#121C3B" d="M235.656,255.901c-1.308-2.824-1.527-5.191-0.361-8.463
					c0.873-2.434,2.033-3.648,4.432-4.805c0.506-0.258,2.688-1.217,3.051-1.346c2.615-1.15,4.577-0.959,7.697,0.129
					c1.453,0.516,1.6,0.574,2.107,0.705c2.396,0.578,4.504,2.691,5.668,4.803c0.143,0.195,0.217,0.389,0.434,0.705
					c0.072,0.129,0.072,0.129,0.149,0.191c0.796,1.416,1.16,2.244,1.233,3.59c0.22,2.564-3.633,8.65-6.975,10.25
					c-3.414,1.609-10.243,1.35-12.42-0.314C238.489,259.874,236.528,257.821,235.656,255.901L235.656,255.901z M237.035,255.45
					c0.797,1.668,2.543,3.586,4.579,5.064c1.671,1.279,7.917,1.539,10.823,0.129c2.832-1.348,6.396-6.922,6.172-9.035
					c-0.07-1.16-0.359-1.859-1.089-3.145c-0.069-0.127-0.069-0.127-0.142-0.189c-0.22-0.322-0.293-0.514-0.439-0.77
					c-0.943-1.859-2.832-3.715-4.721-4.164c-0.58-0.131-0.801-0.193-2.325-0.77c-2.76-1.027-4.36-1.154-6.464-0.193
					c-0.438,0.193-2.541,1.09-3.053,1.348c-2.107,1.023-2.979,1.92-3.777,4.035C235.656,250.834,235.876,252.885,237.035,255.45
					L237.035,255.45z"/>
			</g>
		</g>
	</g>
	<path fill="none" stroke="#706F6F" stroke-width="2" stroke-miterlimit="10" stroke-dasharray="6" d="M247.642,256.475
		c2.808,0,5.087-2.006,5.087-4.48c0-2.48-2.279-4.49-5.087-4.49c-2.807,0-5.086,2.01-5.086,4.49c0,1.184,0.538,2.324,1.491,3.17
		C245.002,256.004,246.293,256.475,247.642,256.475L247.642,256.475z"/>
</g>
<g>
	<g>
		<g>
			<g>
				<defs>
					<rect id="SVGID_47_" x="199.525" y="241.655" width="25.583" height="22.242"/>
				</defs>
				<clipPath id="SVGID_48_">
					<use xlink:href="#SVGID_47_"  overflow="visible"/>
				</clipPath>
				<path clip-path="url(#SVGID_48_)" fill="#121C3B" d="M200.658,257.059c-1.305-2.826-1.525-5.193-0.362-8.467
					c0.873-2.432,2.034-3.646,4.431-4.803c0.509-0.256,2.688-1.219,3.054-1.346c2.614-1.15,4.575-0.957,7.7,0.127
					c1.449,0.514,1.596,0.58,2.104,0.709c2.397,0.576,4.506,2.689,5.668,4.803c0.143,0.191,0.215,0.387,0.435,0.703
					c0.074,0.131,0.074,0.131,0.146,0.191c0.801,1.416,1.165,2.244,1.237,3.592c0.216,2.563-3.633,8.65-6.977,10.248
					c-3.412,1.607-10.239,1.352-12.42-0.316C203.492,261.028,201.531,258.975,200.658,257.059L200.658,257.059z M202.041,256.606
					c0.796,1.666,2.541,3.586,4.578,5.064c1.672,1.281,7.916,1.539,10.822,0.131c2.834-1.348,6.393-6.922,6.174-9.039
					c-0.072-1.154-0.362-1.854-1.09-3.141c-0.068-0.127-0.068-0.127-0.145-0.191c-0.217-0.32-0.289-0.512-0.436-0.77
					c-0.944-1.857-2.832-3.715-4.724-4.166c-0.577-0.127-0.798-0.189-2.321-0.768c-2.764-1.025-4.361-1.154-6.466-0.191
					c-0.439,0.191-2.542,1.09-3.053,1.348c-2.106,1.023-2.979,1.92-3.776,4.037C200.658,251.993,200.877,254.043,202.041,256.606
					L202.041,256.606z"/>
			</g>
		</g>
	</g>
	<path fill="#62B2B3" d="M212.646,257.633c2.808,0,5.084-2.012,5.084-4.484c0-2.479-2.276-4.49-5.084-4.49
		c-2.811,0-5.088,2.012-5.088,4.49c0,1.186,0.539,2.328,1.49,3.172C210.003,257.161,211.297,257.633,212.646,257.633
		L212.646,257.633z"/>
</g>
<g>
	<g>
		<g>
			<g>
				<defs>
					<rect id="SVGID_49_" x="311.38" y="312.631" width="25.584" height="22.244"/>
				</defs>
				<clipPath id="SVGID_50_">
					<use xlink:href="#SVGID_49_"  overflow="visible"/>
				</clipPath>
				<path clip-path="url(#SVGID_50_)" fill="#121C3B" d="M312.517,328.038c-1.305-2.824-1.525-5.193-0.363-8.461
					c0.877-2.438,2.037-3.652,4.434-4.805c0.51-0.256,2.689-1.219,3.051-1.346c2.617-1.156,4.58-0.963,7.699,0.127
					c1.449,0.514,1.6,0.578,2.107,0.707c2.396,0.578,4.504,2.691,5.666,4.803c0.143,0.193,0.219,0.391,0.436,0.705
					c0.074,0.131,0.074,0.131,0.148,0.193c0.799,1.41,1.16,2.24,1.232,3.588c0.217,2.563-3.631,8.65-6.973,10.25
					c-3.414,1.604-10.242,1.35-12.42-0.32C315.351,332.008,313.388,329.956,312.517,328.038L312.517,328.038z M313.9,327.588
					c0.797,1.666,2.543,3.586,4.574,5.061c1.672,1.281,7.92,1.537,10.822,0.131c2.832-1.35,6.396-6.92,6.178-9.037
					c-0.072-1.154-0.363-1.857-1.09-3.141c-0.074-0.129-0.074-0.129-0.146-0.191c-0.217-0.318-0.289-0.512-0.436-0.77
					c-0.947-1.857-2.836-3.717-4.721-4.166c-0.58-0.129-0.799-0.188-2.326-0.768c-2.762-1.025-4.359-1.154-6.465-0.189
					c-0.438,0.189-2.541,1.084-3.051,1.344c-2.109,1.023-2.979,1.922-3.779,4.039C312.517,322.973,312.738,325.026,313.9,327.588
					L313.9,327.588z"/>
			</g>
		</g>
	</g>
	<path fill="#EB9D30" stroke="#706F6F" stroke-miterlimit="10" stroke-dasharray="6" d="M324.503,328.614
		c2.811,0,5.086-2.012,5.086-4.486s-2.275-4.486-5.086-4.486c-2.809,0-5.084,2.012-5.084,4.486c0,1.188,0.535,2.33,1.488,3.172
		C321.863,328.139,323.156,328.614,324.503,328.614L324.503,328.614z"/>
</g>
<line fill="none" stroke="#706E6F" stroke-width="2" stroke-miterlimit="10" x1="389.703" y1="58.488" x2="389.703" y2="82.063"/>
<g>
	<g>
		<polygon fill="#DCBAD5" points="192.1,36.735 191.884,36.814 190.248,37.404 187.692,37.404 185.649,37.991 183.861,38.997 
			180.925,39.666 178.626,41.092 176.837,42.516 175.688,44.023 175.688,45.783 175.688,46.955 177.348,46.955 178.88,48.045 
			183.224,50.307 190.504,44.19 192.1,40.505 		"/>
		<path fill="none" d="M153.082,51.774"/>
		<path fill="#6A4491" d="M195.189,37.991l5.679,2.011v1.341v2.344v3.854l-0.631,2.341l0.076,2.602l-1.726,0.738l-1.873,1.215
			c0,0,0,0.055,0,0.475c0,0.418,0,1.088,0,1.257c0,0.167-1.525,1.339-1.525,1.339l0.553,1.677c0,0-1.728,0.74-2.317,1.209
			c-0.59,0.467-2.183,1.64-2.183,1.64l-4.164,1.771l1.462,1.915l2.702,0.836l3.394,1.174l2.076,0.585h2.491h3.186l3.185-0.585
			l2.771-0.251l3.047-0.838l3.188-0.836l3.187-1.677l3.875-1.842l1.94-2.598l1.246-2.262v-3.183v-3.939v-1.088l-0.83-0.671
			l-1.386-1.591l-1.663-1.677l-1.938-1.76l-2.906-1.172l-2.771-0.838l-2.491-0.418L207.795,40l-3.047-1.005l-3.325-1.005h-1.938
			L195.189,37.991L195.189,37.991L195.189,37.991z"/>
		<path fill="none" d="M195.101,36.735"/>
		<path fill="#706E6F" stroke="#231815" stroke-width="0.25" stroke-miterlimit="10" d="M208.639,39.498l1.533,1.592l2.299,0.42
			l3.959,0.668l1.275,1.343l0.641,1.506v1.677v1.927v2.598v1.928l-0.895,1.76l-1.021,1.59l-1.533,2.262l-1.406,1.508l-1.275,1.759
			l-1.66,1.088l-1.916,1.341l-2.975,1.675l-2.773,0.923l-2.938,0.584c0,0-2.682,0-2.809,0s-2.172-0.587-2.044-0.251
			c0.13,0.336-2.032-0.474-2.032-0.474l-2.191-0.775l1.223,1.08l1.342,1.508c0,0,2.042,0.42,2.427,0.502
			c0.382,0.084,2.936,0,2.936,0l3.577,0.038l4.905-1.74l2.758-1.567l2.426-1.84l2.172-1.759l1.531-1.759l3.194-4.609l1.658-3.517
			v-2.849v-2.681V45.53v-0.587l-1.149-2.093l-1.661-1.759l-2.554-1.174l-2.172-0.418h-2.425L208.639,39.498L208.639,39.498z"/>
		<path fill="#706E6F" stroke="#231815" stroke-width="0.25" stroke-miterlimit="10" d="M192.674,38.997h2.426v-1.005l1.021-1.256
			l1.023-0.588h2.938h2.3l2.298,1.005l2.172,0.839l3.193,5.53v1.59v1.844l-0.766,2.681l-1.533,3.562l-2.082,2.554l-1.877,2.18
			l-2.811,2.177l-3.832,2.347l-3.19,1.339l-4.343,1.928l-4.214,1.005l-1.5,0.669l-2.714,0.251l-2.411,0.671l-2.443,0.418h-1.915
			h-1.791h-2.554h-2.809l-3.066-0.418h-2.425l-1.533-0.42h-1.533l-1.915-0.503l-2.81-0.585l-2.172-0.838l-1.66-0.585l-2.426-0.754
			l-2.684-1.092l-2.938-1.005l-2.555-1.593l-2.043-0.669l-1.789-1.257l-1.789-0.502l-2.298-1.088l-2.299-1.259l-2.938-0.754
			l-1.789-0.083l-1.406-0.418H93.821l-0.51-2.431h29.247l3.065,0.671l3.449,1.003l3.576,0.756l3.321,1.926l2.809,1.173l2.299,1.174
			c0,0,2.682,1.172,3.321,1.172s1.66,1.09,2.043,1.341c0.382,0.251,2.682,1.006,2.682,1.006l2.045,0.836l2.555,1.005l4.342,1.005
			l2.682,0.251l2.426,0.575h2.427h2.937l2.426-0.073c0,0,2.555,0.167,3.193,0c0.637-0.169,2.171,0,2.171,0l1.789-0.336l2.809-0.333
			l2.299-0.42l1.915-0.418l1.789-0.669l1.332-0.322l2.087-0.658l1.755-0.695l2.232-0.672l1.917-1.005l1.531-0.754l0.767-0.921
			l1.405-0.671l1.404-1.003l0.895-0.671l0.512-0.923l1.021-0.921l0.894-0.587l0.256-1.17l0.73-0.671l0.803-1.759l0.512-0.923v-1.087
			V47.29v-1.255v-2.513v-1.007l-0.641-1.508l-0.676-0.836l-1.113-1.172l-1.225-0.403l-1.84-0.603l-2.043-0.336h-2.297l-1.406,0.336"
			/>
		<polygon fill="#BD9BC3" points="183.224,49.889 181.435,47.627 178.243,46.034 177.22,46.034 175.178,47.375 174.155,47.96 
			173.645,48.463 173.645,50.307 173.645,51.815 173.645,53.91 174.922,56.088 175.688,57.009 176.327,57.512 179.264,55.669 
			182.458,52.485 183.894,51.774 		"/>
		<polygon fill="#9F69A3" points="197.049,53.993 192.835,52.736 190.664,51.982 188.237,51.228 184.661,49.805 183.896,48.966 
			183.896,47.04 183.896,45.113 183.896,43.939 184.661,42.934 186.064,41.426 187.088,40.505 188.876,39.081 190.473,38.076 
			192.452,38.076 192.771,38.076 195.006,38.076 197.049,38.076 198.838,38.661 200.242,39.583 200.88,41.174 201.648,42.767 
			201.648,45.113 201.136,47.04 201.136,48.381 200.88,50.474 199.348,52.569 		"/>
		<polygon fill="#E5CFE3" points="197.145,53.993 197.145,55.418 195.229,58.517 193.567,59.942 192.1,61.533 189.354,62.623 
			186.926,63.21 184.756,63.21 181.691,62.12 178.88,60.194 176.964,58.183 176.327,56.59 176.327,54.496 178.114,52.736 
			179.647,51.564 181.179,50.392 183.991,49.805 184.627,49.805 188.205,49.805 196.251,51.564 		"/>
	</g>
	<polygon fill="#706E6F" stroke="#231815" stroke-width="0.25" stroke-miterlimit="10" points="347.052,63.373 347.052,61.136 
		348.511,61.724 351.451,62.645 353.748,63.373 355.917,65.325 357.58,67.463 358.859,70.077 360.005,72.614 360.005,74.709 
		361.41,76.887 363.708,79.4 366.007,80.824 367.923,81.914 368.945,82.332 439.318,82.332 439.318,83.757 368.562,84.009 
		366.646,83.337 364.347,82.332 361.41,80.239 359.878,78.31 358.982,76.635 358.476,74.625 357.451,72.026 356.683,70.077 
		355.41,68.131 354.003,66.415 351.96,64.655 348.511,63.147 	"/>
	<polygon fill="#DCBAD5" points="314.722,48.467 314.501,48.546 312.867,49.137 310.31,49.137 308.269,49.724 306.478,50.729 
		303.542,51.399 301.244,52.825 299.455,54.248 298.306,55.756 298.306,57.516 298.306,58.688 299.964,58.688 301.498,59.778 
		305.841,62.04 313.123,55.923 314.722,52.237 	"/>
	<path fill="none" d="M275.701,63.506"/>
	<path fill="#6A4491" d="M317.806,49.724l5.684,2.011v1.342v2.344v3.854l-0.631,2.34l0.072,2.602l-1.725,0.738l-1.873,1.215
		c0,0,0,0.055,0,0.476c0,0.418,0,1.087,0,1.256c0,0.167-1.527,1.339-1.527,1.339l0.559,1.677c0,0-1.73,0.741-2.318,1.21
		c-0.596,0.467-2.188,1.64-2.188,1.64l-4.164,1.773l1.465,1.913l2.699,0.836l3.395,1.174l2.074,0.585h2.494h3.186l3.186-0.585
		l2.77-0.251l3.049-0.839l3.188-0.836l3.188-1.677l3.873-1.841l1.943-2.598l1.244-2.262v-3.183v-3.938V60.95l-0.834-0.671
		l-1.383-1.59l-1.658-1.677l-1.941-1.759l-2.904-1.172l-2.773-0.838l-2.49-0.418l-3.047-1.089l-3.045-1.006l-3.324-1.005h-1.941
		h-4.295v-0.001H317.806z"/>
	<path fill="none" d="M317.718,48.467"/>
	<path fill="#706E6F" stroke="#231815" stroke-width="0.25" stroke-miterlimit="10" d="M331.259,51.23l1.531,1.592l2.299,0.42
		l3.961,0.667l1.275,1.343l0.639,1.506v1.677v1.926v2.598v1.929l-0.893,1.759l-1.021,1.59l-1.533,2.262l-1.404,1.508l-1.275,1.76
		l-1.662,1.088l-1.914,1.341l-2.977,1.675l-2.771,0.923l-2.939,0.585c0,0-2.684,0-2.807,0c-0.129,0-2.174-0.587-2.047-0.251
		c0.129,0.336-2.031-0.473-2.031-0.473l-2.191-0.776l1.227,1.08l1.34,1.508c0,0,2.041,0.42,2.424,0.503c0.385,0.084,2.939,0,2.939,0
		L325,81.008l4.904-1.738l2.762-1.569l2.424-1.84l2.172-1.759l1.533-1.759l3.191-4.609l1.662-3.517v-2.849v-2.68v-1.426v-0.587
		l-1.148-2.093l-1.662-1.76l-2.553-1.174l-2.174-0.418h-2.424H331.259L331.259,51.23z"/>
	<path fill="#706E6F" stroke="#231815" stroke-width="0.25" stroke-miterlimit="10" d="M315.291,50.729h2.428v-1.006l1.021-1.256
		l1.025-0.587h2.936H325l2.297,1.005l2.178,0.838l3.191,5.53v1.591v1.844l-0.768,2.68l-1.531,3.562l-2.082,2.555l-1.877,2.18
		l-2.814,2.178l-3.828,2.346l-3.191,1.339l-4.342,1.928l-4.217,1.005l-1.5,0.67l-2.715,0.251l-2.408,0.671l-2.443,0.418h-1.915
		h-1.791h-2.557h-2.807l-3.066-0.418h-2.428l-1.531-0.42h-1.531l-1.918-0.502l-2.807-0.585l-2.174-0.838l-1.658-0.585l-2.428-0.754
		l-2.684-1.092l-2.938-1.005l-2.555-1.592l-2.043-0.67l-1.787-1.256l-1.791-0.503l-2.297-1.088l-2.301-1.259l-2.936-0.754
		l-1.789-0.082l-1.406-0.418h-29.373l-0.509-2.431h29.245l3.064,0.672l3.449,1.003l3.576,0.756l3.32,1.926l2.811,1.172l2.299,1.174
		c0,0,2.684,1.172,3.32,1.172c0.639,0,1.66,1.09,2.045,1.341c0.383,0.251,2.682,1.005,2.682,1.005l2.045,0.836l2.553,1.005
		l4.344,1.005l2.682,0.251l2.424,0.575h2.428h2.938l2.426-0.073c0,0,2.555,0.167,3.191,0c0.637-0.168,2.174,0,2.174,0l1.787-0.335
		l2.811-0.334l2.299-0.42l1.916-0.418l1.787-0.669l1.332-0.322l2.086-0.658l1.754-0.695l2.236-0.671l1.916-1.005l1.533-0.754
		l0.766-0.921l1.404-0.671l1.406-1.004l0.893-0.671l0.512-0.923l1.021-0.921l0.895-0.587l0.256-1.17l0.73-0.672l0.807-1.759
		l0.508-0.923v-1.088v-1.425v-1.255v-2.514v-1.007l-0.637-1.508l-0.678-0.837l-1.113-1.172l-1.227-0.403l-1.838-0.603l-2.047-0.335
		h-2.295l-1.406,0.335"/>
	<polygon fill="#BD9BC3" points="305.841,61.622 304.056,59.359 300.861,57.767 299.839,57.767 297.795,59.108 296.775,59.693 
		296.264,60.196 296.264,62.04 296.264,63.548 296.264,65.643 297.541,67.82 298.306,68.741 298.945,69.244 301.88,67.402 
		305.076,64.217 306.513,63.506 	"/>
	<polygon fill="#9F69A3" points="319.669,65.725 315.455,64.469 313.281,63.715 310.855,62.96 307.277,61.537 306.513,60.699 
		306.513,58.772 306.513,56.846 306.513,55.672 307.277,54.667 308.683,53.158 309.707,52.237 311.492,50.813 313.091,49.809 
		315.072,49.809 315.388,49.809 317.623,49.809 319.669,49.809 321.457,50.394 322.859,51.316 323.5,52.907 324.267,54.5 
		324.267,56.846 323.753,58.772 323.753,60.113 323.5,62.207 321.966,64.302 	"/>
	<polygon fill="#E5CFE3" points="319.765,65.725 319.765,67.151 317.847,70.25 316.185,71.675 314.722,73.266 311.972,74.355 
		309.544,74.942 307.375,74.942 304.31,73.853 301.498,71.926 299.582,69.916 298.945,68.323 298.945,66.228 300.732,64.469 
		302.265,63.296 303.796,62.124 306.607,61.537 307.246,61.537 310.824,61.537 318.869,63.296 	"/>
</g>
<ellipse transform="matrix(0.348 -0.9375 0.9375 0.348 110.9904 284.6191)" fill="#898989" cx="260.12" cy="62.514" rx="15.791" ry="16.711"/>
<text transform="matrix(1.013 0 0 1 249.124 69.1196)" fill="#FFFFFF" font-family="'ArialMT'" font-size="18">TF</text>
<g>
	<g>
		<line fill="none" stroke="#706E6F" stroke-width="2" stroke-miterlimit="10" x1="389.703" y1="58.488" x2="403.988" y2="58.689"/>
		<g>
			<polygon fill="#706E6F" points="418.107,58.889 398.097,66.738 402.933,58.674 398.326,50.48 			"/>
		</g>
	</g>
</g>
<text transform="matrix(1 0 0 1 363.8921 102.1548)" fill="#FFFFFF" font-family="'ArialMT'" font-size="17">TF PMarker</text>
<text transform="matrix(1 0 0 1 48.4536 57.7671)" font-family="'ArialMT'" font-size="17">DNA</text>
<text transform="matrix(1 0 0 1 238.1758 298.9536)" fill="#13AE67" font-family="'ArialMT'" font-size="12.7346">TF PMarker</text>
<line fill="none" stroke="#706E6F" stroke-width="2" stroke-miterlimit="10" x1="388.312" y1="164.846" x2="388.312" y2="188.422"/>
<g>
	<g>
		<polygon fill="#DCBAD5" points="190.709,143.094 190.494,143.172 188.857,143.763 186.302,143.763 184.258,144.35 
			182.471,145.355 179.534,146.024 177.236,147.45 175.447,148.874 174.297,150.382 174.297,152.141 174.297,153.313 
			175.958,153.313 177.489,154.403 181.833,156.666 189.113,150.549 190.709,146.863 		"/>
		<path fill="none" d="M151.691,158.133"/>
		<path fill="#6A4491" d="M193.799,144.35l5.679,2.011v1.341v2.345v3.854l-0.631,2.341l0.076,2.603l-1.726,0.738l-1.873,1.215
			c0,0,0,0.055,0,0.475c0,0.419,0,1.088,0,1.258c0,0.166-1.525,1.339-1.525,1.339l0.553,1.677c0,0-1.728,0.74-2.317,1.209
			c-0.59,0.468-2.183,1.641-2.183,1.641l-4.164,1.771l1.462,1.915l2.702,0.836l3.394,1.175l2.076,0.585h2.491h3.186l3.185-0.585
			l2.771-0.251l3.047-0.839l3.188-0.837l3.187-1.677l3.875-1.842l1.94-2.598l1.246-2.263v-3.183v-3.938v-1.088l-0.83-0.672
			l-1.386-1.591l-1.663-1.677l-1.938-1.76l-2.906-1.172l-2.771-0.838l-2.491-0.419l-3.046-1.09l-3.047-1.005l-3.325-1.006h-1.938
			h-4.295v0.002H193.799z"/>
		<path fill="none" d="M193.71,143.094"/>
		<path fill="#706E6F" stroke="#231815" stroke-width="0.25" stroke-miterlimit="10" d="M207.248,145.855l1.533,1.593l2.299,0.42
			l3.959,0.668l1.275,1.343l0.641,1.506v1.678v1.926v2.598v1.929l-0.895,1.76l-1.021,1.591l-1.533,2.262l-1.406,1.508l-1.275,1.76
			l-1.66,1.088l-1.916,1.341l-2.975,1.675l-2.773,0.924l-2.938,0.584c0,0-2.682,0-2.809,0s-2.172-0.587-2.044-0.251
			c0.13,0.336-2.032-0.474-2.032-0.474l-2.191-0.775l1.223,1.08l1.342,1.508c0,0,2.042,0.42,2.427,0.503
			c0.382,0.085,2.936,0,2.936,0l3.577,0.038l4.905-1.74l2.758-1.566l2.426-1.841l2.172-1.759l1.531-1.76l3.194-4.609l1.658-3.516
			v-2.85v-2.681v-1.425v-0.588l-1.149-2.094l-1.661-1.759l-2.554-1.175l-2.172-0.418h-2.425h-2.427V145.855z"/>
		<path fill="#706E6F" stroke="#231815" stroke-width="0.25" stroke-miterlimit="10" d="M191.284,145.355h2.426v-1.006l1.021-1.256
			l1.023-0.588h2.938h2.3l2.298,1.005l2.172,0.839l3.193,5.529v1.591v1.844l-0.766,2.681l-1.533,3.563l-2.082,2.554l-1.877,2.181
			l-2.811,2.177l-3.832,2.347l-3.19,1.34l-4.343,1.928l-4.214,1.006l-1.5,0.669l-2.714,0.251l-2.411,0.672l-2.443,0.418h-1.915
			h-1.791h-2.554h-2.809l-3.066-0.418h-2.425l-1.533-0.42h-1.533l-1.915-0.503l-2.81-0.585l-2.172-0.839l-1.66-0.585l-2.426-0.754
			l-2.684-1.092l-2.938-1.006l-2.555-1.592l-2.043-0.67l-1.789-1.257l-1.789-0.503l-2.298-1.088l-2.299-1.258l-2.938-0.754
			l-1.789-0.083l-1.406-0.418H92.43l-0.51-2.431h29.247l3.065,0.671l3.449,1.003l3.576,0.757l3.321,1.926l2.809,1.173l2.299,1.174
			c0,0,2.682,1.172,3.321,1.172c0.639,0,1.66,1.09,2.043,1.342c0.382,0.251,2.682,1.006,2.682,1.006l2.045,0.836l2.555,1.006
			l4.342,1.005l2.682,0.251l2.426,0.576h2.427h2.937l2.426-0.073c0,0,2.555,0.167,3.193,0c0.637-0.169,2.171,0,2.171,0l1.789-0.336
			l2.809-0.333l2.299-0.421l1.915-0.419l1.789-0.669l1.332-0.321l2.087-0.658l1.755-0.695l2.232-0.672l1.917-1.005l1.531-0.755
			l0.767-0.92l1.405-0.672l1.404-1.004l0.895-0.671l0.512-0.923l1.021-0.922l0.894-0.586l0.256-1.171l0.73-0.671l0.803-1.76
			l0.512-0.924v-1.087v-1.426v-1.255v-2.514v-1.007l-0.641-1.509l-0.676-0.836l-1.113-1.172l-1.225-0.403l-1.84-0.603l-2.043-0.336
			h-2.297l-1.407,0.336"/>
		<polygon fill="#BD9BC3" points="181.833,156.247 180.044,153.985 176.853,152.393 175.83,152.393 173.787,153.734 
			172.765,154.318 172.254,154.822 172.254,156.666 172.254,158.174 172.254,160.269 173.531,162.446 174.297,163.367 
			174.936,163.87 177.873,162.027 181.067,158.844 182.503,158.133 		"/>
		<polygon fill="#9F69A3" points="195.658,160.352 191.444,159.094 189.273,158.341 186.847,157.586 183.27,156.163 
			182.505,155.324 182.505,153.398 182.505,151.472 182.505,150.297 183.27,149.292 184.673,147.784 185.697,146.863 
			187.486,145.439 189.082,144.434 191.062,144.434 191.38,144.434 193.616,144.434 195.658,144.434 197.447,145.02 
			198.852,145.941 199.489,147.533 200.258,149.125 200.258,151.472 199.745,153.398 199.745,154.739 199.489,156.832 
			197.957,158.928 		"/>
		<polygon fill="#E5CFE3" points="195.754,160.352 195.754,161.777 193.838,164.875 192.177,166.301 190.709,167.892 
			187.963,168.981 185.535,169.568 183.365,169.568 180.3,168.479 177.489,166.553 175.573,164.541 174.936,162.949 
			174.936,160.854 176.723,159.094 178.256,157.922 179.789,156.75 182.6,156.163 183.237,156.163 186.814,156.163 194.86,157.922 
					"/>
	</g>
	<polygon fill="#706E6F" stroke="#231815" stroke-width="0.25" stroke-miterlimit="10" points="345.662,169.731 345.662,167.494 
		347.121,168.082 350.06,169.003 352.357,169.731 354.527,171.684 356.189,173.822 357.468,176.436 358.615,178.973 
		358.615,181.067 360.019,183.245 362.318,185.759 364.617,187.182 366.533,188.271 367.554,188.689 437.927,188.689 
		437.927,190.115 367.171,190.367 365.255,189.695 362.957,188.689 360.019,186.598 358.488,184.668 357.591,182.994 
		357.085,180.982 356.06,178.385 355.292,176.436 354.019,174.489 352.613,172.773 350.57,171.014 347.121,169.506 	"/>
	<polygon fill="#DCBAD5" points="313.332,154.826 313.111,154.904 311.476,155.495 308.919,155.495 306.878,156.082 
		305.087,157.088 302.152,157.758 299.853,159.184 298.064,160.606 296.916,162.114 296.916,163.874 296.916,165.047 
		298.574,165.047 300.107,166.137 304.451,168.398 311.732,162.281 313.332,158.596 	"/>
	<path fill="none" d="M274.311,169.865"/>
	<path fill="#6A4491" d="M316.416,156.082l5.682,2.011v1.342v2.345v3.854l-0.631,2.341l0.074,2.603l-1.725,0.738l-1.873,1.215
		c0,0,0,0.055,0,0.476c0,0.418,0,1.087,0,1.257c0,0.167-1.527,1.339-1.527,1.339l0.557,1.677c0,0-1.729,0.74-2.316,1.21
		c-0.598,0.468-2.189,1.64-2.189,1.64l-4.164,1.773l1.465,1.912l2.699,0.836l3.396,1.175l2.072,0.585h2.494h3.188l3.186-0.585
		l2.77-0.251l3.049-0.839l3.186-0.837l3.189-1.677l3.873-1.841l1.941-2.599l1.244-2.263v-3.183v-3.938v-1.088l-0.834-0.672
		l-1.381-1.59l-1.66-1.678l-1.939-1.76l-2.904-1.172l-2.773-0.838l-2.49-0.419l-3.047-1.089l-3.045-1.006l-3.324-1.006h-1.941
		h-4.295v0.002H316.416z"/>
	<path fill="none" d="M316.328,154.826"/>
	<path fill="#706E6F" stroke="#231815" stroke-width="0.25" stroke-miterlimit="10" d="M329.869,157.588l1.531,1.593l2.299,0.421
		l3.961,0.667l1.275,1.343l0.639,1.506v1.678v1.926v2.598v1.93l-0.893,1.759l-1.021,1.591l-1.533,2.262l-1.406,1.508l-1.273,1.76
		l-1.662,1.088l-1.914,1.341l-2.979,1.675l-2.77,0.924l-2.939,0.584c0,0-2.684,0-2.807,0c-0.129,0-2.174-0.586-2.047-0.251
		c0.129,0.336-2.031-0.474-2.031-0.474l-2.191-0.775l1.227,1.08l1.338,1.508c0,0,2.041,0.421,2.424,0.504
		c0.387,0.084,2.941,0,2.941,0l3.574,0.037l4.904-1.738l2.762-1.568l2.424-1.841l2.172-1.759l1.533-1.76l3.191-4.609l1.662-3.516
		v-2.85v-2.68v-1.426v-0.588l-1.148-2.093l-1.662-1.76l-2.553-1.174l-2.174-0.419h-2.424h-2.43V157.588z"/>
	<path fill="#706E6F" stroke="#231815" stroke-width="0.25" stroke-miterlimit="10" d="M313.9,157.088h2.428v-1.006l1.021-1.256
		l1.025-0.588h2.936h2.299l2.297,1.006l2.178,0.838l3.191,5.529v1.592v1.844l-0.768,2.68l-1.531,3.563l-2.082,2.555l-1.877,2.18
		l-2.814,2.178l-3.828,2.346l-3.193,1.34l-4.342,1.928l-4.215,1.006l-1.5,0.67l-2.715,0.25l-2.408,0.672l-2.444,0.418h-1.914h-1.791
		h-2.557h-2.807l-3.066-0.418h-2.428l-1.531-0.42h-1.531l-1.918-0.502l-2.807-0.586l-2.174-0.838l-1.658-0.586l-2.428-0.754
		l-2.684-1.092l-2.938-1.006l-2.555-1.592l-2.043-0.67l-1.787-1.256l-1.791-0.504l-2.297-1.088l-2.301-1.258l-2.936-0.754
		l-1.789-0.082l-1.406-0.419h-29.373l-0.509-2.431h29.245l3.064,0.672l3.449,1.003l3.576,0.756l3.32,1.927l2.811,1.172l2.299,1.174
		c0,0,2.684,1.172,3.32,1.172c0.639,0,1.66,1.09,2.045,1.342c0.383,0.252,2.682,1.006,2.682,1.006l2.045,0.836l2.553,1.006
		l4.344,1.005l2.682,0.251l2.424,0.576h2.428h2.938l2.426-0.073c0,0,2.555,0.167,3.191,0c0.637-0.169,2.174,0,2.174,0l1.787-0.335
		l2.811-0.334l2.299-0.421l1.916-0.418l1.787-0.669l1.332-0.322l2.086-0.658l1.754-0.695l2.236-0.672l1.916-1.005l1.533-0.755
		l0.766-0.92l1.404-0.672l1.406-1.004l0.893-0.671l0.512-0.923l1.02-0.921l0.896-0.587l0.256-1.17l0.729-0.672l0.809-1.76
		l0.508-0.923v-1.088v-1.425v-1.256v-2.514v-1.007l-0.637-1.508l-0.68-0.837l-1.111-1.172l-1.229-0.402l-1.838-0.604l-2.045-0.336
		h-2.295l-1.408,0.336"/>
	<polygon fill="#BD9BC3" points="304.451,167.98 302.666,165.718 299.47,164.125 298.449,164.125 296.404,165.467 295.385,166.051 
		294.873,166.555 294.873,168.398 294.873,169.906 294.873,172.001 296.15,174.179 296.916,175.1 297.555,175.603 300.49,173.761 
		303.685,170.576 305.123,169.865 	"/>
	<polygon fill="#9F69A3" points="318.279,172.084 314.064,170.827 311.89,170.073 309.464,169.318 305.886,167.896 305.123,167.057 
		305.123,165.131 305.123,163.204 305.123,162.03 305.886,161.025 307.292,159.517 308.316,158.596 310.101,157.172 
		311.701,156.167 313.681,156.167 313.998,156.167 316.232,156.167 318.279,156.167 320.066,156.752 321.468,157.675 
		322.109,159.266 322.876,160.857 322.876,163.204 322.363,165.131 322.363,166.472 322.109,168.564 320.576,170.66 	"/>
	<polygon fill="#E5CFE3" points="318.375,172.084 318.375,173.51 316.457,176.607 314.794,178.033 313.332,179.624 310.582,180.714 
		308.154,181.301 305.984,181.301 302.919,180.211 300.107,178.285 298.191,176.273 297.555,174.682 297.555,172.586 
		299.341,170.827 300.875,169.654 302.406,168.482 305.216,167.896 305.855,167.896 309.433,167.896 317.478,169.654 	"/>
</g>
<ellipse transform="matrix(0.348 -0.9375 0.9375 0.348 7.4278 353.1567)" fill="#13AE67" cx="257.61" cy="171.238" rx="15.79" ry="19.867"/>
<g>
	<g>
		
			<line fill="none" stroke="#706E6F" stroke-width="2" stroke-miterlimit="10" x1="388.312" y1="164.846" x2="402.597" y2="165.048"/>
		<g>
			<polygon fill="#706E6F" points="416.716,165.247 396.707,173.096 401.542,165.033 396.935,156.838 			"/>
		</g>
	</g>
</g>
<text transform="matrix(1 0 0 1 47.063 164.1255)" font-family="'ArialMT'" font-size="17">DNA</text>
<text transform="matrix(1.013 0 0 1 246.3022 176.6353)" fill="#FFFFFF" font-family="'ArialMT'" font-size="18">TF</text>
<text transform="matrix(1 0 0 1 379.3276 206.4565)" font-family="'ArialMT'" font-size="17">genes</text>
<g>
	<g>
		<path fill="none" stroke="#13AE67" stroke-width="2" stroke-miterlimit="10" stroke-dasharray="5,5" d="M272.349,141.175
			c11.151-27.999,46.865-46.215,87.102-42.247"/>
		<g>
			<polygon fill="#13AE67" points="269.004,154.896 281.92,137.713 272.856,140.216 266.192,133.585 			"/>
		</g>
	</g>
</g>
<text transform="matrix(1 0 0 1 354.3745 353.3706)" font-family="'ArialMT'" font-size="17">Others</text>
<text transform="matrix(1 0 0 1 54.3516 271.6323)" font-family="'ArialMT'" font-size="17">Specific cell types</text>
</svg>
