<?xml version="1.0" encoding="utf-8"?>
<!-- Generator: Adobe Illustrator 16.0.0, SVG Export Plug-In . SVG Version: 6.00 Build 0)  -->
<!DOCTYPE svg PUBLIC "-//W3C//DTD SVG 1.1//EN" "http://www.w3.org/Graphics/SVG/1.1/DTD/svg11.dtd">
<svg version="1.1" id="图层_1" xmlns="http://www.w3.org/2000/svg" xmlns:xlink="http://www.w3.org/1999/xlink" x="0px" y="0px"
	 width="595.28px" height="841.89px" viewBox="0 0 595.28 841.89" enable-background="new 0 0 595.28 841.89" xml:space="preserve">
<g>
	<g>
		<ellipse fill="#E89179" cx="52.462" cy="201.325" rx="16.401" ry="14.53"/>
		<text transform="matrix(0.9863 0 0 1 43.1104 206.5313)" fill="#F4F0EE" font-family="'DengXian-Bold'" font-size="16.7828">TF</text>
	</g>
	<g>
		<rect x="77.908" y="192.208" fill="#BBBABA" width="193.592" height="18.236"/>
		
			<text transform="matrix(0.7497 0 0 1 83.8643 204.8018)" fill="#036EB8" stroke="#036EB8" stroke-width="0.5" stroke-miterlimit="10" font-family="'AdobeSongStd-Light-GBpc-EUC-H'" font-size="14.0451">the TF regulate the expression of the markers</text>
	</g>
	<g>
		<ellipse fill="#BBD533" cx="66.838" cy="214.347" rx="8.068" ry="9.467"/>
		
			<text transform="matrix(0.8927 0 0 1 63.7363 219.1279)" fill="#060404" stroke="#000000" stroke-miterlimit="10" font-family="'AdobeSongStd-Light-GBpc-EUC-H'" font-size="15.6307">1</text>
	</g>
</g>
<ellipse fill="#9077B4" cx="58.417" cy="262.73" rx="28.514" ry="12.338"/>
<text transform="matrix(0.8144 0 0 1 34.0664 266.2256)" fill="#F4F0EE" font-family="'DengXian-Bold'" font-size="13.6737">T Marker</text>
<rect x="93.555" y="252.844" fill="#C1BFBF" width="216.415" height="19.773"/>
<text transform="matrix(0.6768 0 0 1 96.4985 267.0244)" fill="#18444F" stroke="#24596D" stroke-width="0.5" stroke-miterlimit="10" font-family="'AdobeSongStd-Light-GBpc-EUC-H'" font-size="14.6928">the expression of the markers  are regulated by the TFs</text>
<g>
	<ellipse fill="#BBD533" cx="80.842" cy="275.068" rx="7.386" ry="8.567"/>
	
		<text transform="matrix(0.903 0 0 1 77.8228 278.9961)" stroke="#000000" stroke-miterlimit="10" font-family="'AdobeSongStd-Light-GBpc-EUC-H'" font-size="14.1449">2</text>
</g>
<g>
	<path fill="#E7693C" d="M96.169,335.706c0,3.571-5.687,6.466-12.704,6.466H46.771c-7.016,0-12.704-2.896-12.704-6.466v-10.597
		c0-3.571,5.688-6.466,12.704-6.466h36.694c7.017,0,12.704,2.896,12.704,6.466V335.706z"/>
	<text transform="matrix(0.8889 0 0 1 39.6152 334.0103)" fill="#F6E9E6" font-family="'DengXian-Bold'" font-size="12.9648">TFMarker</text>
</g>
<rect x="101.608" y="322.52" fill="#C1BFBF" width="228.892" height="16.176"/>
<text transform="matrix(0.8461 0 0 1 105.415 334.0093)" stroke="#000000" stroke-miterlimit="10" font-family="'AdobeSongStd-Light-GBpc-EUC-H'" font-size="13.9231">the TFs are regarded as markers in specific cells</text>
<g>
	<ellipse fill="#BBD533" cx="94.404" cy="342.17" rx="7.373" ry="9.413"/>
	
		<text transform="matrix(0.8207 0 0 1 91.3887 346.4888)" stroke="#000000" stroke-miterlimit="10" font-family="'AdobeSongStd-Light-GBpc-EUC-H'" font-size="15.5377">3</text>
</g>
<g>
	<path fill="#21489C" d="M101.727,407.352c0,3.511-6.015,6.358-13.432,6.358H49.493c-7.418,0-13.434-2.847-13.434-6.358v-10.417
		c0-3.512,6.016-6.357,13.434-6.357h38.802c7.417,0,13.432,2.846,13.432,6.357V407.352z"/>
	<text transform="matrix(0.8326 0 0 1 41.7349 407.2905)" fill="#F6E9E6" font-family="'DengXian-Bold'" font-size="12.7467">TF Pmarker</text>
</g>
<g>
	<rect x="110.095" y="394.46" fill="#C1BFBF" width="268.667" height="15.368"/>
	
		<text transform="matrix(0.8752 0 0 1 114.9048 405.5801)" stroke="#000000" stroke-miterlimit="10" font-family="'AdobeSongStd-Light-GBpc-EUC-H'" font-size="13.2275">the TFs are regarded as potential markers in specific cells</text>
</g>
<g>
	<ellipse fill="#BBD533" cx="99.867" cy="413.709" rx="6.939" ry="8.941"/>
	
		<text transform="matrix(0.8129 0 0 1 97.0308 417.8105)" stroke="#000000" stroke-miterlimit="10" font-family="'AdobeSongStd-Light-GBpc-EUC-H'" font-size="14.7614">4</text>
</g>
<g>
	<g>
		<ellipse fill="#C28CBC" cx="223.08" cy="233.765" rx="26.703" ry="10.601"/>
		<text transform="matrix(0.8655 0 0 1 201.1069 236.8569)" fill="#F6EBE7" font-family="'DengXian-Bold'" font-size="12.9122">I Marker</text>
	</g>
	<g>
		<rect x="260.155" y="226.135" fill="#C1BFBF" width="222.345" height="15.262"/>
		
			<text transform="matrix(0.8563 0 0 1 263.9951 238.3579)" stroke="#000000" stroke-width="0.5" stroke-miterlimit="10" font-family="'AdobeSongStd-Light-GBpc-EUC-H'" font-size="14.6744">the markers influence the activity of the TFs</text>
	</g>
	<g>
		<ellipse fill="#BBD533" cx="249.05" cy="241.398" rx="7.266" ry="8.887"/>
		
			<text transform="matrix(0.8563 0 0 1 246.0791 245.4766)" stroke="#000000" stroke-miterlimit="10" font-family="'AdobeSongStd-Light-GBpc-EUC-H'" font-size="14.6744">5</text>
	</g>
</g>
<g>
	<path fill="#73C8D9" d="M234.198,294.719c0,5.124-4.55,9.278-10.161,9.278h-49.122c-5.612,0-10.162-4.155-10.162-9.278v-1.806
		c0-5.124,4.55-9.278,10.162-9.278h49.122c5.611,0,10.161,4.155,10.161,9.278V294.719z"/>
	<text transform="matrix(0.6723 0 0 1 170.1382 297.5352)" fill="#F6EBE7" font-family="'DengXian-Bold'" font-size="13.0394">reTrans Marker</text>
</g>
<rect x="245.062" y="289.243" fill="#C1BFBF" width="237.438" height="16.581"/>
<text transform="matrix(0.6803 0 0 1 250.2144 301.3154)" stroke="#000000" stroke-width="0.5" stroke-miterlimit="10" font-family="'AdobeSongStd-Light-GBpc-EUC-H'" font-size="15.5519">markers associated with reverse transcription processes</text>
<g>
	<ellipse fill="#BBD533" cx="234.943" cy="302.962" rx="7.049" ry="8.978"/>
	
		<text transform="matrix(0.8224 0 0 1 232.062 307.083)" stroke="#000000" stroke-miterlimit="10" font-family="'AdobeSongStd-Light-GBpc-EUC-H'" font-size="14.8246">6</text>
</g>
<g>
	<rect x="202.843" y="353.182" fill="#C1BFBF" width="283.782" height="15.979"/>
	
		<text transform="matrix(0.7864 0 0 1 207.4106 365.5508)" fill="#131110" stroke="#000000" stroke-width="0.5" stroke-miterlimit="10" font-family="'AdobeSongStd-Light-GBpc-EUC-H'" font-size="13.69">markers signatured for specific cells to TF research in experiments</text>
	<g>
		<path fill="#768BC5" d="M199.51,359.396c0,7.127-11.574,12.904-25.85,12.904c-14.279,0-25.854-5.777-25.854-12.904
			c0-7.129,11.575-12.907,25.854-12.907C187.936,346.489,199.51,352.267,199.51,359.396z"/>
		<text transform="matrix(0.793 0 0 1 151.6548 363.3472)" fill="#F6EBE7" font-family="'DengXian-Bold'" font-size="13.5706">E Marker</text>
	</g>
	<g>
		<ellipse fill="#BBD533" cx="196.055" cy="372.301" rx="6.788" ry="9.304"/>
		
			<text transform="matrix(0.7642 0 0 1 193.2788 376.5679)" stroke="#000000" stroke-miterlimit="10" font-family="'AdobeSongStd-Light-GBpc-EUC-H'" font-size="15.3622">7</text>
	</g>
</g>
</svg>
