<?xml version="1.0" encoding="utf-8"?>
<!-- Generator: Adobe Illustrator 16.0.0, SVG Export Plug-In . SVG Version: 6.00 Build 0)  -->
<!DOCTYPE svg PUBLIC "-//W3C//DTD SVG 1.1//EN" "http://www.w3.org/Graphics/SVG/1.1/DTD/svg11.dtd">
<svg version="1.1" id="图层_1" xmlns="http://www.w3.org/2000/svg" xmlns:xlink="http://www.w3.org/1999/xlink" x="0px" y="0px"
	 width="595.28px" height="841.89px" viewBox="0 0 595.28 841.89" enable-background="new 0 0 595.28 841.89" xml:space="preserve">
<path fill="#4A2D8D" stroke="#4A2D8D" stroke-miterlimit="10" d="M595.28,684.408c0,9.654-5.537,17.482-12.368,17.482H14.035
	c-6.831,0-12.368-7.828-12.368-17.482V88.041c0-9.656,5.537-17.484,12.368-17.484h568.877c6.831,0,12.368,7.828,12.368,17.484
	V684.408z"/>
<path fill="#D6BE17" d="M229.999,226.558c8.301-5.638,16.136-6.014,24.781-9.628c3.551-1.484,8.283-3.19,11.368-5.008
	c2.441-1.438,13.157-9.569,11.562-13.063c-1.49-3.265-13.422-2.67-16.741-6.832c-2.889-3.626-0.484-15.738-3.757-18.022
	c-1.965-1.372-2.384-1.967-3.326-3.999c-2.892-1.655-4.889-3.942-7.099-5.552c-5.909-4.304,10.273-23.968,6.367-32.018
	c-1.819-3.75-5.079-4.686-6.543-8.845c-1.461-4.147-0.816-9.897-0.09-14.124c1.595-9.287,6.408-18.332,14.165-23.885
	c14.76-10.567,35.823-14.113,53.187-8.741c8.032,2.485,16.691,8.017,22.824,13.454c7.048,6.248,7.015,14.96,8.675,23.708
	c2.02,10.645-0.434,20.671-4.521,30.772c-5.341,13.198-10.539,26.61-12.853,40.727c-0.798,4.871-3.331,15.015-0.655,19.665
	c2.44,4.241,6.693,3.489,10.813,5.191c5.158,2.133,9.181,6.237,14.094,8.311c6.227,2.628,13.341,2.708,19.62,5.872
	c2.783,1.402,5.695,4.286,8.793,5.346c21.236,7.303,27.515,24.492,29.34,45.352c0.992,11.321-1.44,21.087-2,31.989
	c-0.451,8.802,0.729,17.533,2.223,26.188c1.691,9.785,4.158,19.604,4.772,29.541c0.561,9.068,1.929,14.739,4.334,23.565
	c3.271,12,9.334,24.584,9.336,37.369c0.002,8.524,0.211,16.457,1.481,24.37c1.227,7.64,0.081,15.513,0.519,23.628
	c0.708,13.146,3.919,25.988,11.984,36.15c3.128,3.94,9.927,6.338,10.799,11.74c3.662,1.807,14.477,26.426,11.797,28.727
	c-3.367,2.863-11.226-3.52-13.07-6.023c-1.503-2.04-1.195-4.677-2.642-6.604c-2.432-3.239-6.652-4.386-8.853-7.956
	c-2.302-3.734-6.029-10.464-7.396-14.584c-2.871-8.653-6.225-17.987-10.118-26.765c-5.066-11.421-9.535-21.815-12.168-34.164
	c-2.598-12.188-3.13-24.441-5.664-36.665c-1.406-6.786-0.753-13.833-1.986-20.651c-1.549-8.554-5.833-15.765-7.899-23.981
	c-2.126-8.45-2.799-15.92-5.52-24.1c-1.281-3.853-2.331-8.875-4.843-12.452c-2.976-4.239-8.165-6.506-11.337-10.687
	c-6.258-8.25-8.469-18.408-16.554-25.582c-9.117-8.09-18.797-16.836-28.796-23.879c-11.6-8.171-23.282-17.952-36.729-22.672
	c-10.768-3.779-21.327-8.024-31.879-12.515c-6.296-2.679-13.99-4.955-19.909-8.536c-3.185-1.927-5.905-5.204-9.218-4.133"/>
<path fill="#D6BE17" d="M231.5,225.89c-4.779,0.62-9.891,2.57-14.391,4.503c-4.585,1.97-8.022,6.855-11.238,10.695
	c-7.297,8.714-10.271,22.103-11.869,33.013c-1.598,10.908,0.366,20.943,1.972,31.924c0.902,6.17,0.527,12.681-0.06,18.917
	c-0.436,4.635,0.288,9.148,0.14,13.741c-0.17,5.316-2.31,10.163-3.667,15.26c-1.455,5.467-0.565,11.217-2.244,16.667
	c-1.625,5.277-0.836,10.623-2.221,15.914c-2.191,8.378-6.235,16.055-8.446,24.28c-0.638,2.376-0.229,4.854-0.589,7.352
	c-0.664,4.606-2.124,8.941-2.415,13.871c-1.197,20.307-0.748,40.591-3.976,60.726c-0.704,4.393-3.052,9.825-5.485,13.666
	c-3.33,5.259-9.345,4.018-13.375,8.475c-3.874,4.285-6.091,7.826-8.287,12.984c-1.98,4.651-6.198,9.274-6.889,14.363
	c-0.71,5.234,0.022,12.195,6.673,8.547c2.624-1.439,3.555-5.374,5.38-7.445c2.098-2.382,3.957-3.554,5.519-6.502
	c0.776,2.221-2.074,6.214-2.585,8.952c-0.781,4.181-1.716,7.664-2.448,11.71c-0.659,3.643,0.26,7.697-0.461,11.294
	c-0.766,3.814-5.591,16.94,3.897,15.17c-0.688,3.646,2.143,6.501,6.086,4.923c3.726-1.491,2.475-5.983,2.479-9.873
	c-0.536,5.038,5.207,4.855,7.004,2.487c1.593-2.1,1.378-5.539,4.225-6.76c3.127-1.34,5.687,1.875,8.567-0.303
	c3.111-2.354,7.15-14.493,7.674-18.401c1.011-7.546,3.815-13.466,3.416-21.413c-0.328-6.542,0.396-12.584,1-18.972
	c0.776-8.219-4.257-18.124,1.212-24.924c1.847-2.296,1.774-3.431,2.307-6.184c0.813-4.201,3.498-6.323,5.281-10.001
	c1.633-3.366,2.166-6.771,3.052-10.324c0.802-3.216,2.807-6.9,4.323-10.037c1.821-3.769,2.357-7.537,4.097-11.232
	c1.412-2.997,3.01-6.101,3.867-9.49c1.053-4.166,1.983-8.374,2.588-12.632c1.219-8.588-0.91-16.835,1.09-24.877
	c0.328-1.318,2.008-2.812,2.309-4.381c0.279-1.454-0.095-3.152,0.042-4.635c0.188-2.027,0.829-5.504,1.352-7.672
	c0.844-3.493,0.946-6.269,1.258-9.96c0.553-6.536-0.083-13.067,0.999-19.572c1.316-7.92,1.141-17.269-0.677-24.846
	c-1.083-4.517,0.117-7.06,1.454-11.592c1.453-4.929,0.449-8.232-0.115-12.675c-0.756-5.964,0.002-12.569,1.116-18.239
	c3.611-18.378-2.254-38.337,2.223-56.494"/>
<path fill="#D6BE17" d="M384.333,404.216c-1.135-2.186-2.841-4.651-3.414-6.91c-0.662-2.61-0.342-5.404-0.918-8.025
	c-0.666-3.036-2.145-4.947-2.334-8.407c-0.151-2.764,0.14-5.552,0-8.317c-0.277-5.507-1.755-10.996-1.024-16.366
	c0.449-3.303,1.039-6.965,0.697-10.558c-0.504-5.292,0.306-8.949,0.838-14.092c0.338-3.263,0.637-8.98-2.806-10.862
	c-4.027-2.196-10.086-0.125-14.4-0.125c-7.649,0-15.37-0.304-22.912,0.602c-13.459,1.616-27.739,0.796-40.824,4.417
	c-5.548,1.536-11.417,2.617-16.794,4.705c-6.705,2.603-12.746,6.763-19.801,8.459c-6.794,1.633-13.024,3.283-19.905,4.208
	c-2.444,0.329-8.939-0.27-10.544,1.971c-1.624,2.265,0.567,1.202,1.312,3.109c1.008,2.581,0.24,5.807,0.499,8.516
	c0.305,3.187,1.039,6.474,1.599,9.482c1.03,5.527,1.523,11.207,3.3,16.568c1.765,5.325,2.663,9.845,1.767,15.533
	c-0.569,3.618-0.448,7.419-0.994,11.165c-1.051,7.215-1.308,14.22-2.667,21.51c-1.481,7.95-3.897,16.036-5.006,23.823
	c-0.227,1.591,0.079,3.314,0,4.918c-0.138,2.827-0.614,2.849-1.834,5.227c-1.881,3.664-2.444,8.176-3.223,12.049
	c-0.097,0.482-0.382,2.816-0.585,3.173c-0.624,1.089-1.976,1.359-2.788,2.57c-0.685,1.021-0.233,2.002-0.799,2.991
	c-1.032,1.806-2.901,2.833-3.832,4.693c-0.984,1.964-1.304,4.689-1.822,6.819c-1.289,5.3-2.269,10.694-2.783,16.128
	c-0.39,4.117-0.63,8.178-0.668,12.11c-0.035,3.703,0.063,7.021,1.236,10.54c1.29,3.869,0.804,6.217,0.396,10.292
	c-0.293,2.939-0.275,6.55,0.018,9.499c0.27,2.725,0.095,6.825,0.974,9.375c0.979,2.841,1.413,4.377,1.755,7.533
	c0.425,3.93,0.79,8.903,1.93,12.683c0.57,1.891,2.131,3.085,2.617,5.318c0.533,2.448,0.604,4.06,1.73,6.333
	c2.482,5.009,3.455,10.842,5.226,16.139c1.914,5.723,5.8,10.413,8.385,15.803c2.34,4.879,1.133,10.574,3.046,15.227
	c2.721,6.614,4.353,13.312,4.354,20.563c0,3.377-0.292,6.897,0.001,10.259c0.264,3.034,0.666,6.127,0.666,9.435
	c0,4.458-3.764,10.845,1.591,12.712c4.214,1.47,9.25-0.137,13.576-0.137c6.948,0,13.896,0,20.844,0
	c2.576,0,8.018,0.993,10.365-0.058c3.081-1.38,1.799-3.576,1.266-6.01c-0.969-4.419-3.246-9.176-1.159-13.571
	c0.65-1.37,1.893-2.249,2.437-3.736c0.846-2.313,0.13-4.91,0.758-7.265c0.821-3.082,1.354-5.646,1.323-9.118
	c-0.057-6.438-0.746-13.756-1.333-19.903c-0.692-7.256,0.999-13.966,0.999-21.073c0-8.643-3.284-19.146,3.275-26.32
	c-2-4.585,0.651-7.788,1.759-12.37c0.659-2.724,0.14-11.516,4.574-10.856c1.091,2.888,1.612,6.712,2.325,9.606
	c0.786,3.196,1.106,6.132,1.548,9.406c1.068,7.939,1.684,16.043,3.183,23.877c1.303,6.81,0.336,14.732,0.336,21.733
	c0,8.217-0.673,16.274-1,24.333c-0.267,6.555,0.514,11.627,2.658,18c1.112,3.304,1.63,6.197,1.267,9.928
	c-0.176,1.804-0.599,3.542-0.648,5.405c-0.09,3.292-0.465,5.541,2.563,6.986c3.381,1.614,8.25,0.621,11.896,1.413
	c8.41,1.828,17.709,0.926,26.416,0.926c2.567,0,6.721,0.988,7.546-1.723c0.445-1.464-0.697-6.555-0.697-8.544
	c0-9.795-2.369-20.04,0.925-29.465c1.573-4.502,1.733-9.416,3.475-13.87c1.898-4.854,2.849-10.018,4.96-15.072
	c3.143-7.52,4.715-15.719,7.667-23.313c1.043-2.684,1.93-5.593,2.973-8.442c2.037-5.564,3.646-11.191,5.576-16.967
	c2.09-6.255,2.519-12.914,3.164-19.591c0.618-6.397,1.372-12.782,1.556-19.211c0.166-5.8-1.229-11.8-0.294-17.535
	c0.771-4.735,0.999-9.476,0.999-14.519c0-5.166-0.152-8.953-2.342-13.425c-1.774-3.624-3.832-6.508-6.375-9.504
	c-2.29-2.698-2.155-5.16-3.543-8.456c-1.299-3.084-1.578-6.585-2.781-9.677c-1.396-3.584-2.191-6.883-2.552-10.731
	c-0.356-3.797-1.436-5.852-1.759-9.602c-0.6-6.975-4.087-13.054-4.648-20.017c-0.3-3.713-0.188-7.397-0.926-10.999
	c-0.32-1.565-0.67-3.106-1.039-4.697c-2.178-9.401-1.201-17.407-0.035-26.953c0.425-3.481,2.933-5.679,3.926-9.008
	c0.873-2.928,1.413-5.104,1.407-8.333c-0.007-3.609-0.188-6.517,1.249-9.666c1.765-3.869,1.751-6.866,1.751-11.288
	c0-4.218,0.582-6.325,1.747-9.803"/>
<path fill="#D6BE17" d="M384.25,403.89c0.799,2.876-0.223,5.612-0.499,8.318c-0.31,3.026-0.248,6.142-0.251,9.182
	c-0.004,3.458,1.634,4.776,2.262,7.737c0.53,2.495,0.54,4.999,1.219,7.501c0.705,2.598,1.787,4.824,3.227,6.998
	c1.557,2.349,2.066,5.437,3.292,7.957c2.376,4.889,3.54,10.263,5.495,15.277c0.846,2.17,1.565,4.276,2.201,6.341
	c0.977,3.174,3.516,5.654,5.005,8.693c1.229,2.509,2.439,4.922,3.104,7.671c1.817,7.509,4.361,13.646,4.096,21.604
	c-0.263,7.871-1.9,15.647-1.899,23.532c0.001,3.174,1.435,4.771,1.707,7.709c0.269,2.886-0.527,6.344,0.337,9.028
	c0.934,2.901,2.241,5.752,3.469,8.676c1.005,2.395,2.48,4.674,3.487,7.281c0.7,1.813,1.566,5.296,3.285,6.497
	c1.075,0.752,3.124,0.816,4.292,0.251c2.307-1.115,1.332-1.826,0.989-3.713c-0.639-3.508-0.066-6.881-0.066-10.407
	c0-4.98,0-9.961,0-14.941c0-13.041-0.806-25.883-1.975-38.702c-0.657-7.2-1.228-14.611-2.45-21.751
	c-0.856-4.996-2.657-10.016-3.407-14.895c-0.361-2.35-0.414-4.831-0.967-7.204c-1.921-8.245-4.801-16.429-8.396-24.122
	c-2.884-6.171-7.358-14.08-8.061-20.777c0.04,4.208,0.127,7.35,1.657,11.269c0.236-1.76,0.057-3.528,0.129-5.298
	c0.188,0.126,0.787,0.595,0.934,0.69c0.506,1.368,0.279,3.024,0.475,4.534c0.119-1.993-0.006-3.984,0.26-5.97
	c0.483,0.198,0.977-0.004,1.466,0.193c-0.944-1.703-1.121-5.601-1.223-8.319c0.183,0.134,0.324,0.305,0.426,0.511
	c-0.2-2.619-0.569-5.221-0.808-7.837c0.154-0.166,0.298-0.123,0.431,0.128c0.397-2.973,0.424-5.969,0.739-8.949
	c-0.099,0.579-0.327,0.885-0.531,1.417c-2.265-7.738-0.671-16.916-0.725-24.876c-1.054,3.325-4.561,5.802-6.016,9.121
	c-1.72,3.922-2.135,8.396-4.275,12.168c-1.841,3.243-7.62,9.808-12.183,8.226"/>
<path fill="#D6BE17" d="M429.5,571.14c0.33-0.02,0.649-0.022,0.976,0.032c0.115,3.404,1.405,6.834,3.268,9.662
	c1.168,1.773,1.936,2.097,4.063,2.306c3.436,0.338,2.401-0.572,3.901-2.624c0.209,3.363,0.164,5.417,2.793,7.55
	c1.033,0.838,3.339,3.138,4.949,2.348c1.297-0.636,0.833-3.915,1.27-5.26c3.148-0.696,5.024,1.821,5.55-3.021
	c0.275-2.531,0.096-5.446-0.019-7.993c-0.263-5.88-1.902-11.591-3.262-17.262c-1.245-5.197-1.851-10.469-2.739-15.796
	c-0.438-2.628-0.307-7.549-4.024-6.128c-2.868,1.097-7.172,5.952-8.979,8.429c-2.677,3.667-3.106,9.579-4.135,13.959
	c-0.523,2.228-0.706,4.627-1.313,6.59c-0.75,2.424-1.812,4.759-1.548,7.458"/>
<path fill="#D6BE17" d="M240,225.89c-1.094-0.819-7.105-1.128-8.205-0.268c-0.984,0.77-2.168,5.944-2.543,7.267
	c-1.555,5.487-1.843,11.372-3.12,16.996c-2.053,9.034-3.939,18.231-5.306,27.625c-0.719,4.94-0.826,9.587-0.826,14.622
	c0,1.768-0.212,3.698,0,5.452c0.243,2.007,1.282,3.01,1.887,5.007c0.846,2.794,0.063,6.086-0.554,8.8
	c-0.727,3.196-1.697,6.706-1.846,10.208c-0.153,3.583,1.212,4.815,2.5,7.792c1.081,2.499,0.657,5.377,1.838,7.744
	c1.006,2.016,2.55,4.322,4.481,5.761c2.607,1.943,4.995,2.435,7.042,4.984c1.371,1.708,2.872,4.813,4.58,6.197
	c2.422,1.962,7.407,1.912,10.358,2.806c2.249,0.681,4.731,2.01,7.046,2.275c3.725,0.428,7.258-0.819,10.792-1.452
	c4.09-0.733,8.004-0.493,12.09-0.858c2.004-0.18,3.152-0.938,4.783-1.497c5.234-1.796,10.91-2.85,16.611-3.607
	c4.742-0.63,9.83-0.828,14.29-2.729c3.649-1.556,7.144-2.928,10.982-4.011c6.155-1.736,12.451-3.493,18.053-6.71
	c4.855-2.789,8.438-4.475,14.215-5.241c3.593-0.477,4.504,0.181,7.096-1.912c1.582-1.277,3.154-2.5,4.699-3.956
	c2.77-2.609,6.496-5.328,8.248-8.78c4.439-8.745,2.973-16.98,0.509-26.371c-1.566-5.972-3.911-11.321-6.632-16.877
	c-3.308-6.756-6.616-15.256-12.487-20.292c-4.404-3.779-8.569-5.783-13.972-7.527c-5.517-1.781-9.761-4.655-14.616-7.319
	c-5.913-3.245-11.407-6.252-18.03-7.994c-7.617-2.002-15.213-3.181-22.998-4.226c-6.4-0.859-12.807-1.231-19.357-2.242
	c-5.151-0.794-9.616-1.178-14.883-1.164c-2.402,0.006-4.864-0.545-7.225-0.056c-3.318,0.688-6.031,1.793-9.751,1.806"/>
<path fill="#D6BE17" d="M372.75,316.89c7.418,0,15.102,2.134,20.243,8.051c5.368,6.178,8.071,14.004,9.917,21.743
	c1.106,4.644,2.382,9.744,2.839,14.645c0.347,3.719,0.001,7.641,0.001,11.381c0,2.75,0.315,5.713,0,8.444
	c-0.449,3.885-3.059,7.167-4.373,10.798c-2.17,5.994-1.269,14.585-9.433,16.199c-6.911,1.366-8.534-5.669-9.194-10.512
	c-1.474-10.8-2.191-21.52-3.237-32.243c-0.35-3.592-0.102-7.874-0.801-11.463c-0.155-0.799-0.835-1.559-0.962-2.792
	c-0.12-1.169,0.052-2.381,0.006-3.556c-0.08-2.037-0.434-4.611-1.582-6.346c-1.188-1.795-3.852-2.136-4.748-4.392
	c-0.692-1.742-0.537-4.164-0.676-6.005c-0.165-2.181,0.238-3.943,0.763-5.951c0.508-1.946-0.204-5.419,0.987-7"/>
<path fill="#D6BE17" d="M423,488.89c2.208,6.127,0.333,16.409,0.333,23.025c0,8.408,0,16.817,0,25.226c0,8.073-0.73,16.526,0,24.564
	c0.31,3.41,1.656,7.21,4.642,8.869c4.148,2.304,8.326-0.576,11.915-2.86c7.353-4.68,5.889-13.327,7.118-21.065
	c0.565-3.557,0.627-7.675,0.659-11.185c0.044-4.87,0.019-7.419-2.675-11.165c-0.981-1.365-2.137-2.693-2.666-4.401
	c-0.649-2.095-0.258-3.358-1.409-5.081c-1.833-2.74-4.387-5.449-5.591-8.335c-2.813-6.748-4.478-14.382-12.326-17.258"/>
<text transform="matrix(1 0 0 1 276.6675 86.2783)" fill="#4A2D8D" stroke="#4A2D8D" stroke-width="2" stroke-miterlimit="10" font-family="'YouYuan'" font-size="15">TTF-1</text>
<text transform="matrix(1.2031 0 0 1 211.6606 246.2241)" fill="#4A2D8D" stroke="#4A2D8D" stroke-width="2" stroke-miterlimit="10" font-family="'YouYuan'" font-size="21">PDCD4</text>
<text transform="matrix(1 0 0 1 288.0015 246.2241)" fill="#4A2D8D" stroke="#4A2D8D" stroke-width="2" stroke-miterlimit="10" font-family="'YouYuan'" font-size="21">SOX2</text>
<text transform="matrix(1 0 0 1 351.334 246.2241)" fill="#4A2D8D" stroke="#4A2D8D" stroke-width="2" stroke-miterlimit="10" font-family="'YouYuan'" font-size="21">ETS1</text>
<text transform="matrix(1 0 0 1 370.7129 275.2734)" fill="#4A2D8D" stroke="#4A2D8D" stroke-width="2" stroke-miterlimit="10" font-family="'YouYuan'" font-size="21">NFkB</text>
<text transform="matrix(1 0 0 1 251.3335 99.2231)" fill="#4A2D8D" stroke="#4A2D8D" stroke-width="2" stroke-miterlimit="10" font-family="'YouYuan'" font-size="15">P63</text>
<text transform="matrix(1 0 0 1 300.7617 127.8896)" fill="#4A2D8D" stroke="#4A2D8D" stroke-width="2" stroke-miterlimit="10" font-family="'YouYuan'" font-size="15">CYP2E1</text>
<text transform="matrix(1 0 0 1 298.4736 113.2231)" fill="#4A2D8D" stroke="#4A2D8D" stroke-width="2" stroke-miterlimit="10" font-family="'YouYuan'" font-size="15">BATF</text>
<text transform="matrix(1 0 0 1 245.3335 113.2231)" fill="#4A2D8D" stroke="#4A2D8D" stroke-width="2" stroke-miterlimit="10" font-family="'YouYuan'" font-size="15">BCL11a</text>
<text transform="matrix(1 0 0 1 279.4995 99.2231)" fill="#4A2D8D" stroke="#4A2D8D" stroke-width="2" stroke-miterlimit="10" font-family="'YouYuan'" font-size="15">IRF4</text>
<text transform="matrix(1 0 0 1 312 99.2231)" fill="#4A2D8D" stroke="#4A2D8D" stroke-width="2" stroke-miterlimit="10" font-family="'YouYuan'" font-size="15">PAX5</text>
<text transform="matrix(1 0 0 1 304.8301 200.5566)" fill="#4A2D8D" stroke="#4A2D8D" stroke-miterlimit="10" font-family="'YouYuan'" font-size="15">MPO</text>
<text transform="matrix(1.1389 0 0 1 150.0005 579.2212)" fill="#4A2D8D" stroke="#4A2D8D" stroke-miterlimit="10" font-family="'YouYuan'" font-size="15">PR3</text>
<text transform="matrix(1 0 0 1 298.4736 161.2236)" fill="#4A2D8D" stroke="#4A2D8D" stroke-width="2" stroke-miterlimit="10" font-family="'YouYuan'" font-size="15">CD34</text>
<text transform="matrix(1 0 0 1 251.3335 161.2236)" fill="#4A2D8D" stroke="#4A2D8D" stroke-width="2" stroke-miterlimit="10" font-family="'YouYuan'" font-size="15">MALT1</text>
<text transform="matrix(1 0 0 1 251.3335 143.8901)" fill="#4A2D8D" stroke="#4A2D8D" stroke-width="2" stroke-miterlimit="10" font-family="'YouYuan'" font-size="15">SOX2</text>
<text transform="matrix(1 0 0 1 292.001 146.5566)" fill="#4A2D8D" stroke="#4A2D8D" stroke-width="2" stroke-miterlimit="10" font-family="'YouYuan'" font-size="15">NANOG</text>
<text transform="matrix(1 0 0 1 257.333 177.2236)" fill="#4A2D8D" stroke="#4A2D8D" stroke-width="2" stroke-miterlimit="10" font-family="'YouYuan'" font-size="15">GATA4</text>
<text transform="matrix(1 0 0 1 257.333 195.2231)" fill="#4A2D8D" stroke="#4A2D8D" stroke-width="2" stroke-miterlimit="10" font-family="'YouYuan'" font-size="15">NKX2.5</text>
<text transform="matrix(1 0 0 1 300.7617 177.2236)" fill="#4A2D8D" stroke="#4A2D8D" stroke-width="2" stroke-miterlimit="10" font-family="'YouYuan'" font-size="15">TCF8</text>
<text transform="matrix(1 0 0 1 279.499 217.2231)" fill="#4A2D8D" stroke="#4A2D8D" stroke-width="2" stroke-miterlimit="10" font-family="'YouYuan'" font-size="15">PPARGC1A</text>
<text transform="matrix(1 0 0 1 199.9995 375.1255)" fill="#4A2D8D" stroke="#4A2D8D" stroke-width="2" stroke-miterlimit="10" font-family="'YouYuan'" font-size="15">TCF8</text>
<text transform="matrix(1 0 0 1 257.333 127.8896)" fill="#4A2D8D" stroke="#4A2D8D" stroke-width="2" stroke-miterlimit="10" font-family="'YouYuan'" font-size="15">HAND1</text>
<text transform="matrix(1 0 0 1 432.2324 579.2222)" fill="#4A2D8D" stroke="#4A2D8D" stroke-miterlimit="10" font-family="'YouYuan'" font-size="15">C1q</text>
<text transform="matrix(1 0 0 1 189.5 356.5566)" fill="#4A2D8D" stroke="#4A2D8D" stroke-width="2" stroke-miterlimit="10" font-family="'YouYuan'" font-size="15">Etv1</text>
<text transform="matrix(1 0 0 1 197 269.8901)" fill="#4A2D8D" stroke="#4A2D8D" stroke-width="2" stroke-miterlimit="10" font-family="'YouYuan'" font-size="21">FK506</text>
<text transform="matrix(1 0 0 1 342.334 299.0215)" fill="#4A2D8D" stroke="#4A2D8D" stroke-width="2" stroke-miterlimit="10" font-family="'YouYuan'" font-size="21">FOXO3a</text>
<text transform="matrix(1 0 0 1 181.9995 425.2241)" fill="#4A2D8D" stroke="#4A2D8D" stroke-width="2" stroke-miterlimit="10" font-family="'YouYuan'" font-size="21">CD24</text>
<text transform="matrix(1 0 0 1 259.999 269.8901)" fill="#4A2D8D" stroke="#4A2D8D" stroke-width="2" stroke-miterlimit="10" font-family="'YouYuan'" font-size="21">ZEB1</text>
<text transform="matrix(1 0 0 1 197 302.4614)" fill="#4A2D8D" stroke="#4A2D8D" stroke-width="2" stroke-miterlimit="10" font-family="'YouYuan'" font-size="30">ZEB2</text>
<text transform="matrix(1 0 0 1 272.667 337.2231)" fill="#4A2D8D" stroke="#4A2D8D" stroke-width="2" stroke-miterlimit="10" font-family="'YouYuan'" font-size="30">OCT4</text>
<text transform="matrix(1 0 0 1 192.333 337.2231)" fill="#4A2D8D" stroke="#4A2D8D" stroke-width="2" stroke-miterlimit="10" font-family="'YouYuan'" font-size="30">NANOG</text>
<text transform="matrix(1 0 0 1 342.334 337.2231)" fill="#4A2D8D" stroke="#4A2D8D" stroke-width="2" stroke-miterlimit="10" font-family="'YouYuan'" font-size="30">SALL4</text>
<text transform="matrix(1 0 0 1 268 307.7949)" fill="#4A2D8D" stroke="#4A2D8D" stroke-width="2" stroke-miterlimit="10" font-family="'YouYuan'" font-size="30">SOX17</text>
<text transform="matrix(1 0 0 1 232.6665 359.2451)" fill="#4A2D8D" stroke="#4A2D8D" stroke-width="2" stroke-miterlimit="10" font-family="'YouYuan'" font-size="21">GATA4</text>
<text transform="matrix(1 0 0 1 232.6665 383.2451)" fill="#4A2D8D" stroke="#4A2D8D" stroke-width="2" stroke-miterlimit="10" font-family="'YouYuan'" font-size="21">CD38</text>
<text transform="matrix(1 0 0 1 297.6406 359.2451)" fill="#4A2D8D" stroke="#4A2D8D" stroke-width="2" stroke-miterlimit="10" font-family="'YouYuan'" font-size="21">HLA-DR</text>
<text transform="matrix(1 0 0 1 283.9995 383.2451)" fill="#4A2D8D" stroke="#4A2D8D" stroke-width="2" stroke-miterlimit="10" font-family="'YouYuan'" font-size="21">Nurr1</text>
<text transform="matrix(1 0 0 1 315.501 408.3242)" fill="#4A2D8D" stroke="#4A2D8D" stroke-width="2" stroke-miterlimit="10" font-family="'YouYuan'" font-size="21">Pitx3</text>
<text transform="matrix(1 0 0 1 245.3335 407.6099)" fill="#4A2D8D" stroke="#4A2D8D" stroke-width="2" stroke-miterlimit="10" font-family="'YouYuan'" font-size="21">Lmx1a</text>
<text transform="matrix(1 0 0 1 388.3076 443.8901)" fill="#4A2D8D" stroke="#4A2D8D" stroke-width="2" stroke-miterlimit="10" font-family="'YouYuan'" font-size="21">Ngn2</text>
<text transform="matrix(1 0 0 1 383.4961 362.6069)" fill="#4A2D8D" stroke="#4A2D8D" stroke-width="2" stroke-miterlimit="10" font-family="'YouYuan'" font-size="21">SRF</text>
<text transform="matrix(1 0 0 1 292.0015 428.5581)" fill="#4A2D8D" stroke="#4A2D8D" stroke-width="2" stroke-miterlimit="10" font-family="'YouYuan'" font-size="21">Snail</text>
<text transform="matrix(1 0 0 1 315.501 269.8901)" fill="#4A2D8D" stroke="#4A2D8D" stroke-width="2" stroke-miterlimit="10" font-family="'YouYuan'" font-size="21">MGMT</text>
<text transform="matrix(1 0 0 1 236.0005 433.8901)" fill="#4A2D8D" stroke="#4A2D8D" stroke-width="2" stroke-miterlimit="10" font-family="'YouYuan'" font-size="21">SMAD1</text>
<text transform="matrix(1 0 0 1 330.667 447.8901)" fill="#4A2D8D" stroke="#4A2D8D" stroke-width="2" stroke-miterlimit="10" font-family="'YouYuan'" font-size="21">PKP3</text>
<text transform="matrix(1 0 0 1 268 455.2241)" fill="#4A2D8D" stroke="#4A2D8D" stroke-width="2" stroke-miterlimit="10" font-family="'YouYuan'" font-size="21">NF-kB</text>
<text transform="matrix(1 0 0 1 227.3335 474.8228)" fill="#4A2D8D" stroke="#4A2D8D" stroke-width="2" stroke-miterlimit="10" font-family="'YouYuan'" font-size="21">COX-2</text>
<text transform="matrix(1 0 0 1 304.8301 474.8228)" fill="#4A2D8D" stroke="#4A2D8D" stroke-width="2" stroke-miterlimit="10" font-family="'YouYuan'" font-size="21">Blimp-1</text>
<text transform="matrix(1 0 0 1 219.4756 494.5552)" fill="#4A2D8D" stroke="#4A2D8D" stroke-width="2" stroke-miterlimit="10" font-family="'YouYuan'" font-size="21">Snail</text>
<text transform="matrix(1 0 0 1 279.4995 494.5552)" fill="#4A2D8D" stroke="#4A2D8D" stroke-width="2" stroke-miterlimit="10" font-family="'YouYuan'" font-size="21">FBXL5</text>
<text transform="matrix(1 0 0 1 338 494.5552)" fill="#4A2D8D" stroke="#4A2D8D" stroke-width="2" stroke-miterlimit="10" font-family="'YouYuan'" font-size="21">MEN1</text>
<text transform="matrix(1 0 0 1 211.6606 523.8882)" fill="#4A2D8D" stroke="#4A2D8D" stroke-width="2" stroke-miterlimit="10" font-family="'YouYuan'" font-size="30">MAFA</text>
<text transform="matrix(1 0 0 1 263.333 549.231)" fill="#4A2D8D" stroke="#4A2D8D" stroke-width="2" stroke-miterlimit="10" font-family="'YouYuan'" font-size="30">Gck</text>
<text transform="matrix(1 0 0 1 292.0015 523.8882)" fill="#4A2D8D" stroke="#4A2D8D" stroke-width="2" stroke-miterlimit="10" font-family="'YouYuan'" font-size="30">Slc2a2</text>
<text transform="matrix(1 0 0 1 185.4556 398.5547)" fill="#4A2D8D" stroke="#4A2D8D" stroke-width="2" stroke-miterlimit="10" font-family="'YouYuan'" font-size="21">Cck</text>
<text transform="matrix(1 0 0 1 214.0005 549.231)" fill="#4A2D8D" stroke="#4A2D8D" stroke-width="2" stroke-miterlimit="10" font-family="'YouYuan'" font-size="21">ZEB1</text>
<text transform="matrix(1 0 0 1 330.667 546.5542)" fill="#4A2D8D" stroke="#4A2D8D" stroke-width="2" stroke-miterlimit="10" font-family="'YouYuan'" font-size="21">SOX2</text>
<text transform="matrix(1 0 0 1 304.8301 568.5562)" fill="#4A2D8D" stroke="#4A2D8D" stroke-width="2" stroke-miterlimit="10" font-family="'YouYuan'" font-size="21">TTF-1</text>
<text transform="matrix(1 0 0 1 358.666 583.2231)" fill="#4A2D8D" stroke="#4A2D8D" stroke-width="2" stroke-miterlimit="10" font-family="'YouYuan'" font-size="21">P63</text>
<text transform="matrix(1 0 0 1 388.3076 405.2236)" fill="#4A2D8D" stroke="#4A2D8D" stroke-width="2" stroke-miterlimit="10" font-family="'YouYuan'" font-size="21">PR3</text>
<text transform="matrix(1 0 0 1 308.667 598.52)" fill="#4A2D8D" stroke="#4A2D8D" stroke-width="2" stroke-miterlimit="10" font-family="'YouYuan'" font-size="21">PDCD4</text>
<text transform="matrix(1 0 0 1 214.0005 576.5552)" fill="#4A2D8D" stroke="#4A2D8D" stroke-width="2" stroke-miterlimit="10" font-family="'YouYuan'" font-size="21">PPARGC1A</text>
<text transform="matrix(1 0 0 1 251.3335 598.52)" fill="#4A2D8D" stroke="#4A2D8D" stroke-width="2" stroke-miterlimit="10" font-family="'YouYuan'" font-size="21">Etv1</text>
<text transform="matrix(1 0 0 1 223.3335 615.8853)" fill="#4A2D8D" stroke="#4A2D8D" stroke-width="2" stroke-miterlimit="10" font-family="'YouYuan'" font-size="21">OCT4</text>
<text transform="matrix(1 0 0 1 338 615.8853)" fill="#4A2D8D" stroke="#4A2D8D" stroke-width="2" stroke-miterlimit="10" font-family="'YouYuan'" font-size="21">MNX1</text>
<text transform="matrix(1 0 0 1 251.3335 633.8853)" fill="#4A2D8D" stroke="#4A2D8D" stroke-width="2" stroke-miterlimit="10" font-family="'YouYuan'" font-size="21">PAX4</text>
<text transform="matrix(1 0 0 1 176.6665 439.8853)" fill="#4A2D8D" stroke="#4A2D8D" stroke-miterlimit="10" font-family="'YouYuan'" font-size="15">HHEX</text>
<text transform="matrix(1 0 0 1 181.9995 455.2241)" fill="#4A2D8D" stroke="#4A2D8D" stroke-miterlimit="10" font-family="'YouYuan'" font-size="15">MNX1</text>
<text transform="matrix(1 0 0 1 376.999 383.2451)" fill="#4A2D8D" stroke="#4A2D8D" stroke-width="2" stroke-miterlimit="10" font-family="'YouYuan'" font-size="15">MNX1</text>
<text transform="matrix(1 0 0 1 417.2227 562.6392)" fill="#4A2D8D" stroke="#4A2D8D" stroke-miterlimit="10" font-family="'YouYuan'" font-size="15">MNX1</text>
<text transform="matrix(1 0 0 1 419.8887 549.231)" fill="#4A2D8D" stroke="#4A2D8D" stroke-miterlimit="10" font-family="'YouYuan'" font-size="15">HHEX</text>
<text transform="matrix(1.1389 0 0 1 435.3379 534.7017)" fill="#4A2D8D" stroke="#4A2D8D" stroke-miterlimit="10" font-family="'YouYuan'" font-size="15">PR3</text>
<text transform="matrix(1 0 0 1 155.3335 562.6401)" fill="#4A2D8D" stroke="#4A2D8D" stroke-miterlimit="10" font-family="'YouYuan'" font-size="15">TTF-1</text>
<text transform="matrix(1 0 0 1 388.3066 425.2241)" fill="#4A2D8D" stroke="#4A2D8D" stroke-width="2" stroke-miterlimit="10" font-family="'YouYuan'" font-size="15">CD34</text>
<text transform="matrix(1 0 0 1 173.1401 468.1558)" fill="#4A2D8D" stroke="#4A2D8D" stroke-miterlimit="10" font-family="'YouYuan'" font-size="15">CD34</text>
<text transform="matrix(1 0 0 1 392.668 461.2241)" fill="#4A2D8D" stroke="#4A2D8D" stroke-width="2" stroke-miterlimit="10" font-family="'YouYuan'" font-size="15">TCF8</text>
<text transform="matrix(1 0 0 1 173.1401 481.8901)" fill="#4A2D8D" stroke="#4A2D8D" stroke-miterlimit="10" font-family="'YouYuan'" font-size="15">TCF8</text>
<text transform="matrix(1 0 0 1 400.4736 474.8228)" fill="#4A2D8D" stroke="#4A2D8D" stroke-miterlimit="10" font-family="'YouYuan'" font-size="15">BATF</text>
<text transform="matrix(1 0 0 1 166.4736 514.5562)" fill="#4A2D8D" stroke="#4A2D8D" stroke-miterlimit="10" font-family="'YouYuan'" font-size="15">BATF</text>
<text transform="matrix(1 0 0 1 173.1401 497.2222)" fill="#4A2D8D" stroke="#4A2D8D" stroke-miterlimit="10" font-family="'YouYuan'" font-size="15">C1q</text>
<text transform="matrix(1 0 0 1 141.4971 540.5562)" fill="#4A2D8D" stroke="#4A2D8D" stroke-miterlimit="10" font-family="'YouYuan'" font-size="15">MPO</text>
<text transform="matrix(1 0 0 1 417.2227 504.5562)" fill="#4A2D8D" stroke="#4A2D8D" stroke-miterlimit="10" font-family="'YouYuan'" font-size="15">MPO</text>
<text transform="matrix(1 0 0 1 166.4736 540.5562)" fill="#4A2D8D" stroke="#4A2D8D" stroke-width="2" stroke-miterlimit="10" font-family="'YouYuan'" font-size="15">SOX2</text>
<text transform="matrix(1 0 0 1 411.666 524.2495)" fill="#4A2D8D" stroke="#4A2D8D" stroke-miterlimit="10" font-family="'YouYuan'" font-size="15">SOX2</text>
<text transform="matrix(1 0 0 1 312 625.2231)" fill="#4A2D8D" stroke="#4A2D8D" stroke-width="2" stroke-miterlimit="10" font-family="'YouYuan'" font-size="15">SOX2</text>
<text transform="matrix(1 0 0 1 241.3335 698.4312)" fill="#4A2D8D" stroke="#4A2D8D" stroke-width="2" stroke-miterlimit="10" font-family="'YouYuan'" font-size="15">SOX2</text>
<text transform="matrix(1 0 0 1 342.334 637.2241)" fill="#4A2D8D" stroke="#4A2D8D" stroke-width="2" stroke-miterlimit="10" font-family="'YouYuan'" font-size="15">Etv1</text>
<text transform="matrix(1 0 0 1 263.333 681.8901)" fill="#4A2D8D" stroke="#4A2D8D" stroke-width="2" stroke-miterlimit="10" font-family="'YouYuan'" font-size="15">Etv1</text>
<text transform="matrix(1 0 0 1 219.4756 593.9722)" fill="#4A2D8D" stroke="#4A2D8D" stroke-width="2" stroke-miterlimit="10" font-family="'YouYuan'" font-size="15">MNX1</text>
<text transform="matrix(1 0 0 1 241.3335 670.6392)" fill="#4A2D8D" stroke="#4A2D8D" stroke-miterlimit="10" font-family="'YouYuan'" font-size="15">MNX1</text>
<text transform="matrix(1 0 0 1 308.668 644.7925)" fill="#4A2D8D" stroke="#4A2D8D" stroke-width="2" stroke-miterlimit="10" font-family="'YouYuan'" font-size="15">TCF8</text>
<text transform="matrix(1 0 0 1 338 655.5796)" fill="#4A2D8D" stroke="#4A2D8D" stroke-width="2" stroke-miterlimit="10" font-family="'YouYuan'" font-size="15">MNX1</text>
<text transform="matrix(1 0 0 1 333.666 698.4312)" fill="#4A2D8D" stroke="#4A2D8D" stroke-width="2" stroke-miterlimit="10" font-family="'YouYuan'" font-size="15">MNX1</text>
<text transform="matrix(1 0 0 1 268 661.1567)" fill="#4A2D8D" stroke="#4A2D8D" stroke-width="2" stroke-miterlimit="10" font-family="'YouYuan'" font-size="15">BATF</text>
<text transform="matrix(1 0 0 1 312 686.4897)" fill="#4A2D8D" stroke="#4A2D8D" stroke-miterlimit="10" font-family="'YouYuan'" font-size="15">BATF</text>
<text transform="matrix(1 0 0 1 241.3335 649.8228)" fill="#4A2D8D" stroke="#4A2D8D" stroke-width="2" stroke-miterlimit="10" font-family="'YouYuan'" font-size="15">BATF</text>
<text transform="matrix(1 0 0 1 321.8066 670.6392)" fill="#4A2D8D" stroke="#4A2D8D" stroke-width="2" stroke-miterlimit="10" font-family="'YouYuan'" font-size="15">BATF</text>
</svg>
