<?xml version="1.0" encoding="utf-8"?>
<!-- Generator: Adobe Illustrator 16.0.0, SVG Export Plug-In . SVG Version: 6.00 Build 0)  -->
<!DOCTYPE svg PUBLIC "-//W3C//DTD SVG 1.1//EN" "http://www.w3.org/Graphics/SVG/1.1/DTD/svg11.dtd">
<svg version="1.1" id="图层_1" xmlns="http://www.w3.org/2000/svg" xmlns:xlink="http://www.w3.org/1999/xlink" x="0px" y="0px"
	 width="595.28px" height="841.89px" viewBox="0 0 595.28 841.89" enable-background="new 0 0 595.28 841.89" xml:space="preserve">
<rect x="66.5" y="303" fill="#FFFFFF" stroke="#000000" stroke-miterlimit="10" width="482" height="233"/>
<g>
	<g>
		
			<ellipse fill="none" stroke="#040000" stroke-miterlimit="10" stroke-dasharray="10.1166,10.1166" cx="293.046" cy="406.633" rx="124.594" ry="66.688"/>
	</g>
	<path fill="none" d="M208.085,408.999"/>
	<g>
		<g>
			<g>
				<defs>
					<rect id="SVGID_1_" x="111.819" y="410.272" width="16.902" height="17.271"/>
				</defs>
				<clipPath id="SVGID_2_">
					<use xlink:href="#SVGID_1_"  overflow="visible"/>
				</clipPath>
				<path clip-path="url(#SVGID_2_)" fill="#121C3B" d="M112.57,422.232c-0.863-2.192-1.008-4.032-0.24-6.569
					c0.577-1.891,1.344-2.835,2.929-3.731c0.336-0.197,1.775-0.944,2.016-1.045c1.728-0.894,3.022-0.744,5.086,0.101
					c0.959,0.397,1.057,0.448,1.392,0.547c1.583,0.448,2.976,2.091,3.743,3.731c0.095,0.149,0.145,0.301,0.288,0.547
					c0.047,0.099,0.047,0.099,0.097,0.149c0.526,1.096,0.768,1.739,0.815,2.787c0.144,1.99-2.399,6.716-4.608,7.96
					c-2.254,1.244-6.765,1.047-8.205-0.248C114.441,425.314,113.147,423.723,112.57,422.232L112.57,422.232z M113.482,421.883
					c0.526,1.293,1.679,2.785,3.022,3.932c1.104,0.992,5.231,1.191,7.15,0.102c1.872-1.048,4.224-5.377,4.079-7.018
					c-0.048-0.898-0.24-1.443-0.72-2.438c-0.048-0.101-0.048-0.101-0.096-0.152c-0.144-0.248-0.192-0.397-0.289-0.595
					c-0.625-1.445-1.872-2.886-3.118-3.235c-0.385-0.101-0.528-0.149-1.536-0.597c-1.824-0.797-2.88-0.894-4.271-0.147
					c-0.289,0.147-1.68,0.843-2.016,1.045c-1.393,0.792-1.968,1.488-2.496,3.131C112.57,418.301,112.715,419.891,113.482,421.883
					L113.482,421.883z"/>
			</g>
		</g>
		<path fill="#9F69A3" d="M120.488,422.678c1.856,0,3.36-1.559,3.36-3.48c0-1.925-1.504-3.483-3.36-3.483
			c-1.855,0-3.359,1.559-3.359,3.483c0,0.92,0.355,1.807,0.984,2.462C118.743,422.313,119.598,422.678,120.488,422.678
			L120.488,422.678z"/>
	</g>
	<g>
		<g>
			<g>
				<defs>
					<rect id="SVGID_3_" x="106.056" y="431.199" width="16.901" height="17.27"/>
				</defs>
				<clipPath id="SVGID_4_">
					<use xlink:href="#SVGID_3_"  overflow="visible"/>
				</clipPath>
				<path clip-path="url(#SVGID_4_)" fill="#121C3B" d="M106.807,443.158c-0.864-2.191-1.01-4.029-0.24-6.568
					c0.576-1.891,1.344-2.836,2.928-3.729c0.335-0.201,1.775-0.947,2.016-1.047c1.728-0.896,3.023-0.746,5.087,0.1
					c0.958,0.396,1.056,0.447,1.392,0.549c1.583,0.449,2.975,2.09,3.744,3.73c0.094,0.148,0.144,0.301,0.287,0.547
					c0.048,0.102,0.048,0.102,0.097,0.148c0.527,1.098,0.768,1.738,0.815,2.787c0.144,1.99-2.399,6.715-4.608,7.959
					c-2.254,1.244-6.765,1.047-8.205-0.248C108.677,446.242,107.382,444.65,106.807,443.158L106.807,443.158z M107.718,442.809
					c0.527,1.293,1.681,2.785,3.023,3.932c1.105,0.992,5.231,1.191,7.151,0.102c1.872-1.049,4.223-5.375,4.079-7.018
					c-0.049-0.896-0.239-1.441-0.721-2.438c-0.047-0.102-0.047-0.102-0.095-0.148c-0.144-0.248-0.192-0.398-0.288-0.6
					c-0.625-1.441-1.873-2.885-3.119-3.234c-0.383-0.1-0.526-0.146-1.536-0.596c-1.823-0.797-2.88-0.895-4.27-0.148
					c-0.29,0.148-1.68,0.844-2.017,1.047c-1.393,0.795-1.968,1.49-2.495,3.133C106.807,439.227,106.95,440.82,107.718,442.809
					L107.718,442.809z"/>
			</g>
		</g>
		<path fill="#9F69A3" d="M114.724,443.607c1.855,0,3.359-1.563,3.359-3.484c0-1.92-1.503-3.482-3.359-3.482
			c-1.854,0-3.359,1.563-3.359,3.482c0,0.924,0.354,1.809,0.984,2.463C112.979,443.238,113.833,443.607,114.724,443.607
			L114.724,443.607z"/>
	</g>
	<g>
		<g>
			<g>
				<defs>
					<rect id="SVGID_5_" x="141.199" y="436.547" width="16.903" height="17.271"/>
				</defs>
				<clipPath id="SVGID_6_">
					<use xlink:href="#SVGID_5_"  overflow="visible"/>
				</clipPath>
				<path clip-path="url(#SVGID_6_)" fill="#121C3B" d="M141.95,448.508c-0.864-2.191-1.008-4.033-0.241-6.568
					c0.577-1.891,1.345-2.834,2.93-3.73c0.334-0.201,1.774-0.947,2.015-1.047c1.729-0.895,3.024-0.744,5.086,0.1
					c0.959,0.4,1.056,0.451,1.393,0.551c1.583,0.447,2.976,2.088,3.743,3.73c0.095,0.148,0.144,0.301,0.287,0.547
					c0.048,0.1,0.048,0.1,0.098,0.146c0.526,1.098,0.768,1.74,0.815,2.787c0.143,1.99-2.399,6.719-4.608,7.959
					c-2.254,1.248-6.766,1.047-8.204-0.246C143.822,451.592,142.526,450,141.95,448.508L141.95,448.508z M142.862,448.156
					c0.526,1.297,1.68,2.785,3.024,3.932c1.104,0.996,5.229,1.195,7.148,0.104c1.872-1.047,4.224-5.375,4.078-7.016
					c-0.047-0.898-0.238-1.443-0.72-2.438c-0.045-0.102-0.045-0.102-0.095-0.152c-0.145-0.248-0.192-0.396-0.289-0.598
					c-0.623-1.441-1.871-2.883-3.119-3.232c-0.384-0.102-0.527-0.148-1.534-0.598c-1.825-0.797-2.881-0.896-4.271-0.148
					c-0.289,0.148-1.68,0.846-2.016,1.047c-1.394,0.793-1.968,1.49-2.496,3.133C141.95,444.578,142.096,446.168,142.862,448.156
					L142.862,448.156z"/>
			</g>
		</g>
		<path fill="#9F69A3" d="M149.868,448.955c1.855,0,3.359-1.559,3.359-3.482s-1.504-3.484-3.359-3.484
			c-1.854,0-3.36,1.563-3.36,3.484c0,0.922,0.355,1.809,0.985,2.463C148.124,448.588,148.978,448.955,149.868,448.955
			L149.868,448.955z"/>
	</g>
	<g>
		<g>
			<g>
				<defs>
					<rect id="SVGID_7_" x="128.721" y="440.32" width="16.901" height="17.27"/>
				</defs>
				<clipPath id="SVGID_8_">
					<use xlink:href="#SVGID_7_"  overflow="visible"/>
				</clipPath>
				<path clip-path="url(#SVGID_8_)" fill="#121C3B" d="M129.472,452.281c-0.864-2.191-1.01-4.029-0.24-6.568
					c0.576-1.893,1.344-2.836,2.928-3.729c0.335-0.199,1.775-0.947,2.016-1.045c1.728-0.896,3.024-0.748,5.087,0.098
					c0.958,0.396,1.056,0.449,1.392,0.549c1.583,0.449,2.975,2.09,3.744,3.73c0.094,0.148,0.143,0.301,0.287,0.547
					c0.048,0.1,0.048,0.1,0.098,0.146c0.526,1.098,0.767,1.74,0.815,2.787c0.143,1.99-2.399,6.717-4.608,7.959
					c-2.254,1.246-6.766,1.049-8.205-0.248C131.343,455.365,130.047,453.771,129.472,452.281L129.472,452.281z M130.383,451.932
					c0.527,1.293,1.681,2.783,3.024,3.932c1.104,0.992,5.23,1.191,7.15,0.102c1.872-1.049,4.224-5.375,4.077-7.018
					c-0.048-0.896-0.237-1.443-0.72-2.439c-0.046-0.1-0.046-0.1-0.094-0.148c-0.146-0.248-0.193-0.396-0.289-0.598
					c-0.624-1.441-1.872-2.887-3.12-3.234c-0.383-0.1-0.527-0.146-1.534-0.596c-1.824-0.797-2.881-0.896-4.271-0.148
					c-0.29,0.148-1.681,0.844-2.017,1.045c-1.393,0.795-1.968,1.492-2.495,3.135C129.472,448.35,129.616,449.941,130.383,451.932
					L130.383,451.932z"/>
			</g>
		</g>
		<path fill="#9F69A3" d="M137.39,452.729c1.854,0,3.358-1.561,3.358-3.482s-1.504-3.484-3.358-3.484
			c-1.855,0-3.36,1.563-3.36,3.484c0,0.922,0.354,1.809,0.984,2.461C135.646,452.361,136.498,452.729,137.39,452.729L137.39,452.729
			z"/>
	</g>
	<g>
		<g>
			<g>
				<defs>
					<rect id="SVGID_9_" x="102.906" y="450.045" width="16.902" height="17.27"/>
				</defs>
				<clipPath id="SVGID_10_">
					<use xlink:href="#SVGID_9_"  overflow="visible"/>
				</clipPath>
				<path clip-path="url(#SVGID_10_)" fill="#121C3B" d="M103.657,462.004c-0.864-2.193-1.009-4.031-0.24-6.57
					c0.576-1.889,1.345-2.834,2.929-3.729c0.335-0.201,1.774-0.947,2.016-1.047c1.727-0.895,3.022-0.744,5.086,0.1
					c0.958,0.4,1.056,0.447,1.391,0.549c1.584,0.449,2.977,2.088,3.743,3.73c0.095,0.152,0.145,0.301,0.288,0.547
					c0.048,0.102,0.048,0.102,0.097,0.148c0.526,1.1,0.768,1.74,0.815,2.787c0.144,1.992-2.399,6.717-4.608,7.959
					c-2.253,1.248-6.766,1.049-8.205-0.246C105.529,465.088,104.233,463.494,103.657,462.004L103.657,462.004z M104.569,461.654
					c0.527,1.293,1.68,2.785,3.023,3.932c1.105,0.994,5.23,1.193,7.15,0.102c1.872-1.047,4.224-5.375,4.079-7.016
					c-0.047-0.898-0.24-1.441-0.72-2.439c-0.047-0.1-0.047-0.1-0.095-0.148c-0.144-0.248-0.192-0.396-0.288-0.598
					c-0.624-1.443-1.872-2.885-3.119-3.232c-0.384-0.102-0.527-0.148-1.535-0.598c-1.825-0.799-2.88-0.896-4.271-0.15
					c-0.289,0.15-1.68,0.848-2.016,1.047c-1.394,0.795-1.968,1.49-2.496,3.135C103.657,458.072,103.802,459.664,104.569,461.654
					L104.569,461.654z"/>
			</g>
		</g>
		<path fill="#9F69A3" d="M111.575,462.451c1.855,0,3.359-1.559,3.359-3.48c0-1.926-1.504-3.484-3.359-3.484
			c-1.854,0-3.36,1.561-3.36,3.484c0,0.92,0.354,1.807,0.984,2.461C109.83,462.084,110.685,462.451,111.575,462.451L111.575,462.451
			z"/>
	</g>
	<g>
		<g>
			<g>
				<defs>
					<rect id="SVGID_11_" x="86.005" y="419.486" width="16.901" height="17.27"/>
				</defs>
				<clipPath id="SVGID_12_">
					<use xlink:href="#SVGID_11_"  overflow="visible"/>
				</clipPath>
				<path clip-path="url(#SVGID_12_)" fill="#121C3B" d="M86.756,431.447c-0.862-2.195-1.008-4.033-0.239-6.572
					c0.576-1.889,1.344-2.833,2.928-3.729c0.335-0.2,1.773-0.947,2.016-1.045c1.728-0.896,3.023-0.744,5.086,0.099
					c0.959,0.397,1.058,0.448,1.392,0.549c1.584,0.448,2.975,2.088,3.744,3.729c0.095,0.148,0.145,0.301,0.288,0.547
					c0.048,0.101,0.048,0.101,0.098,0.148c0.524,1.1,0.766,1.742,0.813,2.787c0.146,1.99-2.398,6.717-4.607,7.959
					c-2.253,1.248-6.766,1.049-8.205-0.246C88.627,434.527,87.332,432.934,86.756,431.447L86.756,431.447z M87.667,431.094
					c0.527,1.295,1.681,2.785,3.024,3.932c1.104,0.994,5.23,1.195,7.148,0.102c1.873-1.045,4.226-5.373,4.081-7.016
					c-0.048-0.896-0.24-1.443-0.72-2.439c-0.048-0.098-0.048-0.098-0.096-0.148c-0.145-0.248-0.193-0.397-0.288-0.598
					c-0.625-1.443-1.873-2.884-3.119-3.235c-0.384-0.099-0.526-0.147-1.535-0.595c-1.824-0.797-2.88-0.896-4.271-0.149
					c-0.289,0.149-1.681,0.845-2.017,1.045c-1.392,0.795-1.968,1.49-2.496,3.134C86.756,427.512,86.9,429.105,87.667,431.094
					L87.667,431.094z"/>
			</g>
		</g>
		<path fill="#9F69A3" d="M94.674,431.891c1.856,0,3.36-1.561,3.36-3.48c0-1.924-1.504-3.484-3.36-3.484
			c-1.854,0-3.359,1.563-3.359,3.484c0,0.922,0.354,1.809,0.983,2.461C92.93,431.525,93.783,431.891,94.674,431.891L94.674,431.891z
			"/>
	</g>
	<g>
		<g>
			<g>
				<defs>
					<rect id="SVGID_13_" x="124.808" y="419.486" width="16.901" height="17.27"/>
				</defs>
				<clipPath id="SVGID_14_">
					<use xlink:href="#SVGID_13_"  overflow="visible"/>
				</clipPath>
				<path clip-path="url(#SVGID_14_)" fill="#121C3B" d="M125.559,431.447c-0.864-2.195-1.01-4.033-0.24-6.572
					c0.576-1.889,1.344-2.833,2.928-3.729c0.335-0.2,1.775-0.947,2.017-1.045c1.727-0.894,3.022-0.744,5.086,0.099
					c0.958,0.397,1.055,0.448,1.391,0.549c1.583,0.448,2.976,2.088,3.743,3.729c0.095,0.148,0.144,0.301,0.288,0.547
					c0.048,0.101,0.048,0.101,0.096,0.148c0.527,1.1,0.769,1.742,0.816,2.787c0.144,1.99-2.4,6.717-4.609,7.959
					c-2.253,1.248-6.765,1.049-8.205-0.246C127.43,434.527,126.134,432.934,125.559,431.447L125.559,431.447z M126.47,431.094
					c0.526,1.295,1.68,2.785,3.022,3.932c1.105,0.994,5.231,1.195,7.151,0.102c1.872-1.045,4.223-5.373,4.078-7.016
					c-0.049-0.896-0.24-1.441-0.721-2.439c-0.046-0.098-0.046-0.098-0.094-0.148c-0.145-0.248-0.192-0.397-0.289-0.598
					c-0.624-1.443-1.872-2.884-3.119-3.235c-0.383-0.099-0.527-0.147-1.535-0.595c-1.825-0.797-2.881-0.896-4.271-0.149
					c-0.289,0.149-1.68,0.845-2.017,1.045c-1.392,0.795-1.968,1.49-2.495,3.134C125.559,427.512,125.702,429.105,126.47,431.094
					L126.47,431.094z"/>
			</g>
		</g>
		<path fill="#9F69A3" d="M133.477,431.891c1.854,0,3.358-1.561,3.358-3.479c0-1.926-1.504-3.486-3.358-3.486
			c-1.856,0-3.36,1.563-3.36,3.486c0,0.92,0.355,1.807,0.984,2.461C131.731,431.525,132.585,431.891,133.477,431.891
			L133.477,431.891z"/>
	</g>
	<g>
		<g>
			<g>
				<defs>
					<rect id="SVGID_15_" x="111.432" y="465.996" width="16.901" height="17.27"/>
				</defs>
				<clipPath id="SVGID_16_">
					<use xlink:href="#SVGID_15_"  overflow="visible"/>
				</clipPath>
				<path clip-path="url(#SVGID_16_)" fill="#121C3B" d="M112.183,477.957c-0.864-2.191-1.009-4.033-0.24-6.568
					c0.577-1.891,1.344-2.836,2.928-3.73c0.335-0.197,1.775-0.945,2.015-1.047c1.729-0.895,3.024-0.744,5.087,0.102
					c0.959,0.398,1.056,0.449,1.392,0.547c1.584,0.449,2.975,2.092,3.744,3.732c0.095,0.148,0.144,0.301,0.288,0.547
					c0.047,0.098,0.047,0.098,0.097,0.148c0.526,1.096,0.767,1.738,0.814,2.787c0.144,1.988-2.399,6.717-4.608,7.959
					c-2.254,1.244-6.765,1.049-8.205-0.25C114.054,481.041,112.758,479.447,112.183,477.957L112.183,477.957z M113.095,477.607
					c0.526,1.293,1.68,2.783,3.023,3.932c1.104,0.992,5.23,1.191,7.15,0.102c1.872-1.049,4.224-5.377,4.079-7.018
					c-0.048-0.898-0.239-1.443-0.721-2.438c-0.047-0.102-0.047-0.102-0.094-0.15c-0.144-0.248-0.193-0.398-0.289-0.596
					c-0.625-1.445-1.873-2.887-3.119-3.234c-0.383-0.104-0.526-0.15-1.536-0.598c-1.823-0.799-2.88-0.895-4.27-0.146
					c-0.289,0.146-1.68,0.842-2.016,1.045c-1.394,0.793-1.969,1.488-2.496,3.131C112.183,474.025,112.326,475.615,113.095,477.607
					L113.095,477.607z"/>
			</g>
		</g>
		<path fill="#9F69A3" d="M120.1,478.402c1.855,0,3.359-1.559,3.359-3.48c0-1.924-1.503-3.482-3.359-3.482
			c-1.854,0-3.359,1.559-3.359,3.482c0,0.92,0.354,1.807,0.984,2.461C118.355,478.037,119.209,478.402,120.1,478.402L120.1,478.402z
			"/>
	</g>
	<g>
		<g>
			<g>
				<defs>
					<rect id="SVGID_17_" x="128.938" y="457.361" width="16.901" height="17.27"/>
				</defs>
				<clipPath id="SVGID_18_">
					<use xlink:href="#SVGID_17_"  overflow="visible"/>
				</clipPath>
				<path clip-path="url(#SVGID_18_)" fill="#121C3B" d="M129.689,469.32c-0.864-2.193-1.009-4.031-0.24-6.57
					c0.576-1.889,1.344-2.832,2.928-3.73c0.335-0.199,1.775-0.945,2.017-1.045c1.728-0.895,3.022-0.744,5.086,0.1
					c0.959,0.396,1.055,0.447,1.391,0.549c1.584,0.449,2.977,2.09,3.744,3.729c0.095,0.15,0.143,0.303,0.288,0.549
					c0.048,0.102,0.048,0.102,0.096,0.148c0.528,1.1,0.77,1.742,0.817,2.787c0.143,1.99-2.4,6.715-4.609,7.959
					c-2.253,1.248-6.765,1.047-8.205-0.246C131.561,472.402,130.265,470.809,129.689,469.32L129.689,469.32z M130.601,468.969
					c0.526,1.293,1.68,2.785,3.023,3.932c1.105,0.994,5.23,1.193,7.15,0.102c1.872-1.045,4.223-5.375,4.078-7.018
					c-0.048-0.896-0.239-1.439-0.721-2.438c-0.045-0.1-0.045-0.1-0.094-0.148c-0.145-0.248-0.192-0.398-0.289-0.6
					c-0.624-1.441-1.872-2.883-3.12-3.234c-0.383-0.1-0.526-0.146-1.533-0.596c-1.826-0.797-2.882-0.895-4.271-0.148
					c-0.289,0.148-1.68,0.846-2.016,1.047c-1.394,0.795-1.969,1.49-2.496,3.133C129.689,465.387,129.833,466.98,130.601,468.969
					L130.601,468.969z"/>
			</g>
		</g>
		<path fill="#9F69A3" d="M137.607,469.766c1.854,0,3.358-1.561,3.358-3.48c0-1.924-1.504-3.484-3.358-3.484
			c-1.856,0-3.36,1.563-3.36,3.484c0,0.922,0.354,1.807,0.984,2.463C135.862,469.4,136.716,469.766,137.607,469.766L137.607,469.766
			z"/>
	</g>
	<g>
		<g>
			<g>
				<defs>
					<rect id="SVGID_19_" x="444.072" y="363.625" width="17.572" height="17.954"/>
				</defs>
				<clipPath id="SVGID_20_">
					<use xlink:href="#SVGID_19_"  overflow="visible"/>
				</clipPath>
				<path clip-path="url(#SVGID_20_)" fill="#121C3B" d="M444.853,376.06c-0.898-2.281-1.05-4.191-0.249-6.832
					c0.6-1.963,1.396-2.945,3.044-3.877c0.348-0.208,1.846-0.984,2.096-1.087c1.796-0.929,3.144-0.774,5.287,0.103
					c0.997,0.416,1.099,0.466,1.447,0.571c1.646,0.466,3.093,2.171,3.893,3.876c0.098,0.158,0.148,0.314,0.298,0.569
					c0.05,0.104,0.05,0.104,0.103,0.155c0.547,1.143,0.797,1.811,0.848,2.898c0.15,2.07-2.495,6.982-4.791,8.273
					c-2.345,1.299-7.035,1.09-8.53-0.254C446.797,379.266,445.451,377.608,444.853,376.06L444.853,376.06z M445.799,375.693
					c0.548,1.346,1.747,2.895,3.146,4.088c1.147,1.033,5.438,1.242,7.434,0.105c1.945-1.088,4.393-5.588,4.239-7.293
					c-0.049-0.936-0.247-1.501-0.748-2.538c-0.048-0.103-0.048-0.103-0.098-0.155c-0.15-0.258-0.201-0.414-0.302-0.621
					c-0.647-1.5-1.945-2.998-3.242-3.361c-0.398-0.105-0.55-0.155-1.597-0.621c-1.896-0.828-2.995-0.932-4.439-0.155
					c-0.3,0.155-1.745,0.88-2.097,1.087c-1.447,0.826-2.046,1.551-2.595,3.258C444.853,371.969,445.003,373.625,445.799,375.693
					L445.799,375.693z"/>
			</g>
		</g>
		<path fill="none" stroke="#706F6F" stroke-width="2" stroke-miterlimit="10" stroke-dasharray="6" d="M453.084,376.523
			c1.929,0,3.494-1.62,3.494-3.618c0-2.002-1.565-3.625-3.494-3.625c-1.928,0-3.493,1.623-3.493,3.625
			c0,0.956,0.369,1.877,1.024,2.559C451.271,376.143,452.157,376.523,453.084,376.523L453.084,376.523z"/>
	</g>
	<g>
		<g>
			<g>
				<defs>
					<rect id="SVGID_21_" x="423.233" y="376.668" width="17.571" height="17.953"/>
				</defs>
				<clipPath id="SVGID_22_">
					<use xlink:href="#SVGID_21_"  overflow="visible"/>
				</clipPath>
				<path clip-path="url(#SVGID_22_)" fill="#121C3B" d="M424.012,389.103c-0.896-2.281-1.048-4.191-0.249-6.832
					c0.6-1.963,1.397-2.945,3.043-3.877c0.35-0.207,1.847-0.984,2.098-1.086c1.795-0.93,3.143-0.774,5.288,0.102
					c0.996,0.414,1.097,0.467,1.445,0.572c1.646,0.465,3.095,2.17,3.893,3.876c0.099,0.155,0.147,0.313,0.299,0.569
					c0.051,0.104,0.051,0.104,0.101,0.154c0.55,1.143,0.8,1.811,0.85,2.898c0.148,2.068-2.495,6.982-4.792,8.273
					c-2.343,1.298-7.032,1.09-8.53-0.255C425.958,392.305,424.611,390.65,424.012,389.103L424.012,389.103z M424.961,388.736
					c0.547,1.345,1.746,2.895,3.145,4.088c1.148,1.033,5.438,1.242,7.434,0.104c1.946-1.087,4.391-5.587,4.24-7.296
					c-0.05-0.932-0.249-1.497-0.749-2.534c-0.047-0.103-0.047-0.103-0.099-0.155c-0.149-0.258-0.199-0.413-0.3-0.621
					c-0.648-1.5-1.945-2.998-3.244-3.363c-0.396-0.103-0.548-0.152-1.595-0.619c-1.897-0.828-2.995-0.932-4.44-0.154
					c-0.302,0.154-1.746,0.879-2.097,1.086c-1.446,0.827-2.046,1.551-2.594,3.259C424.012,385.012,424.162,386.668,424.961,388.736
					L424.961,388.736z"/>
			</g>
		</g>
		<path fill="#62B2B3" d="M432.245,389.566c1.929,0,3.492-1.623,3.492-3.619c0-2.001-1.563-3.624-3.492-3.624
			c-1.93,0-3.494,1.623-3.494,3.624c0,0.956,0.37,1.878,1.023,2.56C430.43,389.186,431.318,389.566,432.245,389.566L432.245,389.566
			z"/>
	</g>
	<g>
		<g>
			<g>
				<defs>
					<rect id="SVGID_23_" x="448.464" y="380.269" width="17.572" height="17.955"/>
				</defs>
				<clipPath id="SVGID_24_">
					<use xlink:href="#SVGID_23_"  overflow="visible"/>
				</clipPath>
				<path clip-path="url(#SVGID_24_)" fill="#121C3B" d="M449.246,392.703c-0.898-2.278-1.049-4.192-0.251-6.829
					c0.602-1.966,1.397-2.948,3.046-3.88c0.348-0.205,1.846-0.981,2.095-1.087c1.798-0.929,3.146-0.773,5.288,0.105
					c0.998,0.413,1.099,0.466,1.446,0.568c1.647,0.466,3.093,2.174,3.892,3.88c0.102,0.155,0.15,0.313,0.302,0.568
					c0.049,0.103,0.049,0.103,0.1,0.155c0.548,1.14,0.798,1.809,0.847,2.897c0.15,2.068-2.494,6.982-4.791,8.274
					c-2.343,1.295-7.032,1.09-8.527-0.258C451.191,395.908,449.844,394.253,449.246,392.703L449.246,392.703z M450.193,392.34
					c0.548,1.345,1.747,2.895,3.145,4.087c1.147,1.031,5.438,1.239,7.435,0.105c1.945-1.09,4.391-5.591,4.24-7.296
					c-0.051-0.934-0.251-1.5-0.749-2.534c-0.051-0.105-0.051-0.105-0.1-0.158c-0.148-0.258-0.201-0.413-0.3-0.618
					c-0.65-1.503-1.947-3.001-3.242-3.363c-0.399-0.105-0.549-0.155-1.597-0.621c-1.897-0.829-2.995-0.93-4.44-0.153
					c-0.301,0.153-1.747,0.877-2.096,1.087c-1.448,0.824-2.047,1.548-2.595,3.256C449.246,388.615,449.396,390.27,450.193,392.34
					L450.193,392.34z"/>
			</g>
		</g>
		<path fill="#9F69A3" d="M457.478,393.167c1.929,0,3.491-1.62,3.491-3.619c0-2.001-1.563-3.621-3.491-3.621
			s-3.493,1.62-3.493,3.621c0,0.957,0.369,1.878,1.023,2.56C455.664,392.786,456.55,393.167,457.478,393.167L457.478,393.167z"/>
	</g>
	
		<line fill="none" stroke="#706F6F" stroke-width="2" stroke-miterlimit="10" stroke-dasharray="6" x1="143.507" y1="414.823" x2="172.698" y2="388.246"/>
	
		<line fill="none" stroke="#706F6F" stroke-width="2" stroke-miterlimit="10" stroke-dasharray="6" x1="157.807" y1="445.055" x2="196.654" y2="452.516"/>
	<g>
		<g>
			<g>
				<defs>
					<rect id="SVGID_25_" x="471.188" y="378.438" width="17.571" height="17.955"/>
				</defs>
				<clipPath id="SVGID_26_">
					<use xlink:href="#SVGID_25_"  overflow="visible"/>
				</clipPath>
				<path clip-path="url(#SVGID_26_)" fill="#121C3B" d="M471.967,390.873c-0.896-2.279-1.049-4.19-0.25-6.83
					c0.602-1.966,1.397-2.947,3.045-3.877c0.349-0.207,1.847-0.984,2.097-1.087c1.796-0.932,3.144-0.776,5.287,0.103
					c0.995,0.414,1.098,0.467,1.446,0.571c1.646,0.466,3.094,2.171,3.893,3.877c0.098,0.155,0.149,0.313,0.299,0.568
					c0.05,0.105,0.05,0.105,0.101,0.155c0.55,1.14,0.799,1.809,0.85,2.898c0.147,2.068-2.495,6.981-4.791,8.273
					c-2.345,1.295-7.034,1.09-8.53-0.258C473.913,394.078,472.565,392.422,471.967,390.873L471.967,390.873z M472.916,390.509
					c0.548,1.345,1.746,2.895,3.145,4.087c1.147,1.032,5.438,1.239,7.433,0.105c1.946-1.09,4.392-5.587,4.242-7.296
					c-0.052-0.932-0.25-1.5-0.749-2.534c-0.049-0.104-0.049-0.104-0.101-0.155c-0.148-0.258-0.199-0.413-0.3-0.621
					c-0.648-1.5-1.945-3-3.242-3.363c-0.398-0.104-0.549-0.152-1.597-0.619c-1.896-0.828-2.994-0.932-4.44-0.154
					c-0.301,0.154-1.744,0.876-2.095,1.086c-1.449,0.826-2.046,1.551-2.596,3.259C471.967,386.784,472.117,388.441,472.916,390.509
					L472.916,390.509z"/>
			</g>
		</g>
		<path fill="#EB9D30" stroke="#706F6F" stroke-miterlimit="10" stroke-dasharray="6" d="M480.199,391.337
			c1.93,0,3.494-1.622,3.494-3.621c0-1.998-1.564-3.621-3.494-3.621c-1.929,0-3.492,1.623-3.492,3.621
			c0,0.959,0.368,1.881,1.023,2.56C478.385,390.956,479.274,391.337,480.199,391.337L480.199,391.337z"/>
	</g>
	<g>
		<g>
			<g>
				<defs>
					<rect id="SVGID_27_" x="466.793" y="400.055" width="17.572" height="17.954"/>
				</defs>
				<clipPath id="SVGID_28_">
					<use xlink:href="#SVGID_27_"  overflow="visible"/>
				</clipPath>
				<path clip-path="url(#SVGID_28_)" fill="#121C3B" d="M467.573,412.488c-0.897-2.278-1.049-4.189-0.25-6.829
					c0.601-1.966,1.396-2.948,3.045-3.877c0.348-0.208,1.846-0.983,2.096-1.087c1.796-0.932,3.145-0.776,5.287,0.104
					c0.996,0.412,1.099,0.465,1.447,0.57c1.646,0.466,3.093,2.172,3.892,3.877c0.099,0.155,0.15,0.313,0.299,0.568
					c0.051,0.105,0.051,0.105,0.102,0.155c0.549,1.14,0.798,1.808,0.849,2.897c0.148,2.068-2.495,6.982-4.791,8.275
					c-2.345,1.295-7.033,1.089-8.529-0.258C469.519,415.694,468.171,414.04,467.573,412.488L467.573,412.488z M468.521,412.125
					c0.548,1.346,1.746,2.896,3.144,4.088c1.148,1.031,5.438,1.24,7.433,0.105c1.946-1.09,4.393-5.588,4.242-7.295
					c-0.051-0.932-0.25-1.501-0.749-2.535c-0.049-0.105-0.049-0.105-0.1-0.155c-0.149-0.258-0.2-0.413-0.3-0.621
					c-0.649-1.5-1.946-3.001-3.242-3.363c-0.399-0.103-0.549-0.153-1.597-0.618c-1.896-0.83-2.994-0.932-4.44-0.156
					c-0.301,0.156-1.745,0.877-2.095,1.088c-1.449,0.826-2.046,1.55-2.597,3.258C467.573,408.402,467.722,410.058,468.521,412.125
					L468.521,412.125z"/>
			</g>
		</g>
		<path fill="#C89797" stroke="#706F6F" stroke-miterlimit="10" stroke-dasharray="2" d="M475.804,412.956
			c1.931,0,3.494-1.623,3.494-3.621c0-1.999-1.563-3.622-3.494-3.622c-1.929,0-3.491,1.623-3.491,3.622
			c0,0.959,0.367,1.88,1.022,2.559C473.99,412.572,474.88,412.956,475.804,412.956L475.804,412.956z"/>
	</g>
	<g>
		<g>
			<g>
				<defs>
					<rect id="SVGID_29_" x="448.238" y="401.534" width="17.572" height="17.954"/>
				</defs>
				<clipPath id="SVGID_30_">
					<use xlink:href="#SVGID_29_"  overflow="visible"/>
				</clipPath>
				<path clip-path="url(#SVGID_30_)" fill="#121C3B" d="M449.019,413.969c-0.898-2.281-1.05-4.191-0.249-6.832
					c0.6-1.963,1.396-2.945,3.044-3.877c0.348-0.208,1.846-0.984,2.096-1.087c1.796-0.929,3.144-0.774,5.287,0.103
					c0.997,0.416,1.099,0.466,1.447,0.571c1.646,0.466,3.093,2.171,3.893,3.876c0.098,0.158,0.148,0.314,0.298,0.569
					c0.05,0.104,0.05,0.104,0.103,0.155c0.547,1.143,0.797,1.811,0.848,2.898c0.15,2.07-2.495,6.982-4.791,8.273
					c-2.345,1.299-7.035,1.09-8.53-0.254C450.964,417.175,449.617,415.519,449.019,413.969L449.019,413.969z M449.965,413.604
					c0.548,1.346,1.747,2.895,3.146,4.088c1.147,1.033,5.438,1.242,7.434,0.105c1.945-1.088,4.393-5.588,4.239-7.293
					c-0.049-0.936-0.247-1.501-0.748-2.538c-0.048-0.103-0.048-0.103-0.098-0.155c-0.15-0.258-0.201-0.414-0.302-0.621
					c-0.647-1.5-1.945-2.998-3.242-3.361c-0.398-0.105-0.55-0.155-1.597-0.621c-1.896-0.828-2.995-0.932-4.439-0.155
					c-0.301,0.155-1.745,0.88-2.097,1.087c-1.447,0.826-2.046,1.551-2.595,3.258C449.019,409.879,449.169,411.536,449.965,413.604
					L449.965,413.604z"/>
			</g>
		</g>
		<path fill="none" stroke="#706F6F" stroke-width="2" stroke-miterlimit="10" stroke-dasharray="6" d="M457.25,414.434
			c1.929,0,3.494-1.62,3.494-3.618c0-2.002-1.565-3.625-3.494-3.625c-1.928,0-3.493,1.623-3.493,3.625
			c0,0.956,0.369,1.877,1.024,2.559C455.438,414.052,456.323,414.434,457.25,414.434L457.25,414.434z"/>
	</g>
	<g>
		<g>
			<g>
				<defs>
					<rect id="SVGID_31_" x="457.024" y="413.846" width="17.571" height="17.955"/>
				</defs>
				<clipPath id="SVGID_32_">
					<use xlink:href="#SVGID_31_"  overflow="visible"/>
				</clipPath>
				<path clip-path="url(#SVGID_32_)" fill="#121C3B" d="M457.803,426.281c-0.896-2.281-1.048-4.191-0.249-6.834
					c0.6-1.963,1.397-2.945,3.043-3.877c0.35-0.207,1.847-0.984,2.098-1.086c1.795-0.93,3.143-0.774,5.288,0.102
					c0.996,0.414,1.097,0.467,1.445,0.572c1.646,0.465,3.095,2.17,3.893,3.876c0.099,0.155,0.147,0.313,0.299,0.569
					c0.051,0.104,0.051,0.104,0.101,0.154c0.55,1.143,0.8,1.811,0.85,2.899c0.148,2.068-2.495,6.982-4.792,8.273
					c-2.343,1.297-7.032,1.09-8.53-0.256C459.749,429.484,458.402,427.828,457.803,426.281L457.803,426.281z M458.752,425.916
					c0.547,1.344,1.746,2.895,3.145,4.088c1.148,1.033,5.438,1.242,7.434,0.105c1.946-1.088,4.391-5.588,4.24-7.297
					c-0.05-0.932-0.249-1.498-0.749-2.535c-0.047-0.103-0.047-0.103-0.099-0.155c-0.149-0.258-0.199-0.413-0.3-0.621
					c-0.648-1.5-1.945-2.998-3.244-3.363c-0.396-0.103-0.548-0.152-1.595-0.619c-1.897-0.828-2.995-0.932-4.44-0.154
					c-0.302,0.154-1.746,0.879-2.097,1.086c-1.446,0.827-2.046,1.551-2.594,3.259C457.803,422.19,457.953,423.846,458.752,425.916
					L458.752,425.916z"/>
			</g>
		</g>
		<path fill="#62B2B3" d="M466.036,426.744c1.929,0,3.492-1.623,3.492-3.619c0-2-1.563-3.625-3.492-3.625
			c-1.93,0-3.494,1.623-3.494,3.625c0,0.957,0.37,1.879,1.023,2.561C464.221,426.363,465.109,426.744,466.036,426.744
			L466.036,426.744z"/>
	</g>
	<g>
		<g>
			<g>
				<defs>
					<rect id="SVGID_33_" x="434.385" y="404.854" width="17.572" height="17.955"/>
				</defs>
				<clipPath id="SVGID_34_">
					<use xlink:href="#SVGID_33_"  overflow="visible"/>
				</clipPath>
				<path clip-path="url(#SVGID_34_)" fill="#121C3B" d="M435.166,417.289c-0.896-2.279-1.049-4.19-0.25-6.83
					c0.602-1.966,1.397-2.947,3.045-3.877c0.349-0.207,1.846-0.984,2.096-1.087c1.797-0.932,3.145-0.776,5.287,0.103
					c0.996,0.414,1.099,0.467,1.447,0.571c1.646,0.466,3.093,2.171,3.893,3.877c0.098,0.155,0.149,0.313,0.299,0.568
					c0.05,0.105,0.05,0.105,0.101,0.155c0.549,1.14,0.798,1.809,0.849,2.898c0.148,2.068-2.494,6.981-4.79,8.273
					c-2.346,1.294-7.034,1.089-8.53-0.258C437.111,420.494,435.763,418.838,435.166,417.289L435.166,417.289z M436.114,416.925
					c0.548,1.345,1.746,2.895,3.144,4.087c1.148,1.033,5.438,1.24,7.434,0.105c1.945-1.09,4.392-5.587,4.242-7.296
					c-0.052-0.932-0.25-1.5-0.749-2.534c-0.05-0.104-0.05-0.104-0.101-0.155c-0.148-0.258-0.2-0.413-0.3-0.621
					c-0.649-1.5-1.946-3-3.242-3.363c-0.398-0.104-0.549-0.152-1.597-0.619c-1.896-0.828-2.994-0.932-4.44-0.154
					c-0.301,0.154-1.745,0.876-2.095,1.086c-1.449,0.826-2.046,1.551-2.596,3.259C435.166,413.2,435.315,414.857,436.114,416.925
					L436.114,416.925z"/>
			</g>
		</g>
		<path fill="#EB9D30" stroke="#706F6F" stroke-miterlimit="10" stroke-dasharray="6" d="M443.397,417.753
			c1.93,0,3.493-1.622,3.493-3.621c0-1.998-1.563-3.621-3.493-3.621s-3.492,1.623-3.492,3.621c0,0.959,0.368,1.881,1.022,2.56
			C441.583,417.372,442.472,417.753,443.397,417.753L443.397,417.753z"/>
	</g>
	
		<text transform="matrix(1 0 0 1 431.6133 443.6563)" fill="#040000" stroke="#040000" stroke-miterlimit="10" font-family="'AdobeSongStd-Light-GBpc-EUC-H'" font-size="12">Other cell types</text>
	
		<text transform="matrix(1 0 0 1 96.6396 497.4453)" fill="#040000" stroke="#040000" stroke-miterlimit="10" font-family="'AdobeSongStd-Light-GBpc-EUC-H'" font-size="12">Specific cell types</text>
	<line fill="none" stroke="#706E6F" stroke-width="2" stroke-miterlimit="10" x1="202.386" y1="413.99" x2="375.743" y2="413.846"/>
	<path fill="#158B8A" stroke="#00534E" stroke-miterlimit="10" d="M322.381,419.551c0,3.145-5.893,5.693-13.162,5.693h-35.334
		c-7.268,0-13.163-2.549-13.163-5.693l0,0c0-3.145,5.895-5.693,13.163-5.693h35.334
		C316.486,413.857,322.381,416.406,322.381,419.551L322.381,419.551z"/>
	<g>
		
			<line fill="none" stroke="#706E6F" stroke-width="2" stroke-miterlimit="10" x1="328.052" y1="376.301" x2="328.052" y2="414.298"/>
		<g>
			<g>
				
					<line fill="none" stroke="#706E6F" stroke-width="2" stroke-miterlimit="10" x1="328.052" y1="377.099" x2="342.363" y2="376.888"/>
				<g>
					<polygon fill="#706E6F" points="336.856,384.376 339.893,376.924 336.638,369.565 354.302,376.712 					"/>
				</g>
			</g>
		</g>
	</g>
	
		<text transform="matrix(0.8874 0 0 1 176.8223 415.8569)" fill="#231815" stroke="#231815" stroke-miterlimit="10" font-family="'AdobeSongStd-Light-GBpc-EUC-H'" font-size="10.3562">DNA</text>
	
		<text transform="matrix(0.7419 0 0 1 272.4443 423.0156)" fill="#EDE5E2" stroke="#E8DBD9" stroke-miterlimit="10" font-family="'AdobeSongStd-Light-GBpc-EUC-H'" font-size="12.386">promotor</text>
	<g>
		<g>
			<path fill="none" stroke="#B81C25" stroke-miterlimit="10" d="M311.26,374.875c0.066,3.084-3.56,5.485-5.676,7.326
				c-3.364,2.926-7.946,4.622-11.964,6.932"/>
			<g>
				<polygon fill="#B81C25" points="288.063,393.493 293.537,384.243 294.111,388.909 298.448,390.722 				"/>
			</g>
		</g>
	</g>
	<g>
		<ellipse fill="#8A73AB" cx="363.612" cy="404.853" rx="26.173" ry="9.301"/>
		<text transform="matrix(0.9917 0 0 1 342.8496 407.4883)" fill="#F3EEED" font-family="'DengXian-Bold'" font-size="10.3079">T Marker</text>
	</g>
	<g>
		<ellipse fill="#DF8C76" cx="293.046" cy="404.854" rx="14.104" ry="11.154"/>
		<text transform="matrix(1.1049 0 0 1 285.0044 408.8506)" fill="#F3EEED" font-family="'DengXian-Bold'" font-size="12.8845">TF</text>
	</g>
	<g>
		<path fill="#DC673D" d="M370.397,449.301c0,3.416-5.352,6.186-11.954,6.186h-34.531c-6.604,0-11.955-2.77-11.955-6.186v-10.139
			c0-3.416,5.352-6.186,11.955-6.186h34.531c6.603,0,11.954,2.77,11.954,6.186V449.301z"/>
		<text transform="matrix(0.8744 0 0 1 317.1777 447.6758)" fill="#F5E7E5" font-family="'DengXian-Bold'" font-size="12.4025">TFMarker</text>
	</g>
	<g>
		<ellipse fill="#BA87B4" cx="309.424" cy="363.625" rx="25.502" ry="8.668"/>
		<text transform="matrix(1.0107 0 0 1 288.4399 366.1504)" fill="#F5E9E4" font-family="'DengXian-Bold'" font-size="10.559">I Marker</text>
	</g>
	<g>
		<path fill="#71BECE" d="M285.061,437.434c0,3.857-4.55,6.984-10.161,6.984h-49.122c-5.612,0-10.162-3.127-10.162-6.984v-1.357
			c0-3.857,4.55-6.984,10.162-6.984h49.122c5.611,0,10.161,3.127,10.161,6.984V437.434z"/>
		<text transform="matrix(0.8931 0 0 1 221.001 439.5537)" fill="#F5E9E4" font-family="'DengXian-Bold'" font-size="9.8148">reTrans Marker</text>
	</g>
	<g>
		<path fill="#224491" d="M269.948,382.979c0,3.062-5.619,5.542-12.549,5.542h-36.252c-6.931,0-12.551-2.48-12.551-5.542v-9.082
			c0-3.061,5.62-5.543,12.551-5.543h36.252c6.93,0,12.549,2.482,12.549,5.543V382.979z"/>
		<text transform="matrix(0.8923 0 0 1 213.8984 382.9253)" fill="#F5E7E5" font-family="'DengXian-Bold'" font-size="11.1122">TF Pmarker</text>
	</g>
	<g>
		<path fill="#7185BB" d="M310.842,458.967c0,5.568-11.83,10.082-26.422,10.082c-14.596,0-26.428-4.514-26.428-10.082
			c0-5.566,11.832-10.08,26.428-10.08C299.012,448.887,310.842,453.4,310.842,458.967z"/>
		<text transform="matrix(1.0377 0 0 1 261.9272 462.0557)" fill="#F5E9E4" font-family="'DengXian-Bold'" font-size="10.6005">E Marker</text>
	</g>
</g>
</svg>
