<?xml version="1.0" encoding="utf-8"?>
<!-- Generator: Adobe Illustrator 16.0.0, SVG Export Plug-In . SVG Version: 6.00 Build 0)  -->
<!DOCTYPE svg PUBLIC "-//W3C//DTD SVG 1.1//EN" "http://www.w3.org/Graphics/SVG/1.1/DTD/svg11.dtd">
<svg version="1.1" id="图层_1" xmlns="http://www.w3.org/2000/svg" xmlns:xlink="http://www.w3.org/1999/xlink" x="0px" y="0px"
	 width="595.28px" height="841.89px" viewBox="0 0 595.28 841.89" enable-background="new 0 0 595.28 841.89" xml:space="preserve">
<rect x="130" y="292.808" fill="#FCF8F7" stroke="#000000" stroke-miterlimit="10" width="288" height="134.667"/>
<g>
	<g>
		<path fill="#E7693C" d="M323.793,323.562c0,3.643-6.746,6.596-15.068,6.596h-43.528c-8.321,0-15.068-2.953-15.068-6.596v-10.809
			c0-3.643,6.747-6.596,15.068-6.596h43.528c8.322,0,15.068,2.953,15.068,6.596V323.562z"/>
		<text transform="matrix(1.0337 0 0 1 256.7104 321.8311)" fill="#F6E9E6" font-family="'DengXian-Bold'" font-size="13.2244">TFMarker</text>
	</g>
	<g>
		<path fill="#21489C" d="M382.322,394.402c0,3.643-7.746,6.596-17.301,6.596h-49.979c-9.555,0-17.303-2.953-17.303-6.596v-10.809
			c0-3.643,7.748-6.596,17.303-6.596h49.979c9.555,0,17.301,2.953,17.301,6.596V394.402z"/>
		<text transform="matrix(1.0337 0 0 1 305.0508 394.3379)" fill="#F6E9E6" font-family="'DengXian-Bold'" font-size="13.2244">TF Pmarker</text>
	</g>
	<g>
		<line fill="#EA5514" x1="199.961" y1="345.73" x2="286.961" y2="345.397"/>
		<g>
			<line fill="none" stroke="#E83828" stroke-miterlimit="10" x1="199.961" y1="345.73" x2="279.9" y2="345.425"/>
			<g>
				<polygon fill="#E83828" points="286.961,345.397 277.027,349.501 279.373,345.427 276.996,341.371 				"/>
			</g>
		</g>
	</g>
	<g>
		<line fill="#601986" x1="201.461" y1="354.085" x2="285.461" y2="353.752"/>
		<g>
			<line fill="none" stroke="#601986" stroke-miterlimit="10" x1="207.496" y1="354.061" x2="285.461" y2="353.752"/>
			<g>
				<path fill="#601986" d="M201.461,354.085c2.844,1.042,6.375,2.826,8.566,4.722l-1.739-4.749l1.701-4.762
					C207.813,351.209,204.297,353.021,201.461,354.085z"/>
			</g>
		</g>
	</g>
	<g>
		<ellipse fill="#768BC5" cx="204.628" cy="321.832" rx="31.333" ry="11.971"/>
		<text transform="matrix(1.0362 0 0 1 177.9614 325.498)" fill="#F6EBE7" font-family="'DengXian-Bold'" font-size="12.5873">E Marker</text>
	</g>
	<g>
		<ellipse fill="#C28CBC" cx="266.574" cy="369.085" rx="31.168" ry="10.332"/>
		<text transform="matrix(1.0362 0 0 1 240.9272 372.0957)" fill="#F6EBE7" font-family="'DengXian-Bold'" font-size="12.5873">I Marker</text>
	</g>
	<g>
		<path fill="#73C8D9" d="M258.221,389.869c0,4.945-6.618,8.957-14.78,8.957h-71.439c-8.163,0-14.78-4.012-14.78-8.957v-1.742
			c0-4.947,6.617-8.957,14.78-8.957h71.439c8.162,0,14.78,4.01,14.78,8.957V389.869z"/>
		<text transform="matrix(1.0128 0 0 1 165.0547 392.5869)" fill="#F6EBE7" font-family="'DengXian-Bold'" font-size="12.5873">reTrans Marker</text>
	</g>
	<g>
		<ellipse fill="#9077B4" cx="339.283" cy="350.086" rx="36.5" ry="13.654"/>
		<text transform="matrix(0.9421 0 0 1 308.1094 353.9541)" fill="#F4F0EE" font-family="'DengXian-Bold'" font-size="15.1321">T Marker</text>
	</g>
	<g>
		<ellipse fill="#E89179" cx="176.96" cy="353.752" rx="16.05" ry="13.955"/>
		<text transform="matrix(1.005 0 0 1 167.8101 358.752)" fill="#F4F0EE" font-family="'DengXian-Bold'" font-size="16.119">TF</text>
	</g>
	<g>
		<ellipse fill="#BBD533" cx="188.446" cy="363.739" rx="6.938" ry="7.269"/>
		
			<text transform="matrix(1 0 0 1 185.7783 367.4097)" fill="#060404" stroke="#000000" stroke-miterlimit="10" font-family="'AdobeSongStd-Light-GBpc-EUC-H'" font-size="12">1</text>
	</g>
	<g>
		<ellipse fill="#BBD533" cx="370.667" cy="360.141" rx="6.938" ry="7.269"/>
		
			<text transform="matrix(1 0 0 1 367.8301 363.4751)" stroke="#000000" stroke-miterlimit="10" font-family="'AdobeSongStd-Light-GBpc-EUC-H'" font-size="12">2</text>
	</g>
	<g>
		<ellipse fill="#BBD533" cx="320.657" cy="327.799" rx="6.938" ry="7.269"/>
		
			<text transform="matrix(1 0 0 1 317.8203 331.1333)" stroke="#000000" stroke-miterlimit="10" font-family="'AdobeSongStd-Light-GBpc-EUC-H'" font-size="12">3</text>
	</g>
	<g>
		<ellipse fill="#BBD533" cx="380.63" cy="399.643" rx="6.939" ry="7.269"/>
		
			<text transform="matrix(1 0 0 1 377.7939 402.9771)" stroke="#000000" stroke-miterlimit="10" font-family="'AdobeSongStd-Light-GBpc-EUC-H'" font-size="12">4</text>
	</g>
	<g>
		<ellipse fill="#BBD533" cx="284.124" cy="380.781" rx="6.938" ry="7.268"/>
		
			<text transform="matrix(1 0 0 1 281.2871 384.1147)" stroke="#000000" stroke-miterlimit="10" font-family="'AdobeSongStd-Light-GBpc-EUC-H'" font-size="12">5</text>
	</g>
	<g>
		<ellipse fill="#BBD533" cx="251.282" cy="400.998" rx="6.939" ry="7.268"/>
		
			<text transform="matrix(1 0 0 1 248.4453 404.3311)" stroke="#000000" stroke-miterlimit="10" font-family="'AdobeSongStd-Light-GBpc-EUC-H'" font-size="12">6</text>
	</g>
	<g>
		<ellipse fill="#BBD533" cx="228.468" cy="333.089" rx="6.939" ry="7.268"/>
		
			<text transform="matrix(1 0 0 1 225.6309 336.4229)" stroke="#000000" stroke-miterlimit="10" font-family="'AdobeSongStd-Light-GBpc-EUC-H'" font-size="12">7</text>
	</g>
</g>
</svg>
