<?xml version="1.0" encoding="utf-8"?>
<!-- Generator: Adobe Illustrator 16.0.0, SVG Export Plug-In . SVG Version: 6.00 Build 0)  -->
<!DOCTYPE svg PUBLIC "-//W3C//DTD SVG 1.1//EN" "http://www.w3.org/Graphics/SVG/1.1/DTD/svg11.dtd">
<svg version="1.1" id="图层_1" xmlns="http://www.w3.org/2000/svg" xmlns:xlink="http://www.w3.org/1999/xlink" x="0px" y="0px"
	 width="595.28px" height="841.89px" viewBox="0 0 595.28 841.89" enable-background="new 0 0 595.28 841.89" xml:space="preserve">
<g>
	<ellipse fill="#E89179" cx="51.998" cy="426.957" rx="14.104" ry="11.154"/>
	<text transform="matrix(1.1049 0 0 1 43.9561 430.9531)" fill="#F4F0EE" font-family="'DengXian-Bold'" font-size="12.8845">TF</text>
</g>
<g>
	<rect x="78" y="418.458" fill="#BBBABA" width="187.182" height="16.997"/>
	
		<text transform="matrix(0.7777 0 0 1 83.7578 430.1953)" fill="#036EB8" stroke="#036EB8" stroke-width="0.5" stroke-miterlimit="10" font-family="'AdobeSongStd-Light-GBpc-EUC-H'" font-size="13.0905">the TF regulate the expression of the markers</text>
</g>
<g>
	<ellipse fill="#BBD533" cx="64.361" cy="436.953" rx="6.938" ry="7.269"/>
	
		<text transform="matrix(1 0 0 1 61.6943 440.624)" fill="#060404" stroke="#000000" stroke-miterlimit="10" font-family="'AdobeSongStd-Light-GBpc-EUC-H'" font-size="12">1</text>
</g>
<ellipse fill="#9077B4" cx="63.535" cy="481.405" rx="26.173" ry="9.301"/>
<text transform="matrix(0.9917 0 0 1 41.1831 484.04)" fill="#F4F0EE" font-family="'DengXian-Bold'" font-size="10.3079">T Marker</text>
<g>
	<rect x="100.866" y="470.999" fill="#C1BFBF" width="209.134" height="17.056"/>
	
		<text transform="matrix(0.7583 0 0 1 103.7109 483.2305)" fill="#085C81" stroke="#0E6598" stroke-width="0.5" stroke-miterlimit="10" font-family="'AdobeSongStd-Light-GBpc-EUC-H'" font-size="12.6734">the expression of the markers  are regulated by the TFs</text>
</g>
<g>
	<ellipse fill="#BBD533" cx="84.12" cy="490.706" rx="6.78" ry="6.458"/>
	
		<text transform="matrix(1.0996 0 0 1 81.3481 493.668)" stroke="#000000" stroke-miterlimit="10" font-family="'AdobeSongStd-Light-GBpc-EUC-H'" font-size="10.6632">2</text>
</g>
<g>
	<path fill="#E7693C" d="M319.468,457.068c0,3.722-5.995,6.739-13.393,6.739h-38.683c-7.396,0-13.393-3.018-13.393-6.739v-11.044
		c0-3.721,5.996-6.738,13.393-6.738h38.683c7.397,0,13.393,3.018,13.393,6.738V457.068z"/>
	<text transform="matrix(0.8992 0 0 1 259.8501 455.2998)" fill="#F6E9E6" font-family="'DengXian-Bold'" font-size="13.5109">TFMarker</text>
</g>
<rect x="325.203" y="443.328" fill="#C1BFBF" width="241.297" height="16.856"/>
<text transform="matrix(0.8559 0 0 1 332.7168 455.2998)" stroke="#000000" stroke-miterlimit="10" font-family="'AdobeSongStd-Light-GBpc-EUC-H'" font-size="14.5096">the TFs are regarded as markers in specific cells</text>
<g>
	<ellipse fill="#BBD533" cx="317.608" cy="463.806" rx="7.773" ry="9.81"/>
	
		<text transform="matrix(0.8302 0 0 1 314.4297 468.3057)" stroke="#000000" stroke-miterlimit="10" font-family="'AdobeSongStd-Light-GBpc-EUC-H'" font-size="16.1922">3</text>
</g>
</svg>
